<svg width="116" height="103" viewBox="0 0 116 103" fill="none" xmlns="http://www.w3.org/2000/svg">
<g id="c2-1">
<path id="Vector" d="M29.4662 59.9596C31.1562 52.7602 26.6898 45.5539 19.4904 43.864C12.291 42.1741 5.08478 46.6404 3.39485 53.8398C1.70492 61.0392 6.17124 68.2454 13.3706 69.9354C20.5701 71.6253 27.7763 67.159 29.4662 59.9596Z" fill="#F7B88D"/>
<path id="Vector_2" d="M112.437 59.9552C114.127 52.7558 109.661 45.5495 102.461 43.8596C95.2617 42.1697 88.0555 46.636 86.3656 53.8354C84.6756 61.0348 89.1419 68.2411 96.3414 69.931C103.541 71.6209 110.747 67.1546 112.437 59.9552Z" fill="#F7B88D"/>
<path id="Vector_3" d="M57.8986 102.816C33.4086 102.816 13.5586 82.9658 13.5586 58.4758V45.6758C13.5586 21.1858 33.5286 7.65576 58.0186 7.65576C82.5086 7.65576 102.239 21.1958 102.239 45.6758V58.4758C102.239 82.9658 82.3886 102.816 57.8986 102.816Z" fill="#FFCD9F"/>
<path id="Vector_4" d="M43.8688 52.8358C43.8688 56.0758 41.3288 58.7058 38.1888 58.7058C35.0488 58.7058 32.5088 56.0758 32.5088 52.8358C32.5088 49.5958 35.0488 46.9658 38.1888 46.9658C41.3288 46.9658 43.8688 49.5958 43.8688 52.8358Z" fill="#442106"/>
<path id="Vector_5" d="M83.2789 52.8358C83.2789 56.0758 80.7389 58.7058 77.5989 58.7058C74.4589 58.7058 71.9189 56.0758 71.9189 52.8358C71.9189 49.5958 74.4589 46.9658 77.5989 46.9658C80.7389 46.9658 83.2789 49.5958 83.2789 52.8358Z" fill="#442106"/>
<path id="Vector_6" d="M57.899 86.9054C50.549 86.9054 43.999 82.2354 41.589 75.2754C41.179 74.0954 41.809 72.7954 42.999 72.3854C44.179 71.9754 45.4791 72.6054 45.8891 73.7954C47.6591 78.9154 52.489 82.3654 57.899 82.3654C63.309 82.3654 68.1391 78.9254 69.9091 73.7954C70.3191 72.6054 71.6191 71.9854 72.7991 72.3854C73.9891 72.7954 74.6091 74.0954 74.1991 75.2754C71.7891 82.2254 65.2391 86.9054 57.8891 86.9054H57.899Z" fill="#9E5747"/>
<path id="Vector_7" d="M94.1585 40.4554C86.8185 34.6654 81.9885 22.7954 81.9885 22.7954C78.5985 23.9254 73.0484 26.3254 57.8984 26.3254C50.7284 26.3254 96.5985 42.3754 94.1585 40.4454V40.4554Z" fill="#FFCD9F"/>
<path id="Vector_8" d="M21.6293 40.4554C28.9693 34.6654 33.7993 22.7954 33.7993 22.7954C37.1893 23.9254 42.7393 26.3254 57.8893 26.3254C65.0593 26.3254 19.1893 42.3754 21.6293 40.4454V40.4554Z" fill="#FFCD9F"/>
<path id="Vector_9" d="M57.8986 0.785645C33.7086 0.785645 14.0186 19.7056 13.0586 43.8656C13.0586 44.0556 13.1386 44.2356 13.2986 44.3456C13.3886 44.4056 13.4986 44.4456 13.6086 44.4456C13.6886 44.4456 13.7586 44.4256 13.8286 44.3956C20.1386 41.5856 27.1786 30.0556 29.6986 24.7356C34.8986 26.4956 42.8186 28.4356 57.8986 28.4356C72.9786 28.4356 80.8986 26.4956 86.0986 24.7356C88.7886 30.4856 95.2686 41.4056 101.969 44.3956C102.139 44.4756 102.339 44.4556 102.499 44.3456C102.659 44.2356 102.749 44.0556 102.739 43.8656C101.779 19.7056 82.0786 0.785645 57.8986 0.785645Z" fill="#683100"/>
</g>
</svg>
