<svg width="118" height="177" viewBox="0 0 118 177" fill="none" xmlns="http://www.w3.org/2000/svg">
<g opacity="0.2">
<path d="M41.725 58.572C41.725 63.3656 45.6114 67.252 50.405 67.252C55.1986 67.252 59.085 63.3656 59.085 58.572C59.085 63.3656 62.9714 67.252 67.765 67.252C72.5586 67.252 76.445 63.3656 76.445 58.572C76.445 63.3656 80.3314 67.252 85.125 67.252C89.9186 67.252 93.805 63.3656 93.805 58.572V131.574H24.2754V42.1528H24.365V58.572C24.365 63.3656 28.2514 67.252 33.0562 67.252C37.861 67.252 41.725 63.3656 41.725 58.572Z" fill="#4E4F54"/>
<path d="M88.5407 42.1528H29.5391V131.574H88.5407V42.1528Z" fill="#F3F3F3"/>
<path d="M59.0846 58.572C59.0846 63.3656 55.1982 67.252 50.4046 67.252C45.611 67.252 41.7246 63.3656 41.7246 58.572V42.1528H59.0846V58.572Z" fill="#C3C3C3"/>
<path d="M93.8053 58.572C93.8053 63.3656 89.9189 67.252 85.1253 67.252C80.3317 67.252 76.4453 63.3656 76.4453 58.572V42.1528H93.8053V58.572Z" fill="#C3C3C3"/>
<path d="M76.445 58.572C76.445 63.3656 72.5586 67.252 67.765 67.252C62.9714 67.252 59.085 63.3656 59.085 58.572V42.1528H76.445V58.572Z" fill="#63676B"/>
<path d="M41.7252 58.572C41.7252 63.3656 37.8388 67.252 33.0564 67.252C28.274 67.252 24.3652 63.3656 24.3652 58.572V42.1528H41.7252V58.572Z" fill="#63676B"/>
<path d="M93.805 131.573V144.028C93.805 147.657 90.837 150.625 87.2082 150.625H30.861C27.2434 150.625 24.2754 147.657 24.2754 144.028V131.573H93.805Z" fill="#4E4F54"/>
<path d="M93.805 31.8826V42.153H24.2754V31.8826C24.2754 28.2538 27.2434 25.2858 30.861 25.2858H87.2082C90.837 25.2858 93.805 28.2538 93.805 31.8826Z" fill="#4E4F54"/>
<path d="M60.5686 79.579L40.041 100.107L41.6249 101.69L62.1525 81.1629L60.5686 79.579Z" fill="white"/>
<path d="M78.9767 78.4896L40.0439 117.422L41.6279 119.006L80.5606 80.0736L78.9767 78.4896Z" fill="white"/>
<path d="M64.7859 36.7095H53.2835C52.3539 36.7095 51.6035 35.9591 51.6035 35.0295C51.6035 34.0999 52.3539 33.3495 53.2835 33.3495H64.7859C65.7155 33.3495 66.4659 34.0999 66.4659 35.0295C66.4659 35.9591 65.7155 36.7095 64.7859 36.7095Z" fill="#EDEDED"/>
<path d="M64.651 140.668C64.651 143.77 62.1311 146.29 59.0287 146.29C55.9263 146.29 53.4062 143.77 53.4062 140.668C53.4062 137.565 55.9263 135.045 59.0287 135.045C62.1311 135.045 64.651 137.565 64.651 140.668Z" fill="#EDEDED"/>
</g>
<g clip-path="url(#clip0_408_45310)">
<path d="M80.5101 174.08C77.7501 174.08 75.0001 173.78 72.3301 173.18L72.9801 170.25C75.4301 170.8 77.9701 171.07 80.5101 171.07C99.4801 171.07 114.92 155.64 114.92 136.66C114.92 133.32 114.44 130.02 113.5 126.84L116.38 125.99C117.4 129.44 117.92 133.03 117.92 136.66C117.92 157.29 101.14 174.07 80.5101 174.07V174.08Z" fill="#AFAFAF"/>
<path d="M78.3 168.96L73.34 171.88L76.27 176.84L72.92 175.97L70 171.01L74.96 168.09L78.3 168.96Z" fill="#AFAFAF"/>
</g>
<g clip-path="url(#clip1_408_45310)">
<path d="M37.4001 2.76016C40.1601 2.76016 42.9101 3.06016 45.5801 3.66016L44.9301 6.59016C42.4801 6.04016 39.9401 5.77016 37.4001 5.77016C18.4301 5.77016 2.99008 21.2002 2.99008 40.1802C2.99008 43.5202 3.47008 46.8202 4.41008 50.0002L1.53008 50.8502C0.510075 47.4002 -0.0099176 43.8102 -0.00991728 40.1802C-0.00991548 19.5502 16.7701 2.77016 37.4001 2.77016L37.4001 2.76016Z" fill="#AFAFAF"/>
<path d="M39.6102 7.88012L44.5702 4.96012L41.6402 0.000121522L44.9902 0.870121L47.9102 5.83012L42.9502 8.75012L39.6102 7.88012Z" fill="#AFAFAF"/>
</g>
<defs>
<clipPath id="clip0_408_45310">
<rect width="47.91" height="50.84" fill="white" transform="translate(70 126)"/>
</clipPath>
<clipPath id="clip1_408_45310">
<rect width="47.91" height="50.84" fill="white" transform="translate(47.9102 50.8401) rotate(-180)"/>
</clipPath>
</defs>
</svg>
