<svg width="121" height="100" viewBox="0 0 121 100" fill="none" xmlns="http://www.w3.org/2000/svg">
<g id="c1-1">
<path id="Vector" d="M28.4055 66.2499C33.6346 61.0208 33.6346 52.5427 28.4055 47.3136C23.1763 42.0845 14.6983 42.0845 9.46914 47.3136C4.24002 52.5427 4.24002 61.0208 9.46914 66.2499C14.6983 71.479 23.1763 71.479 28.4055 66.2499Z" fill="#F7B88D"/>
<path id="Vector_2" d="M118.001 59.6895C119.611 52.4719 115.066 45.3153 107.849 43.7046C100.631 42.0939 93.4743 46.6392 91.8636 53.8567C90.253 61.0743 94.7983 68.231 102.016 69.8417C109.233 71.4523 116.39 66.9071 118.001 59.6895Z" fill="#F7B88D"/>
<path id="Vector_3" d="M61.9396 99.6755C37.4496 99.6755 17.5996 79.8255 17.5996 55.3355V45.5655C17.5996 21.0755 37.2596 8.91553 61.7496 8.91553C86.2396 8.91553 106.28 21.0855 106.28 45.5655V55.3355C106.28 79.8255 86.4296 99.6755 61.9396 99.6755Z" fill="#FFCD9F"/>
<path id="Vector_4" d="M46.3991 52.7255C46.3991 55.9655 43.8591 58.5955 40.7191 58.5955C37.5791 58.5955 35.0391 55.9655 35.0391 52.7255C35.0391 49.4855 37.5791 46.8555 40.7191 46.8555C43.8591 46.8555 46.3991 49.4855 46.3991 52.7255Z" fill="#442106"/>
<path id="Vector_5" d="M88.8395 52.7255C88.8395 55.9655 86.2995 58.5955 83.1595 58.5955C80.0195 58.5955 77.4795 55.9655 77.4795 52.7255C77.4795 49.4855 80.0195 46.8555 83.1595 46.8555C86.2995 46.8555 88.8395 49.4855 88.8395 52.7255Z" fill="#442106"/>
<path id="Vector_6" d="M61.9392 83.7757C54.5892 83.7757 48.0392 79.1057 45.6292 72.1457C45.2192 70.9657 45.8492 69.6657 47.0292 69.2557C48.2192 68.8457 49.5092 69.4757 49.9192 70.6557C51.6892 75.7757 56.5192 79.2257 61.9292 79.2257C67.3392 79.2257 72.1692 75.7857 73.9392 70.6557C74.3492 69.4657 75.6492 68.8457 76.8292 69.2557C78.0192 69.6657 78.6392 70.9557 78.2292 72.1457C75.8292 79.0957 69.2692 83.7757 61.9192 83.7757H61.9392Z" fill="#9E5747"/>
<path id="Vector_7" d="M106.59 40.9355C104.24 17.9855 85.0396 0.685547 61.9396 0.685547C38.8396 0.685547 18.5696 19.1956 17.1396 42.8256C17.1396 42.9756 17.1896 43.1255 17.2896 43.2355C17.3896 43.3456 17.5396 43.4055 17.6896 43.4055C36.2396 43.3155 63.3496 33.3055 75.1696 22.2755C79.3196 29.5255 92.3796 42.8055 106.15 43.2755C106.31 43.2955 106.46 43.2255 106.56 43.1055C106.67 42.9955 106.72 42.8455 106.71 42.6855C106.67 42.1055 106.62 41.5255 106.57 40.9255L106.59 40.9355Z" fill="#683100"/>
</g>
</svg>
