<svg width="138" height="92" viewBox="0 0 138 92" fill="none" xmlns="http://www.w3.org/2000/svg">
<path d="M0.598633 39.3363V82.8003C0.598633 87.4203 4.37863 91.2003 8.99863 91.2003H129.011C133.631 91.2003 137.411 87.4203 137.411 82.8003V39.3363H0.598633Z" fill="#00C0B7"/>
<path d="M137.411 8.40012V18.3361H0.598633V8.40012C0.598633 3.78012 4.37863 0.00012207 8.99863 0.00012207H129.011C133.631 0.00012207 137.411 3.78012 137.411 8.40012Z" fill="#00C0B7"/>
<path d="M111.011 83.1961C119.182 83.1961 125.807 76.5717 125.807 68.4001C125.807 60.2285 119.182 53.6041 111.011 53.6041C102.839 53.6041 96.2148 60.2285 96.2148 68.4001C96.2148 76.5717 102.839 83.1961 111.011 83.1961Z" fill="#F6CF76"/>
<path d="M137.411 18.3363H0.598633V39.3363H137.411V18.3363Z" fill="#40566B"/>
<path d="M25.0545 54.3363H10.8105V57.9363H25.0545V54.3363Z" fill="white"/>
<path d="M45.0712 54.3363H30.8271V57.9363H45.0712V54.3363Z" fill="white"/>
<path d="M65.0868 54.3363H50.8428V57.9363H65.0868V54.3363Z" fill="white"/>
<path d="M85.1034 54.3363H70.8594V57.9363H85.1034V54.3363Z" fill="white"/>
<path d="M57.6346 67.7401H10.8105V71.3401H57.6346V67.7401Z" fill="white"/>
<path d="M29.9265 76.1403H10.8105V79.7403H29.9265V76.1403Z" fill="white"/>
</svg>
