<svg width="119" height="119" viewBox="0 0 119 119" fill="none" xmlns="http://www.w3.org/2000/svg">
<g id="4-2">
<path id="Vector" d="M84.4595 25.2757C84.4595 11.7613 73.504 0.805664 59.9896 0.805664C46.4752 0.805664 35.5195 11.7613 35.5195 25.2757V32.3357C35.5195 45.8501 46.4752 56.8057 59.9896 56.8057C73.504 56.8057 84.4595 45.8501 84.4595 32.3357V25.2757Z" fill="#D8D8D8"/>
<path id="Vector_2" d="M23.4102 84.8695C30.2518 82.0622 33.5221 74.2403 30.7148 67.3988C27.9075 60.5572 20.0856 57.2869 13.2441 60.0942C6.40255 62.9015 3.13222 70.7234 5.93953 77.5649C8.74683 84.4064 16.5687 87.6768 23.4102 84.8695Z" fill="#B6B6B6"/>
<path id="Vector_3" d="M106.38 84.8627C113.222 82.0554 116.492 74.2334 113.685 67.3919C110.877 60.5504 103.055 57.28 96.2139 60.0873C89.3723 62.8946 86.1019 70.7166 88.9093 77.5581C91.7166 84.3996 99.5385 87.67 106.38 84.8627Z" fill="#B6B6B6"/>
<path id="Vector_4" d="M60.6992 118.415C36.2192 118.905 15.9793 99.4554 15.4893 74.9654V61.2854C15.4893 36.8054 35.6993 21.5254 60.1893 21.5254C84.6693 21.5254 104.149 36.8054 104.149 61.2854V73.1954C104.639 97.6754 85.1892 117.915 60.6992 118.405V118.415Z" fill="#D4D4D4"/>
<path id="Vector_5" d="M46.4689 68.4755C46.4689 71.5555 44.049 74.0555 41.069 74.0555C38.089 74.0555 35.6689 71.5555 35.6689 68.4755C35.6689 65.3955 38.089 62.8955 41.069 62.8955C44.049 62.8955 46.4689 65.3955 46.4689 68.4755Z" fill="#404040"/>
<path id="Vector_6" d="M83.9689 68.4755C83.9689 71.5555 81.549 74.0555 78.569 74.0555C75.589 74.0555 73.1689 71.5555 73.1689 68.4755C73.1689 65.3955 75.589 62.8955 78.569 62.8955C81.549 62.8955 83.9689 65.3955 83.9689 68.4755Z" fill="#404040"/>
<path id="Vector_7" d="M59.8193 102.656C52.5193 102.656 45.9793 98.5556 43.5493 92.4456C43.0893 91.2756 43.6493 89.9556 44.8193 89.4956C45.9793 89.0356 47.3093 89.5956 47.7693 90.7656C49.5193 95.1656 54.3593 98.1156 59.8193 98.1156C65.2793 98.1156 70.1193 95.1656 71.8693 90.7656C72.3293 89.5956 73.6593 89.0356 74.8193 89.4956C75.9893 89.9556 76.5593 91.2756 76.0893 92.4456C73.6593 98.5556 67.1193 102.666 59.8193 102.666V102.656Z" fill="#8F8F8F"/>
<path id="Vector_8" d="M40.1487 85.6055C34.8487 89.7855 34.4688 94.1255 34.4688 94.1255L40.1487 85.6055Z" fill="#D4D4D4"/>
<path id="Vector_9" d="M34.4693 96.3958C34.3993 96.3958 34.3393 96.3958 34.2693 96.3958C33.0193 96.2858 32.0893 95.1858 32.1993 93.9358C32.2493 93.3858 32.8293 88.4858 38.7393 83.8258C39.7193 83.0558 41.1493 83.2158 41.9293 84.2058C42.7093 85.1858 42.5393 86.6158 41.5493 87.3958C37.1393 90.8658 36.7293 94.2958 36.7293 94.3258C36.6293 95.5058 35.6393 96.4058 34.4693 96.4058V96.3958Z" fill="#BEBEBE"/>
<path id="Vector_10" d="M79.4893 85.6055C84.7893 89.7855 85.1693 94.1255 85.1693 94.1255L79.4893 85.6055Z" fill="#D4D4D4"/>
<path id="Vector_11" d="M85.1691 96.3956C83.9991 96.3956 83.0091 95.5056 82.9091 94.3156C82.8991 94.2056 82.4491 90.8256 78.0891 87.3856C77.0991 86.6056 76.9391 85.1756 77.7091 84.1956C78.4891 83.2056 79.9091 83.0456 80.8991 83.8156C86.7991 88.4656 87.3892 93.3756 87.4392 93.9256C87.5492 95.1756 86.6292 96.2756 85.3692 96.3856C85.2992 96.3856 85.2391 96.3856 85.1691 96.3856V96.3956Z" fill="#BEBEBE"/>
<path id="Vector_12" d="M59.8193 16.4155C37.5793 16.4155 18.9393 32.3355 15.4893 54.2655C15.4693 54.4255 15.5093 54.5955 15.6193 54.7155C15.7293 54.8355 15.8993 54.9055 16.0493 54.9055C39.2693 54.3655 63.5893 44.0255 74.1593 34.1655C79.4293 43.5455 93.8893 54.5855 103.889 56.7255C103.929 56.7255 103.969 56.7355 103.999 56.7355C104.139 56.7355 104.269 56.6855 104.369 56.5855C104.499 56.4655 104.569 56.2855 104.539 56.1155C101.479 32.7355 83.0893 16.4155 59.8093 16.4155H59.8193Z" fill="#E5E5E5"/>
<path id="Vector_13" d="M34.2593 81.2154C28.9393 81.2154 24.6094 76.8854 24.6094 71.5754V65.9354C24.6094 60.6154 28.9393 56.2954 34.2593 56.2954H45.9794C51.2994 56.2954 55.6194 60.6254 55.6194 65.9354V71.5754C55.6194 76.8954 51.2894 81.2154 45.9794 81.2154H34.2593ZM34.2593 60.3954C31.1993 60.3954 28.7194 62.8854 28.7194 65.9354V71.5754C28.7194 74.6354 31.2093 77.1154 34.2593 77.1154H45.9794C49.0394 77.1154 51.5193 74.6254 51.5193 71.5754V65.9354C51.5193 62.8754 49.0294 60.3954 45.9794 60.3954H34.2593Z" fill="#656565"/>
<path id="Vector_14" d="M73.6595 81.2154C68.3395 81.2154 64.0195 76.8854 64.0195 71.5754V65.9354C64.0195 60.6154 68.3495 56.2954 73.6595 56.2954H85.3796C90.6996 56.2954 95.0195 60.6254 95.0195 65.9354V71.5754C95.0195 76.8954 90.6896 81.2154 85.3796 81.2154H73.6595ZM73.6595 60.3954C70.5995 60.3954 68.1196 62.8854 68.1196 65.9354V71.5754C68.1196 74.6354 70.6095 77.1154 73.6595 77.1154H85.3796C88.4396 77.1154 90.9196 74.6254 90.9196 71.5754V65.9354C90.9196 62.8754 88.4296 60.3954 85.3796 60.3954H73.6595Z" fill="#656565"/>
<path id="Vector_15" d="M53.759 67.9755C52.629 67.9755 51.709 67.0555 51.709 65.9255C51.709 64.7955 52.629 63.8755 53.759 63.8755H66.069C67.199 63.8755 68.119 64.7955 68.119 65.9255C68.119 67.0555 67.199 67.9755 66.069 67.9755H53.759Z" fill="#656565"/>
</g>
</svg>
