<svg width="111" height="103" viewBox="0 0 111 103" fill="none" xmlns="http://www.w3.org/2000/svg">
<g id="3-1">
<path id="Vector" d="M14.3685 70.2756C21.7636 70.2756 27.7585 64.2807 27.7585 56.8856C27.7585 49.4905 21.7636 43.4956 14.3685 43.4956C6.97341 43.4956 0.978516 49.4905 0.978516 56.8856C0.978516 64.2807 6.97341 70.2756 14.3685 70.2756Z" fill="#BEBEBE"/>
<path id="Vector_2" d="M97.3382 70.2756C104.733 70.2756 110.728 64.2807 110.728 56.8856C110.728 49.4905 104.733 43.4956 97.3382 43.4956C89.9431 43.4956 83.9482 49.4905 83.9482 56.8856C83.9482 64.2807 89.9431 70.2756 97.3382 70.2756Z" fill="#BEBEBE"/>
<path id="Vector_3" d="M56.7383 102.806C32.2583 103.296 12.0183 83.8456 11.5283 59.3555V45.6755C11.5283 21.1955 31.4383 6.18555 55.9183 6.18555C80.3983 6.18555 100.178 21.1955 100.178 45.6755V57.5855C100.668 82.0656 81.2183 102.306 56.7283 102.796L56.7383 102.806Z" fill="#D4D4D4"/>
<path id="Vector_4" d="M41.8288 52.8358C41.8288 56.0758 39.2887 58.7058 36.1487 58.7058C33.0087 58.7058 30.4688 56.0758 30.4688 52.8358C30.4688 49.5958 33.0087 46.9658 36.1487 46.9658C39.2887 46.9658 41.8288 49.5958 41.8288 52.8358Z" fill="#484848"/>
<path id="Vector_5" d="M81.2389 52.8358C81.2389 56.0758 78.6989 58.7058 75.5589 58.7058C72.4189 58.7058 69.8789 56.0758 69.8789 52.8358C69.8789 49.5958 72.4189 46.9658 75.5589 46.9658C78.6989 46.9658 81.2389 49.5958 81.2389 52.8358Z" fill="#484848"/>
<path id="Vector_6" d="M55.8591 86.9157C48.5091 86.9157 41.9591 82.2457 39.5491 75.2857C39.1391 74.0957 39.7691 72.8057 40.9491 72.3957C42.1291 71.9857 43.4291 72.6157 43.8391 73.8057C45.6091 78.9257 50.4391 82.3757 55.8491 82.3757C61.2591 82.3757 66.0891 78.9357 67.8591 73.8057C68.2691 72.6157 69.5691 71.9957 70.7491 72.3957C71.9391 72.8057 72.5591 74.1057 72.1591 75.2857C69.7491 82.2357 63.1991 86.9157 55.8491 86.9157H55.8591Z" fill="#959595"/>
<path id="Vector_7" d="M55.8488 0.795645C31.7588 0.795645 12.0688 19.6356 11.0188 43.6856C11.0088 43.9656 11.3088 44.2256 11.5888 44.2656C11.6788 44.2756 11.7788 44.2856 11.8688 44.2856C13.4388 44.2856 14.8088 43.1656 15.1188 41.6256C17.1988 31.3656 23.3588 22.0156 32.0388 15.9056C39.3788 19.6656 47.5988 21.6556 55.8488 21.6556C64.0988 21.6556 72.3288 19.6656 79.6588 15.9056C88.3388 22.0056 94.4988 31.3656 96.5788 41.6256C96.8888 43.1656 98.2588 44.2856 99.8288 44.2856C99.9188 44.2856 100.009 44.2756 100.179 44.2556C100.469 44.2256 100.679 43.9756 100.669 43.6856C99.6188 19.6356 79.9288 0.785645 55.8388 0.785645L55.8488 0.795645Z" fill="#9E9E9E"/>
<path id="Vector_8" d="M32.3587 75.1755C31.9987 75.1755 31.6287 75.0855 31.2887 74.9055C30.1787 74.3155 29.7587 72.9355 30.3587 71.8355C31.4687 69.7455 33.0887 67.8455 33.1587 67.7655C33.9687 66.8155 35.4087 66.7055 36.3587 67.5155C37.3087 68.3255 37.4187 69.7655 36.6087 70.7155C36.5987 70.7355 35.2387 72.3255 34.3587 73.9655C33.9487 74.7355 33.1687 75.1655 32.3487 75.1655L32.3587 75.1755Z" fill="#ABABAB"/>
<path id="Vector_9" d="M79.3582 75.1754C78.5482 75.1754 77.7581 74.7354 77.3481 73.9754C76.6181 72.6054 75.4781 71.1654 75.0981 70.7254C74.2781 69.7754 74.3881 68.3354 75.3481 67.5254C76.2981 66.7054 77.7382 66.8154 78.5482 67.7754C78.6182 67.8554 80.2381 69.7554 81.3481 71.8454C81.9381 72.9554 81.5182 74.3254 80.4182 74.9154C80.0782 75.0954 79.7081 75.1854 79.3481 75.1854L79.3582 75.1754Z" fill="#ABABAB"/>
</g>
</svg>
