<svg width="24" height="25" viewBox="0 0 24 25" fill="none" xmlns="http://www.w3.org/2000/svg">
<path fill-rule="evenodd" clip-rule="evenodd" d="M17.0482 9.86802C17.0482 13.9441 13.7438 17.2484 9.66775 17.2484C5.59166 17.2484 2.28734 13.9441 2.28734 9.86802C2.28734 5.79192 5.59166 2.4876 9.66775 2.4876C13.7438 2.4876 17.0482 5.79192 17.0482 9.86802ZM15.5907 17.2821C13.9674 18.5806 11.9082 19.3571 9.66775 19.3571C4.42706 19.3571 0.17865 15.1087 0.17865 9.86802C0.17865 4.62733 4.42706 0.378906 9.66775 0.378906C14.9084 0.378906 19.1569 4.62733 19.1569 9.86802C19.1569 12.1085 18.3804 14.1677 17.0818 15.791L23.5926 22.3018C24.0043 22.7135 24.0043 23.3811 23.5926 23.7929C23.1808 24.2046 22.5133 24.2046 22.1015 23.7929L15.5907 17.2821Z" fill="#50669E"/>
</svg>
