<svg width="110" height="103" viewBox="0 0 110 103" fill="none" xmlns="http://www.w3.org/2000/svg">
<g id="c2-2">
<path id="Vector" d="M106.539 85.0758C98.5792 85.0758 96.9091 80.5958 96.9091 75.5258V48.9458H13.0092V75.5258C13.0092 80.5958 11.3392 85.0758 3.37915 85.0758H1.11914V84.9758C1.11914 96.1558 9.57914 102.126 25.5291 102.126H83.5891C97.7891 102.126 108.799 96.6858 108.799 84.9758V85.0758H106.539Z" fill="#562500"/>
<path id="Vector_2" d="M13.389 69.6057C20.7841 69.6057 26.779 63.6108 26.779 56.2157C26.779 48.8206 20.7841 42.8257 13.389 42.8257C5.99395 42.8257 -0.000976562 48.8206 -0.000976562 56.2157C-0.000976562 63.6108 5.99395 69.6057 13.389 69.6057Z" fill="#F7B88D"/>
<path id="Vector_3" d="M96.3588 69.6057C103.754 69.6057 109.749 63.6108 109.749 56.2157C109.749 48.8206 103.754 42.8257 96.3588 42.8257C88.9637 42.8257 82.9688 48.8206 82.9688 56.2157C82.9688 63.6108 88.9637 69.6057 96.3588 69.6057Z" fill="#F7B88D"/>
<path id="Vector_4" d="M54.8791 102.136C30.3891 102.136 10.5391 82.2856 10.5391 57.7956V44.9956C10.5391 20.5056 30.409 5.51562 54.899 5.51562C79.389 5.51562 99.2191 20.5056 99.2191 44.9956V57.7956C99.2191 82.2856 79.3691 102.136 54.8791 102.136Z" fill="#FFCD9F"/>
<path id="Vector_5" d="M40.8492 52.1557C40.8492 55.3957 38.3093 58.0257 35.1693 58.0257C32.0293 58.0257 29.4893 55.3957 29.4893 52.1557C29.4893 48.9157 32.0293 46.2856 35.1693 46.2856C38.3093 46.2856 40.8492 48.9157 40.8492 52.1557Z" fill="#442106"/>
<path id="Vector_6" d="M80.2585 52.1557C80.2585 55.3957 77.7185 58.0257 74.5785 58.0257C71.4385 58.0257 68.8984 55.3957 68.8984 52.1557C68.8984 48.9157 71.4385 46.2856 74.5785 46.2856C77.7185 46.2856 80.2585 48.9157 80.2585 52.1557Z" fill="#442106"/>
<path id="Vector_7" d="M54.8786 86.2358C47.5286 86.2358 40.9786 81.5658 38.5686 74.6158C38.1586 73.4358 38.7886 72.1358 39.9686 71.7258C41.1486 71.3258 42.4486 71.9458 42.8586 73.1358C44.6286 78.2558 49.4586 81.7058 54.8686 81.7058C60.2786 81.7058 65.1086 78.2658 66.8786 73.1358C67.2886 71.9558 68.5786 71.3258 69.7686 71.7258C70.9586 72.1358 71.5786 73.4258 71.1786 74.6158C68.7786 81.5658 62.2186 86.2358 54.8686 86.2358H54.8786Z" fill="#9E5747"/>
<path id="Vector_8" d="M54.6992 0.105469C30.7592 0.105469 11.0591 18.8255 9.86914 42.7155C9.86914 42.8655 9.91917 43.0155 10.0192 43.1255C10.1192 43.2355 10.2692 43.2955 10.4192 43.2955C28.8492 42.9655 57.2091 34.1955 70.6191 21.6255C74.7691 28.7555 87.9291 40.5455 98.8391 43.2155C99.0091 43.2555 99.1892 43.2155 99.3192 43.1055C99.4492 42.9955 99.5292 42.8255 99.5192 42.6555C98.2892 18.7955 78.5992 0.105469 54.6891 0.105469H54.6992Z" fill="#683100"/>
</g>
</svg>
