<svg width="120" height="105" viewBox="0 0 120 105" fill="none" xmlns="http://www.w3.org/2000/svg">
<g id="c0-0">
<path id="Vector" d="M30.0088 63.6075C31.7076 56.4101 27.2501 49.1985 20.0527 47.4997C12.8554 45.801 5.64368 50.2585 3.94496 57.4559C2.24623 64.6532 6.70374 71.8649 13.9011 73.5636C21.0984 75.2623 28.3101 70.8048 30.0088 63.6075Z" fill="#F7B88D"/>
<path id="Vector_2" d="M115.995 63.6296C117.704 56.4347 113.256 49.2168 106.061 47.508C98.8664 45.7992 91.6485 50.2466 89.9397 57.4416C88.2309 64.6366 92.6784 71.8545 99.8733 73.5632C107.068 75.272 114.286 70.8246 115.995 63.6296Z" fill="#F7B88D"/>
<path id="Vector_3" d="M59.9787 11.0454C84.4487 11.0454 104.319 30.9154 104.319 55.3854V60.6054C104.319 85.0754 84.4487 104.945 59.9787 104.945C35.5087 104.945 15.6387 85.0754 15.6387 60.6054V55.3854C15.6387 30.9154 35.5087 11.0454 59.9787 11.0454Z" fill="#FFCD9F"/>
<path id="Vector_4" d="M44.8085 57.9958C44.8085 61.4458 42.0985 64.2558 38.7485 64.2558C35.3985 64.2558 32.6885 61.4558 32.6885 57.9958C32.6885 54.5358 35.3985 51.7358 38.7485 51.7358C42.0985 51.7358 44.8085 54.5358 44.8085 57.9958Z" fill="#442106"/>
<path id="Vector_5" d="M87.2489 57.9958C87.2489 61.4458 84.5389 64.2558 81.1889 64.2558C77.8389 64.2558 75.1289 61.4558 75.1289 57.9958C75.1289 54.5358 77.8389 51.7358 81.1889 51.7358C84.5389 51.7358 87.2489 54.5358 87.2489 57.9958Z" fill="#442106"/>
<path id="Vector_6" d="M59.9782 87.5257C52.6282 87.5257 46.0782 82.8557 43.6682 75.8957C43.2582 74.7057 43.8882 73.4157 45.0682 73.0057C46.2482 72.5957 47.5482 73.2257 47.9582 74.4057C49.7282 79.5257 54.5582 82.9757 59.9682 82.9757C65.3782 82.9757 70.2082 79.5357 71.9782 74.4057C72.3882 73.2157 73.6882 72.5957 74.8682 73.0057C76.0582 73.4157 76.6782 74.7057 76.2682 75.8957C73.8682 82.8457 67.3082 87.5257 59.9582 87.5257H59.9782Z" fill="#9E5747"/>
<path id="Vector_7" d="M59.4681 25.5455C63.9581 25.5455 67.5181 22.8355 67.6781 17.8055C67.7281 16.3355 67.3881 13.9355 66.9381 12.7855C66.9381 12.7655 66.9281 12.7455 66.9181 12.7355C63.5081 2.51546 66.1981 0.165456 65.8181 0.0454561C65.1881 -0.154544 63.2281 0.365456 62.9581 0.445456C60.7881 1.09546 58.7681 2.26546 57.0881 3.79546C55.4681 5.27546 53.9481 7.43546 52.9881 9.40546C51.4781 12.4955 50.4281 16.7755 51.8181 20.6455C52.9781 23.8655 56.1681 25.5555 59.4681 25.5555V25.5455Z" fill="#683100"/>
</g>
</svg>
