<svg xmlns="http://www.w3.org/2000/svg" width="18" height="19" viewBox="0 0 18 19" fill="none">
  <g clip-path="url(#clip0_972_48935)">
    <path d="M8.85596 17.4481V10.8068C8.85596 10.3875 9.02255 9.98527 9.31909 9.68872C9.61564 9.39218 10.0178 9.22559 10.4372 9.22559V9.22559C10.8566 9.22559 11.2588 9.39218 11.5553 9.68872C11.8519 9.98527 12.0185 10.3875 12.0185 10.8068V14.2856H14.5485C15.2195 14.2856 15.863 14.5521 16.3374 15.0266C16.8119 15.5011 17.0785 16.1446 17.0785 16.8156V17.4481" stroke="white" stroke-width="1.265" stroke-linecap="round" stroke-linejoin="round"/>
    <path d="M1.26629 2.26695C1.61561 2.26695 1.89879 1.98377 1.89879 1.63445C1.89879 1.28513 1.61561 1.00195 1.26629 1.00195C0.916969 1.00195 0.633789 1.28513 0.633789 1.63445C0.633789 1.98377 0.916969 2.26695 1.26629 2.26695Z" stroke="white" stroke-width="1.265" stroke-linecap="round" stroke-linejoin="round"/>
    <path d="M6.32586 2.26695C6.67518 2.26695 6.95836 1.98377 6.95836 1.63445C6.95836 1.28513 6.67518 1.00195 6.32586 1.00195C5.97654 1.00195 5.69336 1.28513 5.69336 1.63445C5.69336 1.98377 5.97654 2.26695 6.32586 2.26695Z" stroke="white" stroke-width="1.265" stroke-linecap="round" stroke-linejoin="round"/>
    <path d="M11.3859 2.26695C11.7352 2.26695 12.0184 1.98377 12.0184 1.63445C12.0184 1.28513 11.7352 1.00195 11.3859 1.00195C11.0366 1.00195 10.7534 1.28513 10.7534 1.63445C10.7534 1.98377 11.0366 2.26695 11.3859 2.26695Z" stroke="white" stroke-width="1.265" stroke-linecap="round" stroke-linejoin="round"/>
    <path d="M1.26629 6.69469C1.61561 6.69469 1.89879 6.41151 1.89879 6.06219C1.89879 5.71287 1.61561 5.42969 1.26629 5.42969C0.916969 5.42969 0.633789 5.71287 0.633789 6.06219C0.633789 6.41151 0.916969 6.69469 1.26629 6.69469Z" stroke="white" stroke-width="1.265" stroke-linecap="round" stroke-linejoin="round"/>
    <path d="M6.32586 6.69469C6.67518 6.69469 6.95836 6.41151 6.95836 6.06219C6.95836 5.71287 6.67518 5.42969 6.32586 5.42969C5.97654 5.42969 5.69336 5.71287 5.69336 6.06219C5.69336 6.41151 5.97654 6.69469 6.32586 6.69469Z" stroke="white" stroke-width="1.265" stroke-linecap="round" stroke-linejoin="round"/>
    <path d="M11.3859 6.69469C11.7352 6.69469 12.0184 6.41151 12.0184 6.06219C12.0184 5.71287 11.7352 5.42969 11.3859 5.42969C11.0366 5.42969 10.7534 5.71287 10.7534 6.06219C10.7534 6.41151 11.0366 6.69469 11.3859 6.69469Z" stroke="white" stroke-width="1.265" stroke-linecap="round" stroke-linejoin="round"/>
    <path d="M1.26629 11.1224C1.61561 11.1224 1.89879 10.8392 1.89879 10.4899C1.89879 10.1406 1.61561 9.85742 1.26629 9.85742C0.916969 9.85742 0.633789 10.1406 0.633789 10.4899C0.633789 10.8392 0.916969 11.1224 1.26629 11.1224Z" stroke="white" stroke-width="1.265" stroke-linecap="round" stroke-linejoin="round"/>
    <path d="M6.32586 11.1224C6.15811 11.1224 5.99723 11.0558 5.87861 10.9372C5.76 10.8186 5.69336 10.6577 5.69336 10.4899C5.69336 10.3222 5.76 10.1613 5.87861 10.0427C5.99723 9.92406 6.15811 9.85742 6.32586 9.85742V11.1224Z" stroke="white" stroke-width="1.265" stroke-linecap="round" stroke-linejoin="round"/>
  </g>
  <defs>
    <clipPath id="clip0_972_48935">
      <rect width="17.71" height="17.71" fill="white" transform="translate(0 0.370117)"/>
    </clipPath>
  </defs>
</svg>