<svg width="95" height="87" viewBox="0 0 95 87" fill="none" xmlns="http://www.w3.org/2000/svg">
<path d="M48.3895 86.441C47.643 86.441 46.9361 86.1272 46.4347 85.5754L17.856 54.1943C13.8021 49.9096 10.2965 46.0794 8.79253 42.9813C2.91376 31.7179 4.37083 15.7767 12.0709 7.51392C16.5612 2.69548 22.5626 0.0410156 28.9679 0.0410156C35.3733 0.0410156 41.3783 2.69548 45.8649 7.51392L48.3931 10.2261L50.9394 7.51031C55.3972 2.69548 61.3914 0.0410156 67.8111 0.0410156C74.2309 0.0410156 80.2179 2.69548 84.7081 7.51392C91.0558 14.3268 93.2161 26.2791 90.082 37.2576C89.6816 38.6642 88.2137 39.4757 86.8108 39.0754C85.4042 38.675 84.5891 37.2108 84.993 35.8042C87.5934 26.6867 85.8839 16.5377 80.8346 11.1205C77.3578 7.38768 72.7306 5.33192 67.8111 5.33192C62.8917 5.33192 58.268 7.38408 54.8129 11.1133L50.3227 15.9101C49.8214 16.4439 49.1217 16.7468 48.3895 16.7468C47.6574 16.7468 46.9577 16.4403 46.4564 15.9029L41.9986 11.1169C38.5218 7.38408 33.8946 5.32831 28.9715 5.32831C24.0485 5.32831 19.4248 7.38408 15.9481 11.1169C9.76271 17.7567 8.65188 31.2562 13.5208 40.5974C14.729 43.0787 18.2419 46.8909 21.7367 50.5877L48.3931 79.8553L70.7758 55.2763C71.7604 54.1943 73.4338 54.115 74.5122 55.0996C75.5942 56.0842 75.6736 57.7576 74.6853 58.8396L50.3443 85.5682C49.843 86.12 49.1325 86.4338 48.3895 86.4338V86.441Z" fill="#707070"/>
<path d="M54.9432 62.3631C53.8468 62.3631 52.8658 61.6886 52.4727 60.668L45.2486 41.8919L42.8719 48.0701C42.4788 49.0907 41.4978 49.7652 40.4013 49.7652H29.3074C27.8467 49.7652 26.6602 48.5786 26.6602 47.1179C26.6602 45.6572 27.8431 44.4707 29.3074 44.4707H38.5836L42.7781 33.5679C43.1712 32.5472 44.1522 31.8728 45.2486 31.8728C46.345 31.8728 47.326 32.5472 47.7192 33.5679L54.9432 52.3439L65.5971 24.6487C65.9903 23.6281 66.9713 22.9536 68.0677 22.9536C69.1641 22.9536 70.1451 23.6281 70.5382 24.6487L78.1626 44.4671H88.968C90.4287 44.4671 91.6152 45.6536 91.6152 47.1143C91.6152 48.575 90.4323 49.7616 88.968 49.7616H76.3448C75.2484 49.7616 74.2674 49.0871 73.8743 48.0628L68.0677 32.9692L57.4137 60.6643C57.0206 61.685 56.0396 62.3595 54.9432 62.3595V62.3631Z" fill="#189EFB"/>
</svg>
