<svg width="165" height="129" viewBox="0 0 165 129" fill="none" xmlns="http://www.w3.org/2000/svg">
<path d="M86.9783 172.882C85.4851 172.882 84.0714 172.254 83.0687 171.151L25.9111 108.388C17.8035 99.8192 10.7922 92.1587 7.78429 85.9626C-3.97327 63.4357 -1.05913 31.5532 14.3411 15.0277C23.3216 5.39084 35.3244 0.0819092 48.1351 0.0819092C60.9458 0.0819092 72.9558 5.39084 81.929 15.0277L86.9855 20.4521L92.078 15.0205C100.994 5.39084 112.982 0.0819092 125.821 0.0819092C138.661 0.0819092 150.635 5.39084 159.615 15.0277C172.311 28.6535 176.631 52.5581 170.363 74.5152C169.562 77.3283 166.627 78.9513 163.821 78.1506C161.008 77.35 159.377 74.4214 160.185 71.6082C165.386 53.3732 161.967 33.0752 151.868 22.2409C144.915 14.7752 135.66 10.6637 125.821 10.6637C115.983 10.6637 106.735 14.768 99.825 22.2265L90.8446 31.8201C89.8419 32.8877 88.4426 33.4936 86.9783 33.4936C85.514 33.4936 84.1146 32.8804 83.112 31.8057L74.1964 22.2337C67.2429 14.768 57.9883 10.6565 48.1423 10.6565C38.2962 10.6565 29.0489 14.768 22.0953 22.2337C9.72464 35.5133 7.50297 62.5124 17.2408 81.1946C19.6573 86.1573 26.6829 93.7817 33.6726 101.175L86.9855 159.711L131.751 110.552C133.72 108.388 137.067 108.23 139.224 110.199C141.388 112.168 141.546 115.515 139.57 117.679L90.8878 171.136C89.8852 172.24 88.4642 172.867 86.9783 172.867V172.882Z" fill="white" fill-opacity="0.2"/>
<path d="M100.088 124.726C97.8948 124.726 95.9328 123.377 95.1465 121.336L80.6984 83.7839L75.9449 96.1401C75.1587 98.1815 73.1967 99.5303 71.0039 99.5303H48.816C45.8946 99.5303 43.5215 97.1572 43.5215 94.2358C43.5215 91.3145 45.8874 88.9413 48.816 88.9413H67.3684L75.7574 67.1357C76.5436 65.0944 78.5056 63.7455 80.6984 63.7455C82.8913 63.7455 84.8533 65.0944 85.6395 67.1357L100.088 104.688L121.395 49.2974C122.182 47.2561 124.144 45.9072 126.337 45.9072C128.529 45.9072 130.491 47.2561 131.278 49.2974L146.526 88.9341H168.137C171.059 88.9341 173.432 91.3073 173.432 94.2286C173.432 97.15 171.066 99.5231 168.137 99.5231H142.891C140.698 99.5231 138.736 98.1742 137.95 96.1257L126.337 65.9384L105.029 121.329C104.242 123.37 102.28 124.719 100.088 124.719V124.726Z" fill="white" fill-opacity="0.2"/>
</svg>
