<svg width="94" height="87" viewBox="0 0 94 87" fill="none" xmlns="http://www.w3.org/2000/svg">
<g clip-path="url(#clip0_1254_28336)">
<path d="M68.2527 0.160156C56.3188 0.160156 46.5249 9.33231 45.5117 21.0042C48.9268 22.6045 51.7107 25.3788 53.2067 28.8728L56.6218 36.8424L65.5699 41.7063C66.7977 42.3722 67.8014 43.4138 68.461 44.6732C69.3606 44.8625 70.2033 45.2224 70.9987 45.6674C82.3139 44.307 91.0979 34.6835 91.0979 23.0053C91.0695 10.396 80.8621 0.160156 68.2527 0.160156ZM65.5636 19.8017L72.4537 22.2036C74.9409 23.0905 76.1434 24.8328 76.1434 27.5219C76.1434 30.6088 73.6847 33.1527 70.683 33.1527H70.4274V33.2948C70.4274 34.4658 69.4553 35.4379 68.2843 35.4379C67.1133 35.4379 66.1412 34.4658 66.1412 33.2948V33.1243C62.9659 32.9823 60.422 30.3216 60.422 27.0043C60.422 25.8333 61.3941 24.8612 62.5651 24.8612C63.7361 24.8612 64.7082 25.8333 64.7082 27.0043C64.7082 28.0333 65.4531 28.8634 66.3653 28.8634H70.6546C71.3111 28.8634 71.8256 28.2637 71.8256 27.5188C71.8256 26.5182 71.6552 26.4614 70.9955 26.231L64.1054 23.8291C61.6466 22.9706 60.4188 21.2283 60.4188 18.5108C60.4188 15.4239 62.8776 12.8768 65.8792 12.8768H66.138V12.7632C66.138 11.5922 67.1101 10.6201 68.2811 10.6201C69.4521 10.6201 70.4242 11.5922 70.4242 12.7632V12.9336C73.5963 13.0757 76.1434 15.7364 76.1434 19.0505C76.1434 20.2215 75.1713 21.1936 74.0003 21.1936C72.8293 21.1936 71.8572 20.2215 71.8572 19.0505C71.8572 18.0215 71.1123 17.1914 70.2001 17.1914H65.9108C65.2542 17.1914 64.7398 17.7911 64.7398 18.536C64.7114 19.5082 64.8818 19.565 65.5699 19.7954L65.5636 19.8017Z" fill="#189EFB"/>
<path d="M31.9965 24.804C36.6867 24.804 40.49 21.0007 40.49 16.3104C40.49 11.6202 36.6867 7.81689 31.9965 7.81689C27.3062 7.81689 23.5029 11.6202 23.5029 16.3104C23.5029 21.0007 27.3062 24.804 31.9965 24.804Z" fill="#707070"/>
<path d="M65.8973 46.9391C65.5785 45.6672 64.7484 44.4962 63.5805 43.8618L53.8845 38.5939L50.1348 29.8416C48.4809 25.9877 45.1068 23.2481 41.1426 22.2981C39.2141 25.1545 35.9473 27.0388 32.2482 27.0388C28.549 27.0388 25.2507 25.1324 23.3254 22.2476C19.5441 23.0871 16.2616 25.549 14.472 29.0967L4.98106 47.8702C4.00893 49.7956 4.55497 52.5257 6.34773 53.722C7.11787 54.2365 7.97637 54.4795 8.81594 54.4795C10.4288 54.4795 11.9848 53.5926 12.7613 52.0523L20.8856 35.9711V81.1469C20.8856 83.735 22.7762 86.0644 25.3517 86.2885C28.2586 86.541 30.6984 84.2558 30.6984 81.4025V54.429C30.6984 53.6525 31.3297 53.0213 32.1061 53.0213C32.8826 53.0213 33.5138 53.6525 33.5138 54.429V81.1469C33.5138 83.735 35.4044 86.0644 37.98 86.2885C40.8869 86.541 43.3267 84.2558 43.3267 81.4025V36.3782L46.9754 44.8907L59.3354 51.6073C58.8398 52.7435 58.5368 54.006 58.5368 55.3601V84.3284C58.5368 85.5625 59.5374 86.5631 60.7715 86.5631C62.0056 86.5631 63.0061 85.5625 63.0061 84.3284V55.3601C63.0061 53.217 64.3065 51.4053 65.8499 51.4053C67.3933 51.4053 68.6937 53.217 68.6937 55.3601V58.084C68.6937 59.3181 69.6943 60.3186 70.9284 60.3186C72.1625 60.3186 73.163 59.3181 73.163 58.084V55.3601C73.163 50.7393 69.912 46.9802 65.9099 46.9423L65.8973 46.9391Z" fill="#707070"/>
</g>
<defs>
<clipPath id="clip0_1254_28336">
<rect width="86.5894" height="86.4" fill="white" transform="translate(4.50488 0.160156)"/>
</clipPath>
</defs>
</svg>
