<svg width="81" height="67" viewBox="0 0 81 67" fill="none" xmlns="http://www.w3.org/2000/svg">
<path d="M43.0417 4.53544L52.2122 20.2791C52.4208 20.6787 52.7489 21.0248 53.1638 21.283C53.5787 21.5411 54.066 21.7023 54.577 21.7504L74.8214 24.3008C75.4075 24.3649 75.9602 24.5694 76.4147 24.8906C76.8693 25.2118 77.207 25.6363 77.3884 26.1146C77.5699 26.5929 77.5875 27.1052 77.4393 27.5917C77.2912 28.0782 76.9833 28.5188 76.5516 28.862L61.9595 41.1725C61.5871 41.4684 61.3076 41.8387 61.1464 42.2499C60.9853 42.661 60.9475 43.0999 61.0367 43.5267L64.555 60.8397C64.6568 61.3372 64.5924 61.849 64.3691 62.3169C64.1458 62.7848 63.7725 63.19 63.2918 63.4864C62.811 63.7828 62.2421 63.9585 61.6497 63.9935C61.0573 64.0285 60.4652 63.9214 59.9409 63.6844L41.7152 55.4938C41.2485 55.299 40.7355 55.1977 40.2156 55.1977C39.6957 55.1977 39.1827 55.299 38.716 55.4938L20.4903 63.6844C19.9659 63.9214 19.3739 64.0285 18.7815 63.9935C18.1891 63.9585 17.6201 63.7828 17.1394 63.4864C16.6586 63.19 16.2853 62.7848 16.062 62.3169C15.8387 61.849 15.7743 61.3372 15.8762 60.8397L19.3944 43.3305C19.4836 42.9038 19.4459 42.4649 19.2847 42.0537C19.1235 41.6425 18.844 41.2722 18.4716 40.9763L3.70646 28.862C3.26963 28.5094 2.96243 28.0566 2.82207 27.5585C2.68171 27.0604 2.71421 26.5384 2.91564 26.0556C3.11707 25.5729 3.47877 25.1502 3.95695 24.8388C4.43512 24.5273 5.00925 24.3404 5.60977 24.3008L25.8542 21.7504C26.3652 21.7023 26.8524 21.5411 27.2673 21.283C27.6822 21.0248 28.0103 20.6787 28.2189 20.2791L37.3894 4.53544C37.6392 4.07691 38.0379 3.6887 38.5387 3.41663C39.0395 3.14456 39.6213 3 40.2156 3C40.8098 3 41.3917 3.14456 41.8924 3.41663C42.3932 3.6887 42.792 4.07691 43.0417 4.53544V4.53544Z" stroke="white" stroke-opacity="0.4" stroke-width="5" stroke-linecap="round" stroke-linejoin="round"/>
<rect x="34.3984" y="37" width="30" height="30" rx="15" fill="white"/>
<path d="M49.8984 44C51.003 44 51.8984 44.8954 51.8984 46V49.5H55.3984C56.503 49.5 57.3984 50.3954 57.3984 51.5V52.5C57.3984 53.6046 56.503 54.5 55.3984 54.5H51.8984V58C51.8984 59.1046 51.003 60 49.8984 60H48.8984C47.7939 60 46.8984 59.1046 46.8984 58V54.5H43.3984C42.2939 54.5 41.3984 53.6046 41.3984 52.5V51.5C41.3984 50.3954 42.2939 49.5 43.3984 49.5H46.8984V46C46.8984 44.8954 47.7939 44 48.8984 44H49.8984Z" fill="#189EFB"/>
</svg>
