<svg width="135" height="130" viewBox="0 0 135 130" fill="none" xmlns="http://www.w3.org/2000/svg">
<g clip-path="url(#clip0_1254_44261)">
<path d="M132.522 7.4789C122.471 3.39713 103.116 -2.74747 89.9487 3.22157C79.854 7.83002 74.2361 20.0314 76.2989 31.8379V32.189C76.4745 32.8034 77.2206 33.0668 77.7034 32.6279C86.9203 23.9377 95.9177 19.4609 101.931 17.1347C93.3282 20.6898 73.49 36.5341 67.4331 50.2717C61.3763 36.5341 41.538 20.6898 32.9356 17.1347C38.9485 19.4609 47.946 23.9377 57.1629 32.6279C57.6457 33.0668 58.3918 32.8473 58.5235 32.189V31.8379C60.6302 20.0753 55.0123 7.87391 44.9176 3.22157C31.7067 -2.74747 12.3512 3.39713 2.30038 7.4789C-0.157456 8.48837 -0.333016 11.824 1.94926 13.0968C5.98714 15.3352 11.1662 19.2414 14.7213 25.781C19.8125 35.0418 32.2773 42.547 44.347 40.2208C50.1405 39.0797 57.8651 42.6348 61.2447 47.4627C61.508 47.8138 61.7274 48.1649 61.9469 48.5161C64.2292 52.0273 65.2386 56.1968 65.2386 60.3664V73.6211H69.6276V60.3225C69.6276 56.109 70.6371 51.8956 72.9633 48.3844C73.1827 48.0772 73.4022 47.726 73.6216 47.4188C77.0012 42.6348 84.6819 39.1236 90.4315 40.2208C102.501 42.5909 115.01 35.0418 120.101 25.781C123.656 19.3292 128.791 15.3791 132.829 13.1407C135.155 11.8679 134.936 8.48837 132.478 7.4789H132.522Z" fill="white" fill-opacity="0.2"/>
<path d="M67.4312 61.6399C42.4139 61.6399 22.1367 81.9171 22.1367 106.934C22.1367 131.952 42.4139 152.229 67.4312 152.229C92.4485 152.229 112.726 131.952 112.726 106.934C112.726 81.9171 92.4485 61.6399 67.4312 61.6399ZM67.4312 102.282C75.7264 102.282 81.5199 107.461 81.5199 114.835C81.5199 119.882 78.1404 124.227 73.2686 126.202C72.5663 126.509 72.0835 127.124 72.0835 127.87V130.898C72.0835 131.908 71.2496 132.698 70.284 132.698H64.5345C63.525 132.698 62.735 131.864 62.735 130.898V127.87C62.735 127.124 62.2522 126.465 61.5499 126.202C57.4243 124.49 54.352 121.111 53.5181 117.029C53.2986 115.888 54.1764 114.835 55.3176 114.835H61.3305C61.9888 114.835 62.6033 115.23 62.9105 115.8C63.525 116.985 65.1928 117.995 67.3873 117.995C70.1963 117.995 72.1274 116.327 72.1274 114.791C72.1274 111.894 68.8357 111.587 67.3873 111.587C57.6876 111.587 53.2547 105.091 53.2547 99.0342C53.2547 93.9868 56.6343 89.6417 61.506 87.6667C62.2083 87.3594 62.6911 86.745 62.6911 85.9988V82.9704C62.6911 81.961 63.525 81.1709 64.4906 81.1709H70.2402C71.2496 81.1709 72.0396 82.0049 72.0396 82.9704V85.9988C72.0396 86.745 72.5224 87.4033 73.2247 87.6667C77.3503 89.3345 80.4226 92.7579 81.2565 96.8397C81.476 97.9808 80.5982 99.0342 79.4571 99.0342H73.4441C72.7858 99.0342 72.1713 98.6392 71.8641 98.0686C71.2496 96.8836 69.5818 95.8741 67.3873 95.8741C64.5783 95.8741 62.6472 97.5419 62.6472 99.0781C62.6472 101.185 64.2272 102.282 67.3873 102.282H67.4312Z" fill="white" fill-opacity="0.2"/>
</g>
<defs>
<clipPath id="clip0_1254_44261">
<rect width="134.128" height="151.552" fill="white" transform="translate(0.324219 0.720581)"/>
</clipPath>
</defs>
</svg>
