<svg width="40" height="37" viewBox="0 0 40 37" fill="none" xmlns="http://www.w3.org/2000/svg">
<path d="M21.4008 2.663L25.8265 10.9994C25.9272 11.211 26.0855 11.3943 26.2857 11.531C26.486 11.6677 26.7211 11.753 26.9677 11.7785L36.7378 13.1289C37.0206 13.1628 37.2873 13.2712 37.5067 13.4412C37.7261 13.6113 37.8891 13.8361 37.9766 14.0893C38.0642 14.3426 38.0727 14.6139 38.0012 14.8715C37.9297 15.1291 37.7811 15.3624 37.5728 15.5441L30.5306 22.0626C30.3509 22.2193 30.216 22.4154 30.1382 22.6331C30.0604 22.8508 30.0422 23.0832 30.0852 23.3092L31.7832 32.4766C31.8323 32.74 31.8012 33.011 31.6935 33.2588C31.5857 33.5065 31.4055 33.7211 31.1735 33.878C30.9415 34.035 30.6669 34.128 30.381 34.1465C30.0951 34.1651 29.8094 34.1084 29.5564 33.9829L20.7606 29.6459C20.5353 29.5427 20.2878 29.4891 20.0369 29.4891C19.7859 29.4891 19.5384 29.5427 19.3131 29.6459L10.5173 33.9829C10.2643 34.1084 9.97856 34.1651 9.69267 34.1465C9.40678 34.128 9.1322 34.035 8.90018 33.878C8.66816 33.7211 8.48802 33.5065 8.38024 33.2588C8.27247 33.011 8.24139 32.74 8.29056 32.4766L9.98848 23.2053C10.0315 22.9793 10.0133 22.7469 9.93553 22.5292C9.85775 22.3115 9.72285 22.1154 9.54312 21.9587L2.41741 15.5441C2.20659 15.3574 2.05834 15.1176 1.9906 14.8539C1.92286 14.5901 1.93855 14.3137 2.03575 14.0581C2.13296 13.8025 2.30753 13.5787 2.5383 13.4138C2.76906 13.2489 3.04614 13.1499 3.33596 13.1289L13.106 11.7785C13.3526 11.753 13.5877 11.6677 13.788 11.531C13.9882 11.3943 14.1466 11.211 14.2472 10.9994L18.6729 2.663C18.7935 2.42021 18.9859 2.21465 19.2276 2.07058C19.4693 1.92652 19.7501 1.84998 20.0369 1.84998C20.3236 1.84998 20.6044 1.92652 20.8461 2.07058C21.0878 2.21465 21.2802 2.42021 21.4008 2.663V2.663Z" stroke="white" stroke-opacity="0.4" stroke-width="2.432" stroke-linecap="round" stroke-linejoin="round"/>
<rect x="17.2109" y="21.0239" width="15.36" height="15.36" rx="7.68" fill="white"/>
<path d="M25.1455 24.608C25.711 24.608 26.1699 25.0669 26.1699 25.6324V27.4244H27.9609C28.5264 27.4244 28.9852 27.8825 28.9854 28.4479V28.9606C28.9851 29.5259 28.5263 29.984 27.9609 29.984H26.1699V31.776C26.1699 32.3415 25.711 32.8004 25.1455 32.8004H24.6338C24.0682 32.8004 23.6094 32.3415 23.6094 31.776V29.984H21.8174C21.252 29.984 20.7932 29.5259 20.793 28.9606V28.4479C20.7931 27.8825 21.2519 27.4244 21.8174 27.4244H23.6094V25.6324C23.6094 25.0669 24.0682 24.608 24.6338 24.608H25.1455Z" fill="#189EFB"/>
</svg>
