<svg xmlns="http://www.w3.org/2000/svg" width="18" height="18" viewBox="0 0 18 18" fill="none">
    <g clip-path="url(#clip0_972_48974)">
    <path d="M7.85006 2.15713C7.97212 1.96228 8.14168 1.80164 8.34284 1.69028C8.54399 1.57893 8.77014 1.52051 9.00006 1.52051C9.22998 1.52051 9.45613 1.57893 9.65729 1.69028C9.85844 1.80164 10.028 1.96228 10.1501 2.15713L12.3811 5.68763L15.2906 6.04413C15.5319 6.07109 15.7612 6.16339 15.9539 6.31109C16.1467 6.4588 16.2954 6.65629 16.3841 6.8823C16.4729 7.1083 16.4983 7.35424 16.4575 7.59361C16.4168 7.83297 16.3115 8.05668 16.1531 8.24063L13.7266 11.0236L14.5086 14.8761C14.5576 15.1275 14.5338 15.3876 14.4401 15.626C14.3464 15.8643 14.1866 16.071 13.9796 16.2216C13.7699 16.3695 13.5228 16.4555 13.2666 16.4698C13.0104 16.484 12.7553 16.4259 12.5306 16.3021L9.00006 14.3701L5.46956 16.3021C5.24478 16.4259 4.98973 16.484 4.73351 16.4698C4.4773 16.4555 4.23025 16.3695 4.02056 16.2216C3.81348 16.071 3.6537 15.8643 3.55999 15.626C3.46629 15.3876 3.44255 15.1275 3.49156 14.8761L4.27356 11.0236L1.84706 8.24063C1.68858 8.05668 1.5833 7.83297 1.54258 7.59361C1.50186 7.35424 1.52724 7.1083 1.61598 6.8823C1.70473 6.65629 1.85347 6.4588 2.04618 6.31109C2.23889 6.16339 2.46826 6.07109 2.70956 6.04413L5.61906 5.68763L7.85006 2.15713Z" fill="white" stroke="white" stroke-width="1.15" stroke-linecap="round" stroke-linejoin="round"/>
    </g>
    <defs>
    <clipPath id="clip0_972_48974">
    <rect width="16.1" height="16.1" fill="white" transform="translate(0.949951 0.950195)"/>
    </clipPath>
    </defs>
</svg>