<svg xmlns="http://www.w3.org/2000/svg" width="23" height="23" viewBox="0 0 23 23" fill="none">
  <g clip-path="url(#clip0_1622_49309)">
    <path d="M3.02931 21.8956C2.60921 21.8956 2.20631 21.7288 1.90926 21.4317C1.6122 21.1346 1.44531 20.7318 1.44531 20.3116V2.88765C1.44531 2.46755 1.6122 2.06465 1.90926 1.76759C2.20631 1.47054 2.60921 1.30365 3.02931 1.30365H20.4533C20.8734 1.30365 21.2763 1.47054 21.5734 1.76759C21.8704 2.06465 22.0373 2.46755 22.0373 2.88765V20.3116C22.0373 20.7318 21.8704 21.1346 21.5734 21.4317C21.2763 21.7288 20.8734 21.8956 20.4533 21.8956" stroke="#656565" stroke-width="1.584" stroke-linecap="round" stroke-linejoin="round"/>
    <path d="M1.44531 6.05524H22.0373" stroke="#656565" stroke-width="1.584" stroke-linecap="round" stroke-linejoin="round"/>
    <path d="M10.8681 12.1854C10.9363 12.0098 11.0559 11.8589 11.2114 11.7525C11.3669 11.6461 11.5509 11.5891 11.7393 11.5891C11.9277 11.5891 12.1117 11.6461 12.2671 11.7525C12.4226 11.8589 12.5423 12.0098 12.6105 12.1854L13.6242 14.7673H16.3329C16.51 14.7809 16.6798 14.8437 16.8229 14.9488C16.9661 15.054 17.077 15.1971 17.143 15.362C17.2089 15.5269 17.2274 15.7071 17.1962 15.8819C17.165 16.0568 17.0854 16.2194 16.9665 16.3513L14.5746 18.5056L15.5884 20.5331C15.6802 20.7111 15.7112 20.9142 15.6769 21.1115C15.6426 21.3088 15.5448 21.4895 15.3983 21.6261C15.2528 21.7644 15.0679 21.8539 14.8692 21.8823C14.6705 21.9107 14.4679 21.8765 14.2895 21.7845L11.7393 20.3905L9.18903 21.7845C9.01065 21.8765 8.80804 21.9107 8.60933 21.8823C8.41063 21.8539 8.2257 21.7644 8.08023 21.6261C7.93375 21.4895 7.83591 21.3088 7.8016 21.1115C7.76728 20.9142 7.79838 20.7111 7.89015 20.5331L8.90391 18.5056L6.51207 16.3513C6.39313 16.2194 6.31355 16.0568 6.28235 15.8819C6.25115 15.7071 6.26958 15.5269 6.33555 15.362C6.40152 15.1971 6.51239 15.054 6.65558 14.9488C6.79877 14.8437 6.96855 14.7809 7.14567 14.7673H9.85431L10.8681 12.1854Z" stroke="#656565" stroke-width="1.584" stroke-linecap="round" stroke-linejoin="round"/>
  </g>
  <defs>
    <clipPath id="clip0_1622_49309">
      <rect width="22.176" height="22.176" fill="white" transform="translate(0.652344 0.512085)"/>
    </clipPath>
  </defs>
</svg>