<svg width="94" height="86" viewBox="0 0 94 86" fill="none" xmlns="http://www.w3.org/2000/svg">
<g clip-path="url(#clip0_1254_37493)">
<path d="M40.3704 76.9092H28.4323C27.6876 76.9092 27.084 77.5128 27.084 78.2575V83.9878C27.084 84.7324 27.6876 85.3361 28.4323 85.3361H40.3704C41.115 85.3361 41.7187 84.7324 41.7187 83.9878V78.2575C41.7187 77.5128 41.115 76.9092 40.3704 76.9092Z" fill="#707070"/>
<path d="M40.3704 62.4985H28.4323C27.6876 62.4985 27.084 63.1022 27.084 63.8468V69.5771C27.084 70.3218 27.6876 70.9254 28.4323 70.9254H40.3704C41.115 70.9254 41.7187 70.3218 41.7187 69.5771V63.8468C41.7187 63.1022 41.115 62.4985 40.3704 62.4985Z" fill="#707070"/>
<path d="M15.2883 76.9092H3.35025C2.60561 76.9092 2.00195 77.5128 2.00195 78.2575V83.9878C2.00195 84.7324 2.60561 85.3361 3.35025 85.3361H15.2883C16.033 85.3361 16.6366 84.7324 16.6366 83.9878V78.2575C16.6366 77.5128 16.033 76.9092 15.2883 76.9092Z" fill="#707070"/>
<path d="M15.2883 62.4985H3.35025C2.60561 62.4985 2.00195 63.1022 2.00195 63.8468V69.5771C2.00195 70.3218 2.60561 70.9254 3.35025 70.9254H15.2883C16.033 70.9254 16.6366 70.3218 16.6366 69.5771V63.8468C16.6366 63.1022 16.033 62.4985 15.2883 62.4985Z" fill="#707070"/>
<path d="M78.6032 48.0894H90.5132C91.2716 48.0894 91.8615 48.7073 91.8615 49.4377V55.1398C91.8615 55.8983 91.2435 56.4881 90.5132 56.4881H78.6032C77.8448 56.4881 77.2549 55.8702 77.2549 55.1398V49.4377C77.2549 48.6792 77.8729 48.0894 78.6032 48.0894Z" fill="#707070"/>
<path d="M53.5153 76.9092H65.4253C66.1837 76.9092 66.7736 77.5272 66.7736 78.2575V83.9597C66.7736 84.7181 66.1556 85.308 65.4253 85.308H53.5153C52.7569 85.308 52.167 84.69 52.167 83.9597V78.2575C52.167 77.4991 52.785 76.9092 53.5153 76.9092Z" fill="#707070"/>
<path d="M78.6032 76.9092H90.5132C91.2716 76.9092 91.8615 77.5272 91.8615 78.2575V83.9597C91.8615 84.7181 91.2435 85.308 90.5132 85.308H78.6032C77.8448 85.308 77.2549 84.69 77.2549 83.9597V78.2575C77.2549 77.4991 77.8729 76.9092 78.6032 76.9092Z" fill="#707070"/>
<path d="M53.5153 62.4985H65.4253C66.1837 62.4985 66.7736 63.1165 66.7736 63.8468V69.549C66.7736 70.3074 66.1556 70.8973 65.4253 70.8973H53.5153C52.7569 70.8973 52.167 70.2794 52.167 69.549V63.8468C52.167 63.0884 52.785 62.4985 53.5153 62.4985Z" fill="#707070"/>
<path d="M78.6032 62.4985H90.5132C91.2716 62.4985 91.8615 63.1165 91.8615 63.8468V69.549C91.8615 70.3074 91.2435 70.8973 90.5132 70.8973H78.6032C77.8448 70.8973 77.2549 70.2794 77.2549 69.549V63.8468C77.2549 63.0884 77.8729 62.4985 78.6032 62.4985Z" fill="#707070"/>
<path d="M93.3762 21.2919C93.0111 20.7863 92.4774 20.4492 91.8594 20.3369L81.5786 18.0054C80.5674 17.8369 79.5281 18.3706 79.0786 19.3257L78.4888 22.2189C78.1798 22.893 78.2079 23.6234 78.5449 24.2694C78.882 24.9155 79.5 25.3649 80.2303 25.4773L81.1292 25.6177L46.2419 50.8422C45.9329 51.0669 45.5397 51.0669 45.2307 50.8703L26.214 39.1007C25.4556 38.6513 24.5005 38.6513 23.7421 39.1007L1.49517 53.2579C0.961464 53.595 0.5963 54.1006 0.483941 54.7186C0.343493 55.3365 0.455852 55.9545 0.792927 56.4601L2.05696 58.4826C2.50639 59.1848 3.26481 59.55 4.02323 59.55C4.44457 59.55 4.86592 59.4376 5.25917 59.1848L24.5286 46.9939C24.8095 46.7973 25.2028 46.7973 25.5118 46.9939L44.7251 58.8758C45.5397 59.3814 46.5509 59.3252 47.3093 58.7915L85.2583 31.348L85.0617 32.4435C84.9494 33.1738 85.1741 33.9042 85.6797 34.4379C86.1853 34.9716 86.9156 35.2244 87.646 35.1401H90.2021C91.2133 34.9997 92.028 34.2412 92.1965 33.23L93.7695 23.0616C93.8819 22.4436 93.7414 21.8256 93.3762 21.32V21.2919Z" fill="#189EFB"/>
<path d="M25.4549 26.6845C26.1852 26.6845 27.8425 26.853 27.8425 28.2856C27.8425 29.044 26.8594 29.8867 25.4549 29.8867C24.4156 29.8867 23.601 29.4372 23.2639 28.8755C23.0392 28.5384 22.7021 28.2856 22.2808 28.2856H19.4437C18.7415 28.2856 18.1797 28.9597 18.3482 29.662C18.8257 31.6282 20.3145 33.2574 22.3089 34.1001C22.7302 34.2687 23.0111 34.6619 23.0111 35.1113V36.7686C23.0111 37.3866 23.5167 37.8641 24.1066 37.8641H26.7751C27.3931 37.8641 27.8706 37.3585 27.8706 36.7686V35.1113C27.8706 34.6619 28.1515 34.2687 28.5728 34.1001C31.0166 33.0608 32.702 30.8417 32.702 28.2856C32.702 24.4654 29.7245 21.7969 25.4268 21.7969C23.8538 21.7969 23.0392 21.2632 23.0392 20.1958C23.0392 19.4373 24.0223 18.5947 25.4268 18.5947C26.4661 18.5947 27.2807 19.0441 27.6178 19.6059C27.8425 19.943 28.1796 20.1958 28.6009 20.1958H31.438C32.1402 20.1958 32.702 19.5216 32.5335 18.8194C32.0559 16.8531 30.5672 15.2239 28.5728 14.3812C28.1515 14.2127 27.8706 13.8194 27.8706 13.37V11.6565C27.8706 11.0386 27.365 10.561 26.7751 10.561H24.1066C23.4886 10.561 23.0111 11.0666 23.0111 11.6565V13.37C23.0111 13.8194 22.7302 14.2127 22.3089 14.3812C19.8651 15.4205 18.1797 17.6396 18.1797 20.1958C18.1797 23.3137 20.4549 26.6845 25.4549 26.6845Z" fill="#707070"/>
<path d="M46.9723 23.96H42.3094C41.9061 23.96 41.5791 24.2869 41.5791 24.6903V29.3532C41.5791 29.7565 41.9061 30.0835 42.3094 30.0835H46.9723C47.3757 30.0835 47.7026 29.7565 47.7026 29.3532V24.6903C47.7026 24.2869 47.3757 23.96 46.9723 23.96Z" fill="#707070"/>
<path d="M68.6571 4.35389C68.6571 1.96627 66.7189 0 64.3032 0H2.3937C1.94427 0 1.5791 0.365165 1.5791 0.842688V5.30893C1.5791 5.75837 1.94427 6.12353 2.3937 6.12353H47C47.5337 6.12353 47.955 6.4887 48.0674 6.99431C49.5842 13.7358 54.8932 19.0447 61.6347 20.5616C62.1403 20.6739 62.5054 21.0953 62.5054 21.629V35.5895L68.629 31.1795V4.35389H68.6571Z" fill="#707070"/>
</g>
<defs>
<clipPath id="clip0_1254_37493">
<rect width="93.426" height="85.3362" fill="white" transform="translate(0.400391)"/>
</clipPath>
</defs>
</svg>
