<svg xmlns="http://www.w3.org/2000/svg" width="19" height="19" viewBox="0 0 19 19" fill="none">
<g clip-path="url(#clip0_1622_50278)">
<path d="M2.22039 18.3198C1.8703 18.3198 1.53456 18.1807 1.28701 17.9332C1.03946 17.6856 0.900391 17.3499 0.900391 16.9998V2.47979C0.900391 2.1297 1.03946 1.79396 1.28701 1.54641C1.53456 1.29886 1.8703 1.15979 2.22039 1.15979H16.7404C17.0905 1.15979 17.4262 1.29886 17.6738 1.54641C17.9213 1.79396 18.0604 2.1297 18.0604 2.47979V16.9998C18.0604 17.3499 17.9213 17.6856 17.6738 17.9332C17.4262 18.1807 17.0905 18.3198 16.7404 18.3198" stroke="white" stroke-width="1.32" stroke-linecap="round" stroke-linejoin="round"/>
<path d="M0.900391 5.11932H18.0604" stroke="white" stroke-width="1.32" stroke-linecap="round" stroke-linejoin="round"/>
<path d="M8.75366 10.2279C8.81048 10.0815 8.91022 9.95576 9.03977 9.86709C9.16933 9.77841 9.32266 9.73096 9.47966 9.73096C9.63666 9.73096 9.78999 9.77841 9.91955 9.86709C10.0491 9.95576 10.1488 10.0815 10.2057 10.2279L11.0505 12.3795H13.3077C13.4553 12.3907 13.5967 12.4431 13.7161 12.5307C13.8354 12.6183 13.9278 12.7376 13.9828 12.875C14.0377 13.0125 14.0531 13.1626 14.0271 13.3083C14.0011 13.454 13.9348 13.5895 13.8357 13.6995L11.8425 15.4947L12.6873 17.1843C12.7637 17.3326 12.7896 17.5019 12.7611 17.6663C12.7325 17.8307 12.6509 17.9813 12.5289 18.0951C12.4076 18.2103 12.2535 18.285 12.0879 18.3086C11.9224 18.3323 11.7535 18.3038 11.6049 18.2271L9.47966 17.0655L7.35446 18.2271C7.20581 18.3038 7.03697 18.3323 6.87138 18.3086C6.7058 18.285 6.55169 18.2103 6.43046 18.0951C6.3084 17.9813 6.22686 17.8307 6.19827 17.6663C6.16968 17.5019 6.19559 17.3326 6.27206 17.1843L7.11686 15.4947L5.12366 13.6995C5.02455 13.5895 4.95823 13.454 4.93223 13.3083C4.90624 13.1626 4.92159 13.0125 4.97657 12.875C5.03154 12.7376 5.12393 12.6183 5.24326 12.5307C5.36258 12.4431 5.50407 12.3907 5.65166 12.3795H7.90886L8.75366 10.2279Z" stroke="white" stroke-width="1.32" stroke-linecap="round" stroke-linejoin="round"/>
</g>
<defs>
<clipPath id="clip0_1622_50278">
<rect width="18.48" height="18.48" fill="white" transform="translate(0.240234 0.5)"/>
</clipPath>
</defs>
</svg>