<svg width="158" height="127" viewBox="0 0 158 127" fill="none" xmlns="http://www.w3.org/2000/svg">
<g clip-path="url(#clip0_1254_41127)">
<path d="M68.53 106.532H48.181C46.9118 106.532 45.8828 107.561 45.8828 108.83V118.598C45.8828 119.867 46.9118 120.896 48.181 120.896H68.53C69.7993 120.896 70.8283 119.867 70.8283 118.598V108.83C70.8283 107.561 69.7993 106.532 68.53 106.532Z" fill="white" fill-opacity="0.2"/>
<path d="M25.7781 106.532H5.4291C4.15982 106.532 3.13086 107.561 3.13086 108.83V118.598C3.13086 119.867 4.15982 120.896 5.4291 120.896H25.7781C27.0474 120.896 28.0763 119.867 28.0763 118.598V108.83C28.0763 107.561 27.0474 106.532 25.7781 106.532Z" fill="white" fill-opacity="0.2"/>
<path d="M133.701 81.9705H154.002C155.294 81.9705 156.3 83.0238 156.3 84.2687V93.9883C156.3 95.2811 155.247 96.2866 154.002 96.2866H133.701C132.408 96.2866 131.402 95.2332 131.402 93.9883V84.2687C131.402 82.9759 132.456 81.9705 133.701 81.9705Z" fill="white" fill-opacity="0.2"/>
<path d="M90.9369 106.532H111.238C112.531 106.532 113.536 107.585 113.536 108.83V118.55C113.536 119.843 112.483 120.848 111.238 120.848H90.9369C89.6441 120.848 88.6387 119.795 88.6387 118.55V108.83C88.6387 107.537 89.692 106.532 90.9369 106.532Z" fill="white" fill-opacity="0.2"/>
<path d="M133.701 106.532H154.002C155.294 106.532 156.3 107.585 156.3 108.83V118.55C156.3 119.843 155.247 120.848 154.002 120.848H133.701C132.408 120.848 131.402 119.795 131.402 118.55V108.83C131.402 107.537 132.456 106.532 133.701 106.532Z" fill="white" fill-opacity="0.2"/>
<path d="M158.881 36.2927C158.259 35.4309 157.349 34.8563 156.296 34.6648L138.772 30.6908C137.048 30.4035 135.277 31.3132 134.51 32.9411L133.505 37.8728C132.978 39.0219 133.026 40.2668 133.601 41.368C134.175 42.4692 135.229 43.2353 136.474 43.4268L138.006 43.6662L78.5387 86.6625C78.012 87.0455 77.3417 87.0455 76.815 86.7104L44.4003 66.6486C43.1075 65.8826 41.4796 65.8826 40.1868 66.6486L2.26589 90.7802C1.35617 91.3547 0.733727 92.2166 0.542207 93.2699C0.302807 94.3233 0.494327 95.3766 1.06889 96.2385L3.22349 99.6858C3.98957 100.883 5.28233 101.505 6.57509 101.505C7.29329 101.505 8.01149 101.314 8.68181 100.883L41.5275 80.1029C42.0063 79.7678 42.6766 79.7678 43.2033 80.1029L75.9532 100.356C77.3417 101.218 79.0654 101.122 80.3582 100.213L145.044 53.4338L144.709 55.3011C144.517 56.546 144.9 57.7908 145.762 58.7006C146.624 59.6103 147.869 60.0412 149.114 59.8976H153.471C155.195 59.6582 156.583 58.3654 156.87 56.6417L159.552 39.3092C159.743 38.2558 159.504 37.2024 158.881 36.3406V36.2927Z" fill="white" fill-opacity="0.2"/>
<path d="M43.108 45.4851C44.3528 45.4851 47.1778 45.7724 47.1778 48.2142C47.1778 49.507 45.502 50.9434 43.108 50.9434C41.3364 50.9434 39.9479 50.1773 39.3733 49.2197C38.9903 48.6452 38.4157 48.2142 37.6975 48.2142H32.8616C31.6646 48.2142 30.707 49.3634 30.9943 50.5604C31.8083 53.912 34.3459 56.689 37.7454 58.1254C38.4636 58.4127 38.9424 59.083 38.9424 59.8491V62.674C38.9424 63.7274 39.8042 64.5413 40.8097 64.5413H45.3583C46.4117 64.5413 47.2256 63.6795 47.2256 62.674V59.8491C47.2256 59.083 47.7044 58.4127 48.4226 58.1254C52.5882 56.3538 55.461 52.5713 55.461 48.2142C55.461 41.7026 50.3857 37.154 43.0601 37.154C40.3788 37.154 38.9903 36.2442 38.9903 34.4248C38.9903 33.132 40.6661 31.6956 43.0601 31.6956C44.8316 31.6956 46.2201 32.4617 46.7947 33.4193C47.1777 33.9939 47.7523 34.4248 48.4705 34.4248H53.3064C54.5034 34.4248 55.461 33.2757 55.1737 32.0787C54.3597 28.7271 51.8221 25.95 48.4226 24.5136C47.7044 24.2264 47.2256 23.556 47.2256 22.79V19.8693C47.2256 18.8159 46.3638 18.002 45.3583 18.002H40.8097C39.7563 18.002 38.9424 18.8638 38.9424 19.8693V22.79C38.9424 23.556 38.4636 24.2264 37.7454 24.5136C33.5798 26.2852 30.707 30.0677 30.707 34.4248C30.707 39.7395 34.5853 45.4851 43.108 45.4851Z" fill="white" fill-opacity="0.2"/>
<path d="M79.7828 40.8412H71.8347C71.1472 40.8412 70.5898 41.3985 70.5898 42.0861V50.0341C70.5898 50.7217 71.1472 51.279 71.8347 51.279H79.7828C80.4703 51.279 81.0277 50.7217 81.0277 50.0341V42.0861C81.0277 41.3985 80.4703 40.8412 79.7828 40.8412Z" fill="white" fill-opacity="0.2"/>
<path d="M116.748 7.42152C116.748 3.35172 113.444 0.00012207 109.326 0.00012207H3.79868C3.0326 0.00012207 2.41016 0.622562 2.41016 1.43652V9.04944C2.41016 9.81552 3.0326 10.438 3.79868 10.438H79.8321C80.7418 10.438 81.46 11.0604 81.6516 11.9222C84.2371 23.4134 93.2864 32.4628 104.778 35.0483C105.639 35.2398 106.262 35.958 106.262 36.8677V60.6641L116.7 53.1469V7.42152H116.748Z" fill="white" fill-opacity="0.2"/>
</g>
<defs>
<clipPath id="clip0_1254_41127">
<rect width="159.249" height="145.459" fill="white" transform="translate(0.400391)"/>
</clipPath>
</defs>
</svg>
