<svg width="80" height="90" viewBox="0 0 80 90" fill="none" xmlns="http://www.w3.org/2000/svg">
<g clip-path="url(#clip0_1254_5951)">
<path d="M78.3729 4.62743C72.4764 2.2328 61.1212 -1.37204 53.3965 2.1298C47.4743 4.83343 44.1785 11.9916 45.3887 18.918V19.124C45.4917 19.4845 45.9294 19.639 46.2126 19.3815C51.6199 14.2832 56.8984 11.6569 60.426 10.2922C55.3792 12.3778 43.7407 21.6731 40.1874 29.7325C36.6341 21.6731 24.9956 12.3778 19.9488 10.2922C23.4764 11.6569 28.7549 14.2832 34.1622 19.3815C34.4454 19.639 34.8832 19.5102 34.9604 19.124V18.918C36.1963 12.0173 32.9005 4.85917 26.9783 2.1298C19.2279 -1.37204 7.87266 2.2328 1.97619 4.62743C0.534254 5.21966 0.431258 7.17657 1.7702 7.92328C4.13909 9.23647 7.17744 11.5281 9.2631 15.3647C12.25 20.7977 19.5626 25.2007 26.6435 23.836C30.0424 23.1666 34.5742 25.2522 36.5568 28.0846C36.7113 28.2906 36.8401 28.4966 36.9688 28.7026C38.3077 30.7625 38.9 33.2086 38.9 35.6547V43.4309H41.4748V35.629C41.4748 33.1571 42.0671 30.6852 43.4318 28.6253C43.5605 28.4451 43.6892 28.2391 43.818 28.0588C45.8006 25.2522 50.3067 23.1923 53.6798 23.836C60.7607 25.2265 68.0991 20.7977 71.086 15.3647C73.1716 11.5796 76.1842 9.26222 78.5531 7.94903C79.9178 7.20231 79.7891 5.21966 78.3471 4.62743H78.3729Z" fill="#707070"/>
<path d="M40.186 36.4019C25.5092 36.4019 13.6133 48.2978 13.6133 62.9746C13.6133 77.6514 25.5092 89.5474 40.186 89.5474C54.8629 89.5474 66.7588 77.6514 66.7588 62.9746C66.7588 48.2978 54.8629 36.4019 40.186 36.4019ZM40.186 60.2452C45.0526 60.2452 48.4514 63.2836 48.4514 67.6094C48.4514 70.5705 46.4688 73.1196 43.6106 74.2783C43.1987 74.4586 42.9154 74.8191 42.9154 75.2568V77.0335C42.9154 77.6257 42.4262 78.0892 41.8597 78.0892H38.4866C37.8944 78.0892 37.4309 77.5999 37.4309 77.0335V75.2568C37.4309 74.8191 37.1477 74.4328 36.7357 74.2783C34.3153 73.2741 32.5129 71.2915 32.0237 68.8968C31.8949 68.2274 32.4099 67.6094 33.0794 67.6094H36.607C36.9932 67.6094 37.3537 67.8411 37.5339 68.1759C37.8944 68.8711 38.8729 69.4633 40.1603 69.4633C41.8082 69.4633 42.9412 68.4849 42.9412 67.5836C42.9412 65.8842 41.01 65.704 40.1603 65.704C34.4698 65.704 31.8692 61.8932 31.8692 58.3398C31.8692 55.3787 33.8518 52.8296 36.71 51.6709C37.1219 51.4906 37.4052 51.1302 37.4052 50.6924V48.9158C37.4052 48.3235 37.8944 47.8601 38.4609 47.8601H41.834C42.4262 47.8601 42.8897 48.3493 42.8897 48.9158V50.6924C42.8897 51.1302 43.1729 51.5164 43.5849 51.6709C46.0053 52.6493 47.8077 54.6578 48.2969 57.0524C48.4257 57.7219 47.9107 58.3398 47.2412 58.3398H43.7136C43.3274 58.3398 42.9669 58.1081 42.7867 57.7734C42.4262 57.0781 41.4477 56.4859 40.1603 56.4859C38.5124 56.4859 37.3794 57.4644 37.3794 58.3656C37.3794 59.6015 38.3064 60.2452 40.1603 60.2452H40.186Z" fill="#189EFB"/>
</g>
<defs>
<clipPath id="clip0_1254_5951">
<rect width="78.6883" height="88.9106" fill="white" transform="translate(0.816406 0.662598)"/>
</clipPath>
</defs>
</svg>
