<svg width="179" height="156" viewBox="0 0 179 156" fill="none" xmlns="http://www.w3.org/2000/svg">
<g clip-path="url(#clip0_1254_28347)">
<path d="M149.763 0.695312C121.837 0.695312 98.9196 22.1581 96.5488 49.4704C104.54 53.215 111.054 59.707 114.555 67.883L122.546 86.5319L143.485 97.9132C146.358 99.4716 148.707 101.909 150.25 104.856C152.355 105.299 154.327 106.141 156.188 107.182C182.666 103.999 203.22 81.48 203.22 54.153C203.154 24.6471 179.269 0.695312 149.763 0.695312ZM143.47 46.6565L159.593 52.277C165.413 54.3524 168.227 58.4293 168.227 64.7219C168.227 71.9451 162.474 77.898 155.45 77.898H154.852V78.2303C154.852 80.9704 152.577 83.2452 149.837 83.2452C147.097 83.2452 144.822 80.9704 144.822 78.2303V77.8315C137.392 77.4992 131.439 71.273 131.439 63.5107C131.439 60.7706 133.714 58.4958 136.454 58.4958C139.194 58.4958 141.469 60.7706 141.469 63.5107C141.469 65.9184 143.212 67.8608 145.346 67.8608H155.383C156.92 67.8608 158.123 66.4575 158.123 64.7145C158.123 62.3733 157.725 62.2403 156.181 61.7012L140.058 56.0806C134.305 54.0717 131.431 49.9948 131.431 43.6357C131.431 36.4125 137.185 30.4523 144.209 30.4523H144.814V30.1864C144.814 27.4463 147.089 25.1715 149.829 25.1715C152.569 25.1715 154.844 27.4463 154.844 30.1864V30.5852C162.267 30.9176 168.227 37.1437 168.227 44.8987C168.227 47.6388 165.952 49.9136 163.212 49.9136C160.472 49.9136 158.197 47.6388 158.197 44.8987C158.197 42.491 156.454 40.5485 154.32 40.5485H144.283C142.746 40.5485 141.542 41.9518 141.542 43.6948C141.476 45.9696 141.875 46.1026 143.485 46.6417L143.47 46.6565Z" fill="white" fill-opacity="0.2"/>
<path d="M64.9218 58.3625C75.8969 58.3625 84.7967 49.4627 84.7967 38.4876C84.7967 27.5124 75.8969 18.6127 64.9218 18.6127C53.9466 18.6127 45.0469 27.5124 45.0469 38.4876C45.0469 49.4627 53.9466 58.3625 64.9218 58.3625Z" fill="white" fill-opacity="0.2"/>
<path d="M144.25 110.158C143.504 107.182 141.562 104.442 138.829 102.957L116.14 90.6305L107.366 70.15C103.496 61.1321 95.6004 54.7213 86.324 52.4982C81.8113 59.1822 74.1671 63.5915 65.5111 63.5915C56.855 63.5915 49.137 59.1305 44.6317 52.38C35.7837 54.3446 28.1025 60.1054 23.9148 68.407L1.70606 112.337C-0.568733 116.842 0.708992 123.231 4.90407 126.03C6.70618 127.234 8.71509 127.803 10.6797 127.803C14.4538 127.803 18.0949 125.727 19.9118 122.123L38.9226 84.493V190.204C38.9226 196.261 43.3466 201.711 49.3733 202.236C56.1756 202.827 61.8847 197.479 61.8847 190.803V127.685C61.8847 125.868 63.3618 124.391 65.1787 124.391C66.9956 124.391 68.4727 125.868 68.4727 127.685V190.204C68.4727 196.261 72.8968 201.711 78.9235 202.236C85.7257 202.827 91.4349 197.479 91.4349 190.803V85.4458L99.9727 105.365L128.895 121.082C127.736 123.741 127.027 126.695 127.027 129.863V197.649C127.027 200.537 129.368 202.878 132.256 202.878C135.143 202.878 137.485 200.537 137.485 197.649V129.863C137.485 124.848 140.528 120.609 144.139 120.609C147.751 120.609 150.794 124.848 150.794 129.863V136.237C150.794 139.125 153.135 141.466 156.023 141.466C158.911 141.466 161.252 139.125 161.252 136.237V129.863C161.252 119.051 153.645 110.254 144.28 110.166L144.25 110.158Z" fill="white" fill-opacity="0.2"/>
</g>
<defs>
<clipPath id="clip0_1254_28347">
<rect width="202.619" height="202.176" fill="white" transform="translate(0.591797 0.695312)"/>
</clipPath>
</defs>
</svg>
