<svg xmlns="http://www.w3.org/2000/svg" width="126" height="92" viewBox="0 0 126 92" fill="none">
  <g clip-path="url(#clip0_293_108222)">
    <path d="M8.42822 26.0678L26.2362 58.9174L63.8682 84.1902C63.8682 84.1902 71.2266 85.355 72.201 77.6046C72.201 77.6046 79.4754 78.439 79.257 70.0054C79.257 70.0054 86.1842 71.1982 87.0522 63.1566C87.0522 63.1566 94.7858 63.8006 94.181 53.295L113.171 29.663L93.3074 11.8606L61.0234 18.7878L56.129 23.2958L25.9114 7.64941L8.42822 26.0678Z" fill="white"/>
    <path d="M52.002 43.8205C49.286 43.8205 47.3932 42.4653 46.2956 41.3509C43.6692 38.6797 43.5348 34.4349 45.9932 31.4837L55.5132 20.0149C57.4396 17.6965 60.1332 16.1845 63.1124 15.7477L80.8197 12.0181C82.2085 11.7269 83.5805 12.6173 83.8717 14.0061C84.1629 15.4005 83.2724 16.7669 81.8837 17.0581L64.0924 20.8045C64.0308 20.8157 63.9748 20.8269 63.9132 20.8381C62.1716 21.0789 60.598 21.9525 59.478 23.3077L49.958 34.7765C49.2132 35.6725 49.2188 36.9773 49.9748 37.7445C50.4956 38.2709 51.862 39.6653 55.4572 37.4085L64.9437 29.0141C66.0077 28.0677 67.6372 28.1685 68.578 29.2381C69.5189 30.3021 69.4236 31.9317 68.354 32.8725L58.7108 41.4013C58.6156 41.4853 58.5092 41.5637 58.3972 41.6365C55.9052 43.2437 53.7716 43.8205 51.9964 43.8205H52.002Z" fill="#666666"/>
    <path d="M36.8986 56.0397C39.833 58.9685 38.2762 61.8357 35.409 64.7085C32.5418 67.5813 29.445 69.3733 26.5162 66.4445C23.5874 63.5157 24.8138 60.0997 27.681 57.2213C30.5482 54.3485 33.9642 53.1053 36.8986 56.0341V56.0397Z" fill="white"/>
    <path d="M29.7082 70.5215C28.1906 70.5215 26.421 69.9951 24.6906 68.2703C21.0842 64.6695 21.5266 59.7415 25.8554 55.4071C30.1786 51.0727 35.1066 50.6135 38.7186 54.2142C41.1882 56.6782 42.9354 60.8111 37.2346 66.5287C35.2354 68.5279 33.4826 69.7039 31.713 70.2247C31.1306 70.3983 30.453 70.5215 29.7138 70.5215H29.7082ZM33.1914 56.9583C32.3066 56.9583 31.1026 57.4399 29.501 59.0471C26.1298 62.4295 27.7258 64.0255 28.3306 64.6247C29.2042 65.4983 29.7642 65.4311 30.257 65.2855C31.1418 65.0279 32.2618 64.2214 33.5834 62.8942C36.8426 59.6295 35.9466 58.7335 35.0786 57.8655C34.765 57.5519 34.1714 56.9583 33.1914 56.9583Z" fill="#666666"/>
    <path d="M45.2648 64.3776C48.1992 67.3064 46.6424 70.1736 43.7752 73.0464C40.908 75.9192 37.8112 77.7112 34.8824 74.7824C31.948 71.8536 33.18 68.4376 36.0472 65.5592C38.9144 62.6864 42.3304 61.4432 45.2648 64.372V64.3776Z" fill="white"/>
    <path d="M38.0747 78.8648C36.5571 78.8648 34.7875 78.3384 33.0571 76.6136C30.5427 74.1048 30.4195 71.456 30.7555 69.6808C31.1363 67.6704 32.3011 65.6712 34.2219 63.7504C36.1371 61.8296 38.1307 60.6592 40.1411 60.2728C41.9163 59.9312 44.5651 60.0488 47.0795 62.5576C49.5491 65.0216 51.2963 69.1544 45.5955 74.872C43.5963 76.8712 41.8435 78.0472 40.0739 78.568C39.4915 78.7416 38.8139 78.8648 38.0747 78.8648ZM41.5803 65.2792C41.4123 65.2792 41.2611 65.3016 41.1155 65.324C40.1635 65.5088 39.0099 66.2368 37.8675 67.3848C36.7251 68.5272 35.9971 69.6864 35.8179 70.6384C35.7115 71.204 35.7115 71.9824 36.6971 72.9624C37.5707 73.836 38.1307 73.7688 38.6235 73.6232C39.5083 73.3656 40.6283 72.5592 41.9499 71.232C45.2091 67.9672 44.3131 67.0712 43.4451 66.2032C42.7059 65.464 42.0843 65.2792 41.5803 65.2792Z" fill="#666666"/>
    <path d="M54.0346 71.1705C56.969 74.0993 55.4122 76.9666 52.545 79.8394C49.6778 82.7122 46.581 84.5041 43.6522 81.5753C40.7234 78.6465 41.9498 75.2305 44.817 72.3521C47.6842 69.4793 51.1002 68.2361 54.0346 71.1649V71.1705Z" fill="white"/>
    <path d="M46.8442 85.6518C45.3266 85.6518 43.557 85.1254 41.8266 83.4006C38.2202 79.7998 38.6626 74.8718 42.9914 70.5374C44.9066 68.6166 46.9002 67.4462 48.9162 67.0598C50.6914 66.7182 53.3402 66.8358 55.8546 69.3502C58.4082 71.8982 58.4082 74.4742 57.9546 76.1878C57.4954 77.935 56.353 79.6766 54.365 81.6646C52.3658 83.6638 50.613 84.8398 48.8434 85.3606C48.261 85.5342 47.5834 85.6574 46.8442 85.6574V85.6518ZM50.3442 72.0718C50.1762 72.0718 50.025 72.0942 49.885 72.1166C48.933 72.3014 47.7794 73.0294 46.637 74.1774C43.2658 77.5598 44.8618 79.1558 45.4666 79.755C46.3402 80.6286 46.9002 80.5614 47.393 80.4158C48.2778 80.1582 49.3978 79.3518 50.7194 78.0246C52.0018 76.7422 52.7578 75.6782 52.9706 74.8718C53.0602 74.5414 53.2058 73.987 52.2146 72.9958C51.4754 72.2566 50.8538 72.0718 50.3498 72.0718H50.3442Z" fill="#666666"/>
    <path d="M63.6444 77.1686C66.5788 80.0974 65.022 82.9646 62.1548 85.8374C59.2876 88.7102 56.1908 90.5022 53.262 87.5734C50.3276 84.6446 51.5596 81.2286 54.4268 78.3502C57.294 75.4774 60.71 74.2342 63.6444 77.163V77.1686Z" fill="white"/>
    <path d="M56.4091 91.6662C54.3259 91.6662 52.6683 90.6302 51.4419 89.3982C47.8355 85.7974 48.2779 80.8694 52.6067 76.535C56.9299 72.2006 61.8579 71.7414 65.4699 75.3422C67.9395 77.8062 69.6867 81.9446 63.9859 87.6566C61.0347 90.6134 58.5091 91.6662 56.4203 91.6662H56.4091ZM59.9371 78.0862C59.0523 78.0862 57.8483 78.5678 56.2467 80.175C52.8755 83.5574 54.4715 85.1534 55.0763 85.7526C55.8211 86.4974 56.8403 87.5166 60.3291 84.0166C63.5883 80.7518 62.6923 79.8558 61.8243 78.9878C61.5107 78.6742 60.9171 78.0806 59.9371 78.0806V78.0862Z" fill="#666666"/>
    <path d="M65.436 86.8451C64.8648 86.8451 64.2656 86.8171 63.644 86.7611C62.2272 86.6323 61.18 85.3835 61.3088 83.9667C61.4376 82.5499 62.692 81.5027 64.1032 81.6315C66.5616 81.8499 68.348 81.4859 69.1264 80.6067C69.9384 79.6883 69.692 78.1707 69.6864 78.1539C69.5072 77.3251 69.748 76.4571 70.336 75.8411C70.9184 75.2251 71.7696 74.9339 72.6096 75.0683C73.808 75.2587 74.4072 74.9115 74.7544 74.6315C76.1488 73.5171 76.6304 70.7395 76.692 69.8547C76.7704 68.6619 77.6608 67.6707 78.8424 67.4747C84.0896 66.6123 84.4592 63.4091 84.4872 63.0507C84.4648 61.8355 85.288 60.9339 86.4752 60.6595C89.2528 60.0099 90.4848 57.9491 90.692 56.3811C91.168 52.8587 87.8136 50.1707 86.772 49.4315L68.8016 36.2939C67.6536 35.4539 67.4016 33.8411 68.2416 32.6931C69.0816 31.5451 70.6944 31.2931 71.8424 32.1331L89.7848 45.2539C94.1192 48.3339 96.376 52.7579 95.7992 57.0699C95.4184 59.9091 93.4808 63.5267 89.2976 65.1675C88.536 67.6427 86.3632 70.7787 81.5528 72.1451C81.1552 74.0435 80.2144 76.8547 77.9912 78.6411C77.0448 79.4027 75.9584 79.9067 74.7712 80.1307C74.5808 81.3571 74.0936 82.7683 72.9848 84.0227C71.3216 85.8987 68.7904 86.8507 65.436 86.8507V86.8451Z" fill="#666666"/>
    <path d="M87.1697 65.2912C86.6489 65.2912 86.1281 65.1344 85.6689 64.8096L74.0209 56.46C72.8673 55.6312 72.5985 54.024 73.4273 52.8648C74.2561 51.7056 75.8633 51.4424 77.0225 52.2712L88.6705 60.6208C89.8241 61.4496 90.0929 63.0568 89.2641 64.216C88.7601 64.916 87.9705 65.2912 87.1697 65.2912Z" fill="#666666"/>
    <path d="M79.537 72.9348C79.0162 72.9348 78.4954 72.778 78.0362 72.4532L66.965 64.518C65.8114 63.6892 65.5426 62.082 66.3714 60.9228C67.2002 59.7692 68.8074 59.5004 69.9666 60.3292L81.0378 68.2644C82.1914 69.0932 82.4602 70.7004 81.6314 71.8596C81.1274 72.5596 80.3378 72.9348 79.537 72.9348Z" fill="#666666"/>
    <path d="M71.7754 79.7826C71.2546 79.7826 70.7338 79.6258 70.2746 79.301L59.517 71.5898C58.3634 70.761 58.0946 69.1538 58.9234 67.9946C59.7522 66.8354 61.3594 66.5722 62.5186 67.401L73.2762 75.1122C74.4354 75.941 74.6986 77.5482 73.8698 78.7074C73.3658 79.4074 72.5762 79.7826 71.7754 79.7826Z" fill="#666666"/>
    <path d="M22.7419 55.7431C21.8235 55.7431 20.9331 55.2503 20.4683 54.3879L14.0619 42.4543C13.3899 41.1999 13.8603 39.6375 15.1147 38.9655C16.3691 38.2935 17.9315 38.7639 18.6035 40.0183L25.0099 51.9519C25.6819 53.2063 25.2115 54.7687 23.9571 55.4407C23.5707 55.6479 23.1507 55.7487 22.7419 55.7487V55.7431Z" fill="#666666"/>
    <path d="M50.7643 23.1004C50.3667 23.1004 49.9579 23.0052 49.5827 22.8092L40.7795 18.2508C39.5139 17.5956 39.0211 16.0444 39.6763 14.7788C40.3315 13.5132 41.8827 13.0204 43.1483 13.6756L51.9515 18.234C53.2171 18.8892 53.7099 20.4404 53.0547 21.706C52.5955 22.5908 51.6995 23.1004 50.7643 23.1004Z" fill="#666666"/>
    <path d="M96.8463 53.7268C96.3087 53.7268 95.7711 53.5588 95.3063 53.2172C94.1639 52.366 93.9343 50.7532 94.7855 49.6108L104.026 37.2404C104.877 36.098 106.49 35.8684 107.632 36.7196C108.774 37.5708 109.004 39.1836 108.153 40.326L98.9127 52.6964C98.4087 53.374 97.6303 53.7324 96.8463 53.7324V53.7268Z" fill="#666666"/>
    <path d="M28.9632 2.57387L2.5791 28.958L12.0905 38.4694L38.4747 12.0853L28.9632 2.57387Z" fill="#186ECF"/>
    <path d="M12.0848 41.048C11.424 41.048 10.7688 40.796 10.2648 40.292L0.756 30.7832C-0.252 29.7752 -0.252 28.1456 0.756 27.1376L27.1376 0.756C27.6192 0.2744 28.2744 0 28.9576 0C29.6408 0 30.296 0.2688 30.7776 0.756L40.292 10.2704C40.7736 10.752 41.048 11.4072 41.048 12.0904C41.048 12.7736 40.7792 13.4288 40.292 13.9104L13.9104 40.292C13.4064 40.796 12.7456 41.048 12.0904 41.048H12.0848ZM6.2216 28.9576L12.0904 34.8264L34.8264 12.0848L28.9576 6.216L6.2216 28.9576Z" fill="#666666"/>
    <path d="M86.923 12.0875L113.307 38.4717L122.819 28.9602L96.4344 2.57611L86.923 12.0875Z" fill="#186ECF"/>
    <path d="M113.305 41.048C112.644 41.048 111.989 40.796 111.485 40.292L85.1034 13.9104C84.6218 13.4288 84.3474 12.7736 84.3474 12.0904C84.3474 11.4072 84.6162 10.752 85.1034 10.2704L94.6122 0.756C95.6202 -0.252 97.2498 -0.252 98.2578 0.756L124.639 27.1376C125.121 27.6192 125.395 28.2744 125.395 28.9576C125.395 29.6408 125.127 30.296 124.639 30.7776L115.131 40.2864C114.627 40.7904 113.966 41.0424 113.311 41.0424L113.305 41.048ZM90.5634 12.0848L113.305 34.8264L119.174 28.9576L96.4322 6.216L90.5634 12.0848Z" fill="#666666"/>
  </g>
  <defs>
    <clipPath id="clip0_293_108222">
      <rect width="125.395" height="91.6664" fill="white"/>
    </clipPath>
  </defs>
</svg>