<svg width="634" height="350" viewBox="0 0 634 350" fill="none" xmlns="http://www.w3.org/2000/svg">
<g clip-path="url(#clip0_627_50137)">
<path d="M-29.6913 347.632L-29.7489 347.529C-29.7489 347.529 -29.8094 347.425 -29.8094 347.373C-30.034 346.959 -121.316 230.304 20.677 149.169C76.2351 117.42 17.2181 96.4331 61.4031 61.084C112.178 20.4644 167.56 65.4385 224.017 47.0296C233.99 43.778 244.001 38.5451 254.02 30.5156C260.708 25.1646 267.985 20.7438 275.537 17.1064C295.898 7.3086 319.221 2.7294 342.059 1.38732C405.131 -2.27316 476.106 18.4542 512.728 48.7201C520.098 54.8171 553.621 86.3531 527.177 129.674C510.479 157.028 580.385 183.179 605.222 214.43C647.296 267.37 633.714 308.859 619.795 330.951C618.026 333.762 616.255 336.256 614.591 338.419C609.692 344.784 605.729 348.303 605.588 348.563L-29.6942 347.632H-29.6913Z" fill="#EBF3FA"/>
<path d="M270.111 116.654H112.318C113.802 113.44 122.01 97.617 139.212 99.6042C139.212 99.6042 167.001 66.5705 196.613 95.2208C196.613 95.2208 228.103 88.1331 251.417 101.381C261.687 107.216 267.412 113.241 270.114 116.657L270.111 116.654Z" fill="#F8FCFF"/>
<path d="M459.624 87.7269C459.624 87.7269 454.33 74.9081 441.177 76.1205C441.177 76.1205 422.443 54.6041 401.831 72.6818C401.831 72.6818 380.294 67.7916 364.16 76.0485C353.403 81.5551 349.789 87.4476 349.789 87.4476L459.621 87.7269H459.624Z" fill="#F8FCFF"/>
<path d="M387.715 46.3445C387.715 46.3445 381.639 30.5909 366.498 32.0971C366.498 32.0971 344.962 5.66448 321.216 27.9182C321.216 27.9182 296.434 21.9307 277.855 32.1029C265.468 38.8853 261.298 46.1342 261.298 46.1342L387.713 46.3445H387.715Z" fill="#F8FCFF"/>
<path d="M174.414 200.487L144.983 200.476L145.821 197.532C152.719 173.317 154.994 76.9957 155.006 76.028L154.081 73.7441H166.572L165.659 75.9819C168.055 147.213 176.62 197.328 176.698 197.826L177.107 200.49H174.414V200.487Z" fill="#D2E0FF"/>
<path d="M181.669 199.563H140.854V206.052H181.669V199.563Z" fill="#D2E0FF"/>
<path d="M197.561 261.103H124.919V268.294H197.561V261.103Z" fill="#D2E0FF"/>
<path d="M145.798 204.1C145.798 204.1 137.694 245.094 130.315 261.095L145.778 261.101C145.778 261.101 155.141 226.042 156.587 204.105H145.798V204.1Z" fill="#D2E0FF"/>
<path d="M176.724 204.107C176.724 204.107 184.802 245.107 192.17 261.111L176.707 261.105C176.707 261.105 167.37 226.041 165.938 204.102H176.727L176.724 204.107Z" fill="#D2E0FF"/>
<path d="M124.797 268.283L96.9707 318.62L113.274 318.626L140.68 268.289L124.797 268.283Z" fill="#D2E0FF"/>
<path d="M197.682 268.308L225.474 318.662L209.17 318.657L181.799 268.303L197.682 268.308Z" fill="#D2E0FF"/>
<path d="M204.772 301.035L199.366 300.727C194.243 288.107 179.149 278.96 161.327 278.954C145.536 278.948 131.888 286.12 125.411 296.525L118.827 296.153C118.827 296.153 135.56 264.692 136.28 264.692C137 264.692 188.065 265.608 188.065 265.608L204.775 301.035H204.772Z" fill="#D2E0FF"/>
<path d="M170.013 214.533H151.492V218.669H170.013V214.533Z" fill="#D2E0FF"/>
<path d="M154.067 73.7068L156.42 65.9395L164.159 65.9423L166.506 73.7097L154.067 73.7068Z" fill="#D2E0FF"/>
<path d="M160.757 45.8584H159.827V68.7026H160.757V45.8584Z" fill="#D2E0FF"/>
<g opacity="0.5">
<path d="M605.279 325.22L605.314 224.031C605.314 224.031 564.208 195.473 498.521 202.688V211.138L457.017 211.123L456.979 325.171L605.279 325.22Z" fill="#D2E0FF"/>
</g>
<path d="M369.972 208.713L369.932 325.14L524.916 325.192L511.178 288.691L514.176 286.243V275.82H510.378V268.398L491.514 269.182L479.971 234.668V224.959L464.617 224.954L454.529 191.713V182.995H446.81L442.577 156.723L436.632 154.826C436.632 154.826 401.908 149.981 369.983 168.448L369.969 208.719L369.972 208.713Z" fill="#D2E0FF"/>
<path d="M391.935 192.331H383.488V184.209C383.488 181.885 385.389 179.987 387.713 179.987C390.037 179.987 391.935 181.888 391.935 184.212V192.331Z" fill="#EBF3FA"/>
<path d="M416.553 223.741L403.711 223.735V211.394C403.717 207.863 406.605 204.975 410.139 204.975C413.67 204.975 416.559 207.866 416.559 211.397L416.553 223.738V223.741Z" fill="#EBF3FA"/>
<path d="M396.318 223.735L383.477 223.729V211.388C383.482 207.857 386.371 204.969 389.905 204.969C393.436 204.969 396.324 207.86 396.324 211.391V223.732L396.318 223.735Z" fill="#EBF3FA"/>
<path d="M416.544 254.761L403.702 254.755V242.415C403.708 238.884 406.597 235.995 410.13 235.995C413.661 235.995 416.55 238.887 416.55 242.418V254.758L416.544 254.761Z" fill="#EBF3FA"/>
<path d="M396.31 254.755L383.468 254.75V242.409C383.474 238.878 386.362 235.989 389.896 235.989C393.427 235.989 396.315 238.881 396.315 242.412V254.752L396.31 254.755Z" fill="#EBF3FA"/>
<path d="M570.656 292.331L553.952 292.325L553.958 276.269C553.958 271.675 557.719 267.917 562.313 267.92C566.906 267.92 570.665 271.681 570.662 276.275L570.656 292.331Z" fill="#D2E0FF"/>
<path d="M597.052 292.343L580.348 292.337L580.353 276.281C580.353 271.687 584.115 267.929 588.708 267.932C593.302 267.932 597.06 271.693 597.057 276.287L597.052 292.343Z" fill="#D2E0FF"/>
<path d="M570.668 253.702L553.964 253.696L553.97 237.64C553.97 233.047 557.731 229.288 562.324 229.291C566.918 229.291 570.676 233.052 570.674 237.646L570.668 253.702Z" fill="#D2E0FF"/>
<path d="M597.065 253.71L580.361 253.704L580.367 237.648C580.367 233.054 584.128 229.296 588.722 229.299C593.316 229.299 597.074 233.06 597.071 237.654L597.065 253.71Z" fill="#D2E0FF"/>
<path d="M340.464 129.59H282.331V168.68H340.464V129.59Z" fill="#CADBFC"/>
<path d="M296.779 149.129C296.779 141.056 303.328 134.513 311.401 134.516C319.474 134.516 326.014 141.065 326.014 149.137C326.014 157.21 319.465 163.751 311.392 163.751C303.32 163.751 296.779 157.201 296.779 149.129Z" fill="#EBF3FA"/>
<path d="M334.542 111.467H288.186V129.591H334.542V111.467Z" fill="#D2E0FF"/>
<path d="M288.188 111.458L296.8 86.9033L326.032 86.9148L334.545 111.473L288.188 111.458Z" fill="#CADBFC"/>
<path d="M326.101 62.6055H296.803V86.9098H326.101V62.6055Z" fill="#D2E0FF"/>
<path d="M310.555 26.4834C310.555 26.4834 307.983 50.4824 295.893 62.5957L327.02 62.6072C327.02 62.6072 316.951 54.31 313.299 26.4834H310.552H310.555Z" fill="#CADBFC"/>
<path d="M306.335 83.5249H302.902L302.905 73.1368C302.905 72.2324 303.64 71.498 304.547 71.498H304.699C305.604 71.498 306.338 72.2324 306.338 73.1368V83.5249H306.335Z" fill="#EBF3FA"/>
<path d="M312.994 83.5279H309.562L309.564 73.1397C309.564 72.2354 310.299 71.501 311.206 71.501H311.359C312.263 71.501 312.997 72.2354 312.997 73.1397V83.5279H312.994Z" fill="#EBF3FA"/>
<path d="M319.998 83.5308H316.565L316.568 73.1426C316.568 72.2383 317.303 71.5039 318.21 71.5039H318.365C319.27 71.5039 320.004 72.2383 320.004 73.1455V83.5337L319.998 83.5308Z" fill="#EBF3FA"/>
<path d="M313.841 126.541H309.59L309.593 117.449C309.593 116.492 310.367 115.718 311.324 115.718H312.113C313.069 115.718 313.844 116.492 313.844 117.449V126.541H313.841Z" fill="#EBF3FA"/>
<path d="M321.023 126.544H316.772V117.452C316.772 116.495 317.547 115.721 318.503 115.721H319.292C320.249 115.721 321.023 116.495 321.023 117.452V126.544Z" fill="#EBF3FA"/>
<path d="M325.398 115.724H326.187C327.143 115.724 327.918 116.498 327.918 117.455V126.547H323.667V117.455C323.667 116.498 324.442 115.724 325.398 115.724Z" fill="#EBF3FA"/>
<path d="M303.556 115.718H304.345C305.301 115.718 306.076 116.492 306.076 117.449V126.541H301.825V117.449C301.825 116.492 302.6 115.718 303.556 115.718Z" fill="#EBF3FA"/>
<path d="M298.306 126.538H294.055L294.058 117.446C294.058 116.49 294.832 115.715 295.788 115.715H296.578C297.534 115.715 298.308 116.49 298.308 117.446V126.538H298.306Z" fill="#EBF3FA"/>
<path d="M337.365 168.679H284.243V179.703H337.365V168.679Z" fill="#D2E0FF"/>
<path d="M337.335 179.705H284.214V333.471H337.335V179.705Z" fill="#D2E0FF"/>
<path d="M-15.7029 347.627C-15.7029 347.627 -21.6646 304.678 28.6318 291.197C78.9281 277.715 91.6462 316.886 91.6462 316.886C91.6462 316.886 108.857 307.255 124.285 314.199C124.285 314.199 146.228 293.837 187.406 301.654C187.406 301.654 202.705 267.863 243.771 270.213C269.558 271.687 292.708 301.717 292.708 301.717C292.708 301.717 317.075 268.073 360.805 297.377C360.805 297.377 382.918 284.38 404.587 297.391C404.587 297.391 423.797 290.894 435.216 296.101C435.216 296.101 463.978 289.175 480.011 312.154C480.011 312.154 519.099 300.444 545.857 318.948C545.857 318.948 555.283 313.309 566.264 315.268C566.264 315.268 579.561 308.693 593.719 315.276C607.878 321.86 606.717 335.154 606.717 335.154C606.717 335.154 626.485 331.522 628.23 348.575L-15.7058 347.624L-15.7029 347.627Z" fill="#AEC3FF"/>
<path d="M312.366 13.8975H311.499V30.2127H312.366V13.8975Z" fill="#CADBFC"/>
<path d="M310.391 13.8982C310.391 13.0457 311.082 12.3545 311.934 12.3545C312.787 12.3545 313.478 13.0457 313.478 13.8982C313.478 14.7507 312.787 15.4419 311.934 15.4419C311.082 15.4419 310.391 14.7507 310.391 13.8982Z" fill="#CADBFC"/>
<path d="M416.481 53.4014C416.481 53.4014 419.243 46.5642 425.841 47.3274C425.841 47.3274 435.426 35.9342 445.639 45.8154C445.639 45.8154 456.499 43.3732 464.54 47.9409C469.9 50.9879 471.671 54.1818 471.671 54.1818L416.484 53.4042L416.481 53.4014Z" fill="#F8FCFF"/>
<path d="M69.585 89.0283C69.585 89.0283 72.3872 82.0903 79.0832 82.8651C79.0832 82.8651 88.8061 71.3047 99.1712 81.33C99.1712 81.33 110.19 78.8503 118.349 83.4871C123.789 86.5774 125.584 89.8203 125.584 89.8203L69.585 89.0311V89.0283Z" fill="#F8FCFF"/>
<path d="M254.418 175.752C254.418 175.752 236.865 172.126 226.079 179.68C218.194 185.204 221.062 236.923 228.706 239.558C236.349 242.193 248.673 239.716 248.673 239.716L254.418 175.752Z" fill="#233862"/>
<path d="M301.744 205.995C301.744 205.995 302.113 202.423 302.919 201.421C303.726 200.419 304.688 197.571 305.365 198.031C306.041 198.492 305.103 200.52 305.664 201.185C306.229 201.85 311.96 199.708 312.438 200.491C312.916 201.274 313.002 203.875 310.969 204.923C308.936 205.972 304.086 208.149 302.297 209.091C301.125 209.707 301.744 205.995 301.744 205.995Z" fill="#FFB27D"/>
<path d="M263.974 183.337C263.974 183.337 263.686 191.706 266.059 195.747C268.429 199.788 286.639 217.554 291.734 219.864C296.832 222.174 294.747 208.125 293.134 206.947C291.521 205.766 275.183 176.897 263.974 183.337Z" fill="#FFB27D"/>
<path d="M290.257 209.609C290.257 209.609 284.563 219.323 279.27 222.658C278.869 222.911 278.429 223.122 277.951 223.3C272.084 225.512 260.898 222.652 260.898 222.652L259.409 218.724C259.409 218.724 263.839 217.402 269.426 216.524C275.01 215.642 280.635 198.596 286.513 195.068C289.246 193.423 289.995 203.235 290.191 207.596C290.245 208.814 290.257 209.606 290.257 209.606V209.609Z" fill="#F99746"/>
<path d="M290.256 209.609C290.256 209.609 284.563 219.323 279.269 222.658C278.869 222.912 278.428 223.122 277.95 223.301C278.12 223.122 283.589 217.353 283.88 213.785C284.174 210.159 286.823 206.239 289.467 206.83C289.801 206.902 290.038 207.178 290.19 207.596C290.245 208.814 290.256 209.606 290.256 209.606V209.609Z" fill="#ED7D2B"/>
<path d="M302.355 178.272C302.355 178.272 297.517 181.121 300.483 186.644C300.483 186.644 296.247 185.867 295.334 184.602C295.334 184.602 295.441 185.13 295.596 185.394C295.596 185.394 291.702 184.51 290.429 182.886C289.156 181.262 295.412 161.796 305.532 166.842C305.532 166.842 314.788 168.561 311.16 178.84C307.531 189.115 310.958 190.026 310.958 190.026C310.958 190.026 309.881 190.242 309.42 190.121C309.42 190.121 308.815 189.686 308.781 189.28C308.781 189.28 308.758 189.899 308.882 190.129C308.882 190.129 305.091 189.498 303.614 187.612C302.137 185.726 301.255 180.3 302.355 178.275V178.272Z" fill="#233862"/>
<path d="M295.362 194.814C295.362 194.814 295.351 194.817 295.345 194.82C295.316 194.817 295.322 194.814 295.362 194.814Z" fill="#FFB27D"/>
<path d="M307.124 191.433C307.265 192.706 307.435 193.849 307.51 194.394C307.68 195.615 296.1 194.817 295.362 194.814C295.878 194.59 297.45 189.607 297.949 187.709C298.553 185.405 299.026 182.914 299.026 182.914L307.202 183.432L307.689 183.464C307.386 184.579 307.17 185.633 307.023 186.609C307.003 186.742 306.986 186.874 306.969 187.004C306.819 188.089 306.951 189.861 307.127 191.436L307.124 191.433Z" fill="#FFB27D"/>
<path d="M297.9 182.088C297.9 182.088 296.575 177.883 296.846 174.66C297.039 172.359 300.316 164.508 308.193 167.852C308.193 167.852 310.509 168.716 312.343 170.819C313.804 172.489 315.681 175.764 310.926 182.111L309.544 184.314L297.897 182.088H297.9Z" fill="#233862"/>
<path d="M307.125 191.433C301.405 189.757 298.98 183.147 298.98 183.147C301.4 183.219 304.55 184.899 307.021 186.606C307.001 186.739 306.984 186.871 306.967 187.001C306.817 188.087 306.949 189.858 307.125 191.433Z" fill="#ED975D"/>
<path d="M307.531 189.112C307.531 189.112 297.197 186.554 298.891 180.143C300.581 173.732 300.388 169.087 307.055 170.449C313.723 171.811 314.356 174.594 314.31 176.872C314.267 179.15 310.261 189.613 307.531 189.112Z" fill="#FFB27D"/>
<path d="M314.949 173.225C311.877 168.358 308.207 167.851 308.193 167.851C305.569 166.089 302.093 170.409 302.093 170.409C300.187 174.824 296.172 176.581 296.172 176.581C296.172 176.581 297.741 178.237 302.358 178.271C303.769 178.283 305.195 177.655 306.5 176.782C303.974 179.25 301.03 180.734 301.03 180.734C306.572 179.76 310.451 173.657 311.136 172.505C311.882 173.704 312.622 175.1 312.663 175.964C312.743 177.733 312.084 181.154 313.092 181.298C313.092 181.298 317.02 176.506 314.949 173.228V173.225Z" fill="#233862"/>
<path d="M305.918 185.003C305.918 185.003 306.048 185.979 306.67 186.209C307.292 186.44 308.945 186.86 309.112 186.756C309.279 186.653 309.898 185.892 309.898 185.892C309.898 185.892 307.295 184.893 305.918 185.003Z" fill="white"/>
<path d="M302.027 283.063C301.895 283.613 301.765 284.155 301.636 284.693C300.855 287.93 300.13 290.931 299.672 293.443C299.075 296.711 298.934 299.145 299.715 300.167C302.923 304.375 299.703 337.766 299.703 337.766L296.049 341.527C296.049 341.527 289.71 308.557 287.99 303.393C287.207 301.046 286.069 291.015 285.067 280.776C285.015 280.264 284.966 279.751 284.917 279.238C284.745 277.447 284.577 275.664 284.416 273.922C283.515 264.234 282.844 255.939 282.844 255.939C282.844 255.939 289.58 251.207 295.7 250.68C299.306 250.366 302.696 251.516 304.369 255.945C306.805 262.39 304.331 273.516 302.033 283.063H302.027Z" fill="#FFB27D"/>
<path d="M300.998 285.281C296.287 280.14 293.185 272.779 287.434 262.474C286.947 257.232 291.08 252.253 295.693 250.683C299.299 250.369 302.689 251.518 304.362 255.948C306.799 262.393 303.297 275.736 300.998 285.284V285.281Z" fill="#ED975D"/>
<path d="M316.142 196.16C314.648 194.095 309.72 194.017 308.623 193.962C307.828 193.919 309.311 190.538 307.905 190.152C306.756 189.838 305.253 191.209 304.066 191.523C301.685 192.159 298.304 190.486 297.108 190.103C296.489 189.904 295.752 190.987 295.853 191.627C295.977 192.387 290.257 192.525 286.51 195.065C284.419 196.485 285.024 208.181 285.027 208.181C284.664 217.04 287.149 230.152 287.149 230.152C297.149 236.183 309.25 230.895 309.25 230.895C309.25 230.895 309.026 229.732 309.066 229.415C309.101 229.153 309.32 227.238 309.363 227.022C309.458 226.544 317.366 197.847 316.142 196.157V196.16Z" fill="#F99746"/>
<path d="M344.856 314.052L343.704 318.798C343.704 318.798 310.443 301.605 306.143 298.304C304.415 296.976 302.134 289.776 300.02 281.632C296.872 269.493 294.102 255.254 294.102 255.254C294.102 255.254 298.77 237.32 311.252 248.302C318.72 254.874 317.553 267.531 316.733 277.375C316.185 283.982 315.794 289.321 318.268 290.704C323.1 293.402 337.276 305.83 341.76 314.38L344.856 314.055V314.052Z" fill="#FFB27D"/>
<path d="M326.841 266.943C326.841 266.943 323.601 267.87 318.734 268.895C308.674 271.015 291.665 273.552 281.925 269.204C281.925 269.204 282.553 254.876 284.249 244.044C285.605 235.381 286.864 229.693 286.864 229.693C286.864 229.693 295.919 231.965 305.117 230.208C305.207 230.191 305.29 230.177 305.38 230.157C306.583 229.918 307.79 229.606 308.977 229.212C308.977 229.212 315.915 239.165 319.494 246.092C321.971 250.881 326.844 266.943 326.844 266.943H326.841Z" fill="#8C9DF4"/>
<path d="M351.431 315.896C351.431 315.896 351.419 315.896 351.402 315.89C351.252 315.853 350.57 315.628 350.115 314.539C349.815 313.822 349.726 313.235 349.452 312.526L348.329 310.588C347.154 309.041 346.742 309.404 346.742 309.404C346.742 309.404 346.434 309.799 345.982 310.317C345.233 311.173 344.081 312.368 343.269 312.676C342.69 312.892 342.33 313.252 342.105 313.586C341.823 314.004 341.76 314.384 341.76 314.384C341.76 314.384 344.173 314.804 343.96 315.994C343.551 318.295 343.646 318.712 343.689 318.787L343.704 318.802C343.704 318.802 347.816 320.956 349.133 321.379C351.474 322.131 352.695 323.721 353.455 324.449C353.764 324.743 354.187 324.878 354.607 324.812C355.224 324.714 356.024 324.518 356.2 324.138L351.431 315.901V315.896Z" fill="#2B478B"/>
<path d="M303.369 343.203L301.399 344.269C300.682 344.522 300.091 344.594 299.368 344.871C298.268 345.291 297.491 346.121 297.456 346.27C296.9 348.531 296.085 348.462 296.085 348.462H288.194C287.82 348.272 288.453 346.674 288.759 346.377C289.507 345.64 291.748 346.011 292.566 343.693C293.027 342.391 295.299 338.342 295.299 338.342L295.316 338.327C295.394 338.287 295.815 338.203 298.101 338.679C299.282 338.923 299.775 336.524 299.775 336.524C299.775 336.524 300.152 336.599 300.561 336.896C300.886 337.126 301.235 337.501 301.436 338.083C301.719 338.903 302.882 340.087 303.714 340.862C304.221 341.331 304.604 341.648 304.604 341.648C304.604 341.648 304.956 342.071 303.375 343.2L303.369 343.203Z" fill="#2B478B"/>
<path d="M296.477 232.369C289.77 232.369 287.005 230.056 286.8 229.901L286.501 226.298C286.564 226.344 295.432 232.199 309.365 227.026L309.069 229.42C303.712 231.41 299.962 232.372 296.48 232.372L296.477 232.369Z" fill="#ED7D2B"/>
<path d="M309.322 195.396C309.322 195.396 332.264 196.185 336.728 195.113C341.192 194.045 352.082 188.158 352.082 188.158L353.686 191.194C353.686 191.194 342.794 201.009 336.725 202.791C330.654 204.574 310.486 206.354 310.486 206.354L309.325 195.399L309.322 195.396Z" fill="#FFB27D"/>
<path d="M353.236 194.549H350.008C349.38 194.549 348.87 194.04 348.87 193.409V182.073C348.873 181.445 349.383 180.936 350.013 180.936H353.242C353.87 180.936 354.38 181.445 354.38 182.076V193.412C354.377 194.04 353.867 194.549 353.236 194.549Z" fill="#37547F"/>
<path d="M354.244 194.549H351.016C350.388 194.549 349.878 194.04 349.878 193.409V182.073C349.881 181.445 350.391 180.936 351.021 180.936H354.25C354.878 180.936 355.387 181.445 355.387 182.076V193.412C355.384 194.04 354.875 194.549 354.244 194.549Z" fill="#152847"/>
<path d="M356.546 184.917C356.546 184.917 353.735 182.345 352.888 183.312C352.039 184.283 354.271 189.623 355.296 189.815C356.321 190.008 357.663 187.146 356.546 184.914V184.917Z" fill="#FFB27D"/>
<path d="M347.842 181.958C347.842 181.958 350.062 182.194 350.316 180.961C350.569 179.729 350.569 177.989 350.569 177.989C350.569 177.989 350.696 181.578 351.617 181.903C352.542 182.229 353.628 182.229 353.628 182.229C353.628 182.229 351.946 182.508 351.439 182.825C350.854 183.191 350.586 184.299 350.609 184.916C350.609 184.916 350.529 183.447 349.74 182.715C349.48 182.473 348.556 182.136 347.839 181.952L347.842 181.958Z" fill="white"/>
<path d="M309.895 194.025C309.895 194.025 326.797 196.153 330.717 195.082C334.637 194.01 345.613 189.904 347.243 190.661C347.243 190.661 348.717 192.841 348.058 195.877C348.058 195.877 342.398 201.933 337.033 203.581C331.668 205.228 314.612 206.616 313.259 211.99L308.446 209.159C308.446 209.159 306.165 196.401 306.499 196.179C306.833 195.96 309.895 194.025 309.895 194.025Z" fill="#F99746"/>
<path d="M279.402 347.774L257.367 347.766C255.789 346.694 257.796 336.228 257.796 336.228C257.796 336.228 263.809 333.947 264.849 338.59C265.889 343.227 272.507 344.704 276.009 345.271C278.405 345.663 279.163 346.979 279.402 347.774Z" fill="#233862"/>
<path d="M272.97 238.386C272.97 238.386 272.515 253.344 271.346 268.197C269.756 288.374 265.471 338.4 265.471 338.4C265.471 338.4 262.674 340.787 256.477 339.477C256.477 339.477 251.37 322.744 249.709 303.425C249.686 303.122 249.66 302.82 249.637 302.52C249.614 302.198 249.588 301.872 249.565 301.547C248.833 291.493 247.897 275.866 247.145 262.782C246.399 249.768 245.835 239.267 245.835 239.267L272.967 238.386H272.97Z" fill="#F99746"/>
<path d="M261.635 251.513L249.709 303.425C249.686 303.122 249.66 302.82 249.637 302.52C249.614 302.198 249.588 301.872 249.565 301.547C248.833 291.493 247.897 275.866 247.146 262.782L247.618 260.533L261.632 251.516L261.635 251.513Z" fill="#ED7D2B"/>
<path d="M246.722 347.762L224.687 347.754C223.109 346.682 225.116 336.217 225.116 336.217C225.116 336.217 231.13 333.936 232.169 338.578C233.209 343.215 239.827 344.692 243.329 345.26C245.726 345.651 246.483 346.968 246.722 347.762Z" fill="#233862"/>
<path d="M267.524 236.715C267.524 236.715 251.777 275.877 246.739 290.724C243.154 301.299 233.036 338.396 233.036 338.396C233.036 338.396 228.642 339.733 224.949 337.146C224.949 337.146 222.925 300.277 228.8 288.555C233.54 279.097 229.822 229.61 246.158 229.161C262.493 228.712 267.524 236.718 267.524 236.718V236.715Z" fill="#F99746"/>
<path d="M272.355 213.174C271.517 226.767 273.826 240.784 273.826 240.784C268.896 246.02 240.318 248.295 234.661 243.886C233.328 242.846 237.665 235.266 238.316 220.106C238.711 210.91 237.559 203.399 237.354 199.759C236.617 186.562 235.26 183.789 238.054 182.116C241.081 180.304 247.823 178.625 255.034 177.853C257.428 177.6 260.743 177.876 264.121 178.57C265.267 178.807 266.419 179.089 267.545 179.414C270.993 180.414 274.192 181.825 276.174 183.507C278.803 185.739 284.111 193.503 284.111 193.503C284.111 193.503 276.977 203.177 273.449 204.865C273.397 204.888 273.343 204.914 273.291 204.937C272.821 207.661 272.525 210.438 272.358 213.165C272.358 213.174 272.358 213.176 272.358 213.176L272.355 213.174Z" fill="#8C9DF4"/>
<path d="M246.129 183.145C246.129 183.145 237.806 184.072 234.151 187.001C230.496 189.933 214.682 209.635 213.136 215.012C211.589 220.389 233.019 233.02 233.019 233.02L234.589 229.135C234.589 229.135 224.35 216.783 225.286 215.017C226.219 213.249 254.124 193.302 246.132 183.145H246.129Z" fill="#FFB27D"/>
<path d="M251.19 177.851C251.19 177.851 241.009 179.141 235.894 183.251C233.538 185.146 224.884 195.617 224.884 195.617C224.884 195.617 227.156 205.176 239.137 206.377C251.334 207.598 250.812 187.53 250.812 187.53L251.19 177.848V177.851Z" fill="#8C9DF4"/>
<path d="M248.882 178.312C248.574 178.877 248.643 179.556 249.058 180.046C250.279 181.483 253.496 183.825 260.981 182.385C263.544 181.892 263.916 179.951 262.053 178.237C261.598 177.82 261.413 175.116 261.327 174.033C261.18 171.524 260.915 170.136 260.915 170.136L255.155 167.314L249.686 164.604C251.451 172.322 249.772 176.685 248.882 178.312Z" fill="#FFB27D"/>
<path d="M250.881 169.899C250.881 169.899 254.731 173.623 261.324 174.032C261.177 171.523 260.912 170.135 260.912 170.135L255.152 167.312L250.881 169.899Z" fill="#ED985F"/>
<path d="M263.251 169.885C263.251 169.885 251.172 174.294 248.546 166.855C245.919 159.413 242.59 154.972 250.19 151.841C257.791 148.711 260.299 151.026 261.791 153.296C263.283 155.565 266.327 168.545 263.251 169.885Z" fill="#FFB27D"/>
<path d="M241.141 152.61C241.003 152.501 240.723 152.446 240.136 152.527C240.136 152.527 240.545 152.15 241.164 152.014C241.132 151.182 241.291 149.673 242.613 149.059C242.613 149.059 241.942 149.601 242.008 150.476C243.304 148.518 246.385 145.477 256.114 146.182C268 147.043 265.632 152.023 263.475 153.641C261.934 154.796 258.885 153.734 255.892 154.552C252.9 155.369 253.159 159.868 252.243 160.666C251.327 161.464 251.529 160.323 250.017 159.957C248.502 159.592 248.81 161.927 249.499 163.353C250.187 164.778 248.649 167.123 248.649 167.123L246.316 165.406C243.983 163.69 240.481 155.208 241.003 153.158C241.049 152.976 241.095 152.795 241.141 152.61Z" fill="#2C3A64"/>
<path d="M263.726 164.643C263.726 164.643 263.464 166.199 261.816 166.599C260.172 166.996 258.934 165.942 258.934 165.942C258.934 165.942 261.514 164.332 263.723 164.643H263.726Z" fill="white"/>
<path d="M309.218 224.19C309.218 224.19 303.896 226.949 304.875 229.204C305.854 231.459 309.382 230.773 310.362 229.204C311.341 227.637 310.347 223.737 309.218 224.19Z" fill="#FFB27D"/>
<path d="M234.586 229.135C234.586 229.135 239.583 227.194 241.446 228.369C243.307 229.544 245.559 234.446 244.09 234.642C242.621 234.837 239.217 232.482 238.408 233.023C237.599 233.562 235.125 236.01 233.02 233.023L234.589 229.138L234.586 229.135Z" fill="#FFB27D"/>
<path d="M241.512 179.377C241.512 179.377 251.183 198.267 238.151 209.139L238.027 214.282C238.027 214.282 245.959 210.144 248.686 201.253C251.995 190.453 246.806 178.061 246.806 178.061L241.515 179.377H241.512Z" fill="#233862"/>
<path d="M272.357 213.162V213.174C271.265 202.299 265.177 182.023 264.123 178.57C265.269 178.806 266.421 179.089 267.547 179.414C271.026 188.086 272.858 195.251 273.4 203.563C273.428 204.001 273.443 204.436 273.448 204.862C273.5 209.26 272.423 212.94 272.357 213.159V213.162Z" fill="#233862"/>
<path d="M378.756 187.877C378.756 187.877 376.498 192.563 370.522 190.806C364.546 189.052 360.134 194.7 363.271 197.119C366.404 199.538 356.508 199.334 354.547 204.431C352.586 209.529 351.396 216.976 362.13 216.147C372.864 215.318 380.018 193.271 380.018 193.271L378.756 187.877Z" fill="#2C3A64"/>
<path d="M392.799 171.803C393.982 176.598 390.377 181.609 384.743 183C379.11 184.391 373.583 181.632 372.4 176.84C371.216 172.045 374.822 167.034 380.455 165.643C386.088 164.252 391.615 167.011 392.799 171.803Z" fill="#ED7D2B"/>
<path d="M404.799 172.969C405.692 176.583 396.908 181.862 385.181 184.76C373.454 187.657 363.221 187.075 362.328 183.458C361.435 179.844 370.219 174.564 381.947 171.667C393.674 168.77 403.907 169.352 404.799 172.969Z" fill="#F99746"/>
<path d="M387.494 181.918C386.541 182.235 385.533 182.529 384.482 182.788C379.508 184.018 375.007 184.141 372.841 183.272C372.109 182.978 371.643 182.569 371.516 182.051C371.349 181.377 371.775 180.602 372.657 179.804C374.462 178.177 378.178 176.463 382.647 175.36C386.887 174.312 390.78 174.067 393.179 174.557C394.547 174.833 395.429 175.352 395.613 176.098C396.042 177.826 392.575 180.225 387.494 181.918Z" fill="#ED7D2B"/>
<path d="M440.817 174.337C440.817 174.337 458.374 170.723 469.154 178.283C477.036 183.812 474.13 235.529 466.49 238.158C458.846 240.787 446.523 238.305 446.523 238.305L440.82 174.337H440.817Z" fill="#7489E2"/>
<path d="M358.132 232.538L354.022 247.952L355.158 248.255L359.268 232.841L358.132 232.538Z" fill="#2B478B"/>
<path d="M436.434 184.366C439 185.026 441.24 184.577 443.072 183.71C444.748 182.921 446.079 181.783 446.995 180.838C447.934 179.868 448.44 179.096 448.44 179.096C448.44 179.096 448.337 179.004 448.155 178.814C447.208 177.82 444.184 174.163 443.519 167.291C443.51 167.202 442.879 167.481 441.94 167.95C439.144 169.353 433.585 172.455 433.341 172.593C433.335 172.593 433.329 172.593 433.329 172.593C433.329 172.593 433.588 174.01 433.937 176.576C433.968 176.804 434 177.04 434.035 177.285C434.075 177.587 434.118 177.907 434.156 178.235C434.498 180.908 436.434 184.361 436.434 184.361V184.366Z" fill="#FFB27D"/>
<path d="M433.937 176.581C438.602 176.546 443.657 168.45 443.657 168.45C443.089 168.206 442.513 168.041 441.94 167.949C439.144 169.352 433.585 172.454 433.341 172.592C433.335 172.592 433.329 172.592 433.329 172.592C433.329 172.592 433.588 174.009 433.937 176.575V176.581Z" fill="#ED975D"/>
<path d="M431.422 172.675C431.422 172.675 433.395 172.897 435.788 172.661C439.287 172.315 443.685 170.988 444.114 166.552C444.837 159.087 446.87 154.232 439.259 153.054C435.183 152.423 432.787 152.907 431.307 153.866C430.022 154.695 429.429 155.885 429.035 157.017C428.188 159.45 428.326 172.131 431.422 172.672V172.675Z" fill="#FFB27D"/>
<path d="M427.523 152.97C426.045 153.722 425.924 156.363 427.661 157.034C430.774 158.241 433.876 156.743 435.207 156.994C437.116 157.351 438.113 160.176 438.36 161.086C438.611 161.999 438.913 162.748 441.131 161.642C441.494 161.461 441.776 161.423 441.995 161.492C443.104 161.838 442.525 164.931 442.292 165.625C442.292 165.625 442.225 167.756 443.657 168.45C443.829 168.534 446.424 169.003 450.039 158.984C450.606 157.411 450.73 154.14 448.656 151.513C446.583 148.884 441.465 146.234 436.362 147.441C432.324 148.397 430.653 151.375 427.523 152.967V152.97Z" fill="#2C3A64"/>
<path d="M430.313 168.229C430.313 168.229 430.38 169.159 432.629 169.378C432.629 169.378 434.515 169.562 434.619 168.571C434.619 168.571 432.92 167.581 430.316 168.229H430.313Z" fill="white"/>
<path d="M353.57 333.907C353.57 333.907 350.586 336.629 351.168 338.564C351.75 340.5 354.443 341.79 354.805 344.154C355.168 346.519 356.623 347.809 357.933 347.809C359.244 347.809 364.177 347.809 364.177 347.809C364.177 347.809 365.142 346.144 362.815 345.643C360.488 345.139 359.609 342.363 359.756 339.783C359.903 337.202 359.54 333.763 359.54 333.763L354.592 332.614L353.573 333.904L353.57 333.907Z" fill="#233862"/>
<path d="M378.82 335.353C378.82 335.353 377.743 346.884 379.053 347.532L395.815 347.503C395.815 347.503 395.815 345.568 393.125 345.139C390.432 344.707 385.703 343.131 384.905 339.621C384.105 336.11 378.823 335.355 378.823 335.355L378.82 335.353Z" fill="#233862"/>
<path d="M392.54 240.426C392.54 240.426 397.367 255.468 397.675 260.589C397.983 265.709 388.413 333.334 388.027 335.693C387.664 337.917 384.902 339.333 384.902 339.333C384.902 339.333 383.632 340.082 381.818 339.57C379.303 338.858 378.509 338.009 378.509 338.009C378.509 338.009 374.765 289.774 377.097 272.546C379.43 255.318 379.462 240.417 379.462 240.417L392.537 240.423L392.54 240.426Z" fill="#ED7D2B"/>
<path d="M372.066 239.97C372.066 239.97 364.69 249.857 364.002 256.544C363.313 263.229 362.913 286.715 361.447 293.232C359.981 299.75 354.598 312.289 354.59 332.619C354.59 332.619 355.149 333.786 356.874 334.405C357.427 334.604 358.164 334.797 358.884 334.961C360.307 335.286 361.77 334.592 362.418 333.285C366.058 325.964 377.65 302.353 378.243 297.452C378.664 293.984 382.33 271.025 390.313 257.555C392.229 254.321 389.144 241.459 389.144 241.459L372.063 239.973L372.066 239.97Z" fill="#F99746"/>
<path d="M394.051 176.099L391.966 177.948L387.854 181.597L387.491 181.917L384.576 184.503L378.681 189.728C378.681 189.728 378.162 186.934 376.558 187.435C375.118 187.884 373.448 186.09 372.834 183.271C372.607 182.237 372.523 181.059 372.65 179.806C374.329 178.294 377.661 176.704 381.713 175.604C382.019 175.521 382.327 175.44 382.641 175.362C385.221 174.726 387.675 174.383 389.74 174.325C391.068 174.288 392.237 174.369 393.173 174.559C393.53 175.146 393.789 175.61 393.927 175.872C394.008 176.019 394.048 176.102 394.048 176.102L394.051 176.099Z" fill="#2C3A64"/>
<path d="M385.85 213.897C375.41 214.922 373.716 197.942 374.359 197.997C375.623 197.259 377.846 193.844 379.053 188.233L379.508 188.429L387.128 191.741C387.128 191.741 386.383 194.287 385.844 196.715C385.49 198.311 385.228 199.86 385.326 200.609C385.354 200.831 386.961 201.671 386.964 201.677C387.045 201.87 388.638 213.629 385.853 213.903L385.85 213.897Z" fill="#FFB27D"/>
<path d="M397.983 221.221C399.129 227.698 398.542 260.633 398.542 260.633C377.529 266.229 361.603 258.779 361.603 258.779C361.591 249.75 362.743 226.37 364.822 212.728C366.813 199.667 374.966 197.501 374.966 197.501C384.778 205.764 385.432 198.857 385.432 198.857C389.271 200.565 392.655 201.907 394.53 204.214C400.16 211.135 397.796 220.167 397.983 221.221Z" fill="#8C9DF4"/>
<path d="M387.125 191.741C387.125 191.741 386.379 194.284 385.841 196.715C381.406 195.64 379.963 190.955 379.505 188.432L387.125 191.744V191.741Z" fill="#ED985F"/>
<path d="M388.113 194.357C388.113 194.357 377.512 192.304 378.986 185.538C380.461 178.773 380.087 173.952 386.918 174.977C393.749 176.003 394.495 178.86 394.538 181.23C394.582 183.6 390.91 194.717 388.113 194.357Z" fill="#FFB27D"/>
<path d="M393.467 185.904C392.436 185.812 392.974 182.217 392.825 180.383C392.761 179.571 392.375 178.684 391.966 177.949C391.698 177.457 391.416 177.03 391.212 176.74C391.002 177.146 389.815 179.386 387.854 181.598C386.926 182.638 385.826 183.672 384.579 184.504C383.548 185.19 382.41 185.731 381.184 186.025C381.184 186.025 384.118 184.311 386.592 181.595C385.302 182.58 383.874 183.315 382.439 183.387C377.745 183.62 376.089 181.993 376.089 181.993C376.089 181.993 379.888 180.043 381.722 175.605C382.027 175.521 382.336 175.441 382.65 175.363C385.23 174.727 387.684 174.384 389.749 174.326C390.388 174.649 391.048 175.089 391.71 175.677C392.28 175.354 393.095 175.167 393.939 175.876C394.314 176.187 394.688 176.679 395.054 177.408C396.834 180.976 393.475 185.91 393.475 185.91L393.467 185.904Z" fill="#2C3A64"/>
<path d="M386.256 189.707C386.371 189.747 387.108 191.121 388.64 191.337C390.17 191.553 390.559 190.393 390.559 190.393C390.559 190.393 389.637 189.894 388.721 189.756C387.805 189.618 386.259 189.707 386.259 189.707H386.256Z" fill="white"/>
<path d="M423.057 182.048C414.486 186.273 410.958 210.286 407.231 220.484C403.876 229.669 425.879 228.033 425.879 228.033C425.879 228.033 430.997 178.134 423.057 182.048Z" fill="#F99746"/>
<path d="M416.743 347.544L438.237 347.553C439.777 346.51 437.825 336.298 437.825 336.298C437.825 336.298 431.958 334.071 430.944 338.596C429.928 343.118 423.471 344.555 420.055 345.105C417.717 345.485 416.976 346.769 416.743 347.544Z" fill="#233862"/>
<path d="M448.619 347.556L470.113 347.565C471.653 346.522 469.701 336.309 469.701 336.309C469.701 336.309 463.834 334.08 462.82 338.608C461.804 343.129 455.347 344.566 451.931 345.117C449.593 345.497 448.855 346.781 448.619 347.556Z" fill="#233862"/>
<path d="M422.561 243.385C422.561 243.385 423.522 255.438 424.654 269.927C426.192 289.609 430.337 338.408 430.337 338.408C430.337 338.408 433.064 340.738 439.109 339.465C439.109 339.465 444.261 322.631 445.805 303.419C445.828 303.105 445.854 302.785 445.877 302.469C447.314 282.91 449.555 241.721 449.555 241.721L422.561 243.382V243.385Z" fill="#2B478B"/>
<path d="M422.232 239.218C422.232 239.218 423.523 255.435 424.655 269.924L445.805 303.419C445.828 303.105 445.854 302.785 445.877 302.468C447.314 282.91 449.555 241.72 449.555 241.72L422.232 239.215V239.218Z" fill="#233862"/>
<path d="M428.401 239.221C428.401 239.221 443.737 277.433 448.639 291.916C452.13 302.232 461.976 338.425 461.976 338.425C461.976 338.425 466.262 339.733 469.865 337.21C469.865 337.21 473.545 300.236 466.141 289.808C462.213 284.275 465.185 232.312 449.25 231.859C433.315 231.41 428.401 239.218 428.401 239.218V239.221Z" fill="#2B478B"/>
<path d="M459.571 237.594C459.744 238.916 459.139 239.912 458.209 240.629C457.4 241.254 456.343 241.669 455.335 241.902C455.335 241.902 453.333 242.334 450.805 242.763C448.334 243.178 445.344 243.584 443.242 243.57C432.462 243.48 423.448 240.304 423.448 240.304C421.42 240.304 420.496 237.168 420.164 232.787C419.943 229.824 419.994 226.287 420.153 222.773C420.208 221.636 420.271 220.495 420.343 219.381C420.484 217.166 420.654 215.043 420.804 213.16C420.945 211.397 421.074 209.851 421.152 208.65C421.152 208.65 420.867 200.263 420.982 192.879C421.066 187.585 421.835 183.26 422.581 182.473C424.738 180.192 433.191 178.257 434.443 178.058C434.541 178.047 434.59 178.035 434.59 178.035C439.731 180.924 446.652 177.027 446.652 177.027C446.807 177.053 446.963 177.091 447.112 177.125C447.245 177.096 447.881 177.134 448.803 177.255C450.433 177.468 452.956 177.94 455.133 178.77C456.498 179.288 457.725 179.945 458.514 180.763C460.873 183.216 458.742 198.146 458.742 198.146C458.897 201.951 458.941 206.455 458.961 211.095C458.961 211.343 458.961 211.59 458.961 211.841C458.967 213.822 458.969 215.824 458.972 217.797C458.981 223.104 459.013 228.216 459.177 232.254C459.183 232.381 459.188 232.508 459.194 232.634C459.278 234.59 459.401 236.28 459.568 237.594H459.571Z" fill="#F99746"/>
<path d="M422.466 210.289L423.249 220.317L413.794 215.193C413.794 215.193 419.574 212.452 420.018 207.357C420.461 202.262 421.665 198.443 421.665 198.443L422.463 210.289H422.466Z" fill="#ED7D2B"/>
<path d="M430.167 179.093C428.312 184.997 423.439 201.136 422.466 210.292C422.466 210.292 422.466 210.292 422.466 210.28C422.402 210.07 421.325 206.562 421.38 202.375C421.386 201.966 421.4 201.554 421.429 201.136C421.93 193.861 423.52 187.511 426.483 180.121L430.167 179.093Z" fill="#8C9DF4"/>
<path d="M430.27 212.932C430.27 212.932 433.179 211.515 435.446 211.425C437.712 211.336 443.809 210.541 443.253 211.425C442.698 212.312 438.792 212.281 438.792 212.932C438.792 213.582 438.262 216.298 435.466 216.12C432.67 215.941 431.613 216.125 431.613 216.125L430.268 212.926L430.27 212.932Z" fill="#FFB27D"/>
<path d="M374.965 197.501C374.965 197.501 366.821 198.929 362.702 203.918C358.587 208.906 354.624 227.274 354.624 227.274C354.624 227.274 358.578 230.313 366.956 227.917L377.249 211.408L374.963 197.501H374.965Z" fill="#8C9DF4"/>
<path d="M392.828 202.625C392.828 202.625 408.702 214.934 413.797 215.196C418.892 215.458 432.022 211.478 432.022 211.478L432.707 216.769C432.707 216.769 420.749 229.588 413.696 228.856C406.64 228.124 392.629 223.093 392.629 223.093L392.83 202.622L392.828 202.625Z" fill="#8C9DF4"/>
<path d="M385.812 227.859C386.046 228.74 393.764 266.958 393.764 266.958L403.375 263.732L413.063 268.012L423.788 262.626L438.666 266.675L450.996 258.842L451.013 211.967L438.684 219.42L423.805 216.31L409.999 223.334L397.903 219.409L385.812 227.859Z" fill="#BDCEF9"/>
<g opacity="0.2">
<path d="M397.902 219.409L403.374 263.732L393.763 266.955L385.812 227.859L397.902 219.409Z" fill="#6980E2"/>
</g>
<g opacity="0.2">
<path d="M409.998 223.333L413.062 268.013L423.787 262.628L423.802 216.312L409.998 223.333Z" fill="#6980E2"/>
</g>
<g opacity="0.2">
<path d="M438.68 219.421L438.666 266.679L450.995 258.843L451.01 211.968L438.68 219.421Z" fill="#6980E2"/>
</g>
<path d="M458.209 240.629C456.47 240.128 453.138 238.507 452.807 236.494C452.017 231.69 456.761 222.606 455.888 218.344C455.01 214.081 450.595 203.351 452.818 203.351C455.044 203.351 458.961 211.095 458.961 211.095C458.987 218.643 458.947 226.529 459.18 232.254C459.186 232.381 459.192 232.508 459.197 232.634C459.281 234.59 459.405 236.28 459.572 237.594C459.745 238.916 459.14 239.912 458.209 240.629Z" fill="#ED7D2B"/>
<path d="M457.827 233.671C457.827 233.671 455.586 235.033 454.546 237.101C453.74 238.691 453.691 239.929 452.913 240.56C452.591 240.825 447.813 242.175 447.787 241.496C447.703 239.065 450.629 238.549 451.004 237.613C451.013 237.593 451.013 237.564 451.004 237.53V233.838C451.882 232.942 454.342 232.234 454.342 232.234L456.991 229.751L457.827 233.671Z" fill="#FFB27D"/>
<path d="M457.308 179.815C457.308 179.815 461.21 180.91 465.737 189.757C470.265 198.605 479.74 215.778 475.817 221.483C473.798 224.421 462.241 235.613 456.461 235.716C456.461 235.716 453.693 231.419 454.416 230.218C454.416 230.218 464.928 220.567 461.907 215.772C458.961 211.092 450.263 195.396 449.88 190.494C449.494 185.593 457.308 179.812 457.308 179.812V179.815Z" fill="#F99746"/>
<path d="M377.036 252.408L375.789 264.671C375.68 265.769 374.7 266.564 373.603 266.454L351.689 264.228C350.592 264.116 349.797 263.136 349.907 262.042L351.154 249.779C351.194 249.376 351.349 249.013 351.589 248.722C351.658 248.638 351.73 248.561 351.81 248.489C352.213 248.132 352.761 247.936 353.34 247.996L375.253 250.222C375.795 250.277 376.261 250.542 376.578 250.928C376.644 251.006 376.702 251.084 376.751 251.17C376.976 251.53 377.079 251.959 377.036 252.408Z" fill="#2B478B"/>
<path d="M362.205 241.23C362.205 241.23 372.435 242.417 379.462 240.418L362.551 235.568L362.205 241.23Z" fill="#7489E2"/>
<path d="M373.577 233.861C373.577 233.861 368.788 227.646 369.859 223.292C370.931 218.937 371.564 216.555 370.683 217.094C369.802 217.632 367.397 228.36 367.397 228.36C367.397 228.36 366.775 229.443 365.078 229.417C363.379 229.389 366.622 233.112 366.622 233.112L373.58 233.864L373.577 233.861Z" fill="#7489E2"/>
<path d="M376.751 251.173C372.109 256.147 367.711 258.661 363.65 258.659C363.04 258.659 362.438 258.598 361.842 258.489C356.041 257.38 352.66 251.07 351.589 248.725C351.658 248.642 351.73 248.564 351.811 248.492C352.798 250.698 356.136 257.095 361.899 258.198C366.355 259.047 371.291 256.605 376.579 250.932C376.645 251.009 376.702 251.087 376.751 251.173Z" fill="#8C9DF4"/>
<path d="M361.961 257.07L363.05 257.181C363.262 257.202 363.414 257.391 363.392 257.6L363.189 259.6C363.168 259.812 362.979 259.964 362.769 259.943L361.681 259.832C361.469 259.811 361.317 259.621 361.338 259.412L361.541 257.412C361.563 257.2 361.752 257.049 361.961 257.07Z" fill="#F99746"/>
<path d="M373.359 250.084L372.204 249.86C372.27 249.514 378.652 214.824 369.871 198.967L371.046 198.48C374.828 205.309 376.4 216.169 375.637 230.541C375.069 241.202 373.376 249.995 373.359 250.081V250.084Z" fill="#2B478B"/>
<path d="M359.276 216.696C359.276 216.696 353.674 228.971 356.476 234.786C358.507 238.999 382.728 241.003 382.728 241.003L383.488 238.273C383.488 238.273 365.695 230.86 365.548 228.977C365.401 227.093 367.896 220.521 367.896 220.521C367.896 220.521 362.159 216.829 359.273 216.699L359.276 216.696Z" fill="#FFB27D"/>
<path d="M387.673 245.611C386.725 245.283 386.256 244.134 384.957 242.913C383.272 241.329 380.703 240.81 380.703 240.81L380.15 236.842L383.488 238.27C383.488 238.27 386.311 238.08 387.336 238.731C387.661 238.933 387.958 239.154 388.246 239.376L388.62 241.228C388.525 241.231 388.494 241.297 388.537 241.476C388.554 241.551 388.623 241.649 388.73 241.767C389.401 242.515 392.056 242.426 392.802 244.742C393.012 245.39 388.059 245.75 387.667 245.611H387.673Z" fill="#FFB27D"/>
<path d="M354.624 227.275C354.624 227.275 359.264 231.292 366.271 229.092L369.387 218.597L358.976 214.784L354.624 227.275Z" fill="#8C9DF4"/>
<path d="M458.976 217.8C456.778 216.532 449.529 211.812 446.762 203.218C443.26 192.349 447.675 180.083 448.801 177.255C450.431 177.468 452.954 177.94 455.131 178.77C453.412 182.312 445.5 200.574 458.961 211.844C458.967 213.825 458.97 215.827 458.973 217.8H458.976Z" fill="#8C9DF4"/>
<path d="M583.241 347.886H564.055C563.026 347.013 564.766 345.032 566.583 344.899C567.372 344.839 568.372 345.006 569.512 345.245C569.777 341.737 571.283 325.975 576.966 326.608C583.354 327.317 576.966 333.552 575.16 337.241C573.821 339.975 572.41 343.894 571.764 345.743C572.283 345.855 572.821 345.965 573.369 346.066C574.215 343.465 577.366 334.719 581.372 335.228C586.078 335.824 584.186 339.332 580.851 341.415C578.406 342.944 575.399 345.121 573.973 346.172C575.183 346.371 576.444 346.503 577.726 346.472C581.012 346.394 582.616 347.362 583.238 347.883L583.241 347.886Z" fill="#82B378"/>
<path d="M181.833 346.565C180.833 344.992 177.821 340.914 173.812 341.453C169.443 342.04 178.639 344.92 181.452 346.576C180.827 346.585 180.289 346.536 179.894 346.395C178.014 345.724 174.788 347.011 173.76 347.463H191.676C191.553 347.034 191.23 346.335 190.395 345.825C190.101 345.646 189.508 345.62 188.745 345.678C189.81 344.422 190.55 340.41 187.584 341.441C185.418 342.196 185.424 344.647 185.637 346.098C185.176 346.17 184.71 346.242 184.246 346.311C183.353 341.764 180.2 328.441 173.803 328.087C167.32 327.727 179.301 341.905 183.29 346.441C182.78 346.502 182.288 346.551 181.83 346.571L181.833 346.565Z" fill="#82B378"/>
<path d="M379.323 333.408C380.349 333.823 384.009 333.486 384.13 333.195C384.248 332.901 381.852 330.111 380.827 329.696C379.801 329.281 378.635 329.774 378.22 330.799C377.806 331.824 378.298 332.991 379.323 333.408Z" fill="#82B378"/>
<path d="M388.563 335.157C387.987 336.102 387.727 339.771 387.998 339.935C388.269 340.1 391.408 338.187 391.984 337.243C392.56 336.298 392.261 335.065 391.316 334.489C390.371 333.913 389.139 334.213 388.563 335.157Z" fill="#82B378"/>
<path d="M383.626 342.336C384.68 342.673 388.306 342.06 388.401 341.758C388.496 341.458 385.895 338.857 384.841 338.52C383.787 338.183 382.661 338.765 382.324 339.819C381.987 340.873 382.569 341.999 383.623 342.336H383.626Z" fill="#82B378"/>
<path d="M388.962 345.887C388.959 345.803 388.553 337.5 384.006 333.215L384.104 333.111C388.692 337.437 389.101 345.798 389.103 345.881L388.962 345.887Z" fill="#82B378"/>
<path d="M404.137 333.587C403.498 334.011 400.966 334.29 400.845 334.109C400.724 333.927 401.965 331.701 402.602 331.278C403.238 330.854 404.102 331.027 404.526 331.666C404.949 332.306 404.776 333.167 404.137 333.59V333.587Z" fill="#82B378"/>
<path d="M398.106 336.052C398.628 336.614 399.313 339.068 399.152 339.218C398.991 339.367 396.594 338.503 396.073 337.942C395.552 337.38 395.584 336.502 396.145 335.98C396.707 335.459 397.585 335.491 398.106 336.052Z" fill="#82B378"/>
<path d="M402.449 340.246C401.781 340.62 399.232 340.703 399.126 340.513C399.019 340.323 400.425 338.198 401.093 337.824C401.761 337.449 402.608 337.688 402.982 338.356C403.357 339.024 403.118 339.871 402.449 340.246Z" fill="#82B378"/>
<path d="M399.319 343.393C399.31 343.336 398.435 337.642 400.929 334.103L400.848 334.045C398.331 337.616 399.212 343.35 399.221 343.408L399.316 343.393H399.319Z" fill="#82B378"/>
<path d="M394.82 345.403L394.532 345.357C393.392 330.617 388.893 320.039 388.83 319.897L389.092 319.785C389.156 319.929 393.689 330.577 394.82 345.406V345.403Z" fill="#82B378"/>
<path d="M385.774 318.412C386.33 319.04 388.928 320.054 389.109 319.895C389.288 319.737 388.608 317.033 388.052 316.405C387.496 315.777 386.537 315.716 385.91 316.272C385.282 316.828 385.221 317.787 385.777 318.415L385.774 318.412Z" fill="white"/>
<path d="M389.755 316.221C389.254 316.892 388.799 319.645 388.992 319.789C389.185 319.933 391.69 318.709 392.191 318.038C392.692 317.364 392.554 316.414 391.88 315.912C391.206 315.411 390.256 315.55 389.755 316.223V316.221Z" fill="white"/>
<path d="M392.747 319.146C391.938 318.927 389.21 319.509 389.147 319.739C389.084 319.97 391.14 321.856 391.949 322.078C392.758 322.3 393.594 321.822 393.813 321.012C394.034 320.203 393.556 319.368 392.747 319.149V319.146Z" fill="white"/>
<path d="M390.903 322.792C390.823 321.957 389.311 319.613 389.072 319.636C388.833 319.659 387.799 322.248 387.879 323.083C387.96 323.918 388.703 324.529 389.538 324.448C390.374 324.368 390.984 323.625 390.903 322.79V322.792Z" fill="white"/>
<path d="M386.765 322.613C387.508 322.225 389.107 319.938 388.997 319.728C388.885 319.515 386.097 319.535 385.354 319.926C384.611 320.315 384.326 321.234 384.715 321.977C385.104 322.72 386.022 323.005 386.765 322.616V322.613Z" fill="white"/>
<path d="M388.502 319.651C388.546 319.377 388.802 319.193 389.075 319.236C389.349 319.279 389.533 319.535 389.49 319.809C389.447 320.082 389.191 320.267 388.917 320.224C388.644 320.18 388.459 319.924 388.502 319.651Z" fill="#163560"/>
<path d="M394.737 330.333C393.913 331.347 393.02 335.606 393.311 335.84C393.602 336.076 397.588 334.336 398.412 333.32C399.238 332.306 399.083 330.814 398.069 329.987C397.055 329.161 395.563 329.316 394.737 330.33V330.333Z" fill="#82B378"/>
<path d="M378.402 346.91L378.206 346.904C376.155 337.224 372.241 330.6 372.187 330.511L372.351 330.413C372.405 330.505 376.348 337.17 378.402 346.91Z" fill="#82B378"/>
<path d="M370.03 329.793C370.453 330.162 372.268 330.605 372.371 330.484C372.475 330.363 371.787 328.63 371.363 328.261C370.94 327.892 370.298 327.938 369.929 328.362C369.56 328.785 369.607 329.427 370.027 329.796L370.03 329.793Z" fill="white"/>
<path d="M372.48 327.991C372.207 328.481 372.146 330.347 372.287 330.425C372.429 330.503 373.984 329.472 374.257 328.982C374.531 328.493 374.355 327.873 373.866 327.6C373.376 327.326 372.757 327.502 372.483 327.991H372.48Z" fill="white"/>
<path d="M374.721 329.67C374.165 329.595 372.405 330.22 372.385 330.379C372.365 330.537 373.891 331.609 374.45 331.683C375.006 331.758 375.518 331.369 375.593 330.814C375.668 330.258 375.279 329.745 374.724 329.67H374.721Z" fill="white"/>
<path d="M373.82 332.251C373.693 331.703 372.483 330.281 372.328 330.318C372.172 330.356 371.711 332.164 371.838 332.711C371.965 333.259 372.512 333.598 373.059 333.472C373.607 333.345 373.946 332.798 373.82 332.251Z" fill="white"/>
<path d="M371.058 332.495C371.516 332.172 372.377 330.514 372.285 330.384C372.193 330.254 370.344 330.511 369.886 330.833C369.428 331.156 369.319 331.792 369.641 332.25C369.964 332.708 370.6 332.818 371.058 332.495Z" fill="white"/>
<path d="M371.95 330.375C371.956 330.191 372.109 330.044 372.293 330.05C372.477 330.056 372.624 330.208 372.619 330.393C372.613 330.577 372.46 330.724 372.276 330.718C372.091 330.712 371.945 330.56 371.95 330.375Z" fill="#163560"/>
<path d="M377.025 336.916C376.567 337.662 376.348 340.565 376.562 340.694C376.775 340.824 379.266 339.321 379.727 338.575C380.185 337.829 379.951 336.853 379.205 336.395C378.459 335.937 377.483 336.17 377.025 336.916Z" fill="#82B378"/>
<path d="M409.673 345.631L409.929 345.59C410.943 332.463 414.952 323.043 415.009 322.916L414.773 322.815C414.719 322.945 410.681 332.426 409.67 345.634L409.673 345.631Z" fill="#82B378"/>
<path d="M417.728 321.594C417.233 322.156 414.92 323.054 414.759 322.913C414.598 322.772 415.205 320.364 415.701 319.803C416.196 319.244 417.049 319.189 417.61 319.685C418.169 320.18 418.224 321.032 417.728 321.594Z" fill="white"/>
<path d="M414.18 319.642C414.626 320.241 415.032 322.692 414.86 322.819C414.69 322.946 412.458 321.857 412.011 321.258C411.565 320.659 411.689 319.812 412.288 319.366C412.887 318.919 413.734 319.043 414.18 319.642Z" fill="white"/>
<path d="M411.519 322.246C412.239 322.05 414.669 322.568 414.724 322.773C414.779 322.977 412.95 324.656 412.23 324.855C411.51 325.051 410.767 324.627 410.568 323.904C410.372 323.184 410.796 322.441 411.519 322.243V322.246Z" fill="white"/>
<path d="M413.161 325.495C413.233 324.752 414.578 322.664 414.791 322.684C415.004 322.704 415.925 325.011 415.853 325.754C415.781 326.497 415.122 327.041 414.376 326.969C413.633 326.897 413.089 326.238 413.161 325.492V325.495Z" fill="white"/>
<path d="M416.844 325.335C416.181 324.987 414.758 322.953 414.856 322.763C414.954 322.573 417.44 322.593 418.099 322.939C418.762 323.288 419.015 324.106 418.667 324.765C418.318 325.427 417.503 325.681 416.841 325.332L416.844 325.335Z" fill="white"/>
<path d="M415.298 322.695C415.26 322.453 415.03 322.286 414.788 322.326C414.546 322.364 414.379 322.594 414.419 322.836C414.457 323.078 414.687 323.245 414.929 323.205C415.171 323.167 415.338 322.937 415.3 322.695H415.298Z" fill="#163560"/>
<path d="M409.074 335.724C409.808 336.628 410.603 340.418 410.344 340.628C410.085 340.838 406.536 339.289 405.802 338.385C405.068 337.48 405.203 336.153 406.107 335.418C407.012 334.684 408.339 334.819 409.074 335.724Z" fill="#82B378"/>
<path d="M368.028 347.924C368.028 347.924 369.486 344.096 374.77 343.854C380.058 343.612 383.698 346.737 388.064 345.297C392.433 343.854 399.662 340.6 406.502 342.768C413.342 344.937 414.494 347.924 414.494 347.924H368.028Z" fill="#82B378"/>
<path d="M200.669 347.762L200.369 347.713C199.194 332.495 194.546 321.575 194.479 321.428L194.75 321.31C194.816 321.459 199.496 332.452 200.666 347.762H200.669Z" fill="#82B378"/>
<path d="M191.328 319.896C191.902 320.544 194.586 321.589 194.77 321.425C194.954 321.261 194.252 318.47 193.679 317.819C193.105 317.171 192.115 317.108 191.467 317.681C190.819 318.254 190.755 319.245 191.328 319.893V319.896Z" fill="white"/>
<path d="M195.441 317.635C194.923 318.329 194.453 321.172 194.652 321.318C194.851 321.465 197.437 320.204 197.955 319.51C198.474 318.816 198.33 317.834 197.636 317.315C196.942 316.797 195.96 316.941 195.441 317.635Z" fill="white"/>
<path d="M198.525 320.653C197.69 320.425 194.873 321.027 194.81 321.266C194.744 321.505 196.866 323.452 197.702 323.68C198.537 323.907 199.398 323.415 199.625 322.58C199.853 321.744 199.361 320.883 198.525 320.656V320.653Z" fill="white"/>
<path d="M196.625 324.42C196.541 323.558 194.98 321.136 194.735 321.162C194.491 321.185 193.422 323.861 193.506 324.722C193.589 325.583 194.355 326.214 195.216 326.133C196.077 326.05 196.711 325.284 196.628 324.422L196.625 324.42Z" fill="white"/>
<path d="M192.354 324.236C193.12 323.833 194.773 321.474 194.658 321.255C194.542 321.036 191.662 321.056 190.896 321.459C190.13 321.863 189.834 322.81 190.237 323.576C190.64 324.342 191.588 324.639 192.354 324.236Z" fill="white"/>
<path d="M194.145 321.174C194.191 320.892 194.456 320.702 194.735 320.745C195.017 320.791 195.208 321.056 195.164 321.336C195.118 321.618 194.856 321.808 194.574 321.765C194.292 321.719 194.102 321.457 194.145 321.174Z" fill="#F78248"/>
<path d="M199.26 325.649C198.408 326.697 197.489 331.092 197.788 331.337C198.088 331.579 202.203 329.785 203.056 328.736C203.908 327.688 203.75 326.147 202.702 325.298C201.653 324.445 200.113 324.604 199.26 325.652V325.649Z" fill="#82B378"/>
<path d="M197.166 338.273C198.05 338.705 200.009 341.328 199.885 341.582C199.761 341.835 196.489 341.91 195.605 341.478C194.721 341.046 194.352 339.981 194.784 339.096C195.216 338.212 196.282 337.844 197.169 338.276L197.166 338.273Z" fill="#82B378"/>
<path d="M209.196 347.762L209.539 347.707C210.89 330.234 216.223 317.698 216.298 317.525L215.984 317.39C215.91 317.562 210.535 330.183 209.193 347.759L209.196 347.762Z" fill="#82B378"/>
<path d="M219.918 315.769C219.261 316.515 216.18 317.713 215.967 317.526C215.753 317.338 216.56 314.133 217.219 313.387C217.879 312.641 219.016 312.572 219.759 313.229C220.505 313.885 220.575 315.023 219.918 315.769Z" fill="white"/>
<path d="M215.198 313.17C215.791 313.968 216.333 317.228 216.105 317.398C215.878 317.568 212.906 316.119 212.312 315.322C211.719 314.524 211.883 313.398 212.681 312.802C213.479 312.208 214.605 312.373 215.201 313.17H215.198Z" fill="white"/>
<path d="M211.653 316.637C212.612 316.375 215.846 317.067 215.921 317.34C215.996 317.614 213.559 319.849 212.6 320.111C211.641 320.373 210.65 319.805 210.391 318.846C210.129 317.887 210.696 316.897 211.655 316.637H211.653Z" fill="white"/>
<path d="M213.836 320.964C213.931 319.973 215.722 317.197 216.007 317.223C216.289 317.249 217.516 320.322 217.421 321.31C217.326 322.3 216.445 323.023 215.457 322.928C214.466 322.833 213.743 321.952 213.838 320.964H213.836Z" fill="white"/>
<path d="M218.74 320.75C217.859 320.287 215.964 317.579 216.096 317.329C216.229 317.078 219.535 317.101 220.414 317.562C221.295 318.023 221.632 319.112 221.171 319.993C220.71 320.874 219.622 321.211 218.74 320.75Z" fill="white"/>
<path d="M216.682 317.233C216.63 316.911 216.327 316.689 216.002 316.741C215.679 316.793 215.458 317.095 215.509 317.421C215.561 317.743 215.864 317.965 216.189 317.913C216.512 317.861 216.733 317.556 216.682 317.233Z" fill="#F78248"/>
<path d="M209.294 329.897C210.273 331.1 211.327 336.146 210.984 336.426C210.641 336.705 205.915 334.643 204.936 333.439C203.957 332.235 204.141 330.467 205.342 329.491C206.543 328.514 208.314 328.696 209.291 329.897H209.294Z" fill="#82B378"/>
<path d="M213.213 336.867C212.197 337.362 209.95 340.375 210.091 340.666C210.232 340.957 213.991 341.04 215.005 340.548C216.021 340.052 216.442 338.828 215.946 337.812C215.451 336.795 214.227 336.375 213.21 336.87L213.213 336.867Z" fill="#82B378"/>
<path d="M649.367 349.619L-69.0264 349.377C-69.4959 349.377 -69.8789 348.994 -69.8789 348.525V348.147C-69.8789 347.678 -69.4959 347.295 -69.0264 347.295L649.367 347.537C649.836 347.537 650.219 347.92 650.219 348.389V348.767C650.219 349.236 649.836 349.619 649.367 349.619Z" fill="#233862"/>
</g>
<defs>
<clipPath id="clip0_627_50137">
<rect width="720.098" height="348.65" fill="white" transform="translate(-69.8789 0.969727)"/>
</clipPath>
</defs>
</svg>
