<svg width="370" height="288" viewBox="0 0 370 288" fill="none" xmlns="http://www.w3.org/2000/svg">
<g clip-path="url(#clip0_627_50007)">
<path d="M323.615 278.234C336.281 275.412 344.696 263.54 350.592 251.977C379.253 195.773 375.937 124.546 342.177 71.2498C338.013 64.6735 333.381 58.3146 327.609 53.0936C312.59 39.5081 290.826 32.4894 272.342 25.0269C250.244 16.1043 227.622 8.21028 204.161 3.75212C171.288 -2.49431 136.252 -1.6752 105.627 11.8118C36.3314 42.3296 -10.1313 136.881 1.8954 210.433C3.58939 220.795 6.38353 231.089 11.442 240.289C23.2499 261.764 46.3844 275.134 70.233 280.757C94.0817 286.379 118.962 285.75 143.437 284.59L323.617 278.235L323.615 278.234Z" fill="#DDE7FE"/>
<path d="M185.818 288C283.715 288 363.076 284.003 363.076 279.071C363.076 274.14 283.715 270.143 185.818 270.143C87.9214 270.143 8.56055 274.14 8.56055 279.071C8.56055 284.003 87.9214 288 185.818 288Z" fill="#BDD1F9"/>
<path d="M239.208 129.976C264.281 129.976 284.605 109.646 284.605 84.5663C284.605 59.487 264.281 39.1562 239.208 39.1562C214.136 39.1562 193.812 59.487 193.812 84.5663C193.812 109.646 214.136 129.976 239.208 129.976Z" fill="#060633"/>
<path d="M223.276 164.489C227.89 163.74 231.022 159.392 230.273 154.777C229.525 150.163 225.178 147.029 220.565 147.779C215.952 148.528 212.819 152.876 213.568 157.49C214.317 162.104 218.663 165.238 223.276 164.489Z" fill="#EA5750"/>
<path d="M281.45 163.138H178.792V168.057H281.45V163.138Z" fill="#060633"/>
<path d="M268.775 141.135H255.473V163.14H268.775V141.135Z" fill="#7C9AF2"/>
<path d="M264.255 136.869H259.992V143.692H264.255V136.869Z" fill="#7C9AF2"/>
<path d="M267.154 135.163H257.178V137.764H267.154V135.163Z" fill="#060633"/>
<path d="M275.935 149.038V146.209H271.672V149.038L268.836 151.18C267.776 151.98 267.154 153.231 267.154 154.558V163.14H280.456V154.558C280.456 153.231 279.833 151.98 278.775 151.18L275.938 149.038H275.935Z" fill="#0B0755"/>
<path d="M276.676 143.92H270.82V148.056H276.676V143.92Z" fill="#BDD1F9"/>
<path d="M273.89 161.176C276.433 161.176 278.494 159.114 278.494 156.571C278.494 154.028 276.433 151.966 273.89 151.966C271.347 151.966 269.286 154.028 269.286 156.571C269.286 159.114 271.347 161.176 273.89 161.176Z" fill="white"/>
<path d="M249.277 155.974H232.793V163.138H249.277V155.974Z" fill="#EA5750"/>
<path d="M249.277 154.949H232.793V157.338H249.277V154.949Z" fill="white"/>
<path d="M204.102 141.981C204.102 141.981 206.692 152.666 203.158 163.015C203.158 163.015 200.556 154.996 202.863 142.01L204.102 141.981Z" fill="#060633"/>
<path d="M202.729 142.785L204.283 142.855L203.998 139.66L202.895 139.763L202.729 142.785Z" fill="#91B5F8"/>
<path d="M203.998 139.66L206.357 136.16C207.027 135.166 206.549 133.795 205.399 133.458C204.255 133.122 202.769 132.914 201.222 133.319C200.003 133.637 199.479 135.082 200.221 136.101L202.894 139.763L203.997 139.66H203.998Z" fill="#060633"/>
<path d="M197.471 140.925L197.837 137.27C197.94 136.232 197.437 134.938 196.835 134.719C196.238 134.502 195.507 134.444 194.876 134.991C194.379 135.422 194.436 136.887 194.99 137.811L196.982 141.133L197.471 140.923V140.925Z" fill="#060633"/>
<path d="M198.246 142.283C198.246 142.283 202.992 152.2 201.678 163.056C201.678 163.056 197.473 155.75 197.04 142.566L198.246 142.281V142.283Z" fill="#060633"/>
<path d="M197.072 143.352L198.606 143.099L197.667 140.032L196.607 140.362L197.072 143.352Z" fill="#91B5F8"/>
<path d="M209.54 141.691L210.762 139.442C211.109 138.803 211.136 137.835 210.807 137.532C210.482 137.232 210.029 136.997 209.474 137.177C209.038 137.319 208.679 138.276 208.787 139.02L209.17 141.693H209.54V141.691Z" fill="#060633"/>
<path d="M209.745 142.804C209.745 142.804 210.276 153.785 204.855 163.283C204.855 163.283 203.811 154.917 208.521 142.598L209.743 142.804H209.745Z" fill="#060633"/>
<path d="M208.246 143.334L209.759 143.695L210.082 140.504L208.977 140.396L208.246 143.334Z" fill="#91B5F8"/>
<path d="M209.903 149.717H196.607V163.016H209.903V149.717Z" fill="#BDD1F9"/>
<path d="M224.266 143.465H219.662V147.679H224.266V143.465Z" fill="white"/>
<path d="M227.721 153.319H216.21V156.582H227.721V153.319Z" fill="white"/>
<path d="M278.967 165.598H278.02V278.657H278.967V165.598Z" fill="#060633"/>
<path d="M188.7 165.598H187.753V278.657H188.7V165.598Z" fill="#060633"/>
<path d="M255.947 165.598H255V278.657H255.947V165.598Z" fill="#060633"/>
<path d="M103.256 194.132C102.711 194.132 102.217 193.756 102.089 193.202L94.9644 162.32C94.816 161.674 95.2176 161.03 95.863 160.881C96.5068 160.73 97.1523 161.135 97.3023 161.78L104.427 192.662C104.575 193.308 104.174 193.952 103.528 194.1C103.437 194.121 103.347 194.132 103.256 194.132Z" fill="#17152B"/>
<path d="M140.745 194.132C140.199 194.132 139.705 193.756 139.577 193.202L132.453 162.32C132.304 161.674 132.706 161.03 133.351 160.881C133.995 160.73 134.641 161.135 134.791 161.78L141.915 192.662C142.063 193.308 141.662 193.952 141.016 194.1C140.926 194.121 140.835 194.132 140.745 194.132Z" fill="#17152B"/>
<path d="M129.594 137.082H76.9463L96.3412 193.498H148.989L129.594 137.082Z" fill="#EA5750"/>
<path d="M127.679 196.7H132.422C133.046 196.7 133.566 197.286 133.617 198.049L139.214 281.246C139.268 282.054 138.776 282.764 138.117 282.831C138.084 282.834 138.049 282.836 138.017 282.836C137.399 282.836 136.874 282.254 136.823 281.487L131.317 199.637H127.438C127.787 198.701 127.867 197.665 127.679 196.7Z" fill="#060633"/>
<path d="M159.729 196.7H164.472C165.095 196.7 165.616 197.286 165.667 198.049L171.263 281.246C171.318 282.054 170.826 282.764 170.166 282.831C170.134 282.834 170.099 282.836 170.066 282.836C169.449 282.836 168.924 282.254 168.872 281.487L163.367 199.637H159.488C159.837 198.701 159.916 197.665 159.729 196.7Z" fill="#060633"/>
<path d="M90.8021 279.278L102.076 197.923C102.174 197.217 102.673 196.699 103.259 196.699H106.45C106.334 197.09 106.245 197.498 106.201 197.937C106.14 198.539 106.167 199.105 106.257 199.638H104.274L93.1696 279.769C93.0602 280.57 92.4476 281.112 91.7866 280.971C91.1334 280.835 90.6943 280.077 90.8052 279.277L90.8021 279.278Z" fill="#060633"/>
<path d="M168.71 192.933H96.1338V200.059H168.71V192.933Z" fill="#EA5750"/>
<path d="M172.682 112.435C172.682 112.435 169.38 105.865 169.836 104.516C170.293 103.167 172.485 99.6714 172.64 99.0023C172.794 98.3333 169.51 96.5341 170.21 94.9943C170.488 94.3831 174.023 97.7799 174.023 97.7799C174.023 97.7799 172.368 93.9986 173.052 93.7704C173.738 93.5422 175.765 97.5939 175.765 97.5939C175.765 97.5939 174.515 93.1748 175.182 93.167C175.848 93.1592 177.142 97.4642 177.142 97.4642C177.142 97.4642 176.983 94.391 177.511 94.3957C178.039 94.4019 179.097 99.4478 178.022 101.188C175.482 105.299 176.304 112.779 176.304 112.779L172.68 112.438L172.682 112.435Z" fill="#FB9391"/>
<path d="M160.63 277.023C150.287 275.037 145.627 274.127 147.331 271.624C149.036 269.122 162.224 272.534 162.224 272.534L160.63 277.023Z" fill="#EA5750"/>
<path d="M153.402 199.641C153.402 199.641 151.685 261.789 150.938 265.028C150.191 268.267 149.666 274.146 153.402 275.143C157.139 276.141 166.625 278.468 167.851 276.774C169.078 275.078 161.03 269.661 159.708 265.177C158.386 260.692 169.697 200.638 169.697 200.638L153.404 199.641H153.402Z" fill="#FB9391"/>
<path d="M157.984 276.266C157.984 276.266 160.508 267.895 165.118 268.111C169.728 268.326 175.412 278.22 172.114 278.903C168.817 279.584 157.984 276.266 157.984 276.266Z" fill="#EA5750"/>
<path d="M190.938 278.743C180.442 277.86 175.712 277.449 177.144 274.781C178.575 272.112 192.049 274.112 192.049 274.112L190.938 278.745V278.743Z" fill="#EA5750"/>
<path d="M171.268 191.795C171.268 191.795 179.989 264.807 179.587 268.107C179.186 271.407 179.731 277.042 183.552 277.638C187.373 278.233 197.051 279.546 198.092 277.731C199.132 275.915 190.556 271.38 188.768 267.06C186.979 262.739 189.365 193.498 189.365 193.498L171.268 191.793V191.795Z" fill="#FB9391"/>
<path d="M188.227 278.27C188.227 278.27 189.852 269.68 194.459 269.406C199.066 269.133 205.763 278.371 202.557 279.398C199.35 280.425 188.227 278.27 188.227 278.27Z" fill="#EA5750"/>
<path d="M123.224 60.7953C122.38 61.952 121.783 63.398 120.519 64.0717C119.471 64.6297 118.196 64.5203 117.071 64.9002C114.886 65.6364 113.729 68.0124 113.144 70.2446C112.56 72.4768 112.267 74.8872 110.875 76.7255C108.579 79.755 103.813 80.5178 102.308 84.0083C100.828 87.4395 103.271 92.0352 100.853 94.8849C100.314 95.5195 99.5922 95.9682 99.0015 96.5543C97.6231 97.9221 97.0668 100.061 97.6028 101.927C98.1388 103.793 99.7437 105.311 101.638 105.74C103.676 106.201 105.766 105.471 107.796 104.974C109.826 104.476 112.178 104.278 113.811 105.583C114.599 106.213 115.113 107.12 115.841 107.815C117.729 109.622 120.628 109.713 123.239 109.696C126.146 109.677 129.19 109.624 131.736 108.222C134.405 106.752 136.274 103.923 139.18 103.01C141.412 102.31 143.951 102.859 146.064 101.857C149.074 100.429 149.93 96.5418 149.823 93.2107C149.715 89.8812 149.051 86.375 150.416 83.3377C151.142 81.7246 152.431 80.2692 152.468 78.4997C152.489 77.5759 152.156 76.6833 151.826 75.8189C150.751 72.9911 149.677 70.1634 148.602 67.3356C148.052 65.8896 147.489 64.4187 146.536 63.1979C144.963 61.1829 142.504 60.0747 140.071 59.2931C134.985 57.6564 126.996 55.6118 123.222 60.7937L123.224 60.7953Z" fill="#060633"/>
<path d="M133.399 59.1112C127.035 59.5583 121.93 64.7918 121.625 71.1664C121.525 73.2626 121.936 75.2494 122.739 77.0205C124.513 81.4364 125.98 84.9942 127.793 87.5813C129.633 90.2027 130.483 93.39 130.047 96.5632L129.606 99.7677C137.016 103.427 140.236 100.743 140.236 100.743L140.193 92.3208C148.182 91.3266 147.043 76.575 147.021 72.2137L147.008 72.2169C147.013 72.0527 147.019 71.8902 147.018 71.7245C146.98 64.4245 140.798 58.5938 133.399 59.1144V59.1112Z" fill="#FB9391"/>
<path d="M144.484 78.0938C144.54 77.4841 144.092 76.9433 143.481 76.8886C142.871 76.8323 142.331 77.2809 142.276 77.8921C142.221 78.5033 142.668 79.0426 143.279 79.0973C143.889 79.1536 144.429 78.705 144.484 78.0938Z" fill="#060633"/>
<path d="M134.026 79.3203C134.083 78.7107 133.634 78.1698 133.023 78.1151C132.414 78.0588 131.873 78.5075 131.818 79.1187C131.762 79.7283 132.21 80.2692 132.822 80.3239C133.431 80.3801 133.972 79.9315 134.026 79.3203Z" fill="#060633"/>
<path d="M130.762 76.1453C130.631 76.1563 130.495 76.1109 130.395 76.0109C130.215 75.8296 130.216 75.5388 130.398 75.359C130.452 75.3059 131.759 74.0444 133.82 73.9584C134.075 73.9475 134.29 74.1445 134.301 74.3993C134.312 74.6541 134.094 74.8745 133.861 74.8791C132.143 74.9542 131.057 76.0031 131.046 76.014C130.967 76.0937 130.865 76.1375 130.762 76.1453Z" fill="#060633"/>
<path d="M141.288 73.5931C141.171 73.5322 141.082 73.4212 141.051 73.2821C140.996 73.0335 141.155 72.7881 141.404 72.7334C141.479 72.7178 143.242 72.3504 145.042 73.3946C145.262 73.5228 145.337 73.8042 145.209 74.0246C145.083 74.245 144.79 74.3184 144.579 74.1918C143.09 73.3274 141.613 73.6306 141.598 73.6338C141.488 73.6572 141.379 73.64 141.287 73.5916L141.288 73.5931Z" fill="#060633"/>
<path d="M139.037 83.5202C140.346 83.3139 140.776 82.3275 140.814 81.7585C140.82 81.6585 140.789 81.5616 140.725 81.485C139.542 80.0562 139.653 77.9553 139.653 77.9334C139.665 77.7193 139.503 77.5364 139.288 77.5223C139.077 77.5083 138.892 77.6708 138.877 77.885C138.871 77.9803 138.749 80.1828 140.015 81.8398C139.94 82.1462 139.629 82.8324 138.384 82.7777C138.165 82.7699 137.988 82.934 137.979 83.1482C137.97 83.3623 138.135 83.5437 138.349 83.553C138.601 83.564 138.831 83.5515 139.037 83.5187V83.5202Z" fill="#EA6868"/>
<path d="M124.008 81.2548C125.369 83.4136 128.9 67.2394 136.581 66.4907C144.262 65.7419 147.086 76.903 147.086 76.903C147.086 76.903 148.802 70.5221 145.912 65.5278C143.023 60.5334 135.551 55.6923 127.986 59.6643C120.42 63.6363 117.513 70.9535 124.008 81.2548Z" fill="#060633"/>
<path d="M136.581 66.4914C144.262 65.7426 147.086 76.9036 147.086 76.9036C147.086 76.9036 148.591 71.3044 146.406 66.4898C143.77 63.043 139.808 60.2637 134.003 61.0859C123.7 62.5459 121.978 72.3064 121.743 76.9099C122.307 78.2933 123.053 79.7408 124.006 81.2539C125.367 83.4127 128.899 67.2386 136.58 66.4898L136.581 66.4914Z" fill="white"/>
<path d="M126.631 80.5635C126.424 80.154 126.064 79.8413 125.637 79.6725C124.759 79.3224 123.209 78.9441 122.151 80.0133C120.599 81.5827 123.759 85.7032 126.85 83.632C126.85 83.632 127.732 82.741 126.63 80.5635H126.631Z" fill="#FB9391"/>
<path d="M142.703 84.6883C142.703 84.6883 141.119 83.8989 140.565 84.113C140.012 84.3287 139.768 85.0494 139.768 85.0494C139.768 85.0494 139.359 84.3975 138.663 84.4569C137.968 84.5163 135.788 86.0607 135.788 86.0607C135.788 86.0607 138.27 88.7916 140.331 88.1944C142.43 87.5864 142.703 84.6867 142.703 84.6867V84.6883Z" fill="#EA6868"/>
<path d="M135.788 86.0615C135.788 86.0615 140.027 85.4519 142.703 84.6875C142.703 84.6875 141.665 86.9744 140.04 87.1511C138.415 87.3277 135.786 86.0615 135.786 86.0615H135.788Z" fill="white"/>
<path d="M140.434 100.622L143.788 109.268L140.965 156.415C140.965 156.415 130.62 149.265 130.279 147.331C129.939 145.397 127.892 121.403 127.892 121.403V100.844L130.279 99.6074L140.434 100.62V100.622Z" fill="#FB9391"/>
<path d="M131.465 122.314L137.42 130.047L143.063 121.337L139.543 157.338C139.543 157.338 132.287 145.966 131.963 145.056C131.64 144.147 131.465 122.312 131.465 122.312V122.314Z" fill="white"/>
<path d="M140.433 100.622C140.433 100.622 149.635 104.179 152.24 105.904C154.845 107.629 164.13 129.572 167.449 129.151C170.769 128.731 170.773 109.268 170.773 109.268L184.975 113.671C184.975 113.671 181.209 145.203 172.922 148.883C164.635 152.563 154.001 134.532 154.001 134.532C154.001 134.532 153.846 136.698 150.939 139.337L147.841 153.244C147.841 153.244 152.463 165.071 154.001 165.526C155.538 165.981 187.826 180.309 190.554 186.906C193.283 193.501 193.283 215.108 193.283 215.108L176.685 217.154L173.502 197.594L169.178 217.154L148.344 219.655C148.344 219.655 149.897 204.647 143.471 202.37C137.045 200.092 110.315 193.002 108.826 182.221C107.336 171.44 113.475 158.929 115.067 150.97C116.658 143.01 109.248 106.421 109.248 106.421C109.248 106.421 112.526 102.871 129.607 99.7666L138.792 153.471L140.435 100.62L140.433 100.622Z" fill="#7C9AF2"/>
<path d="M148.349 154.54C148.027 153.746 147.83 153.244 147.83 153.244L147.974 152.68C135.206 154.815 121.048 152.409 115.019 151.137C114.897 151.731 114.746 152.354 114.58 152.994C118.937 153.932 127.441 155.453 136.757 155.453C140.562 155.453 144.501 155.192 148.349 154.54Z" fill="#0B0755"/>
<path d="M138.721 139.712H144.798C144.925 139.712 145.028 139.815 145.028 139.942V151.936H138.491V139.942C138.491 139.815 138.594 139.712 138.721 139.712Z" fill="#2F63CC"/>
<path d="M143.219 138.404H140.196V140.168H143.219V138.404Z" fill="#2F63CC"/>
<path d="M143.219 137.082H140.196V138.845H143.219V137.082Z" fill="white"/>
<path d="M142.869 137.648C142.805 137.648 142.739 137.621 142.692 137.568C142.604 137.471 142.614 137.321 142.711 137.233L144.558 135.584C144.653 135.497 144.803 135.504 144.892 135.603C144.98 135.7 144.97 135.85 144.874 135.937L143.026 137.587C142.983 137.627 142.925 137.646 142.869 137.646V137.648Z" fill="white"/>
<path d="M137.39 205.246C133.93 201.026 136.244 188.284 139.379 173.307C140.197 169.409 140.9 166.043 141.161 163.933C141.653 159.939 140.951 157.795 140.214 156.672C139.19 160.915 135.071 176.21 128.276 179.243C127.065 179.784 126.17 179.718 125.615 179.049C123.613 176.634 131.506 164.132 138.479 154.07L138.87 153.507L139.526 153.699C139.715 153.755 144.15 155.167 143.041 164.163C142.772 166.353 142.059 169.754 141.234 173.695C139.026 184.242 135.688 200.182 138.854 204.044L137.388 205.246H137.39ZM137.793 158.45C132.227 166.78 127.132 175.515 127.098 177.666C127.196 177.637 127.332 177.591 127.507 177.512C132.624 175.229 136.257 164.071 137.795 158.451L137.793 158.45Z" fill="#0B0755"/>
<path d="M130.007 146.902C130.007 146.902 134.223 143.956 135.981 143.229C137.741 142.502 141.018 141.731 141.757 142.55C142.496 143.37 137.828 144.751 137.828 144.751C137.828 144.751 141.688 145.064 142.89 144.981C144.092 144.897 146.276 145.294 146.406 146.168C146.536 147.041 140.74 147.041 140.74 147.041C140.74 147.041 145.418 147.206 145.711 147.986C146.003 148.767 139.905 149.386 139.905 149.386C139.905 149.386 144.484 149.444 145.028 149.464C145.767 149.492 146.362 150.243 144.487 150.601C142.613 150.96 139.697 151.517 139.697 151.517C139.697 151.517 143.299 151.296 143.521 151.709C143.948 152.505 141.038 152.992 138.205 153.23C135.373 153.468 133.478 153.081 130.474 151.579L130.007 146.901V146.902Z" fill="#FB9391"/>
<path d="M109.246 106.421C104.13 113.671 94.8084 141.872 100.037 152.334C105.266 162.797 131.642 157.565 131.642 157.565L131.965 145.056C131.965 145.056 112.315 146.421 111.406 143.465C110.496 140.509 114.581 121.337 114.581 121.337L109.246 106.421Z" fill="#7C9AF2"/>
<path d="M125.42 159.758C121.551 159.758 116.585 159.567 112.882 158.76C112.818 158.746 112.778 158.684 112.792 158.62C112.806 158.555 112.872 158.515 112.932 158.529C119.522 159.964 130.163 159.44 131.349 159.375L131.84 145.189C125.508 145.841 115.322 145.115 115.219 145.109C115.153 145.104 115.105 145.047 115.109 144.982C115.116 144.917 115.172 144.879 115.236 144.873C115.339 144.881 125.651 145.612 131.951 144.94C131.985 144.932 132.018 144.947 132.045 144.972C132.07 144.995 132.084 145.028 132.082 145.062L131.584 159.492C131.582 159.553 131.534 159.603 131.473 159.606C131.418 159.609 128.85 159.759 125.42 159.759V159.758Z" fill="#0B0755"/>
<path d="M125.978 137.647C122.403 137.647 119.91 136.196 119.873 136.175C119.816 136.142 119.799 136.068 119.832 136.012C119.865 135.954 119.94 135.937 119.995 135.97C120.051 136.003 125.552 139.196 131.912 135.967C131.97 135.935 132.042 135.96 132.071 136.018C132.101 136.076 132.077 136.148 132.02 136.178C129.851 137.28 127.778 137.647 125.98 137.647H125.978Z" fill="#0B0755"/>
<path d="M154 134.651C153.936 134.651 153.882 134.599 153.881 134.533V134.436C153.806 130.377 153.778 128.857 150.841 124.656C150.804 124.603 150.818 124.529 150.871 124.492C150.924 124.452 150.998 124.468 151.035 124.521C154.014 128.781 154.042 130.321 154.115 134.433V134.532C154.118 134.596 154.067 134.651 154.001 134.652H154V134.651Z" fill="#0B0755"/>
<path d="M169.288 100.336C171.268 100.336 172.873 98.7304 172.873 96.75C172.873 94.7695 171.268 93.1641 169.288 93.1641C167.308 93.1641 165.703 94.7695 165.703 96.75C165.703 98.7304 167.308 100.336 169.288 100.336Z" fill="white"/>
<path d="M170.829 107.532C170.829 107.532 168.839 104.007 168.844 102.682C168.849 101.356 168.531 98.6595 169.099 98.6798C169.666 98.7001 170.354 102.441 170.758 102.608C171.163 102.775 171.132 104.459 171.132 104.459L170.829 107.532Z" fill="#FB9391"/>
<path d="M138.491 141.56V144.802L142.386 144.347C142.386 144.347 142.67 142.527 142.67 142.441C142.67 142.355 142.386 141.788 142.187 141.56C141.989 141.333 138.493 141.56 138.493 141.56H138.491Z" fill="#2F63CC"/>
<mask id="mask0_627_50007" style="mask-type:luminance" maskUnits="userSpaceOnUse" x="196" y="41" width="87" height="87">
<path d="M239.208 127.596C262.966 127.596 282.225 108.331 282.225 84.5665C282.225 60.802 262.966 41.5371 239.208 41.5371C215.451 41.5371 196.191 60.802 196.191 84.5665C196.191 108.331 215.451 127.596 239.208 127.596Z" fill="white"/>
</mask>
<g mask="url(#mask0_627_50007)">
<path d="M293.344 37.6807H181.263V132.231H293.344V37.6807Z" fill="#BDD1F9"/>
<path d="M195.539 112.018C195.539 112.018 198.841 105.448 198.385 104.099C197.929 102.75 195.736 99.2544 195.582 98.5853C195.429 97.9147 198.712 96.1171 198.012 94.5774C197.733 93.9662 194.199 97.3629 194.199 97.3629C194.199 97.3629 195.854 93.5816 195.169 93.3534C194.483 93.1252 192.456 97.1769 192.456 97.1769C192.456 97.1769 193.706 92.7578 193.039 92.75C192.372 92.7422 191.079 97.0472 191.079 97.0472C191.079 97.0472 191.239 93.974 190.711 93.9787C190.182 93.9849 189.124 99.0308 190.2 100.771C192.739 104.882 191.917 112.362 191.917 112.362L195.541 112.021L195.539 112.018Z" fill="#FB9391"/>
<path d="M244.999 60.3793C245.842 61.536 246.439 62.9819 247.704 63.6557C248.751 64.2137 250.026 64.1043 251.151 64.4841C253.336 65.2204 254.494 67.5964 255.078 69.8286C255.663 72.0608 255.955 74.4712 257.347 76.3095C259.643 79.3389 264.409 80.1018 265.914 83.5923C267.394 87.0235 264.951 91.6192 267.369 94.4689C267.906 95.1035 268.63 95.5522 269.221 96.1383C270.599 97.5061 271.155 99.6445 270.619 101.511C270.083 103.377 268.478 104.895 266.584 105.324C264.547 105.785 262.456 105.055 260.426 104.558C258.396 104.062 256.044 103.862 254.411 105.167C253.623 105.797 253.109 106.704 252.381 107.399C250.493 109.206 247.594 109.297 244.983 109.28C242.076 109.261 239.032 109.208 236.486 107.806C233.817 106.336 231.948 103.507 229.042 102.594C226.81 101.894 224.271 102.443 222.158 101.441C219.148 100.013 218.292 96.1258 218.4 92.7947C218.507 89.4652 219.171 85.959 217.806 82.9217C217.081 81.3085 215.791 79.8532 215.754 78.0837C215.733 77.1599 216.066 76.2673 216.396 75.4029C217.471 72.5751 218.545 69.7473 219.62 66.9196C220.17 65.4736 220.733 64.0027 221.686 62.7819C223.26 60.7669 225.718 59.6586 228.151 58.877C233.237 57.2404 241.226 55.1958 245 60.3777L244.999 60.3793Z" fill="#060633"/>
<path d="M234.823 58.6962C241.186 59.1433 246.292 64.3768 246.596 70.7514C246.696 72.8476 246.285 74.8344 245.482 76.6054C243.708 81.0214 242.241 84.5792 240.428 87.1662C238.589 89.7877 237.739 92.975 238.175 96.1482L238.616 99.3527C231.205 103.012 227.986 100.328 227.986 100.328L228.028 91.9058C220.04 90.9116 221.179 76.1599 221.201 71.7987L221.213 71.8018C221.208 71.6377 221.202 71.4751 221.204 71.3094C221.241 64.0094 227.423 58.1788 234.823 58.6993V58.6962Z" fill="#FB9391"/>
<path d="M223.737 77.6777C223.681 77.0681 224.129 76.5272 224.74 76.4725C225.35 76.4163 225.891 76.8649 225.945 77.4761C226.002 78.0857 225.553 78.6266 224.942 78.6813C224.333 78.7376 223.792 78.2889 223.737 77.6777Z" fill="#060633"/>
<path d="M234.195 78.9043C234.139 78.2947 234.587 77.7538 235.198 77.6991C235.808 77.6428 236.349 78.0915 236.403 78.7027C236.46 79.3123 236.011 79.8532 235.4 79.9079C234.791 79.9641 234.25 79.5155 234.195 78.9043Z" fill="#060633"/>
<path d="M237.46 75.7283C237.591 75.7393 237.727 75.6939 237.827 75.5939C238.007 75.4126 238.005 75.1218 237.824 74.9421C237.769 74.8889 236.461 73.6274 234.402 73.5415C234.147 73.5305 233.931 73.7275 233.92 73.9823C233.909 74.2371 234.128 74.4575 234.361 74.4622C236.078 74.5372 237.165 75.5861 237.175 75.597C237.255 75.6767 237.357 75.7205 237.46 75.7283Z" fill="#060633"/>
<path d="M226.933 73.1761C227.05 73.1152 227.139 73.0042 227.17 72.8651C227.225 72.6165 227.065 72.3711 226.817 72.3164C226.742 72.3008 224.979 71.9334 223.179 72.9776C222.959 73.1058 222.884 73.3872 223.012 73.6076C223.138 73.828 223.431 73.9015 223.642 73.7748C225.131 72.9104 226.608 73.2137 226.623 73.2168C226.733 73.2402 226.842 73.223 226.934 73.1746L226.933 73.1761Z" fill="#060633"/>
<path d="M229.185 83.1032C227.875 82.8969 227.444 81.9105 227.408 81.3415C227.402 81.243 227.433 81.1446 227.497 81.068C228.68 79.6392 228.569 77.5383 228.569 77.5165C228.557 77.3023 228.719 77.1194 228.933 77.1053C229.144 77.0913 229.33 77.2538 229.344 77.468C229.35 77.5633 229.472 79.7659 228.207 81.4228C228.282 81.7292 228.593 82.4154 229.838 82.3607C230.057 82.3529 230.233 82.517 230.243 82.7312C230.252 82.9453 230.087 83.1267 229.872 83.1361C229.621 83.147 229.391 83.1345 229.185 83.1017V83.1032Z" fill="#EA6868"/>
<path d="M244.214 80.8381C242.853 82.9968 239.321 66.8227 231.64 66.0739C223.959 65.3252 221.136 76.4862 221.136 76.4862C221.136 76.4862 219.42 70.1053 222.309 65.111C225.199 60.1151 232.67 55.2755 240.235 59.2476C247.802 63.2196 250.708 70.5368 244.214 80.8381Z" fill="#060633"/>
<path d="M231.64 66.0734C223.959 65.3246 221.135 76.4857 221.135 76.4857C221.135 76.4857 219.63 70.8864 221.815 66.0718C224.451 62.625 228.413 59.8457 234.218 60.6679C244.521 62.1279 246.243 71.8884 246.478 76.4919C245.914 77.8753 245.168 79.3228 244.215 80.836C242.854 82.9947 239.322 66.8206 231.641 66.0718L231.64 66.0734Z" fill="white"/>
<path d="M241.59 80.1456C241.797 79.736 242.157 79.4234 242.584 79.2545C243.462 78.9044 245.012 78.5261 246.07 79.5953C247.622 81.1647 244.462 85.2853 241.371 83.2141C241.371 83.2141 240.49 82.3231 241.591 80.1456H241.59Z" fill="#FB9391"/>
<path d="M225.519 84.2732C225.519 84.2732 227.103 83.4838 227.656 83.698C228.21 83.9137 228.453 84.6343 228.453 84.6343C228.453 84.6343 228.863 83.9825 229.558 84.0419C230.254 84.1028 232.434 85.6457 232.434 85.6457C232.434 85.6457 229.952 88.3765 227.891 87.7794C225.792 87.1713 225.519 84.2717 225.519 84.2717V84.2732Z" fill="#EA6868"/>
<path d="M232.436 85.6465C232.436 85.6465 228.196 85.0369 225.521 84.2725C225.521 84.2725 226.558 86.5594 228.183 86.736C229.809 86.9127 232.437 85.6465 232.437 85.6465H232.436Z" fill="white"/>
<path d="M227.788 100.204L224.435 108.85L227.257 155.997C227.257 155.997 237.602 148.847 237.943 146.913C238.283 144.979 240.331 120.985 240.331 120.985V100.426L237.943 99.1895L227.788 100.202V100.204Z" fill="#FB9391"/>
<path d="M236.757 121.897L230.801 129.63L225.158 120.92L228.679 156.921C228.679 156.921 235.935 145.549 236.258 144.639C236.582 143.73 236.757 121.895 236.757 121.895V121.897Z" fill="white"/>
<path d="M227.788 100.205C227.788 100.205 218.587 103.763 215.982 105.487C213.377 107.211 204.091 129.155 200.772 128.734C197.453 128.314 197.448 108.851 197.448 108.851L183.246 113.254C183.246 113.254 187.012 144.787 195.299 148.466C203.586 152.146 214.221 134.116 214.221 134.116C214.221 134.116 214.375 136.283 217.282 138.922L220.381 152.829C220.381 152.829 215.758 164.656 214.221 165.111C212.683 165.566 180.396 179.894 177.667 186.49C174.938 193.085 174.938 214.693 174.938 214.693L191.536 216.739L194.719 197.179L199.043 216.739L219.878 219.24C219.878 219.24 218.324 204.232 224.75 201.955C231.176 199.677 257.906 192.587 259.396 181.806C260.885 171.024 254.746 158.514 253.154 150.555C251.562 142.595 258.974 106.006 258.974 106.006C258.974 106.006 255.695 102.456 238.615 99.3516L229.429 153.056L227.786 100.205H227.788Z" fill="#7C9AF2"/>
<path d="M258.975 106.006C264.091 113.256 273.413 141.457 268.184 151.919C262.955 162.382 236.579 157.15 236.579 157.15L236.256 144.641C236.256 144.641 255.905 146.006 256.815 143.05C257.724 140.094 253.64 120.922 253.64 120.922L258.975 106.006Z" fill="#7C9AF2"/>
<path d="M214.222 134.233H214.221C214.155 134.233 214.104 134.177 214.104 134.113V134.019C214.18 129.905 214.207 128.365 217.187 124.104C217.224 124.049 217.298 124.035 217.351 124.074C217.404 124.111 217.418 124.185 217.381 124.238C214.443 128.44 214.416 129.961 214.343 134.022V134.116C214.339 134.18 214.286 134.233 214.222 134.233Z" fill="#0B0755"/>
<path d="M198.933 99.9199C200.913 99.9199 202.518 98.3144 202.518 96.334C202.518 94.3535 200.913 92.748 198.933 92.748C196.954 92.748 195.349 94.3535 195.349 96.334C195.349 98.3144 196.954 99.9199 198.933 99.9199Z" fill="white"/>
<path d="M197.393 107.117C197.393 107.117 199.382 103.592 199.377 102.266C199.373 100.941 199.69 98.2444 199.123 98.2648C198.555 98.2851 197.868 102.026 197.463 102.193C197.058 102.36 197.089 104.044 197.089 104.044L197.393 107.117Z" fill="#FB9391"/>
</g>
<path d="M322.02 98.935C327.962 100.164 333.316 104.455 333.925 113.791C334.502 122.63 329.676 131.377 332.062 140.132C334.513 149.117 341.506 152.192 338.954 163.306C338.044 167.264 336.58 171.122 336.654 175.279C336.808 183.987 342.89 189.305 345.863 196.136C349.698 204.952 348.279 217.098 343.172 224.343C333.463 238.12 316.996 233.171 304.748 231.865C297.633 231.107 291.213 226.015 289.433 215.685C287.367 203.694 292.776 197.915 296.157 188.431C299.447 179.202 295.398 168.334 295.299 158.024C295.19 146.499 301.849 140.171 303.072 129.581C303.957 121.923 300.87 114.034 303.941 106.799C305.566 102.97 308.576 100.603 311.678 99.5759C314.752 98.5567 318.49 98.205 322.022 98.935H322.02Z" fill="#BDD1F9"/>
<path d="M319.218 154.12H317.801V262.887H319.218V154.12Z" fill="#91B5F8"/>
<path d="M307.222 176.475L305.933 177.064L317.865 203.183L319.154 202.594L307.222 176.475Z" fill="#91B5F8"/>
<path d="M329.669 204.436L317.92 221.327L319.083 222.137L330.833 205.246L329.669 204.436Z" fill="#91B5F8"/>
<path d="M303.929 258.88H332.442V280.144C332.442 280.841 331.876 281.407 331.179 281.407H305.191C304.494 281.407 303.929 280.841 303.929 280.144V258.88Z" fill="#91B5F8"/>
<path d="M52.8072 49.4668H49.0176V275.081H52.8072V49.4668Z" fill="#91B5F8"/>
<path d="M93.471 33.502H8.35449V62.4362H93.471V33.502Z" fill="#BDD1F9"/>
<path d="M60.3347 65.2112C61.0088 65.2112 61.5552 64.6646 61.5552 63.9904C61.5552 63.3161 61.0088 62.7695 60.3347 62.7695C59.6607 62.7695 59.1143 63.3161 59.1143 63.9904C59.1143 64.6646 59.6607 65.2112 60.3347 65.2112Z" fill="#91B5F8"/>
<path d="M60.3347 67.8958C61.0088 67.8958 61.5552 67.3492 61.5552 66.6749C61.5552 66.0007 61.0088 65.4541 60.3347 65.4541C59.6607 65.4541 59.1143 66.0007 59.1143 66.6749C59.1143 67.3492 59.6607 67.8958 60.3347 67.8958Z" fill="#91B5F8"/>
<path d="M60.3347 70.5794C61.0088 70.5794 61.5552 70.0328 61.5552 69.3585C61.5552 68.6843 61.0088 68.1377 60.3347 68.1377C59.6607 68.1377 59.1143 68.6843 59.1143 69.3585C59.1143 70.0328 59.6607 70.5794 60.3347 70.5794Z" fill="#91B5F8"/>
<path d="M61.1974 72.9062C61.6741 72.4295 61.6741 71.6565 61.1974 71.1797C60.7208 70.7029 59.948 70.7029 59.4714 71.1797C58.9948 71.6565 58.9948 72.4295 59.4714 72.9062C59.948 73.383 60.7208 73.383 61.1974 72.9062Z" fill="#91B5F8"/>
<path d="M61.1974 75.5908C61.6741 75.114 61.6741 74.341 61.1974 73.8643C60.7208 73.3875 59.948 73.3875 59.4714 73.8643C58.9948 74.341 58.9948 75.114 59.4714 75.5908C59.948 76.0676 60.7208 76.0676 61.1974 75.5908Z" fill="#91B5F8"/>
<path d="M61.1984 78.2744C61.675 77.7976 61.675 77.0246 61.1984 76.5479C60.7218 76.0711 59.949 76.0711 59.4724 76.5479C58.9958 77.0246 58.9958 77.7976 59.4724 78.2744C59.949 78.7512 60.7218 78.7512 61.1984 78.2744Z" fill="#91B5F8"/>
<path d="M60.6186 81.2819C61.2744 81.1265 61.6802 80.4686 61.5248 79.8125C61.3694 79.1564 60.7117 78.7506 60.0558 78.906C59.3999 79.0615 58.9941 79.7194 59.1496 80.3754C59.305 81.0315 59.9627 81.4374 60.6186 81.2819Z" fill="#91B5F8"/>
<path d="M60.6186 83.9665C61.2744 83.811 61.6802 83.1531 61.5248 82.4971C61.3693 81.841 60.7117 81.4351 60.0558 81.5906C59.3999 81.746 58.9941 82.4039 59.1496 83.06C59.305 83.7161 59.9627 84.1219 60.6186 83.9665Z" fill="#91B5F8"/>
<path d="M74.354 271.473H27.0615V276.398H74.354V271.473Z" fill="#91B5F8"/>
</g>
<defs>
<clipPath id="clip0_627_50007">
<rect width="370" height="288" fill="white"/>
</clipPath>
</defs>
</svg>
