<svg width="130" height="101" viewBox="0 0 130 101" fill="none" xmlns="http://www.w3.org/2000/svg">
<g id="1-2">
<path id="Vector" d="M34.1489 23.1357C45.1389 11.5557 30.9189 -5.96426 17.0989 3.78574C15.0689 5.21574 13.5689 6.91575 11.7889 9.61575C5.02894 19.8557 0.668945 20.0458 0.668945 20.0458C0.668945 20.0458 6.74894 29.6357 18.8389 29.6357C23.2689 29.6357 29.0989 28.4657 34.1589 23.1357H34.1489Z" fill="#555555"/>
<path id="Vector_2" d="M95.659 23.1357C84.669 11.5557 98.889 -5.96426 112.709 3.78574C114.739 5.21574 116.239 6.91575 118.019 9.61575C124.779 19.8557 129.139 20.0458 129.139 20.0458C129.139 20.0458 123.059 29.6357 110.969 29.6357C106.539 29.6357 100.709 28.4657 95.649 23.1357H95.659Z" fill="#555555"/>
<path id="Vector_3" d="M21.8988 70.8557C29.2939 70.8557 35.2888 64.8608 35.2888 57.4657C35.2888 50.0706 29.2939 44.0757 21.8988 44.0757C14.5037 44.0757 8.50879 50.0706 8.50879 57.4657C8.50879 64.8608 14.5037 70.8557 21.8988 70.8557Z" fill="#BEBEBE"/>
<path id="Vector_4" d="M107.899 70.8557C115.294 70.8557 121.289 64.8608 121.289 57.4657C121.289 50.0706 115.294 44.0757 107.899 44.0757C100.504 44.0757 94.5088 50.0706 94.5088 57.4657C94.5088 64.8608 100.504 70.8557 107.899 70.8557Z" fill="#BEBEBE"/>
<path id="Vector_5" d="M64.8986 100.356C40.4086 100.356 20.5586 80.5055 20.5586 56.0155V46.2455C20.5586 43.4655 20.8186 40.7355 21.3086 38.0956C35.3786 21.6856 45.5686 10.6855 67.2786 10.6855C90.5286 10.6855 96.2486 22.0555 109.089 42.5555C109.189 43.7755 109.239 44.9955 109.239 46.2355V56.0055C109.239 80.4955 89.3886 100.346 64.8986 100.346V100.356Z" fill="#D4D4D4"/>
<path id="Vector_6" d="M49.359 53.4154C49.359 56.6554 46.819 59.2854 43.679 59.2854C40.539 59.2854 37.999 56.6554 37.999 53.4154C37.999 50.1754 40.539 47.5454 43.679 47.5454C46.819 47.5454 49.359 50.1754 49.359 53.4154Z" fill="#404040"/>
<path id="Vector_7" d="M91.7995 53.4154C91.7995 56.6554 89.2595 59.2854 86.1195 59.2854C82.9795 59.2854 80.4395 56.6554 80.4395 53.4154C80.4395 50.1754 82.9795 47.5454 86.1195 47.5454C89.2595 47.5454 91.7995 50.1754 91.7995 53.4154Z" fill="#404040"/>
<path id="Vector_8" d="M64.8991 84.4557C57.5491 84.4557 50.9991 79.7857 48.5891 72.8257C48.1791 71.6457 48.8091 70.3457 49.9891 69.9357C51.1791 69.5257 52.4691 70.1557 52.8791 71.3457C54.6491 76.4657 59.4791 79.9157 64.8891 79.9157C70.2991 79.9157 75.1291 76.4757 76.8991 71.3457C77.3091 70.1557 78.6091 69.5357 79.7891 69.9357C80.9791 70.3457 81.5991 71.6357 81.1891 72.8257C78.7891 79.7757 72.2291 84.4557 64.8791 84.4557H64.8991Z" fill="#8F8F8F"/>
<path id="Vector_9" d="M64.8989 1.36546C42.8289 1.36546 23.7389 17.8055 20.5089 39.6055C20.4889 39.7555 20.5289 39.9155 20.6289 40.0355C20.7289 40.1555 20.8789 40.2255 21.0289 40.2355C39.4989 40.8255 65.6989 34.5355 78.1389 22.9555C82.2889 30.2055 95.3489 43.4855 109.119 43.9555H109.139C109.289 43.9555 109.429 43.8955 109.529 43.7855C109.639 43.6755 109.689 43.5255 109.679 43.3655C108.189 19.8055 88.5089 1.35547 64.8889 1.35547L64.8989 1.36546Z" fill="#737373"/>
</g>
</svg>
