<svg width="111" height="102" viewBox="0 0 111 102" fill="none" xmlns="http://www.w3.org/2000/svg">
<g id="4-1">
<path id="Vector" d="M14.3294 69.2556C21.7245 69.2556 27.7194 63.2607 27.7194 55.8656C27.7194 48.4705 21.7245 42.4756 14.3294 42.4756C6.93431 42.4756 0.939453 48.4705 0.939453 55.8656C0.939453 63.2607 6.93431 69.2556 14.3294 69.2556Z" fill="#B6B6B6"/>
<path id="Vector_2" d="M97.3002 69.2556C104.695 69.2556 110.69 63.2607 110.69 55.8656C110.69 48.4705 104.695 42.4756 97.3002 42.4756C89.9051 42.4756 83.9102 48.4705 83.9102 55.8656C83.9102 63.2607 89.9051 69.2556 97.3002 69.2556Z" fill="#B6B6B6"/>
<path id="Vector_3" d="M56.6992 101.775C32.2192 102.265 11.9793 82.8154 11.4893 58.3254V44.6454C11.4893 20.1654 31.3393 0.31543 55.8193 0.31543C80.2993 0.31543 100.149 20.1654 100.149 44.6454V56.5554C100.639 81.0354 81.1892 101.275 56.6992 101.765V101.775Z" fill="#D4D4D4"/>
<path id="Vector_4" d="M36.5189 22.5254C36.7789 22.5254 37.039 22.4854 37.289 22.3954C45.799 19.3154 55.569 19.8854 55.669 19.8954C55.719 19.8954 55.759 19.8954 55.809 19.8954C55.859 19.8954 55.8989 19.8954 55.9489 19.8954C56.0489 19.8954 65.8189 19.3254 74.3289 22.3954C74.5889 22.4854 74.8489 22.5254 75.0989 22.5254C76.0289 22.5254 76.899 21.9454 77.239 21.0254C77.669 19.8454 77.059 18.5454 75.869 18.1154C66.889 14.8754 57.079 15.2754 55.809 15.3454C54.549 15.2754 44.739 14.8654 35.739 18.1154C34.559 18.5454 33.949 19.8454 34.369 21.0254C34.699 21.9454 35.5789 22.5254 36.5089 22.5254H36.5189Z" fill="#BEBEBE"/>
<path id="Vector_5" d="M83.2192 30.5058C77.4392 26.4858 68.2193 24.4458 55.8093 24.4458C43.3993 24.4458 34.1792 26.4858 28.3992 30.5058C27.3692 31.2258 27.1192 32.6358 27.8292 33.6658C28.2692 34.2958 28.9792 34.6358 29.6992 34.6358C30.1492 34.6358 30.5993 34.5058 30.9993 34.2258C35.9993 30.7458 44.3493 28.9758 55.8093 28.9758C67.2693 28.9758 75.6193 30.7458 80.6193 34.2258C81.0093 34.5058 81.4692 34.6358 81.9192 34.6358C82.6392 34.6358 83.3392 34.2958 83.7892 33.6658C84.5092 32.6358 84.2492 31.2258 83.2192 30.5058Z" fill="#BEBEBE"/>
<path id="Vector_6" d="M42.4699 51.8256C42.4699 54.9056 40.0499 57.4056 37.0699 57.4056C34.0899 57.4056 31.6699 54.9056 31.6699 51.8256C31.6699 48.7456 34.0899 46.2456 37.0699 46.2456C40.0499 46.2456 42.4699 48.7456 42.4699 51.8256Z" fill="#404040"/>
<path id="Vector_7" d="M79.9699 51.8256C79.9699 54.9056 77.5499 57.4056 74.5699 57.4056C71.5899 57.4056 69.1699 54.9056 69.1699 51.8256C69.1699 48.7456 71.5899 46.2456 74.5699 46.2456C77.5499 46.2456 79.9699 48.7456 79.9699 51.8256Z" fill="#404040"/>
<path id="Vector_8" d="M55.8193 86.0057C48.5193 86.0057 41.9793 81.9057 39.5493 75.7957C39.0893 74.6257 39.6493 73.3057 40.8193 72.8457C41.9793 72.3857 43.3093 72.9457 43.7693 74.1157C45.5193 78.5157 50.3593 81.4657 55.8193 81.4657C61.2793 81.4657 66.1193 78.5157 67.8693 74.1157C68.3293 72.9457 69.6593 72.3857 70.8193 72.8457C71.9893 73.3057 72.5593 74.6257 72.0893 75.7957C69.6593 81.9057 63.1193 86.0157 55.8193 86.0157V86.0057Z" fill="#8F8F8F"/>
<path id="Vector_9" d="M36.1497 68.9556C30.8497 73.1356 30.4697 77.4756 30.4697 77.4756L36.1497 68.9556Z" fill="#D4D4D4"/>
<path id="Vector_10" d="M30.4693 79.7555C30.3993 79.7555 30.3393 79.7555 30.2693 79.7555C29.0193 79.6455 28.0893 78.5455 28.1993 77.2955C28.2493 76.7455 28.8293 71.8455 34.7393 67.1855C35.7193 66.4055 37.1493 66.5755 37.9293 67.5655C38.7093 68.5455 38.5393 69.9755 37.5493 70.7555C33.1393 74.2255 32.7293 77.6555 32.7293 77.6855C32.6293 78.8655 31.6393 79.7555 30.4693 79.7555Z" fill="#BEBEBE"/>
<path id="Vector_11" d="M75.4893 68.9556C80.7893 73.1356 81.1693 77.4756 81.1693 77.4756L75.4893 68.9556Z" fill="#D4D4D4"/>
<path id="Vector_12" d="M81.1701 79.7555C80.0001 79.7555 79.0101 78.8655 78.9101 77.6855C78.9001 77.5755 78.4501 74.1955 74.0901 70.7555C73.1001 69.9755 72.9401 68.5455 73.7101 67.5655C74.4901 66.5855 75.9101 66.4155 76.9001 67.1855C82.8001 71.8355 83.3901 76.7455 83.4401 77.2955C83.5501 78.5455 82.6301 79.6455 81.3701 79.7555C81.3001 79.7555 81.2401 79.7555 81.1701 79.7555Z" fill="#BEBEBE"/>
<path id="Vector_13" d="M30.2593 64.5758C24.9393 64.5758 20.6094 60.2458 20.6094 54.9358V49.2958C20.6094 43.9758 24.9393 39.6558 30.2593 39.6558H41.9794C47.2994 39.6558 51.6194 43.9858 51.6194 49.2958V54.9358C51.6194 60.2558 47.2894 64.5758 41.9794 64.5758H30.2593ZM30.2593 43.7558C27.1993 43.7558 24.7194 46.2458 24.7194 49.2958V54.9358C24.7194 57.9958 27.2093 60.4758 30.2593 60.4758H41.9794C45.0394 60.4758 47.5193 57.9858 47.5193 54.9358V49.2958C47.5193 46.2458 45.0294 43.7558 41.9794 43.7558H30.2593Z" fill="#656565"/>
<path id="Vector_14" d="M69.6595 64.5758C64.3395 64.5758 60.0195 60.2458 60.0195 54.9358V49.2958C60.0195 43.9758 64.3495 39.6558 69.6595 39.6558H81.3796C86.6996 39.6558 91.0195 43.9858 91.0195 49.2958V54.9358C91.0195 60.2558 86.6896 64.5758 81.3796 64.5758H69.6595ZM69.6595 43.7558C66.5995 43.7558 64.1196 46.2458 64.1196 49.2958V54.9358C64.1196 57.9958 66.6095 60.4758 69.6595 60.4758H81.3796C84.4396 60.4758 86.9196 57.9858 86.9196 54.9358V49.2958C86.9196 46.2458 84.4296 43.7558 81.3796 43.7558H69.6595Z" fill="#656565"/>
<path id="Vector_15" d="M49.759 51.3358C48.629 51.3358 47.709 50.4158 47.709 49.2858C47.709 48.1558 48.629 47.2358 49.759 47.2358H62.069C63.199 47.2358 64.119 48.1558 64.119 49.2858C64.119 50.4158 63.199 51.3358 62.069 51.3358H49.759Z" fill="#656565"/>
</g>
</svg>
