<svg width="60" height="60" viewBox="0 0 60 60" fill="none" xmlns="http://www.w3.org/2000/svg">
<g id="Clip path group">
<mask id="mask0_536_47619" style="mask-type:luminance" maskUnits="userSpaceOnUse" x="-10" y="-2" width="81" height="81">
<g id="clippath">
<path id="Vector" d="M58.5943 66.5941C74.1677 51.0207 74.1677 25.7713 58.5943 10.1979C43.021 -5.37551 17.7715 -5.37551 2.19812 10.1979C-13.3753 25.7713 -13.3753 51.0207 2.19812 66.5941C17.7715 82.1675 43.021 82.1675 58.5943 66.5941Z" fill="white"/>
</g>
</mask>
<g mask="url(#mask0_536_47619)">
<g id="Group">
<mask id="mask1_536_47619" style="mask-type:luminance" maskUnits="userSpaceOnUse" x="-5" y="-2" width="70" height="91">
<g id="clippath_2">
<path id="Vector_2" d="M64.3107 -1.67969H-4.77734V88.8723H64.3107V-1.67969Z" fill="white"/>
</g>
</mask>
<g mask="url(#mask1_536_47619)">
<path id="Vector_3" d="M21.8965 42.2363V57.0657C21.8965 57.0657 32.8313 60.2429 38.3487 56.7051L36.1966 41.6738L21.8965 42.2344V42.2363Z" fill="white"/>
<path id="Vector 285" d="M20.4094 51.8291L22.1734 52.4171V53.0051L28.0534 56.9251H31.0914L33.9334 56.1411L36.0894 54.5731L39.7154 51.8291L43.3414 54.5731L47.1634 56.9251C48.5027 57.6764 51.299 59.2183 51.7694 59.3751C52.2398 59.5319 55.5587 61.7271 57.1594 62.8051L57.6494 65.0591C60.132 68.1951 65.2934 74.7807 66.0774 76.0351C67.0574 77.6031 58.2374 83.0911 57.6494 83.4831C57.179 83.7967 44.5174 85.7044 38.2454 86.6191L-3.30664 69.5671L1.49536 62.0211L13.3534 56.9251L20.4094 51.8291Z" fill="#3ED8E9" stroke="black" stroke-width="0.196"/>
<path id="Vector_4" d="M-0.464783 68.8458C-0.525543 68.8458 -0.588263 68.8399 -0.652943 68.8281C-1.23114 68.7262 -1.61726 68.1735 -1.51338 67.5953L-1.28602 66.3154C-0.676463 61.9819 1.92838 60.4472 2.0401 60.3845C2.07342 60.3649 2.1087 60.3472 2.14594 60.3315L12.777 55.7314C13.316 55.4982 13.9432 55.7452 14.1764 56.2842C14.4097 56.8232 14.1627 57.4484 13.6237 57.6836L3.06518 62.2543C2.81038 62.4248 1.24434 63.5871 0.820976 66.631C0.820976 66.6447 0.817057 66.6584 0.815097 66.6702L0.583817 67.9697C0.491697 68.4852 0.0428567 68.8477 -0.462823 68.8477L-0.464783 68.8458Z" fill="#3E3A39"/>
<path id="Vector_5" d="M37.4867 52.7975C37.0477 52.7975 36.6361 52.5231 36.4832 52.0841C36.0618 50.8787 35.8658 49.6831 35.8991 48.5306C35.9168 47.9426 36.4107 47.48 36.9928 47.4996C37.5808 47.5173 38.0414 48.0073 38.0238 48.5933C37.9983 49.4851 38.1551 50.422 38.4903 51.3824C38.6843 51.9371 38.3923 52.5427 37.8376 52.7367C37.7219 52.7779 37.6024 52.7975 37.4867 52.7975Z" fill="#3E3A39"/>
<path id="Vector_6" d="M59.4129 71.6716C58.8955 71.6716 58.4407 71.2933 58.3623 70.7641L57.6822 66.211C57.2589 63.1632 55.6732 61.9833 55.4341 61.8226L46.8454 58.0378C46.3083 57.8006 46.0633 57.1734 46.3005 56.6364C46.5377 56.0994 47.1649 55.8544 47.7019 56.0915L56.3592 59.9057C56.3925 59.9214 56.4259 59.937 56.4572 59.9547C56.5689 60.0174 59.1816 61.558 59.7853 65.9072L60.4635 70.4505C60.5497 71.0306 60.1499 71.5736 59.5677 71.6598C59.5148 71.6676 59.4619 71.6716 59.409 71.6716H59.4129Z" fill="#3E3A39"/>
<path id="Vector_7" d="M22.3461 53.702C22.254 53.702 22.1618 53.6902 22.0697 53.6647C21.5033 53.5118 21.1662 52.9297 21.3171 52.3633C21.3386 52.277 21.4288 51.7282 21.0466 49.4644C21.0074 49.2312 20.9898 49.1254 21.0172 48.9509C21.1074 48.3708 21.6503 47.9729 22.2324 48.063C22.7185 48.1395 23.0752 48.5315 23.1261 48.998C23.1301 49.0234 23.136 49.0607 23.1458 49.1097C23.479 51.0814 23.5495 52.2555 23.3731 52.914C23.2457 53.3884 22.8165 53.702 22.3461 53.702Z" fill="#3E3A39"/>
<path id="Vector_8" d="M13.3476 23.4946C13.3476 23.4946 10.3763 50.3309 30.9386 50.2329C30.9386 50.2329 48.0494 51.3815 45.4857 22.3166L42.4301 15.4331L19.796 16.025L13.3476 23.4965V23.4946Z" fill="white"/>
<path id="Vector_9" d="M13.9113 31.9674C13.9113 31.9674 8.9682 26.3305 6.90824 31.2187C6.90824 31.2187 6.29672 33.4002 7.19048 35.9717C8.39588 39.4331 11.6318 43.2394 16.1046 39.9525L13.9094 31.9674H13.9113Z" fill="white"/>
<path id="Vector_10" d="M43.4393 32.0167C43.4393 32.0167 48.3825 26.3798 50.4424 31.268C50.4424 31.268 51.0539 33.4495 50.1602 36.021C48.9548 39.4824 45.7188 43.2887 41.2461 40.0018L43.4413 32.0167H43.4393Z" fill="white"/>
<path id="Vector_11" d="M34.188 14.8002C34.188 14.8002 29.9034 24.9647 18.5962 25.6841L13.557 27.4206L12.2301 29.2885C12.2301 29.2885 11.0972 28.8377 9.1137 29.655C7.12822 30.4723 5.03886 11.4623 14.7311 7.18363C14.7311 7.18363 18.8216 3.42435 25.5013 4.24363C25.5013 4.24363 38.8097 -0.915093 45.946 8.00487C45.946 8.00487 55.2737 18.2067 50.2639 29.2277L46.6026 29.9137L45.3561 26.7738C45.3561 26.7738 36.2225 21.2192 34.186 14.8002H34.188Z" fill="#A48B78"/>
<path id="Vector_12" d="M13.2509 42.3912C13.2117 42.3912 13.1744 42.3912 13.1372 42.3893C10.6167 42.2893 8.51749 38.9201 8.08237 38.1713C4.20745 32.2561 7.49045 29.2043 7.63157 29.0769L7.70997 29.0064L7.80209 28.9535C10.695 27.2463 12.8099 28.7908 13.5253 29.8472C13.8546 30.3333 13.7272 30.9958 13.2411 31.3251C12.7589 31.6524 12.1023 31.5289 11.7711 31.0507C11.5418 30.7312 10.6774 29.7943 8.99769 30.7214C8.68605 31.082 7.26897 33.0675 9.87577 37.0326L9.90713 37.0855C10.6382 38.3458 12.1984 40.2293 13.2215 40.2685C13.3371 40.2725 13.6938 40.2881 14.1642 39.6061C14.4974 39.1219 15.1599 39.0004 15.644 39.3336C16.1282 39.6668 16.2497 40.3293 15.9165 40.8134C15.0247 42.107 13.9957 42.3971 13.2509 42.3971V42.3912Z" fill="#3E3A39"/>
<path id="Vector_13" d="M45.4854 42.3914C44.7425 42.3914 43.7116 42.1013 42.8198 40.8077C42.4866 40.3236 42.6081 39.6611 43.0922 39.3279C43.5763 38.9947 44.2388 39.1163 44.572 39.6004C45.0424 40.2825 45.3952 40.2668 45.5148 40.2629C46.5398 40.2237 48.098 38.3381 48.8311 37.0779L48.8624 37.0269C51.4849 33.0383 50.062 31.0763 49.7444 30.7177C47.9393 29.72 47.071 30.896 46.975 31.0352C46.6457 31.5213 45.9852 31.6487 45.4971 31.3194C45.011 30.9901 44.8836 30.3296 45.2129 29.8415C45.9283 28.7871 48.0432 27.2426 50.9361 28.9478L51.0282 29.0007L51.1066 29.0713C51.2478 29.1987 54.5308 32.2523 50.6558 38.1657C50.2188 38.9144 48.1196 42.2836 45.601 42.3836C45.5638 42.3836 45.5246 42.3855 45.4873 42.3855L45.4854 42.3914Z" fill="#3E3A39"/>
<path id="Vector_14" d="M45.3578 27.8362C45.1599 27.8362 44.96 27.7813 44.7816 27.6657C39.276 24.1063 35.4383 17.5776 35.2776 17.3032C34.9816 16.7955 35.1541 16.1448 35.6617 15.8489C36.1694 15.5529 36.8201 15.7254 37.116 16.233C37.1533 16.2957 40.8655 22.603 45.936 25.8801C46.43 26.1996 46.5711 26.8582 46.2516 27.3501C46.0478 27.6657 45.7067 27.8362 45.3578 27.8362Z" fill="#3E3A39"/>
<path id="Vector_15" d="M39.6056 27.4681C39.3684 27.4681 39.1312 27.3897 38.9333 27.229C37.5221 26.0765 36.2344 26.0294 36.1795 26.0275C35.5915 26.0236 35.125 25.5453 35.127 24.9573C35.1309 24.3713 35.6111 23.8989 36.1952 23.8989H36.201C36.4088 23.8989 38.2904 23.9577 40.2778 25.5786C40.7326 25.951 40.8012 26.6194 40.4288 27.0761C40.219 27.3328 39.9133 27.4681 39.6036 27.4681H39.6056Z" fill="#3E3A39"/>
<path id="Vector_16" d="M29.9584 43.3053C27.1321 43.3053 25.0074 42.1136 24.8742 42.0371C24.3646 41.7451 24.1882 41.0944 24.4822 40.5848C24.7742 40.0752 25.423 39.8988 25.9326 40.1908C26.105 40.2869 29.878 42.3625 33.6589 40.1908C34.1685 39.8988 34.8192 40.0752 35.1112 40.5828C35.4033 41.0924 35.2269 41.7431 34.7192 42.0352C33.063 42.9858 31.4186 43.3033 29.9604 43.3033L29.9584 43.3053Z" fill="#3E3A39"/>
<path id="Vector_17" d="M30.1203 38.1403C30.1046 38.1403 30.0889 38.1403 30.0733 38.1403L29.4265 38.1128C28.8404 38.0873 28.3837 37.5915 28.4092 37.0054C28.4347 36.4194 28.9306 35.9647 29.5166 35.9882L30.1634 36.0156C30.7495 36.0411 31.2061 36.537 31.1807 37.123C31.1552 37.6934 30.6848 38.1403 30.1183 38.1403H30.1203Z" fill="#3E3A39"/>
<path id="Vector_18" d="M36.9607 32.8344C36.0865 32.8344 35.3711 32.119 35.3711 31.2448C35.3711 30.3707 36.0865 29.6553 36.9607 29.6553C37.8348 29.6553 38.5502 30.3707 38.5502 31.2448C38.5502 32.119 37.8348 32.8344 36.9607 32.8344Z" fill="#3E3A39"/>
<path id="Vector_19" d="M22.236 32.8344C21.3619 32.8344 20.6465 32.119 20.6465 31.2448C20.6465 30.3707 21.3619 29.6553 22.236 29.6553C23.1102 29.6553 23.8256 30.3707 23.8256 31.2448C23.8256 32.119 23.1102 32.8344 22.236 32.8344Z" fill="#3E3A39"/>
<path id="Vector_20" d="M8.58375 30.3213C8.11923 30.3213 7.69195 30.0136 7.56063 29.5432C7.43519 29.0944 4.55399 18.4712 9.76759 10.6488C12.6155 6.37798 17.2999 3.81626 23.6953 3.0303C24.2775 2.95974 24.8086 3.3733 24.8811 3.95542C24.9537 4.53754 24.5381 5.0687 23.956 5.14122C18.2093 5.84682 14.0325 8.09494 11.5453 11.8209C6.86875 18.822 9.58335 28.8729 9.61079 28.9729C9.76759 29.5393 9.43635 30.1253 8.87187 30.2821C8.77583 30.3096 8.67979 30.3213 8.58571 30.3213H8.58375Z" fill="#3E3A39"/>
<path id="Vector_21" d="M49.3854 30.4747C49.2169 30.4747 49.0444 30.4336 48.8856 30.3493C48.3682 30.0729 48.1702 29.4281 48.4486 28.9106C50.6849 24.7182 51.1828 20.418 49.9303 16.1295C48.9856 12.8916 47.3431 10.8669 47.3255 10.8473C43.3173 6.00215 38.8544 3.46983 34.0661 3.32087C30.493 3.21111 28.0371 4.53999 28.0136 4.55371C27.5001 4.83595 26.8533 4.65171 26.5691 4.14015C26.2849 3.62859 26.4652 2.98375 26.9767 2.69563C27.0943 2.63095 29.8795 1.09627 34.0053 1.19231C37.7685 1.27855 43.4192 2.78971 48.966 9.49291C49.0424 9.58503 50.8652 11.8136 51.9452 15.4415C52.9409 18.7912 53.4681 24.0185 50.3262 29.9142C50.1342 30.2728 49.7676 30.4767 49.3874 30.4767L49.3854 30.4747Z" fill="#3E3A39"/>
<path id="Vector_22" d="M26.6219 24.375C26.2868 24.375 25.9575 24.2182 25.7517 23.9223C25.4146 23.4421 25.5302 22.7776 26.0104 22.4405C32.4647 17.9051 33.133 14.6573 33.1389 14.624L33.135 14.6436L35.24 14.9533C35.1793 15.3649 34.4423 19.1124 27.2334 24.181C27.0472 24.3123 26.8336 24.375 26.6219 24.375Z" fill="#3E3A39"/>
<path id="Vector_23" d="M19.1329 26.7048C18.8016 26.7048 18.4743 26.55 18.2666 26.2599C17.9255 25.7817 18.0353 25.1172 18.5135 24.7762C22.5609 21.8832 23.6036 16.6206 23.6134 16.5677C23.7232 15.9915 24.2798 15.6132 24.858 15.721C25.4343 15.8307 25.8145 16.3874 25.7048 16.9656C25.6577 17.2145 24.4856 23.1219 19.7522 26.5069C19.5641 26.6401 19.3485 26.7048 19.1348 26.7048H19.1329Z" fill="#3E3A39"/>
<path id="Vector_24" d="M11.764 30.7195C11.4582 30.7195 11.1524 30.5881 10.9427 30.3333C10.5684 29.8806 10.633 29.2103 11.0858 28.8359C13.4829 26.8583 15.4194 21.0665 15.9623 19.0026C16.1112 18.4342 16.6934 18.0951 17.2618 18.2441C17.8302 18.393 18.1692 18.9751 18.0203 19.5435C17.934 19.8728 15.8584 27.6599 12.4402 30.4784C12.2422 30.6411 12.0031 30.7214 11.764 30.7214V30.7195Z" fill="#3E3A39"/>
<path id="Vector_25" d="M29.4426 51.6857C24.9483 51.6857 20.9813 48.9613 20.5324 48.6418C14.3957 44.857 13.6979 37.066 13.6724 36.7348C13.6254 36.1487 14.0605 35.6372 14.6465 35.5882C15.2306 35.5431 15.7441 35.9763 15.7931 36.5623C15.799 36.6309 16.4458 43.6418 21.6771 46.8464L21.7476 46.8935C21.7829 46.9189 25.5147 49.5787 29.5171 49.5551C29.5367 49.5551 29.5582 49.5551 29.5778 49.5551C33.4527 49.5551 37.3041 47.1071 37.6452 46.8856C43.1351 42.6736 43.2508 36.8857 43.2527 36.6407C43.2586 36.0566 43.7329 35.5862 44.317 35.5862H44.3229C44.9089 35.5901 45.3813 36.0664 45.3793 36.6525C45.3793 36.9386 45.2833 43.73 38.9055 48.6006L38.8525 48.6379C38.6663 48.7633 34.2563 51.6837 29.5915 51.6837H29.4426V51.6857Z" fill="#3E3A39"/>
<path id="Vector_26" d="M25.5539 65.4781C25.4109 65.4781 25.2658 65.4487 25.1267 65.3879C24.4152 65.0763 18.1216 62.2402 16.2831 58.869C16.0009 58.3535 16.191 57.7067 16.7065 57.4264C17.222 57.1442 17.8688 57.3343 18.1491 57.8498C19.231 59.8294 22.8903 61.9383 25.0306 62.9928L27.5081 57.5283C24.2447 56.2896 21.8535 53.967 20.7343 52.7165L16.5046 56.0838C16.044 56.4503 15.3757 56.3739 15.0091 55.9133C14.6426 55.4547 14.7191 54.7843 15.1797 54.4178L20.2227 50.4037C20.4481 50.2234 20.7363 50.1431 21.0224 50.1803C21.3086 50.2175 21.5673 50.3685 21.7378 50.5997C21.7672 50.6389 24.7876 54.6256 29.2505 55.8604C29.5504 55.9427 29.7993 56.1524 29.9306 56.4347C30.0619 56.7169 30.0639 57.0423 29.9365 57.3245L26.5241 64.8489C26.3458 65.2409 25.9597 65.4742 25.5539 65.4742V65.4781Z" fill="#3E3A39"/>
<path id="Vector_27" d="M34.7521 65.4786C34.3463 65.4786 33.9602 65.2454 33.7819 64.8534L30.3695 57.3289C30.2421 57.0467 30.2441 56.7213 30.3754 56.4391C30.5067 56.1568 30.7556 55.9471 31.0555 55.8648C35.5184 54.63 38.5388 50.6433 38.5682 50.6022C38.7407 50.3709 38.9994 50.22 39.2836 50.1828C39.5697 50.1455 39.8579 50.2259 40.0833 50.4042L46.0201 55.1318C46.4787 55.4983 46.5552 56.1666 46.1906 56.6272C45.8241 57.0859 45.1557 57.1623 44.6951 56.7978L39.5717 52.719C38.4525 53.9695 36.0613 56.2921 32.7979 57.5308L35.2754 62.9953C37.4157 61.9388 41.077 59.8279 42.1569 57.8522C42.4392 57.3368 43.084 57.1466 43.5995 57.4289C44.115 57.7111 44.3051 58.3559 44.0229 58.8714C42.1824 62.2407 35.8889 65.0768 35.1793 65.3904C35.0402 65.4512 34.8951 65.4805 34.7521 65.4805V65.4786Z" fill="#3E3A39"/>
</g>
</g>
</g>
</g>
</svg>
