<svg width="60" height="60" viewBox="0 0 60 60" fill="none" xmlns="http://www.w3.org/2000/svg">
<g id="Clip path group">
<mask id="mask0_536_47742" style="mask-type:luminance" maskUnits="userSpaceOnUse" x="-10" y="-7" width="80" height="81">
<g id="clippath">
<path id="Vector" d="M29.9045 73.5424C51.9286 73.5424 69.7827 55.6884 69.7827 33.6643C69.7827 11.6402 51.9286 -6.21387 29.9045 -6.21387C7.88042 -6.21387 -9.97363 11.6402 -9.97363 33.6643C-9.97363 55.6884 7.88042 73.5424 29.9045 73.5424Z" fill="white"/>
</g>
</mask>
<g mask="url(#mask0_536_47742)">
<g id="Group">
<g id="Clip path group_2">
<mask id="mask1_536_47742" style="mask-type:luminance" maskUnits="userSpaceOnUse" x="-12" y="-7" width="83" height="82">
<g id="clippath-1">
<path id="Vector_2" d="M70.7889 -6.31543H-11.29V74.3307H70.7889V-6.31543Z" fill="white"/>
</g>
</mask>
<g mask="url(#mask1_536_47742)">
<g id="Group_2">
<path id="Vector_3" d="M42.8959 61.6093L43.0135 61.4937L43.3507 93.5534H53.1232L67.7017 87.9027L64.3815 61.0429L56.5199 55.4882L41.3809 50.2139L42.8959 50.8038V61.6093Z" fill="#9FA0A0"/>
<path id="Vector_4" d="M41.382 50.2142L39.373 49.4321L30.5706 51.1863L21.0274 49.0166L16.8428 50.6356L30.5589 70.4884L41.382 50.2142Z" fill="white"/>
<path id="Vector_5" d="M30.7843 73.5477L42.8971 61.6093V50.8038L41.382 50.2139L30.5589 70.4881L16.8428 50.6353L17.4465 63.8378L30.7843 73.5477Z" fill="white"/>
<path id="Vector_6" d="M18.3866 62.0427L18.6433 62.2309L18.0397 49.0303L4.11778 55.6962L-2.52074 61.0431L-8.85742 89.0437L1.68738 91.9484H19.5038L18.3866 62.0427Z" fill="#9FA0A0"/>
<path id="Vector_7" d="M22.0519 37.7422L22.3577 46.1016L18.9355 56.568L33.6806 66.0721L41.3815 48.9867L38.1651 47.1071V35.9214L22.0519 37.7422Z" fill="white"/>
<path id="Vector_8" d="M22.2808 47.6191C22.2083 47.6191 22.1358 47.6112 22.0613 47.5936C21.54 47.4721 21.2146 46.9527 21.3361 46.4313C21.783 44.4968 21.1558 42.7857 21.148 42.77C20.9539 42.2702 21.2028 41.7097 21.7026 41.5156C22.2024 41.3216 22.763 41.5705 22.957 42.0703C22.9923 42.1605 23.8136 44.3282 23.2256 46.8704C23.1217 47.3192 22.7238 47.621 22.2828 47.621L22.2808 47.6191Z" fill="#3E3A39"/>
<path id="Vector_9" d="M38.1647 48.0774C37.7237 48.0774 37.3239 47.7737 37.222 47.3268C36.6634 44.9101 36.9436 42.4111 36.9574 42.3072C37.0201 41.7761 37.5022 41.3958 38.0314 41.4566C38.5626 41.5193 38.9428 41.9995 38.8821 42.5307C38.8801 42.5522 38.6292 44.8101 39.1094 46.8897C39.231 47.411 38.9056 47.9324 38.3842 48.052C38.3098 48.0696 38.2372 48.0774 38.1647 48.0774Z" fill="#3E3A39"/>
<path id="Vector_10" d="M19.2301 94.8589C18.7185 94.8589 18.2912 94.4571 18.2638 93.9397C17.4288 78.1323 15.8922 50.9608 15.8765 50.6884C15.8471 50.1533 16.2548 49.6966 16.7899 49.6653C17.3269 49.6339 17.7816 50.0435 17.813 50.5786C17.8287 50.8511 19.3653 78.0265 20.2003 93.8378C20.2277 94.3729 19.8181 94.8295 19.283 94.857C19.2653 94.857 19.2477 94.857 19.2301 94.857V94.8589Z" fill="#3E3A39"/>
<path id="Vector_11" d="M43.2959 94.8293C42.7647 94.8293 42.3316 94.4001 42.3276 93.867C42.163 71.2074 41.9278 50.4314 41.9258 50.2256C41.92 49.6905 42.3492 49.2515 42.8843 49.2456C42.8882 49.2456 42.8921 49.2456 42.896 49.2456C43.4272 49.2456 43.8584 49.6729 43.8643 50.204C43.8662 50.4118 44.1014 71.1917 44.2661 93.8552C44.27 94.3903 43.8388 94.8274 43.3037 94.8313H43.2959V94.8293Z" fill="#3E3A39"/>
<path id="Vector_12" d="M39.6703 29.5243C40.1956 29.5243 40.1956 28.709 39.6703 28.709C39.145 28.709 39.145 29.5243 39.6703 29.5243Z" fill="#2318C4"/>
<path id="Vector_13" d="M13.9769 25.5733C13.9769 25.5733 7.16002 11.6122 19.8863 4.2465C19.8863 4.2465 28.2026 -1.00042 36.5208 5.00502C36.5208 5.00502 49.3314 5.56558 47.7869 18.3644L45.3565 26.8571L13.9769 25.5713V25.5733Z" fill="white"/>
<path id="Vector_14" d="M48.8409 27.2506C47.1318 25.0907 44.7583 26.4823 44.7583 26.4823L44.7975 15.4475L38.0766 11.7627H21.497L14.7761 15.4475L14.8173 26.9801C14.8173 26.9801 12.626 24.8202 10.9169 26.9801C10.9169 26.9801 8.66681 31.739 15.0505 36.1549C15.0505 36.1549 16.8008 35.7394 17.2281 34.9848C17.2281 34.9848 20.3033 46.7213 29.7858 46.2077C39.2683 46.7213 42.4788 35.1808 42.4788 35.1808C42.9061 35.9354 44.5231 36.1569 44.5231 36.1569C51.483 31.788 48.8409 27.2526 48.8409 27.2526V27.2506Z" fill="white"/>
<path id="Vector_15" d="M29.7194 47.1486C25.6367 47.1486 21.9754 44.8456 21.8206 44.7476C16.3796 41.1667 15.8387 33.0778 15.8191 32.7348C15.7877 32.1997 16.1954 31.7411 16.7285 31.7097C17.2636 31.6783 17.7222 32.086 17.7536 32.6191C17.7575 32.6917 18.2632 40.0867 22.8751 43.1208C22.8947 43.1326 26.213 45.2102 29.7351 45.2102C29.7782 45.2102 29.8233 45.2102 29.8664 45.2102C32.4693 45.2102 35.1721 44.1185 36.5618 43.4658C37.0282 43.2463 37.4281 42.966 37.7554 42.6308C41.597 38.6912 41.8557 32.7034 41.8577 32.6446C41.8773 32.1095 42.3202 31.6921 42.8612 31.7097C43.3963 31.7293 43.8138 32.1762 43.7961 32.7113C43.7863 32.9857 43.5198 39.4987 39.145 43.9852C38.657 44.4869 38.0651 44.9025 37.3889 45.22C35.8522 45.9432 32.8456 47.1506 29.8801 47.1506H29.7233L29.7194 47.1486Z" fill="#3E3A39"/>
<path id="Vector_16" d="M30.2094 38.6519C27.8613 38.6519 26.309 37.566 26.2149 37.4994C25.7798 37.1878 25.6798 36.5821 25.9934 36.147C26.3051 35.7138 26.9068 35.6139 27.3419 35.9216C27.4536 36 29.9193 37.6621 33.2395 35.9177C33.7139 35.6688 34.2999 35.851 34.5488 36.3254C34.7977 36.7997 34.6155 37.3857 34.1411 37.6346C32.6927 38.3951 31.3579 38.6538 30.2113 38.6538L30.2094 38.6519Z" fill="#3E3A39"/>
<path id="Vector_17" d="M35.9792 27.3729C35.2618 27.3729 34.6738 26.7849 34.6738 26.0676C34.6738 25.3502 35.2618 24.7622 35.9792 24.7622C36.6965 24.7622 37.2845 25.3502 37.2845 26.0676C37.2845 26.7849 36.6965 27.3729 35.9792 27.3729Z" fill="#3E3A39"/>
<path id="Vector_18" d="M23.8864 27.3729C23.1691 27.3729 22.5811 26.7849 22.5811 26.0676C22.5811 25.3502 23.1691 24.7622 23.8864 24.7622C24.6038 24.7622 25.1918 25.3502 25.1918 26.0676C25.1918 26.7849 24.6038 27.3729 23.8864 27.3729Z" fill="#3E3A39"/>
<path id="Vector_19" d="M30.3561 33.6602C30.3424 33.6602 30.3286 33.6602 30.313 33.6602L29.7073 33.6347C29.1722 33.6112 28.7567 33.1604 28.7802 32.6253C28.8038 32.0902 29.2604 31.6747 29.7896 31.6982L30.3953 31.7237C30.9304 31.7472 31.3459 32.198 31.3224 32.7331C31.3008 33.2545 30.8716 33.6602 30.3541 33.6602H30.3561Z" fill="#3E3A39"/>
<path id="Vector_20" d="M33.3848 10.1855C33.3848 10.1855 30.2645 16.1458 22.5813 16.5849L18.3673 18.0705L14.3082 26.5809L11.8523 26.8592C11.8523 26.8592 3.94957 8.29211 21.2838 2.70023C24.7256 1.59087 34.4746 1.48307 35.9818 2.95111L38.9414 3.98207C38.9414 3.98207 48.124 5.22863 47.7869 18.539L47.2871 25.693L44.8312 25.7459L43.5553 18.8683C43.5553 18.8683 38.7278 17.5668 35.335 12.9706L33.3868 10.1874L33.3848 10.1855Z" fill="#A69692"/>
<path id="Vector_21" d="M25.8132 17.5546C25.3899 17.5546 25.0018 17.2763 24.8803 16.849C24.7352 16.3335 25.0351 15.7985 25.5506 15.6534C31.511 13.9717 32.4008 10.1517 32.4361 9.99097C32.5478 9.47157 33.0594 9.13445 33.5807 9.24225C34.1021 9.35005 34.4392 9.85377 34.3353 10.3771C34.2942 10.5849 33.2397 15.4986 26.0759 17.5193C25.9877 17.5448 25.8995 17.5566 25.8113 17.5566L25.8132 17.5546Z" fill="#3E3A39"/>
<path id="Vector_22" d="M19.2058 18.5324C18.7824 18.5324 18.3944 18.2541 18.2729 17.8268C18.1278 17.3113 18.4277 16.7762 18.9432 16.6312C24.9016 14.9495 25.7993 11.5371 25.8345 11.3921C25.9502 10.8688 26.4657 10.5434 26.989 10.6591C27.5123 10.7747 27.8416 11.2961 27.7259 11.8194C27.6848 12.0095 26.6225 16.4783 19.4704 18.4971C19.3822 18.5226 19.294 18.5343 19.2058 18.5343V18.5324Z" fill="#3E3A39"/>
<path id="Vector_23" d="M44.8286 26.7139C44.37 26.7139 43.9643 26.3885 43.8761 25.922L42.704 19.6108C35.3775 17.1412 34.0427 12.4411 33.9898 12.2373C33.8526 11.7199 34.1584 11.1887 34.6758 11.0515C35.1913 10.9143 35.7205 11.2181 35.8597 11.7316C35.9126 11.9139 37.1239 15.8711 43.8369 17.9409C44.1818 18.0467 44.4386 18.3349 44.5052 18.6896L45.7812 25.5673C45.8792 26.0945 45.5323 26.6002 45.005 26.6982C44.9443 26.7099 44.8855 26.7139 44.8267 26.7139H44.8286Z" fill="#3E3A39"/>
<path id="Vector_24" d="M15.6053 25.407C15.4563 25.407 15.3054 25.3737 15.1643 25.3011C14.688 25.0581 14.4999 24.474 14.7429 23.9958C15.964 21.6085 16.7362 18.9507 16.7421 18.9253C16.8911 18.4098 17.4281 18.1138 17.9416 18.2608C18.4551 18.4078 18.7531 18.9449 18.6061 19.4603C18.5727 19.576 17.7789 22.32 16.4677 24.8797C16.2952 25.2149 15.9561 25.407 15.6033 25.407H15.6053Z" fill="#3E3A39"/>
<path id="Vector_25" d="M47.916 26.0572C47.8552 26.0572 47.7945 26.0513 47.7318 26.0395C47.2065 25.9396 46.8615 25.43 46.9615 24.9047C48.3531 17.6507 47.6965 12.1823 45.0113 8.65237C42.4417 5.27529 38.8961 4.94993 38.8608 4.94797C38.3277 4.90485 37.9298 4.43641 37.9729 3.90329C38.016 3.37017 38.4825 2.97229 39.0176 3.01541C39.1979 3.02913 43.4688 3.42113 46.5558 7.47833C49.5879 11.4669 50.366 17.4528 48.8666 25.2692C48.7784 25.7338 48.3707 26.0572 47.916 26.0572Z" fill="#3E3A39"/>
<path id="Vector_26" d="M11.5444 26.7134C11.1112 26.7134 10.7173 26.4213 10.6056 25.9823C8.91212 19.3144 9.54716 15.0142 9.5746 14.8338C9.65692 14.3046 10.1528 13.942 10.682 14.0243C11.2112 14.1067 11.5718 14.6006 11.4915 15.1298C11.4817 15.1984 10.9035 19.2752 12.4852 25.5041C12.6165 26.0235 12.3029 26.5507 11.7835 26.682C11.7032 26.7016 11.6228 26.7114 11.5444 26.7114V26.7134Z" fill="#3E3A39"/>
<path id="Vector_27" d="M44.2934 36.892C43.6583 36.892 42.7822 36.647 42.0257 35.5494C41.7219 35.1084 41.8336 34.5048 42.2726 34.201C42.7136 33.8972 43.3173 34.0089 43.6211 34.4479C43.9778 34.9634 44.2287 34.9556 44.313 34.9516C45.1185 34.9203 46.3671 33.4013 46.957 32.384C46.9668 32.3684 46.9766 32.3527 46.9864 32.337C49.0503 29.199 47.9978 27.6095 47.7214 27.2802C46.3279 26.5236 45.6673 27.4154 45.5948 27.5232C45.2949 27.9662 44.6913 28.0818 44.2483 27.782C43.8053 27.4821 43.6897 26.8784 43.9896 26.4354C44.5933 25.5436 46.3808 24.2363 48.819 25.673C48.8739 25.7063 48.9268 25.7436 48.9739 25.7867C49.0934 25.8925 51.8453 28.4542 48.6211 33.3778C48.2545 34.005 46.5082 36.8019 44.3914 36.8881C44.36 36.8881 44.3267 36.8881 44.2934 36.8881V36.892Z" fill="#3E3A39"/>
<path id="Vector_28" d="M10.4016 12.9565C10.2664 12.9565 10.1272 12.9271 9.99593 12.8663C9.50985 12.6429 9.29817 12.0686 9.52161 11.5825C9.59609 11.4199 11.413 7.54298 15.6976 4.43442C19.647 1.5689 26.5109 -1.14178 36.7832 2.20394C37.2929 2.37054 37.5712 2.91738 37.4046 3.42502C37.238 3.93462 36.6911 4.21098 36.1835 4.04634C28.5944 1.57478 22.1087 2.2157 16.9049 5.95146C13.0006 8.75622 11.2974 12.3567 11.2797 12.392C11.1151 12.7448 10.7642 12.9545 10.3997 12.9545L10.4016 12.9565Z" fill="#3E3A39"/>
<path id="Vector_29" d="M15.318 36.892C15.2847 36.892 15.2514 36.892 15.22 36.892C13.1032 36.8077 11.3568 34.0108 10.9903 33.3817C7.76613 28.4581 10.518 25.8964 10.6375 25.7906C10.6846 25.7475 10.7375 25.7102 10.7924 25.6769C13.2287 24.2402 15.0162 25.5475 15.6218 26.4393C15.9217 26.8823 15.806 27.486 15.3631 27.7859C14.924 28.0838 14.3262 27.9721 14.0244 27.5369C13.846 27.2919 13.1816 26.5805 11.886 27.2861C11.6312 27.5879 10.5474 29.1775 12.6269 32.3409C12.6367 32.3566 12.6465 32.3723 12.6563 32.3879C13.2463 33.4032 14.4948 34.9242 15.3004 34.9555C15.3827 34.9595 15.6355 34.9693 15.9923 34.4518C16.2961 34.0108 16.8997 33.8991 17.3407 34.2049C17.7817 34.5087 17.8915 35.1123 17.5877 35.5533C16.8331 36.649 15.955 36.8959 15.32 36.8959L15.318 36.892Z" fill="#3E3A39"/>
<path id="Vector_30" d="M25.7714 22.0426C25.7028 22.0426 25.6342 22.0348 25.5637 22.0191C23.8173 21.6369 22.1297 21.8251 22.1141 21.827C21.5809 21.8878 21.1007 21.5076 21.04 20.9764C20.9773 20.4452 21.3575 19.965 21.8887 19.9004C21.971 19.8906 23.9035 19.6691 25.9792 20.1238C26.5025 20.2375 26.8337 20.7549 26.7201 21.2782C26.6201 21.731 26.2203 22.0407 25.7734 22.0407L25.7714 22.0426Z" fill="#3E3A39"/>
<path id="Vector_31" d="M34.094 22.0429C33.6491 22.0429 33.2473 21.7332 33.1473 21.2804C33.0337 20.7571 33.3649 20.2416 33.8882 20.126C35.9639 19.6732 37.8984 19.8928 37.9787 19.9026C38.5099 19.9653 38.8901 20.4474 38.8274 20.9786C38.7647 21.5098 38.2825 21.89 37.7514 21.8273C37.7239 21.8234 36.0423 21.6391 34.3018 22.0194C34.2312 22.035 34.1626 22.0429 34.094 22.0429Z" fill="#3E3A39"/>
<path id="Vector_32" d="M23.4656 38.7481C23.4499 38.7481 23.4343 38.7481 23.4186 38.7481C22.8835 38.7226 22.4699 38.2679 22.4974 37.7328C22.564 36.3412 23.4421 34.8987 23.5421 34.738C23.8263 34.2832 24.4241 34.146 24.8768 34.4302C25.3315 34.7144 25.4687 35.3122 25.1845 35.765C24.9866 36.0845 24.4672 37.0743 24.4319 37.825C24.4064 38.3444 23.9791 38.7481 23.4637 38.7481H23.4656Z" fill="#3E3A39"/>
<path id="Vector_33" d="M25.8781 62.013C25.7017 62.013 25.5273 61.964 25.3724 61.8719C25.149 61.7347 19.857 58.4811 17.5697 54.8747C17.2835 54.4219 17.4168 53.8241 17.8696 53.536C18.3223 53.2498 18.9201 53.3831 19.2082 53.8359C20.7155 56.2114 23.8711 58.534 25.4469 59.6041L28.1478 53.3988C24.9197 51.9817 22.6814 49.4768 21.621 48.0891L17.8715 51.8229C17.4932 52.2012 16.8778 52.1993 16.5015 51.821C16.1232 51.4407 16.1252 50.8273 16.5034 50.4509L21.0663 45.9057C21.276 45.696 21.572 45.596 21.864 45.6293C22.158 45.6646 22.4207 45.8312 22.5755 46.0841C22.601 46.1252 25.2921 50.4039 29.753 51.9503C30.0078 52.0385 30.2156 52.2287 30.3234 52.4776C30.4312 52.7245 30.4332 53.0068 30.3234 53.2537L26.764 61.4328C26.6523 61.6896 26.4348 61.8856 26.1682 61.9699C26.0722 61.9993 25.9742 62.0149 25.8762 62.0149L25.8781 62.013Z" fill="#3E3A39"/>
<path id="Vector_34" d="M35.2566 62.013C35.1586 62.013 35.0606 61.9973 34.9646 61.9679C34.698 61.8836 34.4804 61.6876 34.3687 61.4308L30.8094 53.2518C30.7016 53.0048 30.7016 52.7226 30.8094 52.4756C30.9172 52.2286 31.1249 52.0366 31.3797 51.9484C35.8407 50.4039 38.5318 46.1252 38.5572 46.0821C38.7219 45.8175 39.0022 45.647 39.3138 45.6254C39.6235 45.6038 39.9273 45.7312 40.1272 45.9704L43.6415 50.1824C43.9845 50.594 43.9296 51.2055 43.518 51.5485C43.1064 51.8915 42.4949 51.8366 42.1519 51.425L39.4432 48.1793C38.3573 49.5826 36.1464 52.013 32.985 53.4007L35.6858 59.6061C37.2617 58.5359 40.4192 56.2133 41.9245 53.8378C42.2107 53.385 42.8104 53.2518 43.2632 53.5379C43.716 53.8241 43.8492 54.4238 43.5631 54.8766C41.2758 58.481 35.9857 61.7366 35.7603 61.8738C35.6074 61.9679 35.431 62.0149 35.2546 62.0149L35.2566 62.013Z" fill="#3E3A39"/>
<path id="Vector_35" d="M30.0407 59.3964C30.0191 59.3964 29.9995 59.3965 29.978 59.3945C29.4429 59.3612 29.0372 58.9006 29.0724 58.3655L29.3116 54.5964C29.3272 54.3514 29.4351 54.1221 29.6134 53.9535L31.8419 51.8426C32.23 51.4741 32.8435 51.4918 33.212 51.8799C33.5805 52.2679 33.5628 52.8814 33.1747 53.2499L31.2226 55.0982L31.007 58.487C30.9737 59.0005 30.5483 59.3945 30.0407 59.3945V59.3964Z" fill="#3E3A39"/>
<path id="Vector_36" d="M10.9187 94.861C10.4385 94.861 10.0229 94.5043 9.95826 94.0163L6.05394 63.9362C5.9971 63.4952 6.24602 63.0738 6.65958 62.9091L16.2714 59.1087C16.7693 58.9107 17.3318 59.1557 17.5297 59.6536C17.7257 60.1514 17.4827 60.7139 16.9849 60.9119L8.0747 64.436L11.881 93.7674C11.9496 94.2985 11.5753 94.7846 11.0441 94.8532C11.001 94.8591 10.9598 94.861 10.9187 94.861Z" fill="#3E3A39"/>
<path id="Vector_37" d="M11.0727 63.1781C11.0413 63.1781 11.008 63.1781 10.9747 63.1742C10.4415 63.1212 10.0535 62.6469 10.1064 62.1138L11.0864 52.2981C11.1197 51.9649 11.3216 51.6729 11.6215 51.5259L16.3549 49.1856C16.8351 48.9485 17.4172 49.1445 17.6544 49.6247C17.8915 50.1049 17.6955 50.685 17.2153 50.9242L12.9621 53.0272L12.035 62.3078C11.986 62.8076 11.5627 63.18 11.0707 63.18L11.0727 63.1781Z" fill="#3E3A39"/>
<path id="Vector_38" d="M50.1645 95.0062C50.1135 95.0062 50.0606 95.0022 50.0077 94.9944C49.4785 94.9082 49.1198 94.4103 49.206 93.8831L54.061 63.8676L43.3417 61.1354C42.8223 61.0041 42.5087 60.4749 42.642 59.9574C42.7733 59.438 43.3025 59.1244 43.82 59.2577L55.3977 62.2095C55.8837 62.333 56.1954 62.8073 56.115 63.3032L51.119 94.1947C51.0426 94.671 50.631 95.0101 50.1625 95.0101L50.1645 95.0062Z" fill="#3E3A39"/>
<path id="Vector_39" d="M48.7574 61.3846C48.2537 61.3846 47.8284 60.9945 47.7912 60.4849L47.2855 53.3936L43.7536 51.0005C43.3106 50.7006 43.195 50.0969 43.4948 49.654C43.7947 49.211 44.3984 49.0954 44.8414 49.3952L48.7614 52.053C49.0083 52.2196 49.1632 52.4901 49.1847 52.786L49.7237 60.3458C49.761 60.8789 49.3592 61.3434 48.826 61.3826C48.8025 61.3826 48.779 61.3846 48.7555 61.3846H48.7574Z" fill="#3E3A39"/>
<path id="Vector_40" d="M-6.08764 80.2652C-6.12684 80.2652 -6.168 80.2633 -6.2072 80.2574C-6.73836 80.1908 -7.11664 79.7066 -7.05 79.1755L-5.51336 66.7667C-4.9234 62.0078 -2.34208 57.9938 1.39368 56.0318L9.0906 51.9883C9.56492 51.7394 10.151 51.9217 10.3999 52.396C10.6488 52.8703 10.4665 53.4564 9.9922 53.7053L2.29528 57.7488C-0.877964 59.4167 -3.07708 62.8761 -3.58864 67.0058L-5.12528 79.4146C-5.18604 79.9046 -5.60352 80.2652 -6.08568 80.2652H-6.08764Z" fill="#3E3A39"/>
<path id="Vector_41" d="M67.1223 80.2652C66.6402 80.2652 66.2227 79.9066 66.1619 79.4146L64.6253 67.0058C64.1137 62.8761 61.9146 59.4148 58.7414 57.7488L51.0444 53.7053C50.5701 53.4564 50.3878 52.8703 50.6368 52.396C50.8857 51.9217 51.4717 51.7394 51.946 51.9883L59.643 56.0318C63.3787 57.9938 65.96 62.0078 66.55 66.7667L68.0866 79.1755C68.1533 79.7066 67.775 80.1908 67.2438 80.2574C67.2027 80.2633 67.1635 80.2652 67.1243 80.2652H67.1223Z" fill="#3E3A39"/>
</g>
</g>
</g>
</g>
</g>
</g>
</svg>
