<svg width="137" height="92" viewBox="0 0 137 92" fill="none" xmlns="http://www.w3.org/2000/svg">
<path d="M0 39.3355V82.7988C0 87.4188 3.77994 91.1987 8.39988 91.1987H128.41C133.03 91.1987 136.81 87.4188 136.81 82.7988V39.3355H0Z" fill="#CDCDCD"/>
<path d="M136.81 8.39988V18.3357H0V8.39988C0 3.77994 3.77994 0 8.39988 0H128.41C133.03 0 136.81 3.77994 136.81 8.39988Z" fill="#CDCDCD"/>
<path d="M110.41 83.1948C118.582 83.1948 125.206 76.5705 125.206 68.399C125.206 60.2275 118.582 53.6032 110.41 53.6032C102.239 53.6032 95.6143 60.2275 95.6143 68.399C95.6143 76.5705 102.239 83.1948 110.41 83.1948Z" fill="white"/>
<path d="M136.81 18.3358H0V39.3355H136.81V18.3358Z" fill="#66686B"/>
<path d="M24.4557 54.3352H10.2119V57.9352H24.4557V54.3352Z" fill="white"/>
<path d="M44.4723 54.3352H30.2285V57.9352H44.4723V54.3352Z" fill="white"/>
<path d="M64.487 54.3352H50.2432V57.9352H64.487V54.3352Z" fill="white"/>
<path d="M84.5026 54.3352H70.2588V57.9352H84.5026V54.3352Z" fill="white"/>
<path d="M57.0352 67.739H10.2119V71.339H57.0352V67.739Z" fill="white"/>
<path d="M29.3276 76.1389H10.2119V79.7388H29.3276V76.1389Z" fill="white"/>
</svg>
