<svg width="60" height="60" viewBox="0 0 60 60" fill="none" xmlns="http://www.w3.org/2000/svg">
<g id="Clip path group">
<mask id="mask0_536_47856" style="mask-type:luminance" maskUnits="userSpaceOnUse" x="-10" y="-5" width="81" height="81">
<g id="clippath">
<path id="Vector" d="M30.4348 75.1723C52.4589 75.1723 70.313 57.3183 70.313 35.2942C70.313 13.2701 52.4589 -4.58398 30.4348 -4.58398C8.4107 -4.58398 -9.44336 13.2701 -9.44336 35.2942C-9.44336 57.3183 8.4107 75.1723 30.4348 75.1723Z" fill="white"/>
</g>
</mask>
<g mask="url(#mask0_536_47856)">
<g id="Group">
<g id="Clip path group_2">
<mask id="mask1_536_47856" style="mask-type:luminance" maskUnits="userSpaceOnUse" x="-10" y="-1" width="81" height="82">
<g id="clippath_2">
<path id="Vector_2" d="M70.1093 -0.992188H-9.96582V80.808H70.1093V-0.992188Z" fill="white"/>
</g>
</mask>
<g mask="url(#mask1_536_47856)">
<g id="Group_2">
<path id="Vector_3" d="M12.0137 54.0818L21.0357 49.9209L22.2521 50.6015L23.3704 41.5312H38.5937L38.9212 49.9209L52.4693 54.0621L54.9897 137.275C54.9897 137.275 31.6604 139.359 24.8177 137.275L12.0137 54.0818Z" fill="white"/>
<path id="Vector_4" d="M49.055 28.5808C47.3179 26.3849 44.9047 27.8005 44.9047 27.8005L44.944 16.5842L38.1133 12.8398H21.2601L14.4294 16.5842L14.4702 28.3076C14.4702 28.3076 12.2426 26.1117 10.5055 28.3076C10.5055 28.3076 8.21756 33.1446 14.7071 37.633C14.7071 37.633 16.485 37.2104 16.9211 36.4422C16.9211 36.4422 20.0467 48.3724 29.6859 47.8488C39.3252 48.3709 42.5881 36.6399 42.5881 36.6399C43.0227 37.4066 44.6663 37.633 44.6663 37.633C51.7414 33.1929 49.055 28.5808 49.055 28.5808Z" fill="white"/>
<path id="Vector_5" d="M14.4373 30.3533L11.2513 25.9268C11.2513 25.9268 4.40108 4.3769 29.6847 1.70411C29.6847 1.70411 42.2503 0.155668 47.7378 12.1236C47.7378 12.1236 49.994 20.711 47.7378 28.5799L14.4373 30.3533Z" fill="white"/>
<path id="Vector_6" d="M10.7317 15.9961C10.7317 15.9961 12.0221 18.6417 14.4368 19.1488L14.4685 28.3081L11.9331 27.3664C11.9331 27.3664 10.0058 20.7787 10.7302 15.9961H10.7317Z" fill="#B5B5B6"/>
<path id="Vector_7" d="M44.1758 20.3498L48.6053 15.9399C48.6053 15.9399 48.3849 23.501 47.9775 27.6694L44.9047 27.8007L44.1758 20.3513V20.3498Z" fill="#B5B5B6"/>
<path id="Vector_8" d="M18.9131 50.6016L1.47878 57.4277C1.47878 57.4277 -3.05939 61.2505 -4.69385 75.348L-7.98844 119.287L-10.4001 123.573L-25.0469 135.01L-27.2051 138.452C-27.2051 138.452 -17.9099 137.116 -15.6763 147.557L-12.2957 146.535L7.35409 135.159L9.60431 126.917L14.319 144.721L28.9915 141.599L24.1605 110.15C24.1605 110.15 20.057 80.4128 18.8014 70.1412L18.738 53.8464L18.9131 50.6001V50.6016Z" fill="#898989"/>
<path id="Vector_9" d="M22.253 51.6072C22.1791 51.6072 22.1051 51.5996 22.0297 51.5815C21.4894 51.4593 21.1498 50.9205 21.2736 50.3802C21.8335 47.9172 21.2237 45.6081 21.2177 45.5854C21.0728 45.0497 21.3898 44.4988 21.9255 44.3539C22.4613 44.2091 23.0121 44.526 23.157 45.0618C23.1872 45.1749 23.9011 47.8794 23.2325 50.8254C23.1268 51.2917 22.7133 51.6072 22.2545 51.6072H22.253Z" fill="#3E3A39"/>
<path id="Vector_10" d="M38.9188 50.9269C38.4615 50.9269 38.0495 50.613 37.9408 50.1497C37.3492 47.5886 37.6767 45.3942 37.6918 45.3022C37.7763 44.7543 38.291 44.3785 38.8373 44.463C39.3851 44.5476 39.7594 45.0592 39.6764 45.607C39.6719 45.6387 39.3972 47.5358 39.8967 49.6969C40.022 50.2372 39.6855 50.776 39.1452 50.9013C39.0697 50.9194 38.9927 50.9269 38.9188 50.9269Z" fill="#3E3A39"/>
<path id="Vector_11" d="M29.9577 48.7023C25.8014 48.7023 22.0752 46.3585 21.9182 46.2589C16.3795 42.6141 15.8286 34.3815 15.8075 34.0328C15.7743 33.479 16.1969 33.0036 16.7507 32.9704C17.3061 32.9357 17.78 33.3597 17.8132 33.9121C17.8177 33.9861 18.3309 41.4838 23.0018 44.5671C23.1513 44.6606 26.5107 46.7162 30.0377 46.6935C32.6954 46.7131 35.4814 45.5918 36.9031 44.9217C37.374 44.6999 37.7799 44.4161 38.1105 44.0766C42.0253 40.0606 42.2728 33.9996 42.2758 33.9378C42.294 33.3839 42.7588 32.9492 43.3127 32.9673C43.8665 32.9855 44.3012 33.4503 44.2816 34.0042C44.2725 34.2834 44.0009 40.9103 39.5472 45.4771C39.0492 45.9887 38.447 46.4128 37.7573 46.7373C36.1938 47.4738 33.1346 48.7008 30.1162 48.7008C30.0891 48.7008 30.0634 48.7008 30.0362 48.7008C30.0091 48.7008 29.9834 48.7008 29.9562 48.7008L29.9577 48.7023Z" fill="#3E3A39"/>
<path id="Vector_12" d="M30.4554 40.0649C28.0618 40.0649 26.4802 38.9586 26.3836 38.8892C25.9338 38.5662 25.8297 37.9384 26.1527 37.4886C26.4741 37.0404 27.0989 36.9363 27.5487 37.2547C27.6664 37.3362 30.1626 39.016 33.5236 37.2487C34.0141 36.9906 34.6208 37.1793 34.8789 37.6698C35.1369 38.1602 34.9483 38.7669 34.4578 39.025C32.9833 39.8007 31.622 40.0633 30.4539 40.0633L30.4554 40.0649Z" fill="#3E3A39"/>
<path id="Vector_13" d="M36.3217 28.5799C35.5913 28.5799 34.9951 27.9823 34.9951 27.2533C34.9951 26.5229 35.5928 25.9268 36.3217 25.9268C37.0522 25.9268 37.6483 26.5244 37.6483 27.2533C37.6483 27.9838 37.0506 28.5799 36.3217 28.5799Z" fill="#3E3A39"/>
<path id="Vector_14" d="M24.0278 28.5799C23.2973 28.5799 22.7012 27.9823 22.7012 27.2533C22.7012 26.5229 23.2988 25.9268 24.0278 25.9268C24.7582 25.9268 25.3543 26.5244 25.3543 27.2533C25.3543 27.9838 24.7567 28.5799 24.0278 28.5799Z" fill="#3E3A39"/>
<path id="Vector_15" d="M30.6047 34.9904C30.5896 34.9904 30.576 34.9904 30.5609 34.9904L29.9452 34.9632C29.3913 34.9391 28.9612 34.4712 28.9853 33.9174C29.0095 33.3635 29.4773 32.9334 30.0312 32.9575L30.647 32.9847C31.2009 33.0088 31.631 33.4767 31.6068 34.0306C31.5842 34.5693 31.139 34.9919 30.6047 34.9919V34.9904Z" fill="#3E3A39"/>
<path id="Vector_16" d="M11.4825 27.9309C11.0343 27.9309 10.6253 27.629 10.5106 27.1733C10.2088 25.9885 10.0261 24.8627 9.86466 23.8711C9.77109 23.2961 9.68204 22.7528 9.58093 22.2533C8.39319 16.4202 9.9703 10.9916 14.021 6.96658C16.6032 4.40245 20.0699 2.51595 24.0466 1.51083C28.0384 0.50268 32.3532 0.433257 36.5292 1.31161C36.7178 1.35387 40.9708 2.32429 44.7045 5.92976C48.147 9.25302 51.7616 15.5147 49.4374 26.467C49.3227 27.0088 48.7899 27.3559 48.2466 27.2412C47.7048 27.1265 47.3577 26.5937 47.4724 26.0504C49.1763 18.02 47.7969 11.7568 43.3719 7.43595C40.0487 4.19117 36.1428 3.28414 36.1036 3.27508C28.3297 1.63911 20.2117 3.64785 15.4351 8.39278C12.9208 10.8905 10.2042 15.2551 11.5474 21.8548C11.6576 22.3936 11.7481 22.9551 11.8462 23.5512C12.0092 24.5488 12.1767 25.5811 12.4559 26.6813C12.5918 27.2185 12.2673 27.7649 11.73 27.9022C11.647 27.9233 11.564 27.9339 11.4825 27.9339V27.9309Z" fill="#3E3A39"/>
<path id="Vector_17" d="M44.7717 38.2759C44.1227 38.2759 43.2248 38.0239 42.4521 36.9041C42.1366 36.4483 42.2529 35.822 42.7086 35.5081C43.1644 35.1926 43.7907 35.3089 44.1046 35.7646C44.4608 36.2808 44.7098 36.2702 44.7913 36.2687C45.5716 36.237 46.8438 34.7384 47.4626 33.6684C47.4717 33.6517 47.4822 33.6351 47.4928 33.6185C49.5785 30.4462 48.5251 28.8404 48.2444 28.5039C46.9434 27.7991 46.2779 28.5175 46.1013 28.7589L46.1104 28.7469L44.4472 27.621C45.0645 26.7094 46.8921 25.3723 49.3808 26.8407C49.4382 26.8739 49.4925 26.9132 49.5408 26.9584C49.6615 27.0671 52.4716 29.681 49.1861 34.6991C48.8133 35.3405 47.0325 38.1884 44.8713 38.2759C44.8381 38.2759 44.8049 38.2774 44.7702 38.2774L44.7717 38.2759Z" fill="#3E3A39"/>
<path id="Vector_18" d="M15.3164 38.276C15.2817 38.276 15.2485 38.276 15.2153 38.2745C13.0541 38.1884 11.2733 35.3391 10.9005 34.6977C7.61495 29.6796 10.4236 27.0656 10.5458 26.957C10.5956 26.9132 10.6484 26.8725 10.7058 26.8393C13.1945 25.3708 15.0206 26.708 15.6394 27.6195L13.9762 28.7454L13.9853 28.7575C13.8087 28.5145 13.1432 27.7976 11.8422 28.5024C11.5615 28.839 10.5081 30.4447 12.5938 33.6171C12.6044 33.6337 12.6149 33.6503 12.624 33.6669C13.2216 34.6962 14.4848 36.2355 15.2953 36.2672C15.3768 36.2703 15.6258 36.2793 15.982 35.7632C16.2959 35.3074 16.9222 35.1912 17.378 35.5066C17.8353 35.8205 17.95 36.4468 17.6345 36.9026C16.8618 38.0224 15.9638 38.2745 15.3149 38.2745L15.3164 38.276Z" fill="#3E3A39"/>
<path id="Vector_19" d="M21.2858 23.016C20.9176 23.016 20.5629 22.8137 20.3879 22.4621C20.1404 21.9671 20.3381 21.3649 20.8331 21.1159C20.907 21.0782 22.6819 20.1953 24.8249 19.907C25.3728 19.8331 25.8798 20.2194 25.9538 20.7688C26.0277 21.3181 25.6414 21.8237 25.092 21.8977C23.2946 22.1391 21.7507 22.9028 21.7341 22.9103C21.5907 22.9828 21.4368 23.016 21.2858 23.016Z" fill="#3E3A39"/>
<path id="Vector_20" d="M38.4532 23.0754C38.3144 23.0754 38.174 23.0467 38.0397 22.9864C38.014 22.9743 36.4445 22.2771 34.6455 22.1095C34.0931 22.0582 33.6872 21.5692 33.74 21.0169C33.7913 20.4645 34.2818 20.0585 34.8326 20.1098C36.9848 20.3106 38.7943 21.1225 38.8697 21.1572C39.3753 21.3866 39.5987 21.9813 39.3693 22.4868C39.2018 22.8566 38.8365 23.0754 38.4547 23.0754H38.4532Z" fill="#3E3A39"/>
<path id="Vector_21" d="M23.5985 40.1636C23.5819 40.1636 23.5668 40.1636 23.5502 40.1636C22.9963 40.1379 22.5692 39.6671 22.5948 39.1132C22.6628 37.693 23.5577 36.2231 23.6603 36.0601C23.9546 35.5892 24.5749 35.4473 25.0443 35.7401C25.5136 36.0344 25.657 36.6517 25.3642 37.1225C25.1635 37.4455 24.6368 38.4491 24.6006 39.2083C24.5749 39.7455 24.1312 40.1651 23.5985 40.1651V40.1636Z" fill="#3E3A39"/>
<path id="Vector_22" d="M37.0517 40.1628C36.5189 40.1628 36.0752 39.7447 36.0496 39.2059C36.0133 38.4453 35.4866 37.4417 35.2874 37.1202C34.9961 36.6494 35.1395 36.0306 35.6104 35.7378C36.0798 35.445 36.6985 35.5884 36.9913 36.0578C37.0924 36.2207 37.9889 37.6907 38.0553 39.1109C38.0809 39.6647 37.6538 40.1356 37.1 40.1613C37.0834 40.1613 37.0683 40.1613 37.0517 40.1613V40.1628Z" fill="#3E3A39"/>
<path id="Vector_23" d="M44.9058 27.931C44.4032 27.931 43.9701 27.5552 43.9097 27.0436L43.0887 20.0485C43.0449 19.6697 43.2185 19.2969 43.5385 19.0901C46.1116 17.418 47.6948 14.3739 47.7114 14.3437C47.9649 13.8502 48.5701 13.6555 49.0621 13.9091C49.5556 14.1611 49.7503 14.7648 49.4983 15.2583C49.4289 15.3941 47.8653 18.4155 45.1518 20.4137L45.9034 26.8097C45.9683 27.3606 45.5744 27.8586 45.0235 27.9235C44.9843 27.928 44.945 27.931 44.9058 27.931Z" fill="#3E3A39"/>
<path id="Vector_24" d="M14.435 26.5693C13.943 26.5693 13.5129 26.2071 13.442 25.7061C13.1477 23.6385 13.2911 20.9385 13.3816 19.7085C11.2612 18.4242 10.007 16.586 9.9497 16.5015C9.64031 16.0412 9.76105 15.4179 10.2214 15.1085C10.6802 14.7991 11.3035 14.9198 11.6143 15.3786C11.637 15.4118 12.8957 17.2319 14.8938 18.2551C15.2606 18.4438 15.4749 18.8362 15.4356 19.2467C15.4326 19.2829 15.0795 22.9593 15.4311 25.4238C15.5096 25.9732 15.1278 26.4818 14.5784 26.5588C14.5301 26.5648 14.4833 26.5693 14.435 26.5693Z" fill="#3E3A39"/>
<path id="Vector_25" d="M26.8609 65.9404C26.7326 65.9404 26.6013 65.9148 26.4745 65.8635C26.2617 65.7744 21.2195 63.6449 18.7897 60.4711C18.4531 60.0304 18.5361 59.4011 18.9768 59.063C19.4175 58.7265 20.0468 58.8095 20.3849 59.2501C21.9228 61.2589 24.8597 62.8662 26.3432 63.5906L28.687 58.07C22.5928 55.9842 20.2174 50.5587 20.1132 50.3157C19.8959 49.8056 20.1329 49.2155 20.643 48.9982C21.1531 48.7808 21.7417 49.0178 21.959 49.5264C21.9967 49.6109 24.3767 54.9504 30.2958 56.4551C30.5795 56.5276 30.818 56.7192 30.9478 56.9818C31.0776 57.2444 31.0866 57.5508 30.9719 57.8194L27.7845 65.3262C27.6215 65.708 27.2502 65.9374 26.8594 65.9374L26.8609 65.9404Z" fill="#3E3A39"/>
<path id="Vector_26" d="M35.176 65.9406C34.8425 65.9406 34.5225 65.7731 34.3339 65.4834L29.5527 58.1275C29.3882 57.874 29.346 57.5601 29.4395 57.2733C29.5316 56.9851 29.7489 56.7557 30.0296 56.6455C32.6224 55.6343 37.6918 50.9362 39.4259 49.2112C39.8198 48.8203 40.4552 48.8218 40.8461 49.2142C41.237 49.6066 41.2354 50.2435 40.8431 50.6343C40.6016 50.8743 35.4416 55.9875 31.8573 57.9872L35.5971 63.7417C36.8512 63.3026 39.5406 62.2386 41.575 60.58C42.0051 60.2298 42.6375 60.2932 42.9876 60.7233C43.3378 61.1535 43.2744 61.7858 42.8443 62.136C39.7911 64.6246 35.6318 65.8501 35.4567 65.9014C35.3647 65.9286 35.2696 65.9406 35.1775 65.9406H35.176Z" fill="#3E3A39"/>
<path id="Vector_27" d="M20.7799 89.1651C20.2925 89.1651 19.8654 88.8104 19.7884 88.3139L19.0972 83.815C16.6704 67.5096 17.8974 50.6941 17.911 50.5265C17.9532 49.9742 18.4331 49.5607 18.987 49.6014C19.5394 49.6437 19.9544 50.1251 19.9122 50.6775C19.9001 50.8435 18.6897 67.4417 21.0818 83.5146L21.7715 88.0075C21.856 88.5554 21.4802 89.0685 20.9309 89.1515C20.8796 89.159 20.8282 89.1636 20.7769 89.1636L20.7799 89.1651Z" fill="#3E3A39"/>
<path id="Vector_28" d="M-5.97229 87.3732C-6.01153 87.3732 -6.04926 87.3717 -6.0885 87.3672C-6.63936 87.3038 -7.03326 86.8057 -6.96987 86.2549L-4.82831 67.7883C-4.18389 62.5423 -0.979853 58.0087 3.74243 55.6498C3.76054 55.6408 3.77865 55.6332 3.79676 55.6242L16.4167 50.2393C16.9268 50.022 17.5169 50.259 17.7342 50.7691C17.9515 51.2792 17.7146 51.8693 17.2045 52.0866L4.61324 57.4594C0.509725 59.5194 -2.27324 63.4675 -2.83466 68.0253L-4.97471 86.4843C-5.03357 86.9959 -5.46821 87.3732 -5.97078 87.3732H-5.97229Z" fill="#3E3A39"/>
<path id="Vector_29" d="M42.7283 50.6016L59.254 57.8865C59.254 57.8865 64.2555 60.6483 65.89 74.7457L69.6313 119.288L72.043 123.574L86.6898 135.011L88.8479 138.454C88.8479 138.454 79.5528 137.118 77.3192 147.559L73.9385 146.537L54.2888 135.161L52.0386 126.919L47.3238 144.723L32.6514 141.6L37.4823 110.152C37.4823 110.152 41.5858 80.4143 42.8415 70.1427L42.9049 53.8479L42.7298 50.6016H42.7283Z" fill="#898989"/>
<path id="Vector_30" d="M40.8615 89.1653C40.8102 89.1653 40.7589 89.1607 40.7076 89.1532C40.1597 89.0687 39.7839 88.5571 39.867 88.0092L40.5582 83.5103C42.9503 67.4418 41.7399 50.8437 41.7278 50.6776C41.6855 50.1253 42.1006 49.6423 42.6529 49.6016C43.2068 49.5593 43.6882 49.9744 43.729 50.5267C43.7411 50.6943 44.9696 67.5098 42.5428 83.8106L41.8516 88.3141C41.7761 88.8106 41.3475 89.1653 40.86 89.1653H40.8615Z" fill="#3E3A39"/>
<path id="Vector_31" d="M67.2365 87.374C66.7339 87.374 66.2993 86.9967 66.2404 86.4851L64.0988 68.0185C63.5389 63.4637 60.7514 59.5127 56.6434 57.4541L44.7283 52.0783C44.2227 51.8505 43.9978 51.2558 44.2257 50.7502C44.4536 50.2447 45.0482 50.0198 45.5538 50.2477L57.487 55.6325C57.4991 55.6385 57.5112 55.6431 57.5233 55.6491C62.2456 58.0065 65.4496 62.5416 66.094 67.7801L68.2356 86.2527C68.299 86.8035 67.9051 87.3016 67.3542 87.3649C67.315 87.3695 67.2757 87.371 67.238 87.371L67.2365 87.374Z" fill="#3E3A39"/>
</g>
</g>
</g>
</g>
</g>
</g>
</svg>
