<svg width="14" height="15" viewBox="0 0 14 15" fill="none" xmlns="http://www.w3.org/2000/svg">
<g id="interface-arrows-synchronize--arrows-loading-load-sync-synchronize-arrow-reload--Streamline-Core" clip-path="url(#clip0_187_4080)">
<g id="Group">
<g id="Group_2">
<path id="Vector" d="M11 9.1001L13 8.6001L13.5 10.6001" stroke="#ffffff" stroke-linecap="round" stroke-linejoin="round"/>
<path id="Vector_2" d="M13.0004 8.6001C12.5562 9.85871 11.7494 10.9577 10.6816 11.7585C9.6139 12.5593 8.33299 13.0261 7.00035 13.1001C5.76847 13.1003 4.56637 12.7214 3.55734 12.0147C2.5483 11.308 1.78125 10.3079 1.36035 9.1501" stroke="#ffffff" stroke-linecap="round" stroke-linejoin="round"/>
</g>
<g id="Group_3">
<path id="Vector_3" d="M3 5.1001L1 5.6001L0.5 3.6001" stroke="#ffffff" stroke-linecap="round" stroke-linejoin="round"/>
<path id="Vector_4" d="M1 5.6001C1.84 3.3001 4.42 1.1001 7 1.1001C8.23789 1.10358 9.4444 1.48985 10.4541 2.20597C11.4639 2.92209 12.2274 3.933 12.64 5.1001" stroke="#ffffff" stroke-linecap="round" stroke-linejoin="round"/>
</g>
</g>
</g>
<defs>
<clipPath id="clip0_187_4080">
<rect width="14" height="14" fill="white" transform="translate(0 0.100098)"/>
</clipPath>
</defs>
</svg>
