<svg width="60" height="60" viewBox="0 0 60 60" fill="none" xmlns="http://www.w3.org/2000/svg">
<g id="Clip path group">
<mask id="mask0_536_48052" style="mask-type:luminance" maskUnits="userSpaceOnUse" x="-9" y="-7" width="80" height="81">
<g id="clippath">
<path id="Vector" d="M30.9153 73.2446C52.9394 73.2446 70.7934 55.3905 70.7934 33.3664C70.7934 11.3423 52.9394 -6.51172 30.9153 -6.51172C8.89117 -6.51172 -8.96289 11.3423 -8.96289 33.3664C-8.96289 55.3905 8.89117 73.2446 30.9153 73.2446Z" fill="white"/>
</g>
</mask>
<g mask="url(#mask0_536_48052)">
<g id="Group">
<g id="Clip path group_2">
<mask id="mask1_536_48052" style="mask-type:luminance" maskUnits="userSpaceOnUse" x="-7" y="-9" width="75" height="83">
<g id="clippath-1">
<path id="Vector_2" d="M67.8411 -8.31616H-6.00977V73.7627H67.8411V-8.31616Z" fill="white"/>
</g>
</mask>
<g mask="url(#mask1_536_48052)">
<g id="Group_2">
<path id="Vector_3" d="M22.4544 38.0207C22.4544 38.0207 23.3324 45.4981 22.4544 48.8419L16.8135 52.1229L27.2681 72.16L42.7306 53.6204L43.446 51.8525L37.3758 48.1716C37.3758 48.1716 37.2249 44.081 37.9678 40.1846L28.3794 36.7742L22.4544 38.0188V38.0207Z" fill="white"/>
<path id="Vector_4" d="M18.7783 78.9361L19.1233 60.2475C19.1233 60.2475 32.0201 62.38 41.0302 59.4851L41.6711 79.042L18.7783 78.9361Z" fill="white"/>
<path id="Vector_5" d="M52.4919 79.0441L50.2536 58.8149L32.8037 57.2234L33.8014 79.0441H52.4919Z" fill="#4CC6C1"/>
<path id="Vector_6" d="M16.0831 41.9606H42.4843C42.4843 41.9606 60.0812 43.409 46.8767 11.067C46.8767 11.067 43.5839 2.71156 37.0865 3.91108L31.7514 1.72372C31.7514 1.72372 18.9153 -1.82584 11.8456 9.63821C11.8456 9.63821 0.777487 30.6259 10.6578 39.2283C10.6578 39.2283 13.8017 41.9586 16.0851 41.9586L16.0831 41.9606Z" fill="#B5B5B6"/>
<path id="Vector_7" d="M16.5334 79.3419L10.7514 66.9037L22.092 55.5985C22.092 55.5985 16.5668 53.3582 16.5334 51.261L5.86907 56.7117C5.86907 56.7117 1.67075 60.0183 0.778951 66.2158C0.745631 66.4412 0.718191 66.6705 0.694671 66.9037C0.484951 69.0068 0.0204316 73.7892 -0.514648 79.3399H16.5354L16.5334 79.3419Z" fill="#4CC6C1"/>
<path id="Vector_8" d="M60.9884 79.0443L58.8638 63.8288C58.2797 61.3239 55.4436 57.4999 53.2641 56.1358L42.4841 50.9712L33.3799 56.6473L47.9446 69.2306L48.3268 79.0188L60.9904 79.0423L60.9884 79.0443Z" fill="#4CC6C1"/>
<path id="Vector_9" d="M23.6386 79.034L24.844 56.4744L20.1537 54.8516L10.8104 64.089L8.91504 79.3104L23.6386 79.034Z" fill="#4CC6C1"/>
<path id="Vector_10" d="M47.3744 25.1397C45.7457 23.1346 43.4466 22.9347 43.4466 22.9347L39.3854 16.0531L30.93 6.48047L26.8003 14.3146L20.9105 11.8156L17.7157 17.7132L14.8384 24.8868C14.8384 24.8868 12.7667 21.6332 11.1771 26.2098C11.1771 26.2098 9.03877 29.291 15.0775 33.354C15.0775 33.354 16.4201 33.207 16.8121 32.4936C16.8121 32.4936 19.1857 44.3908 29.0994 44.0047C41.6022 44.6397 41.6022 32.4838 41.6022 32.4838C42.0118 33.1855 43.4446 33.6951 43.4446 33.6951C49.9165 29.5163 47.3724 25.1377 47.3724 25.1377L47.3744 25.1397Z" fill="white"/>
<path id="Vector_11" d="M36.8629 20.9698C36.7041 20.9698 36.5434 20.9306 36.3964 20.8483C35.1695 20.1721 34.2522 20.2485 34.213 20.2524C33.6818 20.3171 33.2055 19.9369 33.1409 19.4057C33.0762 18.8745 33.4623 18.3904 33.9935 18.3257C34.1483 18.3061 35.5575 18.1709 37.3333 19.1509C37.8017 19.4096 37.9723 19.9996 37.7135 20.468C37.5371 20.7875 37.2059 20.9698 36.8649 20.9698H36.8629Z" fill="#3E3A39"/>
<path id="Vector_12" d="M29.2288 36.5864C26.8964 36.5864 25.3441 35.6162 25.2421 35.5515C24.7913 35.2615 24.66 34.6617 24.9501 34.2129C25.2382 33.764 25.836 33.6327 26.2849 33.9189C26.4181 34.0012 29.3131 35.7456 33.0508 33.519C33.5114 33.2446 34.1053 33.3955 34.3797 33.8561C34.6541 34.3167 34.5031 34.9106 34.0425 35.185C32.257 36.2493 30.6067 36.5864 29.2288 36.5864Z" fill="#3E3A39"/>
<path id="Vector_13" d="M35.0817 26.2086C34.3918 26.2184 33.8195 25.6598 33.8097 24.9699C33.7999 24.28 34.3585 23.7077 35.0484 23.6979C35.7383 23.6881 36.3107 24.2467 36.3205 24.9366C36.3303 25.6265 35.7717 26.1988 35.0817 26.2086Z" fill="#3E3A39"/>
<path id="Vector_14" d="M22.9489 26.1491C22.259 26.1589 21.6867 25.6003 21.6769 24.9104C21.6671 24.2204 22.2257 23.6481 22.9156 23.6383C23.6055 23.6285 24.1778 24.1871 24.1876 24.877C24.1974 25.567 23.6388 26.1393 22.9489 26.1491Z" fill="#3E3A39"/>
<path id="Vector_15" d="M29.3995 31.3576C29.3897 31.3576 29.3799 31.3576 29.3701 31.3576L28.788 31.34C28.2529 31.3243 27.8315 30.8774 27.8492 30.3423C27.8648 29.8073 28.3098 29.3878 28.8468 29.4035L29.4289 29.4211C29.964 29.4368 30.3854 29.8837 30.3678 30.4188C30.3521 30.9441 29.9209 31.3596 29.3995 31.3596V31.3576Z" fill="#3E3A39"/>
<path id="Vector_16" d="M41.7162 42.9287C41.1928 42.9287 40.7616 42.5112 40.7479 41.986C40.7342 41.4509 41.1556 41.006 41.6907 40.9903C44.613 40.9099 46.7396 39.9299 48.192 37.9954C52.2021 32.6485 49.4679 21.9861 49.4385 21.8783C49.4327 21.8528 49.4268 21.8293 49.4229 21.8038C47.751 12.4997 44.3426 8.39548 41.7769 6.59032C39.0623 4.68128 36.7632 4.87728 36.6672 4.88708C36.136 4.93804 35.6617 4.55192 35.6068 4.02272C35.5519 3.49352 35.9322 3.0192 36.4614 2.9604C36.5829 2.94668 39.4621 2.65856 42.7491 4.90472C46.9846 7.79964 49.8697 13.3562 51.3241 21.4236C51.5436 22.2801 54.2229 33.1836 49.7423 39.1577C47.9372 41.5646 45.2461 42.8327 41.7436 42.9287C41.7338 42.9287 41.726 42.9287 41.7162 42.9287Z" fill="#3E3A39"/>
<path id="Vector_17" d="M22.518 48.6423C22.4455 48.6423 22.373 48.6345 22.2985 48.6168C21.7771 48.4953 21.4518 47.9759 21.5733 47.4546C22.0398 45.4377 21.7811 42.484 21.7791 42.4526C21.7301 41.9195 22.1241 41.4491 22.6572 41.4001C23.1903 41.3511 23.6607 41.7451 23.7097 42.2782C23.7215 42.4115 23.9998 45.569 23.4627 47.8916C23.3589 48.3405 22.961 48.6423 22.52 48.6423H22.518Z" fill="#3E3A39"/>
<path id="Vector_18" d="M37.1625 48.643C36.7215 48.643 36.3217 48.3392 36.2197 47.8923C35.6847 45.5815 35.9277 41.7105 35.9375 41.5458C35.9728 41.0108 36.4334 40.605 36.9665 40.6403C37.5016 40.6756 37.9053 41.1362 37.872 41.6693C37.8701 41.7066 37.6368 45.4208 38.1072 47.4533C38.2287 47.9746 37.9034 48.496 37.382 48.6156C37.3075 48.6332 37.235 48.641 37.1625 48.641V48.643Z" fill="#3E3A39"/>
<path id="Vector_19" d="M16.0827 42.9291C16.0376 42.9291 15.9926 42.9252 15.9455 42.9193C12.4058 42.4175 9.72449 40.7986 7.98009 38.1055C3.75041 31.5827 6.29841 20.4224 7.58809 15.9262C8.80721 11.6847 12.6312 6.18107 16.1141 3.65855C21.6432 -0.347694 27.6428 -1.02389 34.4558 1.59075C34.9556 1.78283 35.2045 2.34339 35.0144 2.84319C34.8223 3.34299 34.2617 3.59191 33.7619 3.40179C27.6075 1.03999 22.2077 1.63779 17.2528 5.22851C14.1227 7.49623 10.5496 12.6412 9.45205 16.4632C8.23489 20.7027 5.81037 31.1965 9.60689 37.0511C11.0534 39.2835 13.2172 40.5751 16.218 41.0005C16.7472 41.0749 17.1176 41.5669 17.0412 42.0961C16.9726 42.5802 16.557 42.9291 16.0827 42.9291Z" fill="#3E3A39"/>
<path id="Vector_20" d="M29.16 44.4834C25.2831 44.4834 21.6943 42.3705 21.5395 42.2804C21.5297 42.2745 21.5219 42.2706 21.514 42.2647C16.2279 38.8817 15.734 31.079 15.7144 30.7477C15.685 30.2127 16.0927 29.756 16.6277 29.7266C17.1628 29.6972 17.6195 30.1068 17.6489 30.6399C17.6528 30.7105 18.1115 37.7704 22.5411 40.6222C22.7547 40.7457 26.0318 42.6057 29.3442 42.545C32.639 42.5254 35.8436 40.7849 36.1376 40.6222C40.5731 37.6842 40.7416 30.4302 40.7436 30.3577C40.7514 29.8226 41.2003 29.3953 41.7275 29.4032C42.2626 29.411 42.6899 29.8501 42.682 30.3851C42.6781 30.7262 42.5017 38.7641 37.1744 42.2588C37.1587 42.2686 37.1431 42.2784 37.1274 42.2882C36.9745 42.3764 33.3191 44.4599 29.3677 44.4834C29.2972 44.4834 29.2266 44.4854 29.1561 44.4854L29.16 44.4834Z" fill="#3E3A39"/>
<path id="Vector_21" d="M-0.547446 80.3084C-0.578806 80.3084 -0.612126 80.3084 -0.645446 80.3045C-1.17857 80.2516 -1.56665 79.7753 -1.51373 79.2441L-0.190726 66.022C0.173834 61.4434 2.75319 57.3157 6.70847 54.9793C6.72807 54.9676 6.74571 54.9578 6.76531 54.948L21.6554 47.4471C22.1337 47.206 22.7158 47.3981 22.9569 47.8763C23.198 48.3545 23.0059 48.9367 22.5276 49.1777L7.66691 56.663C4.26631 58.6837 2.05151 62.2392 1.73987 66.1827C1.73987 66.1886 1.73987 66.1964 1.73987 66.2023L0.416875 79.4343C0.365915 79.9341 -0.0554858 80.3065 -0.547446 80.3065V80.3084Z" fill="#3E3A39"/>
<path id="Vector_22" d="M60.5713 80.3079C60.0793 80.3079 59.6579 79.9355 59.6069 79.4357L58.2839 66.2038C58.2839 66.2038 58.2839 66.19 58.2839 66.1842C57.9723 62.2406 55.7575 58.6832 52.3569 56.6644L37.4962 49.1792C37.0179 48.9381 36.8259 48.356 37.0669 47.8778C37.308 47.3995 37.8901 47.2075 38.3684 47.4485L53.2585 54.9494C53.2781 54.9592 53.2977 54.969 53.3153 54.9808C57.2706 57.3171 59.85 61.4449 60.2145 66.0234L61.5375 79.2456C61.5905 79.7787 61.2024 80.253 60.6693 80.306C60.6359 80.3099 60.6046 80.3099 60.5713 80.3099V80.3079Z" fill="#3E3A39"/>
<path id="Vector_23" d="M23.3867 80.0118C23.3691 80.0118 23.3495 80.0118 23.3319 80.0118C22.7968 79.9824 22.3891 79.5238 22.4185 78.9907C22.9889 68.8104 23.6317 59.8964 23.8219 57.3209C16.4562 54.7043 15.6526 51.7918 15.584 51.4586L17.4832 51.0666C17.4832 51.0666 17.4832 51.0528 17.4734 51.0234C17.4813 51.047 18.277 53.4342 25.1507 55.7274C25.5721 55.8686 25.8446 56.2782 25.8113 56.7212C25.8034 56.8231 25.0273 67.0758 24.355 79.0985C24.3256 79.614 23.8983 80.0138 23.3887 80.0138L23.3867 80.0118Z" fill="#3E3A39"/>
<path id="Vector_24" d="M34.2899 79.9786C33.7705 79.9786 33.3412 79.5689 33.3216 79.0456C32.8845 67.2719 32.4161 56.7976 32.4102 56.6938C32.3887 56.2253 32.7062 55.8098 33.1629 55.7059C38.6783 54.4496 41.7241 51.0705 41.7555 51.0372C42.1103 50.6374 42.7218 50.5982 43.1236 50.9529C43.5254 51.3057 43.5646 51.9172 43.2118 52.319C43.0785 52.47 40.0346 55.8784 34.3839 57.4013C34.5015 60.063 34.8916 69.0594 35.2601 78.977C35.2797 79.5121 34.8622 79.9609 34.3271 79.9825C34.3153 79.9825 34.3036 79.9825 34.2899 79.9825V79.9786Z" fill="#3E3A39"/>
<path id="Vector_25" d="M29.2325 62.1453C27.3254 62.1453 25.6261 61.8631 24.3247 61.5495C23.8033 61.4241 23.4838 60.9007 23.6093 60.3794C23.7347 59.858 24.258 59.5385 24.7794 59.664C26.8335 60.1598 29.9734 60.5675 33.2682 59.6993C33.7856 59.564 34.3168 59.8717 34.452 60.3892C34.5892 60.9066 34.2795 61.4378 33.7621 61.573C32.1902 61.9885 30.6535 62.1434 29.2325 62.1434V62.1453Z" fill="#3E3A39"/>
<path id="Vector_26" d="M30.9302 9.63823C30.9302 9.63823 30.152 18.1564 22.8216 19.2442L19.3897 19.2814L13.4744 23.7973L10.1953 19.2814C10.1953 19.2814 14.4093 3.96795 24.8424 3.91111C24.8424 3.91111 35.9772 2.53127 41.1065 11.6531L45.4263 14.4598L42.4804 19.2814C42.4804 19.2814 33.9054 16.0709 33.3762 11.0671L30.9282 9.64019L30.9302 9.63823Z" fill="#B5B5B6"/>
<path id="Vector_27" d="M43.0103 34.3243C42.3929 34.3243 41.5521 34.0871 40.8151 33.0463C40.5054 32.6093 40.6093 32.0036 41.0464 31.6959C41.4835 31.3862 42.0891 31.4901 42.3968 31.9272C42.7339 32.4015 42.9613 32.3897 43.0358 32.3858C43.761 32.3486 44.9429 30.9197 45.5152 29.9045C45.523 29.8888 45.5348 29.8731 45.5426 29.8574C47.4752 26.8331 46.4442 25.3279 46.1992 25.0397C44.9742 24.3969 44.3607 25.0731 44.2 25.3004C43.906 25.7473 43.3082 25.8649 42.8613 25.5709C42.4145 25.2769 42.2949 24.6693 42.5889 24.2224C43.1651 23.3463 44.886 22.0527 47.2713 23.4169C47.3262 23.4482 47.3791 23.4855 47.4281 23.5286C47.5457 23.6305 50.2466 26.0785 47.191 30.8786C46.8441 31.4921 45.1898 34.2145 43.1377 34.3223C43.0965 34.3243 43.0534 34.3262 43.0103 34.3262V34.3243Z" fill="#3E3A39"/>
<path id="Vector_28" d="M15.4085 34.3599C15.3869 34.3599 15.3654 34.3599 15.3438 34.3599C13.3034 34.305 11.5924 31.6492 11.2317 31.0514C8.07613 26.3709 10.6966 23.8739 10.8103 23.77C10.8574 23.7269 10.9083 23.6877 10.9632 23.6544C13.2976 22.2393 15.04 23.4799 15.6358 24.3345C15.9416 24.7735 15.8338 25.3772 15.3948 25.6849C14.9596 25.9887 14.3618 25.8849 14.0522 25.4556C13.8856 25.2341 13.2642 24.5913 12.0784 25.2498C11.8197 25.5713 10.875 27.0746 12.8507 29.9891C12.8605 30.0048 12.8703 30.0205 12.8801 30.0361C13.472 31.024 14.6754 32.4058 15.3948 32.4254C15.4673 32.4273 15.6907 32.4332 16.0102 31.9589C16.3081 31.514 16.9098 31.3964 17.3548 31.6943C17.7997 31.9922 17.9173 32.5959 17.6194 33.0389C16.8902 34.1247 16.0259 34.3638 15.4065 34.3638L15.4085 34.3599Z" fill="#3E3A39"/>
<path id="Vector_29" d="M22.6687 20.2493C22.2258 20.2493 21.8259 19.9435 21.724 19.4927C21.6064 18.9694 21.9357 18.452 22.4571 18.3344C29.3857 16.7781 29.9423 9.86718 29.9619 9.57318C29.9991 9.04006 30.4597 8.6363 30.9929 8.67158C31.526 8.70686 31.9297 9.1655 31.8964 9.70058C31.8905 9.78878 31.7435 11.8977 30.5734 14.2399C29.4797 16.4293 27.2571 19.2438 22.8804 20.2258C22.8099 20.2415 22.7373 20.2493 22.6668 20.2493H22.6687Z" fill="#3E3A39"/>
<path id="Vector_30" d="M41.1085 20.2501C40.9889 20.2501 40.8674 20.2285 40.7498 20.1815C33.4057 17.2474 32.459 11.4556 32.4217 11.2106C32.3433 10.6814 32.7079 10.1874 33.2371 10.109C33.7643 10.0306 34.2583 10.3932 34.3386 10.9205C34.3739 11.1361 35.2108 15.8832 41.4691 18.3822C41.9669 18.5802 42.208 19.1446 42.0101 19.6425C41.8591 20.0227 41.4946 20.252 41.1104 20.252L41.1085 20.2501Z" fill="#3E3A39"/>
<path id="Vector_31" d="M15.1207 23.9055C14.7757 23.9055 14.4425 23.7213 14.2661 23.3959C14.0113 22.9255 14.1877 22.3375 14.6601 22.0827C20.0991 19.1525 20.8439 14.0722 20.8517 14.0212C20.9242 13.4901 21.4123 13.1177 21.9415 13.1902C22.4726 13.2627 22.8431 13.7507 22.7725 14.2799C22.7392 14.5289 21.8787 20.3951 15.5793 23.7879C15.4323 23.8663 15.2755 23.9035 15.1207 23.9035V23.9055Z" fill="#3E3A39"/>
<path id="Vector_32" d="M44.0407 24.9563C43.6898 24.9563 43.3507 24.7662 43.1783 24.433L40.7439 19.727C40.497 19.2508 40.6832 18.6667 41.1595 18.4217C41.6357 18.1747 42.2198 18.3609 42.4668 18.8372L44.9011 23.5432C45.1481 24.0194 44.9619 24.6035 44.4856 24.8485C44.3425 24.923 44.1916 24.9563 44.0407 24.9563Z" fill="#3E3A39"/>
</g>
</g>
</g>
</g>
</g>
</g>
</svg>
