<svg width="118" height="177" viewBox="0 0 118 177" fill="none" xmlns="http://www.w3.org/2000/svg">
<path d="M41.5676 58.4618C41.5676 63.2807 45.4803 67.1876 50.3063 67.1876C55.1324 67.1876 59.0451 63.2807 59.0451 58.4618C59.0451 63.2807 62.9577 67.1876 67.7838 67.1876C72.6098 67.1876 76.5225 63.2807 76.5225 58.4618C76.5225 63.2807 80.4352 67.1876 85.2612 67.1876C90.0872 67.1876 93.9999 63.2807 93.9999 58.4618V131.848H24V41.9561H24.0902V58.4618C24.0902 63.2807 28.0029 67.1876 32.8402 67.1876C37.6775 67.1876 41.5676 63.2807 41.5676 58.4618Z" fill="#40566B"/>
<path d="M88.6995 41.9561H29.2988V131.848H88.6995V41.9561Z" fill="#DAF1F3"/>
<path d="M59.0448 58.4618C59.0448 63.2807 55.1321 67.1876 50.3061 67.1876C45.4801 67.1876 41.5674 63.2807 41.5674 58.4618V41.9561H59.0448V58.4618Z" fill="#F6CF76"/>
<path d="M93.9999 58.4618C93.9999 63.2807 90.0872 67.1876 85.2612 67.1876C80.4351 67.1876 76.5225 63.2807 76.5225 58.4618V41.9561H93.9999V58.4618Z" fill="#F6CF76"/>
<path d="M76.5223 58.4618C76.5223 63.2807 72.6097 67.1876 67.7836 67.1876C62.9576 67.1876 59.0449 63.2807 59.0449 58.4618V41.9561H76.5223V58.4618Z" fill="#E24C5D"/>
<path d="M41.5673 58.4618C41.5673 63.2807 37.6546 67.1876 32.8398 67.1876C28.0251 67.1876 24.0898 63.2807 24.0898 58.4618V41.9561H41.5673V58.4618Z" fill="#E24C5D"/>
<path d="M93.9999 131.848V144.368C93.9999 148.016 91.0118 151 87.3585 151H30.6301C26.9881 151 24 148.016 24 144.368V131.848H93.9999Z" fill="#40566B"/>
<path d="M93.9999 31.6315V41.956H24V31.6315C24 27.9836 26.9881 24.9999 30.6301 24.9999H87.3585C91.0118 24.9999 93.9999 27.9836 93.9999 31.6315Z" fill="#40566B"/>
<path d="M60.5414 79.5761L39.875 100.212L41.4696 101.804L62.1361 81.1683L60.5414 79.5761Z" fill="white"/>
<path d="M79.075 78.4925L39.8789 117.63L41.4735 119.223L80.6696 80.0847L79.075 78.4925Z" fill="white"/>
<path d="M64.7833 36.4841H53.2031C52.2672 36.4841 51.5117 35.7297 51.5117 34.7952C51.5117 33.8607 52.2672 33.1064 53.2031 33.1064H64.7833C65.7192 33.1064 66.4747 33.8607 66.4747 34.7952C66.4747 35.7297 65.7192 36.4841 64.7833 36.4841Z" fill="#323954"/>
<path d="M64.649 140.991C64.649 144.109 62.1119 146.643 58.9885 146.643C55.8652 146.643 53.3281 144.109 53.3281 140.991C53.3281 137.872 55.8652 135.339 58.9885 135.339C62.1119 135.339 64.649 137.872 64.649 140.991Z" fill="#323954"/>
<g clip-path="url(#clip0_328_45440)">
<path d="M80.5101 174.08C77.7501 174.08 75.0001 173.78 72.3301 173.18L72.9801 170.25C75.4301 170.8 77.9701 171.07 80.5101 171.07C99.4801 171.07 114.92 155.64 114.92 136.66C114.92 133.32 114.44 130.02 113.5 126.84L116.38 125.99C117.4 129.44 117.92 133.03 117.92 136.66C117.92 157.29 101.14 174.07 80.5101 174.07V174.08Z" fill="#00C0B7"/>
<path d="M78.3 168.96L73.34 171.88L76.27 176.84L72.92 175.97L70 171.01L74.96 168.09L78.3 168.96Z" fill="#00C0B7"/>
</g>
<g clip-path="url(#clip1_328_45440)">
<path d="M37.4001 2.76001C40.1601 2.76001 42.9101 3.06001 45.5801 3.66001L44.9301 6.59001C42.4801 6.04001 39.9401 5.77001 37.4001 5.77001C18.4301 5.77001 2.99008 21.2 2.99008 40.18C2.99008 43.52 3.47008 46.82 4.41008 50L1.53008 50.85C0.510075 47.4 -0.0099176 43.81 -0.00991728 40.18C-0.00991548 19.55 16.7701 2.77001 37.4001 2.77001L37.4001 2.76001Z" fill="#00C0B7"/>
<path d="M39.6102 7.88L44.5702 4.96L41.6402 -5.48141e-07L44.9902 0.869999L47.9102 5.83L42.9502 8.75L39.6102 7.88Z" fill="#00C0B7"/>
</g>
<defs>
<clipPath id="clip0_328_45440">
<rect width="47.91" height="50.84" fill="white" transform="translate(70 126)"/>
</clipPath>
<clipPath id="clip1_328_45440">
<rect width="47.91" height="50.84" fill="white" transform="translate(47.9102 50.84) rotate(-180)"/>
</clipPath>
</defs>
</svg>
