<svg width="98" height="82" viewBox="0 0 98 82" fill="none" xmlns="http://www.w3.org/2000/svg">
<g id="_&#229;&#175;&#131;&#226;&#145;&#184;&#226;&#148;&#129;_&#239;&#167;&#143;&#226;&#145;&#164;&#235;&#177;&#182;" clip-path="url(#clip0_880_48828)">
<path id="Vector" d="M52.1891 11.106C48.1571 11.3748 44.3043 12.45 40.8099 14.0628C37.6739 11.6436 34.0899 8.9556 29.7891 5.73C36.7804 2.146 44.5731 0.443596 52.1891 0.891596C63.4787 1.5188 74.1385 6.7156 81.2169 14.777C87.1305 21.3178 90.6249 29.7377 91.3417 38.1601C91.4313 39.1457 90.6249 40.0417 89.6393 40.0417C88.8329 40.0417 88.1161 39.4145 87.9369 38.6977C86.3241 31.1713 82.2921 24.2746 76.6473 19.4362C69.8377 13.3434 60.7907 10.4762 52.1891 11.1034V11.106Z" fill="white"/>
<path id="Vector_2" d="M18.6809 13.9733C22.1753 18.5429 25.1321 22.4853 27.6409 25.7979C25.2217 29.7403 23.7881 34.1307 23.3401 38.5185C23.2505 39.3249 22.5337 40.0417 21.6377 40.0417H7.93151C6.85631 40.0417 6.04991 39.0561 6.22911 37.9809C7.93151 28.8443 12.3219 20.3323 18.6809 13.9707V13.9733Z" fill="white"/>
<path id="Vector_3" d="M20.5725 7.70139C19.8557 6.71579 21.0205 5.55099 22.0061 6.26779C48.9347 26.7068 65.0832 39.3558 49.7795 27.4108C50.5859 27.2316 51.3923 27.0524 52.2883 27.0524C58.2915 27.142 63.2195 32.07 63.2195 38.0732C63.2195 44.0764 58.3811 49.0044 52.2883 49.0044C46.1955 49.0044 41.3571 44.166 41.3571 38.0732C41.3571 37.1772 41.4467 36.3708 41.7155 35.5644C35.9811 28.1276 26.2147 15.2278 20.5725 7.70139Z" fill="#FFA7E7"/>
<path id="Vector_4" d="M83.6971 53.8682C76.1528 53.8682 70.0369 59.9814 70.0088 67.5565C70.0088 75.1008 76.1528 81.2166 83.6971 81.2166C91.2414 81.2166 97.3573 75.1034 97.3573 67.5565C97.3573 60.0096 91.2414 53.8682 83.6971 53.8682ZM76.9745 64.3309C76.9745 63.1738 77.9473 62.201 79.1045 62.201C80.2616 62.201 81.2344 63.1738 81.2344 64.3309C81.2344 65.488 80.2923 66.4608 79.1045 66.4608C77.9166 66.4608 76.9745 65.5187 76.9745 64.3309ZM89.1448 72.5766C89.0526 72.6688 87.1378 74.9805 83.6997 74.9805C80.2616 74.9805 78.3467 72.6688 78.2853 72.5766C77.7374 71.9085 77.8296 70.9331 78.5285 70.3546C79.1966 69.8067 80.2027 69.8989 80.7505 70.567C80.7813 70.5978 81.8155 71.8138 83.7022 71.8138C85.5889 71.8138 86.6539 70.6285 86.6846 70.5978C87.2325 69.9296 88.236 69.8067 88.9042 70.3546C89.5723 70.9024 89.6952 71.9059 89.1474 72.5766H89.1448ZM88.323 66.4608C87.1378 66.4608 86.1931 65.5187 86.1931 64.3309C86.1931 63.143 87.1352 62.201 88.323 62.201C89.5109 62.201 90.4529 63.1738 90.4529 64.3309C90.4529 65.488 89.5109 66.4608 88.323 66.4608Z" fill="white"/>
<path id="Vector_5" d="M13.8525 53.8682C6.33894 53.8682 0.192383 59.9814 0.192383 67.5565C0.192383 75.1315 6.30822 81.2166 13.8525 81.2166C21.3969 81.2166 27.5409 75.1034 27.5409 67.5565C27.5409 60.0096 21.3969 53.8682 13.8525 53.8682ZM7.15814 64.3309C7.15814 63.1738 8.10022 62.201 9.28806 62.201C10.4759 62.201 11.418 63.1738 11.418 64.3309C11.418 65.488 10.4759 66.4608 9.28806 66.4608C8.10022 66.4608 7.15814 65.5187 7.15814 64.3309ZM19.0545 73.7005C18.3863 74.279 17.3802 74.1869 16.8349 73.5187C16.8042 73.488 15.7393 72.272 13.8525 72.272C11.9658 72.272 10.9009 73.488 10.8701 73.5187C10.5655 73.913 10.1098 74.0973 9.65414 74.0973C9.31878 74.0973 8.95526 74.0051 8.68134 73.7619C8.01318 73.2141 7.8903 72.2106 8.43814 71.5117C8.49958 71.4195 10.4145 69.1078 13.8525 69.1078C17.2906 69.1078 19.1773 71.4195 19.2669 71.5117C19.8148 72.1798 19.7226 73.1552 19.0545 73.703V73.7005ZM18.4759 66.4608C17.2906 66.4608 16.346 65.5187 16.346 64.3309C16.346 63.143 17.2881 62.201 18.4759 62.201C19.6637 62.201 20.6058 63.1738 20.6058 64.3309C20.6058 65.488 19.6637 66.4608 18.4759 66.4608Z" fill="white"/>
<path id="Vector_6" d="M48.7764 53.8379C41.2628 53.8379 35.1162 59.9819 35.1162 67.5262C35.1162 75.0705 41.2602 81.1864 48.7764 81.1864C56.2925 81.1864 62.4365 75.0705 62.4365 67.5262C62.4365 59.9819 56.3232 53.8379 48.7764 53.8379ZM42.082 64.3313C42.082 63.1742 43.0241 62.2014 44.2119 62.2014C45.3997 62.2014 46.3418 63.1742 46.3418 64.3313C46.3418 65.4885 45.369 66.4612 44.2119 66.4612C43.0548 66.4612 42.082 65.5192 42.082 64.3313ZM52.6087 73.4296H44.9722C44.089 73.4296 43.3901 72.7307 43.3901 71.8475C43.3901 70.9643 44.089 70.2961 44.9722 70.2654H52.6087C53.4919 70.2654 54.1908 70.9643 54.1908 71.8475C54.1908 72.7307 53.4919 73.4296 52.6087 73.4296ZM53.3997 66.4612C52.2144 66.4612 51.2698 65.5192 51.2698 64.3313C51.2698 63.1435 52.2119 62.2014 53.3997 62.2014C54.5876 62.2014 55.5297 63.1742 55.5297 64.3313C55.5297 65.4885 54.5876 66.4612 53.3997 66.4612Z" fill="white"/>
</g>
<defs>
<clipPath id="clip0_880_48828">
<rect width="97.1648" height="80.3942" fill="white" transform="translate(0.192383 0.822266)"/>
</clipPath>
</defs>
</svg>
