<svg width="60" height="60" viewBox="0 0 60 60" fill="none" xmlns="http://www.w3.org/2000/svg">
<g id="Clip path group">
<mask id="mask0_536_47796" style="mask-type:luminance" maskUnits="userSpaceOnUse" x="-11" y="-7" width="81" height="81">
<g id="clippath">
<path id="Vector" d="M29.7473 73.3559C51.7714 73.3559 69.6255 55.5019 69.6255 33.4778C69.6255 11.4537 51.7714 -6.40039 29.7473 -6.40039C7.7232 -6.40039 -10.1309 11.4537 -10.1309 33.4778C-10.1309 55.5019 7.7232 73.3559 29.7473 73.3559Z" fill="white"/>
</g>
</mask>
<g mask="url(#mask0_536_47796)">
<g id="Group">
<g id="Clip path group_2">
<mask id="mask1_536_47796" style="mask-type:luminance" maskUnits="userSpaceOnUse" x="-12" y="-1" width="83" height="76">
<g id="clippath-1">
<path id="Vector_2" d="M70.7879 -0.0742188H-11.291V74.1961H70.7879V-0.0742188Z" fill="white"/>
</g>
</mask>
<g mask="url(#mask1_536_47796)">
<g id="Group_2">
<path id="Vector_3" d="M48.0788 52.6537C48.0788 52.6537 49.4155 53.0124 51.2069 53.8415H52.0301L42.7358 49.1924L39.8232 53.8415H48.1101L48.0807 52.6537H48.0788Z" fill="#4CC6C1"/>
<path id="Vector_4" d="M48.0781 52.6543L48.1075 53.8421H51.2063C49.4168 53.013 48.0781 52.6543 48.0781 52.6543Z" fill="#4CC6C1"/>
<path id="Vector_5" d="M55.2485 56.2526L55.229 55.4412L52.0302 53.8418H51.207C52.436 54.4122 53.8785 55.202 55.2485 56.2526Z" fill="#4CC6C1"/>
<path id="Vector_6" d="M2.20703 61.3726L5.35871 84.6515H48.8746L48.1083 53.8422H39.8214L30.9387 68.0131L20.5801 53.8422L17.2363 48.8403L10.0255 53.8422L2.20703 61.3726Z" fill="#4CC6C1"/>
<path id="Vector_7" d="M5.6997 56.1841C2.6715 57.7834 -1.34062 60.498 -2.83806 64.2083L-5.1195 80.933L-5.2959 84.7178H5.8369L5.6997 56.1841Z" fill="#4CC6C1"/>
<path id="Vector_8" d="M55.248 56.2529L55.9654 84.6514H67.4138L65.2793 64.9122C65.1421 60.8178 57.8431 58.2423 55.248 56.2529Z" fill="#4CC6C1"/>
<path id="Vector_9" d="M48.1084 53.8418L48.8748 84.651H55.966L55.2487 56.2526C53.8786 55.202 52.4361 54.4102 51.2072 53.8418H48.1084Z" fill="#4CC6C1"/>
<path id="Vector_10" d="M21.6521 37.3895C21.6521 37.3895 22.6007 45.4686 21.6521 49.0809L17.8242 50.2589L31.1287 64.2885L43.559 54.2416L43.0729 50.2569L37.7751 48.3557C37.7751 48.3557 37.6124 43.9359 38.414 39.7258L28.0554 36.041L21.6521 37.3875V37.3895Z" fill="white"/>
<path id="Vector_11" d="M20.2826 84.6529L17.6797 49.5845L21.68 48.0361L30.8038 50.1118L39.2201 48.436L42.5913 49.7453V84.6529H20.2826Z" fill="white"/>
<path id="Vector_12" d="M48.8083 26.1495C47.0482 23.9837 44.6629 25.4243 44.6629 25.4243L40.8664 15.3989H34.1632L27.2698 13.5192L20.9077 10.8184L17.4561 17.1903L14.3417 26.32C14.3417 26.32 12.0936 24.1601 10.3923 26.371C10.3923 26.371 8.17552 31.22 14.6984 35.6104C14.6984 35.6104 16.4644 35.1655 16.8897 34.3952C16.8897 34.3952 19.0476 46.016 29.7571 45.5986C39.3689 45.9964 42.4696 34.2619 42.4696 34.2619C42.9126 35.0204 44.5531 35.2243 44.5531 35.2243C51.5464 30.7084 48.8102 26.1475 48.8102 26.1475L48.8083 26.1495Z" fill="white"/>
<path id="Vector_13" d="M45.4892 24.7321C45.4892 24.7321 51.3869 12.8917 38.592 5.26534C38.592 5.26534 27.9492 -2.54918 22.9238 3.60522C22.9238 3.60522 9.64868 5.19478 11.0442 18.1798L11.6636 25.3397L45.4892 24.734V24.7321Z" fill="white"/>
<path id="Vector_14" d="M12.6033 23.4948C12.6033 23.4948 5.5924 10.1982 20.6276 2.57772C20.6276 2.57772 28.7792 -1.91852 37.2621 4.33583L39.9277 5.19431C39.9277 5.19431 48.4204 8.75368 47.6912 16.8465L46.917 24.5376L43.6184 26.2584C43.6184 26.2584 42.0014 16.8485 39.5396 12.0935L37.2621 9.42204C37.2621 9.42204 27.4033 14.8669 19.4868 16.1938L16.6938 15.743C16.6938 15.743 14.3967 23.242 15.8648 26.1722L13.6166 25.3059L12.6053 23.4988L12.6033 23.4948Z" fill="#B5B5B6"/>
<path id="Vector_15" d="M21.2775 20.6194C20.9188 20.6194 20.5739 20.4195 20.4053 20.0765C20.1701 19.5963 20.37 19.0142 20.8502 18.779C22.7534 17.848 24.2155 18.0616 24.3763 18.0891C24.9035 18.1792 25.2583 18.681 25.1681 19.2082C25.0779 19.7335 24.5821 20.0863 24.0587 20.002C23.998 19.9942 23.0297 19.8707 21.7028 20.5214C21.5656 20.5881 21.4206 20.6194 21.2775 20.6194Z" fill="#3E3A39"/>
<path id="Vector_16" d="M38.2081 20.684C38.0494 20.684 37.8887 20.6448 37.7417 20.5625C36.4343 19.8412 35.4543 19.9235 35.4112 19.9294C34.8801 19.9921 34.4018 19.6139 34.3391 19.0827C34.2744 18.5515 34.6605 18.0674 35.1917 18.0027C35.3544 17.9831 36.8224 17.842 38.6785 18.8651C39.147 19.1239 39.3175 19.7138 39.0588 20.1823C38.8824 20.5017 38.5511 20.684 38.2101 20.684H38.2081Z" fill="#3E3A39"/>
<path id="Vector_17" d="M29.8702 38.1565C27.5613 38.1565 25.7777 37.692 25.6581 37.6606C25.1407 37.5234 24.833 36.9922 24.9702 36.4748C25.1074 35.9574 25.6385 35.6496 26.156 35.7868C26.2148 35.8025 30.4738 36.8962 34.0116 35.5222C34.5114 35.3282 35.072 35.5752 35.266 36.075C35.4601 36.5748 35.2131 37.1353 34.7133 37.3294C33.0846 37.9624 31.3656 38.1565 29.8702 38.1565Z" fill="#3E3A39"/>
<path id="Vector_18" d="M36.331 26.2545C35.6038 26.2643 35.0001 25.6763 34.9923 24.9492C34.9825 24.222 35.5705 23.6183 36.2977 23.6105C37.0248 23.6007 37.6285 24.1887 37.6363 24.9158C37.6461 25.643 37.0581 26.2467 36.331 26.2545Z" fill="#3E3A39"/>
<path id="Vector_19" d="M23.5449 26.1945C22.8177 26.2043 22.214 25.6163 22.2062 24.8891C22.1964 24.1619 22.7844 23.5583 23.5115 23.5504C24.2387 23.5406 24.8424 24.1286 24.8502 24.8558C24.86 25.5829 24.272 26.1866 23.5449 26.1945Z" fill="#3E3A39"/>
<path id="Vector_20" d="M29.9524 32.8369C29.9426 32.8369 29.9328 32.8369 29.923 32.8369L29.3095 32.8192C28.7744 32.8036 28.353 32.3567 28.3707 31.8216C28.3863 31.2865 28.8352 30.8671 29.3683 30.8827L29.9818 30.9004C30.5169 30.9161 30.9383 31.3629 30.9206 31.898C30.9049 32.4233 30.4737 32.8388 29.9524 32.8388V32.8369Z" fill="#3E3A39"/>
<path id="Vector_21" d="M47.1963 25.8726C47.1238 25.8726 47.0493 25.8648 46.9768 25.8471C46.4554 25.7256 46.1301 25.2042 46.2516 24.6829C47.8156 17.9503 47.4158 12.77 45.0638 9.291C42.849 6.01584 39.6679 5.4886 39.6346 5.48468C39.1054 5.40236 38.7428 4.90648 38.8251 4.37924C38.9075 3.85004 39.4033 3.48744 39.9306 3.56976C40.0952 3.59524 43.9858 4.23812 46.6691 8.20712C49.3366 12.1526 49.8305 17.8444 48.1391 25.1239C48.0352 25.5708 47.6373 25.8746 47.1963 25.8746V25.8726Z" fill="#3E3A39"/>
<path id="Vector_22" d="M12.6412 25.8724C12.2766 25.8724 11.9297 25.6666 11.7631 25.3158C9.26215 20.0062 10.8948 11.0235 10.9654 10.6432C11.0634 10.118 11.5691 9.76908 12.0963 9.86708C12.6216 9.96508 12.9705 10.4708 12.8725 10.998C12.8568 11.0842 11.2829 19.7474 13.5173 24.4887C13.7447 24.9728 13.5369 25.551 13.0528 25.7784C12.9195 25.8411 12.7784 25.8705 12.6412 25.8705V25.8724Z" fill="#3E3A39"/>
<path id="Vector_23" d="M44.2938 35.963C43.6568 35.963 42.7865 35.7161 42.0221 34.6381C41.7125 34.201 41.8163 33.5953 42.2534 33.2876C42.6905 32.9779 43.2961 33.0818 43.6039 33.5189C43.9743 34.0422 44.2369 34.0285 44.3212 34.0246C45.1405 33.9815 46.391 32.4233 46.977 31.3825C46.9849 31.3668 46.9947 31.3511 47.0045 31.3355C49.0625 28.1171 47.9649 26.5158 47.6807 26.1865C46.3479 25.4849 45.6795 26.2257 45.5031 26.4766C45.2091 26.9235 44.6113 27.0411 44.1644 26.7471C43.7175 26.4531 43.598 25.8455 43.892 25.3986C44.4898 24.4911 46.2773 23.1485 48.7567 24.5676C48.8116 24.5989 48.8645 24.6362 48.9135 24.6793C49.035 24.7851 51.8496 27.3371 48.6528 32.3586C48.2922 32.9975 46.5615 35.8493 44.4251 35.963C44.382 35.965 44.3389 35.9669 44.2938 35.9669V35.963Z" fill="#3E3A39"/>
<path id="Vector_24" d="M21.9594 50.0808C21.8869 50.0808 21.8144 50.073 21.7399 50.0553C21.2186 49.9338 20.8932 49.4144 21.0147 48.893C21.5086 46.7586 21.2342 43.6383 21.2323 43.6069C21.1833 43.0738 21.5772 42.6034 22.1104 42.5544C22.6435 42.5054 23.1139 42.8994 23.1629 43.4325C23.1746 43.5717 23.4686 46.8899 22.9042 49.3301C22.8003 49.779 22.4024 50.0808 21.9614 50.0808H21.9594Z" fill="#3E3A39"/>
<path id="Vector_25" d="M37.9688 50.0805C37.5278 50.0805 37.128 49.7767 37.026 49.3298C36.4616 46.8896 36.7536 43.5714 36.7673 43.4322C36.8163 42.8991 37.2867 42.5071 37.8199 42.5541C38.353 42.6031 38.7469 43.0735 38.6979 43.6066C38.696 43.638 38.4216 46.7583 38.9155 48.8928C39.037 49.4141 38.7117 49.9355 38.1903 50.055C38.1158 50.0727 38.0433 50.0805 37.9708 50.0805H37.9688Z" fill="#3E3A39"/>
<path id="Vector_26" d="M13.4472 9.40867C13.2473 9.40867 13.0454 9.34791 12.8729 9.21855C12.4417 8.90103 12.3516 8.29343 12.6691 7.86223C12.773 7.72111 15.2857 4.35775 19.5918 2.00379C23.6157 -0.195328 29.9955 -1.88093 37.5317 2.59179C37.9923 2.86423 38.1432 3.46007 37.8708 3.92067C37.5983 4.38127 37.0025 4.53219 36.5419 4.25975C31.1225 1.04339 25.7325 0.857192 20.5209 3.70507C16.5852 5.85715 14.2508 8.98335 14.2273 9.01471C14.0372 9.27147 13.7432 9.40867 13.4472 9.40867Z" fill="#3E3A39"/>
<path id="Vector_27" d="M15.2093 36C15.1857 36 15.1642 36 15.1426 36C13.018 35.9432 11.2265 33.1619 10.8522 32.5367C7.54958 27.6406 10.2818 25.0397 10.3994 24.9299C10.4465 24.8868 10.4974 24.8476 10.5523 24.8143C12.9788 23.3423 14.7879 24.6301 15.4053 25.516C15.711 25.955 15.6032 26.5587 15.1642 26.8664C14.7291 27.1702 14.1313 27.0663 13.8216 26.6371C13.6393 26.3941 12.9592 25.6845 11.6617 26.4117C11.4088 26.7175 10.3387 28.3266 12.4692 31.4744C12.479 31.4901 12.4907 31.5057 12.4986 31.5214C13.1042 32.5328 14.3802 34.042 15.1916 34.0635C15.2759 34.0635 15.5327 34.0714 15.8835 33.5481C16.1814 33.1031 16.7851 32.9855 17.2281 33.2835C17.673 33.5814 17.7906 34.1851 17.4927 34.628C16.7361 35.7531 15.8443 36.002 15.2053 36.002L15.2093 36Z" fill="#3E3A39"/>
<path id="Vector_28" d="M29.7014 46.668C25.6305 46.668 21.8594 44.4493 21.6987 44.3533C21.6909 44.3474 21.6811 44.3434 21.6732 44.3376C16.1245 40.788 15.6051 32.5913 15.5874 32.2444C15.558 31.7093 15.9677 31.2526 16.5008 31.2232C17.0359 31.1938 17.4925 31.6034 17.5219 32.1366C17.5259 32.211 18.01 39.6767 22.7022 42.6951C22.9217 42.8225 26.3909 44.8001 29.8993 44.7276C33.3842 44.708 36.7397 42.8852 37.0769 42.697C41.6731 39.5512 41.9592 31.8974 41.9612 31.821C41.9769 31.2859 42.4257 30.8665 42.9588 30.8802C43.4939 30.8959 43.9153 31.3408 43.8996 31.8759C43.8898 32.2326 43.588 40.6312 38.1333 44.3219C38.1137 44.3356 38.0941 44.3474 38.0745 44.3591C37.9138 44.4532 34.0741 46.6406 29.9248 46.6641C29.8503 46.6641 29.7759 46.666 29.7014 46.666V46.668Z" fill="#3E3A39"/>
<path id="Vector_29" d="M22.6204 30.4568C21.4522 30.4568 20.4624 30.1315 19.6627 29.4847C17.9046 28.0598 17.8458 25.6196 17.8439 25.5157C17.836 24.9806 18.2633 24.5396 18.7984 24.5318C19.3256 24.5278 19.7725 24.9473 19.7823 25.4824C19.7823 25.5137 19.8411 27.1444 20.8917 27.9853C21.5365 28.5027 22.4832 28.6438 23.7003 28.4047C23.7591 28.393 23.8179 28.3871 23.8787 28.3871C24.1668 28.3753 25.6819 28.1793 25.7446 25.5706C25.7564 25.0355 26.2013 24.6102 26.7364 24.6239C27.2715 24.6356 27.6948 25.0806 27.6831 25.6156C27.5988 29.222 25.2879 30.2608 23.9943 30.3216C23.5122 30.4118 23.0555 30.4568 22.6223 30.4568H22.6204Z" fill="#3E3A39"/>
<path id="Vector_30" d="M37.2145 30.4577C36.7578 30.4577 36.2718 30.4087 35.7622 30.3068C35.7445 30.3029 35.7269 30.2989 35.7092 30.295C34.4921 29.9853 32.1675 28.4624 32.0852 24.9246C32.0734 24.3895 32.4968 23.9446 33.0319 23.9329C33.5689 23.9211 34.0119 24.3445 34.0236 24.8795C34.0903 27.7019 35.968 28.3507 36.1718 28.4115C37.3733 28.6408 38.3062 28.4977 38.9452 27.9842C39.9997 27.1375 40.0546 25.4969 40.0546 25.4813C40.0683 24.9481 40.5073 24.5189 41.0444 24.5346C41.5775 24.5463 42.0028 24.9834 41.993 25.5165C41.993 25.6204 41.9322 28.0606 40.1741 29.4855C39.3744 30.1323 38.3827 30.4577 37.2165 30.4577H37.2145Z" fill="#3E3A39"/>
<path id="Vector_31" d="M31.9324 27.2268C31.8619 27.2268 31.7913 27.2189 31.7207 27.2033C29.061 26.6113 27.8203 27.1327 27.8086 27.1366L27.8262 27.1288L26.9756 25.3863C27.152 25.3001 28.7964 24.5671 32.1402 25.3119C32.6635 25.4275 32.9928 25.9469 32.8752 26.4683C32.7752 26.9191 32.3734 27.2268 31.9305 27.2268H31.9324Z" fill="#3E3A39"/>
<path id="Vector_32" d="M18.1667 27.0982C18.1372 27.0982 18.1079 27.0982 18.0785 27.0943L14.9405 26.814C14.4074 26.767 14.0134 26.2946 14.0605 25.7615C14.1075 25.2284 14.5818 24.8364 15.113 24.8815L18.2509 25.1617C18.784 25.2088 19.178 25.6811 19.131 26.2143C19.0859 26.718 18.6625 27.0982 18.1667 27.0982Z" fill="#3E3A39"/>
<path id="Vector_33" d="M44.808 27.1391H40.9448C40.4097 27.1391 39.9746 26.706 39.9746 26.1689C39.9746 25.6319 40.4078 25.1987 40.9448 25.1987H44.808C45.3431 25.1987 45.7782 25.6319 45.7782 26.1689C45.7782 26.706 45.345 27.1391 44.808 27.1391Z" fill="#3E3A39"/>
<path id="Vector_34" d="M15.8642 26.3079C15.3389 26.3079 14.9077 25.8884 14.8959 25.3592C14.7724 19.6125 15.7132 15.6768 15.7524 15.5122C15.8798 14.9928 16.4032 14.6733 16.9245 14.7987C17.4439 14.9261 17.7634 15.4495 17.638 15.9689C17.6282 16.0061 16.7168 19.8399 16.8363 25.3161C16.8481 25.8512 16.4228 26.2941 15.8877 26.3059C15.8798 26.3059 15.874 26.3059 15.8661 26.3059L15.8642 26.3079Z" fill="#3E3A39"/>
<path id="Vector_35" d="M43.3317 26.3071C42.8162 26.3071 42.387 25.9014 42.3635 25.3801C41.9813 16.7913 38.1965 12.0129 38.1573 11.9639C37.8202 11.5483 37.8849 10.9368 38.3023 10.5997C38.7179 10.2626 39.3294 10.3273 39.6665 10.7447C39.839 10.9584 43.8923 16.074 44.3019 25.2919C44.3254 25.8269 43.9119 26.2797 43.3768 26.3032C43.3631 26.3032 43.3474 26.3032 43.3337 26.3032L43.3317 26.3071Z" fill="#3E3A39"/>
<path id="Vector_36" d="M25.3149 15.5556C24.7798 15.5556 24.3447 15.1224 24.3447 14.5854C24.3447 14.0483 24.7779 13.6152 25.3149 13.6152C31.4125 13.6152 36.0008 8.75439 36.0459 8.70539C36.4105 8.31339 37.024 8.28986 37.416 8.65442C37.808 9.01702 37.8315 9.63051 37.4689 10.0225C37.2592 10.2479 32.2749 15.5536 25.3149 15.5536V15.5556Z" fill="#3E3A39"/>
<path id="Vector_37" d="M17.8478 17.8995C17.4518 17.8995 17.0814 17.6564 16.9383 17.2644C16.7541 16.7627 17.0128 16.2041 17.5146 16.0198C22.5184 14.1853 25.8916 9.53027 25.9249 9.48323C26.2366 9.04811 26.8422 8.94619 27.2773 9.25783C27.7124 9.56947 27.8144 10.1731 27.5027 10.6083C27.3518 10.8199 23.7591 15.7925 18.181 17.8387C18.0712 17.8799 17.9575 17.8975 17.8478 17.8975V17.8995Z" fill="#3E3A39"/>
<path id="Vector_38" d="M31.2859 59.5965C30.9233 59.5965 30.5763 59.3926 30.4097 59.0457L28.2577 54.5436C24.4513 53.5048 21.723 50.6118 20.5803 49.2065L19.0221 50.2806C18.5811 50.5844 17.9775 50.4746 17.6737 50.0336C17.3699 49.5926 17.4796 48.989 17.9206 48.6852L20.2413 47.0858C20.4529 46.9388 20.7156 46.8839 20.9704 46.931C21.2252 46.978 21.4486 47.125 21.5937 47.3386C21.6231 47.3818 24.6434 51.7447 29.1495 52.7678C29.4376 52.8325 29.6806 53.0285 29.81 53.2951L32.1581 58.2088C32.3893 58.691 32.1835 59.2711 31.7014 59.5024C31.5661 59.5671 31.425 59.5965 31.2839 59.5965H31.2859Z" fill="#3E3A39"/>
<path id="Vector_39" d="M21.6636 65.1102C21.3853 65.1102 21.1207 64.9907 20.9364 64.7809C20.862 64.6967 19.0999 62.6837 17.9866 60.7708C17.7181 60.3082 17.8749 59.7143 18.3375 59.4458C18.8 59.1773 19.3939 59.3341 19.6624 59.7967C20.2485 60.8021 21.054 61.8664 21.6401 62.5955C23.8412 59.7163 26.5479 55.8198 26.5793 55.7767C26.885 55.3377 27.4887 55.2279 27.9278 55.5337C28.3668 55.8394 28.4766 56.4431 28.1708 56.8821C28.1375 56.9311 24.7408 61.8194 22.426 64.7437C22.2477 64.9691 21.9792 65.1043 21.691 65.1102C21.6832 65.1102 21.6754 65.1102 21.6656 65.1102H21.6636Z" fill="#3E3A39"/>
<path id="Vector_40" d="M31.3397 85.6215C30.8125 85.6215 30.3813 85.2001 30.3715 84.6709L29.9795 64.0889C29.9795 64.0203 29.9834 63.9517 29.9971 63.8851C30.0109 63.8106 31.4377 56.4508 31.7337 53.2207C31.767 52.8542 32.0042 52.5387 32.3472 52.4054C32.3903 52.3877 36.7513 50.6492 38.5153 47.4191C38.6407 47.1879 38.8563 47.0193 39.1092 46.9487C39.362 46.8801 39.6345 46.9154 39.8599 47.0487L42.5588 48.6481C43.0194 48.9205 43.1723 49.5163 42.8979 49.9769C42.6254 50.4375 42.0296 50.5885 41.569 50.316L39.6854 49.1988C37.8567 51.8233 34.8442 53.403 33.6035 53.9714C33.2311 57.2975 32.0904 63.2657 31.9179 64.1517L32.308 84.6317C32.3178 85.1668 31.8925 85.6097 31.3574 85.6195C31.3515 85.6195 31.3456 85.6195 31.3378 85.6195L31.3397 85.6215Z" fill="#3E3A39"/>
<path id="Vector_41" d="M40.4009 64.7589C40.4009 64.7589 40.3931 64.7589 40.3911 64.7589C40.1128 64.755 39.8482 64.6335 39.6659 64.4218C37.1787 61.5249 34.3779 55.4019 34.2583 55.1412C34.0368 54.6532 34.2505 54.0789 34.7385 53.8574C35.2265 53.6359 35.8008 53.8496 36.0223 54.3376C36.0478 54.3925 38.3135 59.3415 40.4499 62.2835L41.8807 60.69C42.2375 60.2921 42.8509 60.2588 43.2488 60.6155C43.6467 60.9722 43.68 61.5857 43.3233 61.9836L41.1222 64.4375C40.938 64.6433 40.6753 64.7589 40.4009 64.7589Z" fill="#3E3A39"/>
<path id="Vector_42" d="M10.7269 65.7765C10.6995 65.7765 10.6701 65.7765 10.6426 65.7726C10.1095 65.7255 9.71359 65.2571 9.76063 64.724L10.9405 51.1255C10.968 50.8158 11.1405 50.5395 11.4051 50.3787L15.3349 48.0071C15.7935 47.7308 16.3893 47.8778 16.6657 48.3364C16.9421 48.7951 16.7951 49.3909 16.3364 49.6673L12.828 51.7841L11.6912 64.8906C11.6481 65.3963 11.2247 65.7765 10.7269 65.7765Z" fill="#3E3A39"/>
<path id="Vector_43" d="M50.4663 65.1104C49.9684 65.1104 49.5451 64.7301 49.502 64.2244L48.5905 53.711L44.1845 50.6946C43.7435 50.3927 43.6298 49.789 43.9316 49.348C44.2335 48.907 44.8372 48.7934 45.2801 49.0952L50.0645 52.3704C50.3036 52.535 50.4584 52.7976 50.482 53.0858L51.4345 64.0559C51.4816 64.589 51.0856 65.0594 50.5525 65.1045C50.5231 65.1064 50.4957 65.1084 50.4682 65.1084L50.4663 65.1104Z" fill="#3E3A39"/>
<path id="Vector_44" d="M19.7999 85.6208C19.2883 85.6208 18.8611 85.221 18.8336 84.7036C18.0183 69.5959 16.8697 49.2903 16.8579 49.0864C16.8285 48.5514 17.2362 48.0947 17.7713 48.0633C18.3083 48.0359 18.7631 48.4416 18.7944 48.9767C18.8062 49.1805 19.9547 69.4881 20.7701 84.5977C20.7995 85.1328 20.3899 85.5895 19.8548 85.6189C19.8371 85.6189 19.8195 85.6189 19.8019 85.6189L19.7999 85.6208Z" fill="#3E3A39"/>
<path id="Vector_45" d="M43.073 85.619C42.5418 85.619 42.1087 85.1897 42.1048 84.6566C41.9538 65.6132 41.7696 49.3648 41.7676 49.2022C41.7618 48.6671 42.191 48.228 42.7261 48.2222C42.73 48.2222 42.7339 48.2222 42.7378 48.2222C43.269 48.2222 43.7002 48.6494 43.7061 49.1806C43.7061 49.3433 43.8923 65.5956 44.0432 84.6409C44.0471 85.176 43.6159 85.6131 43.0808 85.617C43.0789 85.617 43.075 85.617 43.073 85.617V85.619Z" fill="#3E3A39"/>
<path id="Vector_46" d="M67.4122 85.6193C66.8986 85.6193 66.4714 85.2175 66.4439 84.7001L65.8696 73.3948C65.7873 72.7872 65.7128 72.2011 65.6423 71.6347C64.8877 65.6508 64.4722 62.3541 57.9767 58.6713L51.934 55.2844C51.4676 55.0237 51.301 54.4318 51.5616 53.9653C51.8223 53.4988 52.4142 53.3322 52.8807 53.5929L58.9293 56.9817C66.2734 61.1467 66.8163 65.445 67.567 71.3917C67.6395 71.9659 67.714 72.5579 67.7983 73.1733C67.8022 73.2007 67.8042 73.2282 67.8061 73.2537L68.3824 84.6001C68.4098 85.1352 67.9982 85.5899 67.4631 85.6173C67.4455 85.6173 67.4298 85.6173 67.4122 85.6173V85.6193Z" fill="#3E3A39"/>
<path id="Vector_47" d="M-5.29608 85.6191C-5.31176 85.6191 -5.3294 85.6191 -5.34704 85.6191C-5.88212 85.5917 -6.29372 85.1369 -6.26628 84.6019L-5.69004 73.2554C-5.69004 73.228 -5.68612 73.2006 -5.6822 73.1751C-5.59792 72.5596 -5.52344 71.9657 -5.45092 71.3915C-4.70024 65.4448 -4.15928 61.1466 3.18288 56.9835L9.23536 53.5927C9.70184 53.3301 10.2938 53.4967 10.5544 53.9651C10.8171 54.4316 10.6505 55.0235 10.182 55.2842L4.13348 58.673C-2.35804 62.3539 -2.77356 65.6506 -3.52816 71.6345C-3.59872 72.201 -3.6732 72.787 -3.75552 73.3946L-4.3298 84.6999C-4.35528 85.2173 -4.78452 85.6191 -5.29804 85.6191H-5.29608Z" fill="#3E3A39"/>
</g>
</g>
</g>
</g>
</g>
</g>
</svg>
