<svg width="124" height="102" viewBox="0 0 124 102" fill="none" xmlns="http://www.w3.org/2000/svg">
<g id="_&#231;&#147;&#166;?1" clip-path="url(#clip0_187_3303)">
<path id="Vector" d="M45.0914 1.80322H41.0114C36.5354 1.80322 32.8994 5.43922 32.8994 9.91522V19.2512H38.0714V9.91522C38.0714 8.29522 39.3914 6.97522 41.0114 6.97522H78.4634C80.0834 6.97522 81.4034 8.29522 81.4034 9.91522V19.2512H86.5754V9.91522C86.5754 5.43922 82.9394 1.80322 78.4634 1.80322H51.9794" stroke="white" stroke-width="2.4" stroke-linecap="round" stroke-linejoin="round"/>
<path id="Vector_2" d="M119.6 19.251H21.4156C20.0901 19.251 19.0156 20.3255 19.0156 21.651V97.767C19.0156 99.0925 20.0901 100.167 21.4156 100.167H119.6C120.925 100.167 122 99.0925 122 97.767V21.651C122 20.3255 120.925 19.251 119.6 19.251Z" fill="white" stroke="#003B7F" stroke-width="2.4" stroke-linecap="round" stroke-linejoin="round"/>
<path id="Vector_3" d="M108.823 19.251H10.6393C9.31377 19.251 8.23926 20.3255 8.23926 21.651V97.767C8.23926 99.0925 9.31377 100.167 10.6393 100.167H108.823C110.149 100.167 111.223 99.0925 111.223 97.767V21.651C111.223 20.3255 110.149 19.251 108.823 19.251Z" fill="white" stroke="#003B7F" stroke-width="2.4" stroke-linecap="round" stroke-linejoin="round"/>
<path id="Vector_4" d="M4.4 19.251H104.984V63.831C104.984 65.151 103.904 66.231 102.584 66.231H4.4C3.08 66.231 2 65.151 2 63.831V21.651C2 20.331 3.08 19.251 4.4 19.251Z" fill="white" stroke="#003B7F" stroke-width="2.4" stroke-linecap="round" stroke-linejoin="round"/>
<path id="Vector_5" d="M115.964 39.1587V100.167" stroke="#003B7F" stroke-width="2.4" stroke-linecap="round" stroke-linejoin="round"/>
<path id="Vector_6" d="M35.3714 58.7314H26.0234V73.7554H35.3714V58.7314Z" fill="white" stroke="#2D83F3" stroke-width="2.4" stroke-linecap="round" stroke-linejoin="round"/>
<path id="Vector_7" d="M80.9593 58.7314H71.6113V73.7554H80.9593V58.7314Z" fill="white" stroke="#2D83F3" stroke-width="2.4" stroke-linecap="round" stroke-linejoin="round"/>
<path id="Vector_8" d="M45.3436 38.5832C47.4916 37.6592 50.3476 37.0952 53.4916 37.0952C60.1516 37.0952 65.5516 39.6272 65.5516 42.7472C65.5516 45.8672 60.1516 48.3992 53.4916 48.3992C46.8316 48.3992 41.4316 45.8672 41.4316 42.7472" stroke="#2D83F3" stroke-width="2.4" stroke-linecap="round" stroke-linejoin="round"/>
<path id="Vector_9" d="M12.3438 24.4224H27.4277" stroke="#2D83F3" stroke-width="2.4" stroke-linecap="round" stroke-linejoin="round"/>
</g>
<defs>
<clipPath id="clip0_187_3303">
<rect width="122.4" height="100.764" fill="white" transform="translate(0.799805 0.602539)"/>
</clipPath>
</defs>
</svg>
