<svg width="60" height="60" viewBox="0 0 60 60" fill="none" xmlns="http://www.w3.org/2000/svg">
<g id="31" clip-path="url(#clip0_536_47940)">
<g id="Clip path group">
<mask id="mask0_536_47940" style="mask-type:luminance" maskUnits="userSpaceOnUse" x="-9" y="-5" width="80" height="81">
<g id="clippath">
<path id="Vector" d="M59.1119 63.3724C74.6853 47.799 74.6853 22.5496 59.1119 6.9762C43.5385 -8.59719 18.2891 -8.59719 2.71569 6.9762C-12.8577 22.5496 -12.8577 47.799 2.71569 63.3724C18.2891 78.9458 43.5385 78.9458 59.1119 63.3724Z" fill="white"/>
</g>
</mask>
<g mask="url(#mask0_536_47940)">
<g id="Group">
<g id="Clip path group_2">
<mask id="mask1_536_47940" style="mask-type:luminance" maskUnits="userSpaceOnUse" x="-5" y="-3" width="69" height="80">
<g id="clippath_2">
<path id="Vector_2" d="M63.6096 -2.1748H-4.55762V76.243H63.6096V-2.1748Z" fill="white"/>
</g>
</mask>
<g mask="url(#mask1_536_47940)">
<g id="Group_2">
<path id="Vector_3" d="M10.3903 26.2109C10.3903 26.2109 3.66518 8.01115 19.756 4.32008L24.1307 3.40593C24.1307 3.40593 32.9099 -3.28472 42.63 6.68462C42.63 6.68462 50.7114 12.1507 47.3575 23.0953L47.6084 40.9062C47.6084 40.9062 50.1485 49.1492 52.4849 53.7513C52.4849 53.7513 52.35 56.5486 52.35 59.1405L5.25042 58.7814C5.25042 58.7814 4.29865 55.0386 6.65692 50.4867C6.65692 50.4867 10.3527 43.8274 11.5773 35.1893L10.3903 26.2109Z" fill="#A48B78"/>
<path id="Vector_4" d="M22.916 43.1307L23.7815 48.4305L7.09957 57.1423C7.09957 57.1423 1.97535 59.2371 1.36696 64.7408L-3.69141 115.475L-1.97131 117.473L8.43864 119.525L9.46098 112.792C9.46098 112.792 36.5968 115.862 51.7468 112.035L53.2693 114.365L54.3591 121.071L67.3798 117.739L59.8784 65.136C59.8784 65.136 60.1089 58.1662 52.4163 56.0886L36.5529 48.4321L35.7877 47.4411L37.2914 39.126L22.9144 43.1322L22.916 43.1307Z" fill="white"/>
<path id="Vector_5" d="M13.6799 15.2208C13.6799 15.2208 12.5525 24.3858 14.0875 27.0122C14.0875 27.0122 9.97311 24.1757 9.34277 29.2842C9.34277 29.2842 10.2491 38.7628 16.6669 36.1866C16.6669 36.1866 20.8441 46.3801 29.7127 46.0117C29.7127 46.0117 39.8012 45.0144 41.8772 34.6531C41.8772 34.6531 44.8015 38.3802 47.6129 32.2148C47.6129 32.2148 52.7544 24.5065 44.9144 25.4615L45.4272 15.9719L34.6519 8.52862L20.1682 7.99707L13.6783 15.2177L13.6799 15.2208Z" fill="white"/>
<path id="Vector_6" d="M22.3577 12.2983C22.3577 12.2983 17.7618 21.1591 14.1366 23.5848L12.9042 26.1594L11.1543 24.4833L12.5733 14.2928C12.5733 14.2928 16.4385 2.64101 34.6226 5.71743L45.4731 13.4931L45.9827 23.5832C45.9827 23.5832 42.0564 23.6977 37.1784 19.6209C37.1784 19.6209 33.572 20.8251 29.3039 17.0321L25.6583 12.2027L22.3577 12.2983Z" fill="#A48B78"/>
<path id="Vector_7" d="M23.6145 48.1755C23.1159 48.1755 22.7082 47.7773 22.6972 47.2771C22.6611 45.5287 22.0418 43.4119 22.0355 43.39C21.8928 42.9039 22.1703 42.3943 22.6549 42.2501C23.1409 42.1058 23.6505 42.3833 23.7948 42.8694C23.823 42.9651 24.4894 45.2402 24.5318 47.2379C24.5427 47.7443 24.1398 48.163 23.6333 48.174C23.627 48.174 23.6207 48.174 23.6145 48.174V48.1755Z" fill="#3E3A39"/>
<path id="Vector_8" d="M35.7896 48.3573C35.7896 48.3573 35.777 48.3573 35.7708 48.3573C35.2643 48.3463 34.8613 47.9277 34.8723 47.4212C34.9146 45.4314 35.6406 42.7878 35.6704 42.6765C35.8052 42.1888 36.3117 41.9019 36.7994 42.0367C37.287 42.1716 37.574 42.6765 37.4391 43.1657C37.4328 43.1908 36.7429 45.7011 36.7068 47.4589C36.6959 47.9591 36.2882 48.3573 35.7896 48.3573Z" fill="#3E3A39"/>
<path id="Vector_9" d="M29.4004 46.2481C25.2374 46.2481 21.6608 43.4069 21.5071 43.283C16.1242 39.0275 14.9952 31.8037 14.9497 31.4979C14.8745 30.9962 15.221 30.5305 15.7227 30.4552C16.2229 30.3799 16.6902 30.7265 16.7655 31.2282C16.7749 31.2957 17.8442 38.0475 22.6533 41.8499C22.6925 41.8812 26.0512 44.5343 29.667 44.4088C33.3094 44.3351 36.8406 41.3262 36.8766 41.2948C41.7766 37.1882 41.8362 30.6888 41.8362 30.6246C41.8362 30.1181 42.247 29.7073 42.7535 29.7073C43.26 29.7073 43.6708 30.1181 43.6708 30.6246C43.6708 30.9256 43.6049 38.0506 38.0652 42.6919C37.9131 42.8236 34.0182 46.1572 29.7171 46.2418C29.6121 46.245 29.507 46.2481 29.402 46.2481H29.4004Z" fill="#3E3A39"/>
<path id="Vector_10" d="M20.6881 23.0922C20.4498 23.0922 20.2099 22.9981 20.0296 22.8131C19.6768 22.4493 19.6877 21.866 20.0499 21.5132C20.1032 21.4614 21.3702 20.2509 23.6814 20.0346C24.1847 19.9891 24.6332 20.3576 24.6802 20.8625C24.7273 21.3674 24.3572 21.8142 23.8523 21.8613C22.2169 22.0134 21.3592 22.7989 21.3232 22.8334C21.146 23.0059 20.917 23.0922 20.6881 23.0922Z" fill="#3E3A39"/>
<path id="Vector_11" d="M29.8925 34.1367C29.8925 34.1367 29.8831 34.1367 29.8784 34.1367L29.2998 34.1273C28.7933 34.1194 28.3888 33.7023 28.3966 33.1959C28.4044 32.6894 28.8184 32.2817 29.328 32.2927L29.9066 32.3021C30.413 32.3099 30.8176 32.727 30.8097 33.2335C30.8019 33.7353 30.3927 34.1367 29.8925 34.1367Z" fill="#3E3A39"/>
<path id="Vector_12" d="M35.7392 25.7164L35.8818 25.7125C36.6263 25.6921 37.2479 26.2806 37.2684 27.0251L37.2723 27.1677C37.2927 27.9122 36.7042 28.5338 35.9597 28.5542L35.8171 28.5581C35.0726 28.5786 34.451 27.9901 34.4305 27.2456L34.4266 27.103C34.4062 26.3584 34.9947 25.7368 35.7392 25.7164Z" fill="#3E3A39"/>
<path id="Vector_13" d="M22.5738 26.0772L22.7148 26.0734C23.4594 26.053 24.081 26.6414 24.1014 27.3859L24.1053 27.5285C24.1257 28.2731 23.5372 28.8947 22.7927 28.9151L22.6501 28.919C21.9056 28.9394 21.284 28.351 21.2636 27.6064L21.2596 27.4638C21.2392 26.7193 21.8277 26.0977 22.5722 26.0773L22.5738 26.0772Z" fill="#3E3A39"/>
<path id="Vector_14" d="M29.6967 39.1561C29.0428 39.1561 28.4501 39.051 27.9421 38.9052C26.1828 38.3972 25.0554 37.2839 25.0084 37.2369C24.6509 36.8778 24.6509 36.2976 25.0084 35.9386C25.3659 35.5811 25.9445 35.5811 26.3035 35.937C26.3255 35.9574 27.1989 36.7994 28.5128 37.1585C30.2141 37.6242 31.8903 37.0848 33.4944 35.556C33.8613 35.2063 34.4415 35.2204 34.7911 35.5858C35.1408 35.9527 35.1267 36.5328 34.7613 36.8825C32.9283 38.6308 31.1596 39.1545 29.6967 39.1545V39.1561Z" fill="#3E3A39"/>
<path id="Vector_15" d="M14.8525 37.6478C14.8415 37.6478 14.8321 37.6478 14.8211 37.6478C12.5491 37.6195 10.5154 34.482 10.2253 34.0163C6.63144 28.8466 9.47109 26.0555 9.59496 25.9395L9.66081 25.8768L9.73765 25.8282C12.2606 24.2461 14.1719 25.5601 14.8305 26.4773C15.1253 26.8882 15.0328 27.462 14.6204 27.7584C14.2111 28.0516 13.6435 27.9607 13.3456 27.5561C13.1888 27.3507 12.3546 26.413 10.8102 27.3225C10.5405 27.6502 9.2939 29.4754 11.7447 32.9877L11.7745 33.0316C12.4832 34.1794 13.9038 35.8022 14.8446 35.8116C14.9544 35.8148 15.2868 35.8163 15.6992 35.1813C15.9752 34.7564 16.5428 34.6356 16.9677 34.9116C17.3926 35.1876 17.5134 35.7552 17.2374 36.1801C16.4534 37.3875 15.5126 37.6462 14.8525 37.6462V37.6478Z" fill="#3E3A39"/>
<path id="Vector_16" d="M43.6728 36.857C43.0221 36.857 42.1409 36.603 41.349 35.5195C41.0495 35.1102 41.1389 34.5363 41.5482 34.2369C41.9574 33.9374 42.5313 34.0267 42.8308 34.436C43.2777 35.0491 43.6101 35.0256 43.7183 35.0193C44.6559 34.9566 45.9872 33.2584 46.6316 32.073L46.6583 32.0275C48.924 28.3663 47.574 26.6305 47.2823 26.3216C45.6845 25.4937 44.9021 26.4831 44.7594 26.6932C44.4866 27.1197 43.9221 27.2404 43.4956 26.9676C43.0691 26.6948 42.9468 26.1225 43.2196 25.696C43.8265 24.7442 45.6642 23.3267 48.2702 24.7677L48.3501 24.8116L48.4191 24.8712C48.5477 24.981 51.5363 27.6121 48.2325 32.9715C47.9691 33.4529 46.111 36.697 43.8437 36.8491C43.7888 36.8523 43.7324 36.8554 43.6744 36.8554L43.6728 36.857Z" fill="#3E3A39"/>
<path id="Vector_17" d="M34.1298 20.6064C34.0499 20.6064 33.9683 20.5954 33.8884 20.5734C26.8512 18.6542 23.5647 12.0404 23.4282 11.7597C23.2072 11.3034 23.3969 10.7546 23.8516 10.5335C24.3063 10.3124 24.8551 10.5006 25.0778 10.9553C25.1076 11.0165 28.1542 17.1066 34.3713 18.8032C34.8605 18.9364 35.149 19.4413 35.0142 19.9306C34.9029 20.3382 34.5328 20.6064 34.1298 20.6064Z" fill="#3E3A39"/>
<path id="Vector_18" d="M44.6841 24.4665C36.6074 24.4665 33.3898 14.9832 33.2581 14.5802C33.0998 14.0988 33.3616 13.5798 33.843 13.4215C34.3244 13.2631 34.8418 13.5249 35.0017 14.0048C35.03 14.091 37.9417 22.6319 44.6857 22.6319C45.1922 22.6319 45.603 23.0427 45.603 23.5492C45.603 24.0556 45.1922 24.4665 44.6857 24.4665H44.6841Z" fill="#3E3A39"/>
<path id="Vector_19" d="M13.7069 25.4012C13.4309 25.4012 13.1596 25.2773 12.9793 25.0421C12.6704 24.6407 12.7457 24.0637 13.1471 23.7563C19.8926 18.5725 21.4481 12.1563 21.4622 12.092C21.5766 11.5996 22.0674 11.2907 22.5613 11.4052C23.0537 11.5181 23.3626 12.0089 23.2497 12.5028C23.1838 12.7897 21.5594 19.6058 14.2635 25.2114C14.0973 25.34 13.8997 25.4012 13.7053 25.4012H13.7069Z" fill="#3E3A39"/>
<path id="Vector_20" d="M9.33787 25.4016C8.89256 25.4016 8.50213 25.077 8.43313 24.6238C7.2979 17.3123 8.36728 11.6863 11.6083 7.90268C15.6036 3.23945 21.3864 3.18457 21.631 3.18457C22.1375 3.18457 22.5483 3.59539 22.5483 4.10185C22.5483 4.60831 22.139 5.01756 21.6326 5.01913C21.5808 5.01913 16.419 5.08812 12.985 9.11475C10.1203 12.4718 9.19989 17.5961 10.2457 24.3416C10.3241 24.8418 9.98075 25.3106 9.48056 25.389C9.43352 25.3969 9.38491 25.4 9.33944 25.4L9.33787 25.4016Z" fill="#3E3A39"/>
<path id="Vector_21" d="M47.4779 23.8135C47.365 23.8135 47.249 23.7931 47.1377 23.7476C46.6673 23.5595 46.4384 23.0264 46.6265 22.5544C49.9099 14.3412 41.979 6.48866 41.899 6.41026L41.8645 6.37576C38.6156 2.86815 34.7724 1.38952 30.44 1.97752C27.1472 2.42597 24.7764 3.95634 24.7529 3.97202C24.3296 4.24956 23.7604 4.13196 23.4828 3.7086C23.2053 3.28523 23.3213 2.71762 23.7447 2.44008C23.8529 2.36952 26.4322 0.690195 30.117 0.171187C33.5431 -0.311757 38.5921 0.153939 43.1957 5.11352C43.4294 5.34402 45.4897 7.41691 47.1534 10.5576C49.4818 14.9543 49.888 19.3384 48.3309 23.2365C48.1867 23.5955 47.8433 23.8135 47.4779 23.8135Z" fill="#3E3A39"/>
<path id="Vector_22" d="M5.92203 57.0044C5.54884 57.0044 5.19918 56.7755 5.06119 56.4055C4.12353 53.8763 6.02081 50.4141 7.23601 48.5749C7.63585 47.9696 7.96513 47.3565 8.21601 46.7513C10.2089 41.9313 10.2372 36.2755 10.2372 36.219C10.2372 35.7126 10.648 35.3018 11.1544 35.3018C11.6609 35.3018 12.0717 35.7126 12.0717 36.219C12.0717 36.4636 12.0466 42.2872 9.91102 47.4522C9.61623 48.1656 9.2305 48.8838 8.76638 49.5862C7.05099 52.1828 6.30932 54.4941 6.78129 55.7673C6.9569 56.2424 6.71543 56.7708 6.24033 56.9464C6.13527 56.9856 6.02708 57.0044 5.92203 57.0044Z" fill="#3E3A39"/>
<path id="Vector_23" d="M52.4173 57.0044C52.3106 57.0044 52.204 56.9856 52.099 56.9464C51.6239 56.7708 51.3824 56.2424 51.558 55.7673C52.03 54.4941 51.2883 52.1828 49.5729 49.5862C49.1088 48.8838 48.7246 48.1656 48.4283 47.4522C46.2927 42.2872 46.2676 36.4652 46.2676 36.219C46.2676 35.7126 46.6784 35.3018 47.1849 35.3018C47.6913 35.3018 48.1021 35.7126 48.1021 36.219C48.1021 36.2974 48.1335 41.9391 50.1233 46.7513C50.3742 47.3565 50.7034 47.9712 51.1033 48.5749C52.3185 50.4141 54.2158 53.8763 53.2781 56.4055C53.1401 56.7755 52.7905 57.0044 52.4173 57.0044Z" fill="#3E3A39"/>
<path id="Vector_24" d="M30.6652 63.1902C30.521 63.1902 30.3767 63.1557 30.245 63.0883L16.0499 55.7735C15.5999 55.5415 15.4227 54.988 15.6548 54.538C15.8868 54.0879 16.4403 53.9108 16.8904 54.1428L30.6652 61.2412L44.2645 54.2338C44.7145 54.0017 45.268 54.1789 45.5001 54.6289C45.7322 55.0789 45.555 55.6324 45.105 55.8645L31.0855 63.0883C30.9538 63.1557 30.8095 63.1902 30.6652 63.1902Z" fill="#3E3A39"/>
<path id="Vector_25" d="M62.4903 83.9942C62.0388 83.9942 61.6468 83.6618 61.5825 83.2024C60.9035 78.2882 58.84 63.3358 58.3477 62.0986C57.8867 60.943 56.2074 59.3844 54.9828 58.7039L36.8677 49.2426C36.4192 49.0074 36.2452 48.4539 36.4788 48.0039C36.714 47.5554 37.2675 47.3814 37.7175 47.615L55.864 57.092C57.178 57.8196 59.3449 59.6432 60.0521 61.4181C60.4614 62.4436 61.4319 68.6811 63.4014 82.9499C63.4703 83.4517 63.1207 83.9142 62.6174 83.9848C62.575 83.9911 62.5327 83.9942 62.4903 83.9942Z" fill="#3E3A39"/>
<path id="Vector_26" d="M-0.3067 82.453C-0.334924 82.453 -0.36158 82.453 -0.389804 82.4499C-0.8947 82.4044 -1.26632 81.9575 -1.22084 81.4542C0.00846803 67.869 0.616852 62.4391 1.02296 61.4199C1.73013 59.6449 3.89868 57.8213 5.21109 57.0937L5.23148 57.0828L23.3576 47.6167C23.8076 47.3815 24.3611 47.5556 24.5963 48.0056C24.8315 48.4541 24.6574 49.0091 24.2074 49.2443L6.09231 58.7056C4.8677 59.3877 3.18837 60.9463 2.72738 62.1004C2.26639 63.2842 1.0606 76.6044 0.607444 81.6204C0.565108 82.0971 0.1637 82.4546 -0.305132 82.4546L-0.3067 82.453Z" fill="#3E3A39"/>
</g>
</g>
</g>
</g>
</g>
</g>
</g>
<defs>
<clipPath id="clip0_536_47940">
<rect width="79.7563" height="90.3599" fill="white" transform="translate(-8.96289 -4.7041)"/>
</clipPath>
</defs>
</svg>
