<svg width="60" height="60" viewBox="0 0 60 60" fill="none" xmlns="http://www.w3.org/2000/svg">
<g id="Clip path group">
<mask id="mask0_536_48096" style="mask-type:luminance" maskUnits="userSpaceOnUse" x="-8" y="-3" width="76" height="77">
<g id="clippath">
<path id="Vector" d="M29.8999 73.1787C50.8228 73.1787 67.7841 56.2173 67.7841 35.2944C67.7841 14.3715 50.8228 -2.58984 29.8999 -2.58984C8.97698 -2.58984 -7.98438 14.3715 -7.98438 35.2944C-7.98438 56.2173 8.97698 73.1787 29.8999 73.1787Z" fill="white"/>
</g>
</mask>
<g mask="url(#mask0_536_48096)">
<g id="Group">
<path id="Vector_2" d="M0.0732422 72.063C0.0732422 72.063 0.928272 64.2366 3.91939 61.7937L17.6997 53.8914L28.5961 56.4326L25.9253 72.5963H0.0732422V72.0615V72.063Z" fill="white"/>
<g id="Clip path group_2">
<mask id="mask1_536_48096" style="mask-type:luminance" maskUnits="userSpaceOnUse" x="-4" y="-2" width="70" height="76">
<g id="clippath_2">
<path id="Vector_3" d="M65.8261 -1.35254H-3.74414V73.1937H65.8261V-1.35254Z" fill="white"/>
</g>
</mask>
<g mask="url(#mask1_536_48096)">
<g id="Group_2">
<path id="Vector_4" d="M23.0999 40.5555C23.0999 40.5555 24.0175 48.4365 23.0999 51.9592L17.207 55.4173L28.1273 76.5339L44.279 56.9938L45.0253 55.1302L38.6856 51.2513C38.6856 51.2513 38.5292 46.9411 39.3038 42.8338L29.2892 39.239L23.0984 40.551L23.0999 40.5555Z" fill="white"/>
<path id="Vector_5" d="M19.6197 58.6426C19.6197 58.6426 33.0916 60.8894 42.5044 57.8401L45.0278 135.46C45.0278 135.46 26.4316 137.134 18.2344 134.367L19.6197 58.6426Z" fill="white"/>
<path id="Vector_6" d="M16.4421 44.7055H44.0205C44.0205 44.7055 62.4022 46.2309 48.6085 12.1461C48.6085 12.1461 45.1675 3.34089 38.3809 4.60479L32.8083 2.29941C32.8083 2.29941 19.3989 -1.4397 12.0135 10.6433C12.0135 10.6433 0.45121 32.7623 10.7726 41.8275C10.7726 41.8275 14.0572 44.7055 16.4421 44.7055Z" fill="#EFEFEF"/>
<path id="Vector_7" d="M44.0203 54.2053L34.5107 60.1882L49.724 73.4494L50.7429 99.811L34.7833 122.719C34.7833 122.719 44.4285 122.24 45.8853 130.523L64.617 109.889C64.617 109.889 67.1687 107.139 66.1484 101.738L61.9611 71.1801L59.1294 63.8371L44.0203 54.2068V54.2053Z" fill="white"/>
<path id="Vector_8" d="M10.9364 68.0275L8.63347 86.684L5.77344 146.695C5.77344 146.695 18.2697 149.34 25.2902 147.928L23.1645 105.911L25.5941 60.0022L20.6963 58.292L10.9364 68.0275Z" fill="white"/>
<path id="Vector_9" d="M49.1312 26.979C47.43 24.866 45.0273 24.6556 45.0273 24.6556L40.7849 17.4043L31.9531 7.31567L27.6407 15.5724L21.4887 12.9379L18.1505 19.1522L15.1445 26.713C15.1445 26.713 12.9801 23.2835 11.3192 28.1077C11.3192 28.1077 9.08625 31.3554 15.3947 35.6385C15.3947 35.6385 16.7979 35.4837 17.2076 34.7323C17.2076 34.7323 19.6877 47.2706 30.0419 46.8633C43.1028 47.5321 43.1028 34.7233 43.1028 34.7233C43.5318 35.4642 45.0258 36.0007 45.0258 36.0007C51.7871 31.5958 49.1297 26.9805 49.1297 26.9805L49.1312 26.979Z" fill="white"/>
<path id="Vector_10" d="M38.1504 22.5578C37.9896 22.5578 37.8257 22.5172 37.6752 22.4346C36.3867 21.7177 35.42 21.8004 35.3798 21.8034C34.8391 21.8695 34.3549 21.4803 34.2894 20.9347C34.2238 20.3892 34.6156 19.8932 35.1563 19.8271C35.3172 19.8076 36.7815 19.6648 38.6286 20.6928C39.1053 20.9573 39.2781 21.5629 39.0159 22.0438C38.8356 22.373 38.499 22.5578 38.1519 22.5578H38.1504Z" fill="#3E3A39"/>
<path id="Vector_11" d="M30.1749 39.0166C27.7468 39.0166 26.1321 37.9992 26.0263 37.93C25.569 37.6325 25.435 37.0178 25.7299 36.5564C26.0234 36.095 26.6296 35.9613 27.0869 36.2543C27.2299 36.343 30.2643 38.1885 34.1819 35.8335C34.6496 35.5525 35.2544 35.7073 35.533 36.1792C35.8115 36.6511 35.6581 37.2613 35.1904 37.5423C33.3299 38.6604 31.6094 39.0166 30.1749 39.0166Z" fill="#3E3A39"/>
<path id="Vector_12" d="M36.2892 28.1046C35.5683 28.1136 34.971 27.526 34.962 26.7986C34.9531 26.0712 35.5355 25.4686 36.2565 25.4596C36.9774 25.4506 37.5748 26.0382 37.5837 26.7656C37.5926 27.4929 37.0102 28.0956 36.2892 28.1046Z" fill="#3E3A39"/>
<path id="Vector_13" d="M23.6154 28.0433C22.8945 28.0523 22.2971 27.4647 22.2882 26.7373C22.2792 26.01 22.8617 25.4073 23.5827 25.3983C24.3036 25.3893 24.9009 25.9769 24.9099 26.7043C24.9188 27.4317 24.3364 28.0343 23.6154 28.0433Z" fill="#3E3A39"/>
<path id="Vector_14" d="M30.3536 33.5044C30.3432 33.5044 30.3342 33.5044 30.3238 33.5044L29.716 33.4863C29.1723 33.4698 28.7448 33.0114 28.7612 32.4629C28.7776 31.9249 29.2155 31.498 29.7458 31.498C29.7563 31.498 29.7652 31.498 29.7756 31.498L30.3834 31.5161C30.9271 31.5326 31.3546 31.991 31.3382 32.5395C31.3218 33.0776 30.8839 33.5044 30.3536 33.5044Z" fill="#3E3A39"/>
<path id="Vector_15" d="M43.219 45.7006C42.6872 45.7006 42.2493 45.2738 42.2344 44.7327C42.2195 44.1842 42.6485 43.7273 43.1922 43.7123C46.2519 43.6281 48.4803 42.5927 50.0012 40.5473C54.1944 34.9116 51.3403 23.6492 51.3105 23.5364C51.3046 23.5109 51.2986 23.4853 51.2942 23.4598C49.5454 13.6431 45.9778 9.31191 43.2935 7.40779C40.4499 5.39095 37.9667 5.60736 37.9414 5.61037C37.4066 5.66297 36.918 5.26772 36.8629 4.72368C36.8063 4.17965 37.1936 3.69272 37.7313 3.63261C37.8565 3.61908 40.855 3.31551 44.2796 5.678C48.6978 8.72429 51.7083 14.5764 53.2262 23.0706C53.4541 23.9648 56.253 35.4496 51.5787 41.7375C49.6988 44.2668 46.8939 45.5999 43.2444 45.7006C43.2354 45.7006 43.2265 45.7006 43.2175 45.7006H43.219Z" fill="#3E3A39"/>
<path id="Vector_16" d="M23.1664 51.7215C23.0934 51.7215 23.0174 51.714 22.943 51.6959C22.4127 51.5727 22.082 51.0377 22.2056 50.5026C22.6942 48.3716 22.4231 45.2547 22.4201 45.2231C22.3709 44.6761 22.7702 44.1922 23.3124 44.1426C23.8531 44.093 24.3342 44.4957 24.3834 45.0428C24.3968 45.1825 24.6858 48.5053 24.1257 50.9505C24.0199 51.4104 23.6148 51.7215 23.1664 51.7215Z" fill="#3E3A39"/>
<path id="Vector_17" d="M38.4627 51.7214C38.0143 51.7214 37.6091 51.4103 37.5034 50.9504C36.9463 48.5188 37.1995 44.443 37.2099 44.2702C37.2442 43.7217 37.7149 43.3054 38.2571 43.3429C38.8008 43.379 39.212 43.8509 39.1777 44.3994C39.1747 44.4385 38.9319 48.3565 39.425 50.5025C39.5471 51.0376 39.2164 51.5711 38.6876 51.6958C38.6131 51.7138 38.5387 51.7214 38.4642 51.7214H38.4627Z" fill="#3E3A39"/>
<path id="Vector_18" d="M16.4434 45.7003C16.3972 45.7003 16.3511 45.6973 16.3034 45.6898C12.6136 45.1623 9.81916 43.4596 8.00035 40.6282C3.58816 33.7632 6.2471 22.0108 7.59518 17.2768C8.86581 12.8133 12.8565 7.01832 16.4911 4.36127C22.2573 0.145759 28.5166 -0.565092 35.625 2.18514C36.1329 2.38201 36.3877 2.9576 36.1925 3.47008C35.9974 3.98255 35.4284 4.23954 34.9189 4.04267C28.4824 1.55093 22.8323 2.18213 17.647 5.97233C14.3729 8.36638 10.6355 13.7947 9.48847 17.8254C8.21486 22.2979 5.68254 33.3664 9.65381 39.5462C11.1702 41.9056 13.4344 43.2702 16.579 43.7196C17.1182 43.7962 17.4921 44.2997 17.4161 44.8437C17.3461 45.3397 16.9245 45.6988 16.4419 45.6988L16.4434 45.7003Z" fill="#3E3A39"/>
<path id="Vector_19" d="M30.1056 47.3382C26.0628 47.3382 22.3209 45.1154 22.16 45.0192C22.1511 45.0132 22.1422 45.0087 22.1332 45.0027C16.6217 41.4455 16.1063 33.2353 16.0884 32.8867C16.0586 32.3381 16.4742 31.8693 17.0179 31.8392C17.5706 31.8031 18.0264 32.2284 18.0562 32.777C18.0606 32.8506 18.5403 40.3063 23.1804 43.318C23.3964 43.4443 26.7152 45.3499 30.119 45.3499C30.18 45.3499 30.2411 45.3499 30.3022 45.3484C33.7551 45.3288 37.1082 43.4878 37.412 43.3165C42.0581 40.2131 42.2354 32.5531 42.2354 32.4764C42.2443 31.9324 42.6837 31.498 43.22 31.498C43.2245 31.498 43.2304 31.498 43.2349 31.498C43.7786 31.5056 44.2136 31.9564 44.2061 32.5065C44.2016 32.8641 44.0184 41.3222 38.4667 44.9967C38.4503 45.0072 38.4354 45.0162 38.419 45.0268C38.2596 45.1199 34.4477 47.3126 30.3275 47.3367C30.253 47.3382 30.18 47.3397 30.1056 47.3397V47.3382Z" fill="#3E3A39"/>
<path id="Vector_20" d="M-0.740503 83.1876C-0.773274 83.1876 -0.806045 83.1861 -0.840306 83.1831C-1.38252 83.129 -1.77726 82.6406 -1.72364 82.095L-0.530469 70.0556C-0.15509 65.2555 2.53513 60.9078 6.66281 58.4491C6.68217 58.4386 6.70154 58.4265 6.7209 58.4175L22.2753 50.5125C22.7624 50.266 23.3538 50.4629 23.5996 50.9528C23.8439 51.4428 23.6487 52.0409 23.1631 52.2889L7.6385 60.1774C4.07835 62.3114 1.76054 66.0671 1.43431 70.233L0.239654 82.2919C0.189007 82.8044 -0.239997 83.1876 -0.740503 83.1876Z" fill="#3E3A39"/>
<path id="Vector_21" d="M63.5435 84.7386C63.0549 84.7386 62.6304 84.3719 62.5664 83.87L60.9576 71.0957C60.5822 67.7804 58.8111 64.8108 56.0941 62.9322L37.9433 51.5736C37.4815 51.2836 37.3385 50.6704 37.626 50.2045C37.912 49.7386 38.5197 49.5943 38.983 49.8844L57.1517 61.255C57.1636 61.2625 57.1755 61.27 57.1874 61.279C60.3871 63.4837 62.474 66.9749 62.9134 70.8598L64.5207 83.622C64.5892 84.1676 64.2079 84.665 63.6672 84.7341C63.6255 84.7401 63.5838 84.7416 63.5421 84.7416L63.5435 84.7386Z" fill="#3E3A39"/>
<path id="Vector_22" d="M31.9532 10.6428C31.9532 10.6428 31.1399 19.6194 23.4834 20.766L19.8979 20.8051L13.719 25.5632L10.293 20.8051C10.293 20.8051 14.6947 4.66594 25.5941 4.60733C25.5941 4.60733 37.2249 3.15257 42.5845 12.7663L47.098 15.7255L44.0205 20.8066C44.0205 20.8066 35.0635 17.4237 34.5109 12.1502L31.9532 10.6458V10.6428Z" fill="#EFEFEF"/>
<path id="Vector_23" d="M44.5712 36.6322C43.9337 36.6322 43.0623 36.3843 42.2996 35.2977C41.9853 34.8499 42.0896 34.2292 42.5335 33.9121C42.9774 33.595 43.5926 33.7002 43.9069 34.148C44.2673 34.662 44.5161 34.647 44.598 34.644C45.3711 34.6034 46.6105 33.0915 47.2093 32.0155C47.2182 31.9989 47.2287 31.9824 47.2391 31.9659C49.2635 28.7708 48.1954 27.1808 47.9154 26.8502C46.5181 26.1092 45.8716 27.0125 45.8001 27.1207C45.5007 27.579 44.89 27.7068 44.4357 27.4047C43.9813 27.1026 43.8547 26.4865 44.1541 26.0281C44.7515 25.1129 46.5345 23.7588 49.0087 25.188C49.0654 25.2211 49.119 25.2586 49.1681 25.3022C49.2888 25.4089 52.0937 27.9743 48.9149 33.0134C48.5544 33.6566 46.8339 36.5165 44.7038 36.6307C44.6606 36.6322 44.6174 36.6338 44.5727 36.6338L44.5712 36.6322Z" fill="#3E3A39"/>
<path id="Vector_24" d="M15.7373 36.6704C15.715 36.6704 15.6926 36.6704 15.6703 36.6704C13.5521 36.6133 11.7705 33.8225 11.3966 33.1958C8.11207 28.2815 10.8336 25.665 10.9512 25.5553C10.9989 25.5102 11.0511 25.4711 11.1077 25.4366C13.5283 23.9563 15.3351 25.2517 15.9518 26.1444C16.2632 26.5953 16.1544 27.2145 15.7075 27.5286C15.2651 27.8411 14.6574 27.7344 14.3431 27.2926C14.1643 27.0537 13.5029 26.3593 12.2383 27.0732C11.9895 27.3813 10.9468 28.9773 13.0441 32.1032C13.0546 32.1198 13.065 32.1348 13.0754 32.1513C13.6742 33.1598 14.93 34.6611 15.7254 34.6822C15.8029 34.6822 16.0487 34.6912 16.3913 34.1772C16.6951 33.7218 17.3074 33.6001 17.7587 33.9067C18.2101 34.2133 18.3307 34.8309 18.0268 35.2863C17.2716 36.421 16.3779 36.6704 15.7388 36.6704H15.7373Z" fill="#3E3A39"/>
<path id="Vector_25" d="M23.3218 21.7987C22.8705 21.7987 22.4638 21.4846 22.361 21.0217C22.2419 20.4867 22.5756 19.9547 23.1073 19.8345C30.4019 18.1828 30.9635 10.655 30.9694 10.5799C31.0037 10.0313 31.467 9.61503 32.0166 9.6511C32.5603 9.68567 32.9715 10.1591 32.9372 10.7076C32.9313 10.7978 32.2594 19.8014 23.5408 21.7761C23.4678 21.7927 23.3948 21.8002 23.3248 21.8002L23.3218 21.7987Z" fill="#3E3A39"/>
<path id="Vector_26" d="M42.5842 21.7985C42.462 21.7985 42.3384 21.776 42.2192 21.7279C34.5612 18.6425 33.5751 12.5529 33.5364 12.2945C33.4559 11.7519 33.8268 11.2455 34.3646 11.1643C34.9038 11.0817 35.4013 11.4544 35.4847 11.9954C35.519 12.2118 36.3904 17.2374 42.9506 19.8809C43.4556 20.0853 43.7029 20.6639 43.5003 21.1733C43.3469 21.5626 42.9759 21.7985 42.5842 21.7985Z" fill="#3E3A39"/>
<path id="Vector_27" d="M15.4375 25.6507C15.0859 25.6507 14.7463 25.4613 14.569 25.1277C14.3113 24.6438 14.4901 24.0411 14.9697 23.7811C20.6243 20.7078 21.4197 15.4824 21.451 15.2615C21.527 14.7189 22.023 14.3387 22.5622 14.4153C23.1 14.4905 23.4769 14.9894 23.4039 15.532C23.3696 15.7935 22.4729 21.9627 15.9037 25.5335C15.7548 25.6146 15.5954 25.6522 15.4375 25.6522V25.6507Z" fill="#3E3A39"/>
<path id="Vector_28" d="M45.6473 26.7561C45.2898 26.7561 44.9457 26.5608 44.7714 26.2181L42.2287 21.2587C41.9784 20.7703 42.1676 20.1706 42.6502 19.9181C43.1344 19.6657 43.7287 19.8565 43.979 20.3435L46.5217 25.3029C46.772 25.7913 46.5828 26.3909 46.1002 26.6434C45.9557 26.7186 45.8007 26.7546 45.6488 26.7546L45.6473 26.7561Z" fill="#3E3A39"/>
<path id="Vector_29" d="M30.6873 60.4062C29.2409 60.4062 27.7632 60.2679 26.2676 59.9884C21.9597 59.1829 19.0297 57.5147 18.9075 57.4441C18.4353 57.172 18.27 56.5649 18.5396 56.087C18.8092 55.6106 19.411 55.4438 19.8832 55.7158C20.0024 55.7834 30.948 61.9075 40.976 55.4272C41.4348 55.1312 42.044 55.2664 42.3375 55.7278C42.6309 56.1907 42.4968 56.8053 42.0395 57.1014C38.6537 59.2896 34.7896 60.4047 30.6888 60.4047L30.6873 60.4062Z" fill="#3E3A39"/>
<path id="Vector_30" d="M45.5579 38.4857C46.5419 38.4857 47.3395 37.681 47.3395 36.6883C47.3395 35.6956 46.5419 34.8909 45.5579 34.8909C44.574 34.8909 43.7764 35.6956 43.7764 36.6883C43.7764 37.681 44.574 38.4857 45.5579 38.4857Z" fill="white"/>
<path id="Vector_31" d="M45.5587 39.4799C44.0333 39.4799 42.791 38.228 42.791 36.6876C42.791 35.1471 44.0319 33.8953 45.5587 33.8953C47.0855 33.8953 48.3264 35.1471 48.3264 36.6876C48.3264 38.228 47.0855 39.4799 45.5587 39.4799ZM45.5587 35.885C45.1193 35.885 44.7618 36.2457 44.7618 36.6876C44.7618 37.1294 45.1193 37.4901 45.5587 37.4901C45.9981 37.4901 46.3541 37.1294 46.3541 36.6876C46.3541 36.2457 45.9966 35.885 45.5587 35.885Z" fill="#3E3A39"/>
<path id="Vector_32" d="M15.0882 39.1749C16.0721 39.1749 16.8698 38.3702 16.8698 37.3775C16.8698 36.3848 16.0721 35.5801 15.0882 35.5801C14.1043 35.5801 13.3066 36.3848 13.3066 37.3775C13.3066 38.3702 14.1043 39.1749 15.0882 39.1749Z" fill="white"/>
<path id="Vector_33" d="M15.089 40.1701C13.5636 40.1701 12.3213 38.9182 12.3213 37.3778C12.3213 35.8373 13.5621 34.5854 15.089 34.5854C16.6158 34.5854 17.8566 35.8373 17.8566 37.3778C17.8566 38.9182 16.6158 40.1701 15.089 40.1701ZM15.089 36.5752C14.6495 36.5752 14.2935 36.9359 14.2935 37.3778C14.2935 37.8196 14.651 38.1803 15.089 38.1803C15.5269 38.1803 15.8844 37.8196 15.8844 37.3778C15.8844 36.9359 15.5269 36.5752 15.089 36.5752Z" fill="#3E3A39"/>
<path id="Vector_34" d="M23.0207 38.7649C22.9939 38.7649 22.9656 38.7649 22.9388 38.7619C22.3966 38.7168 21.9929 38.2359 22.0376 37.6889C22.1821 35.92 23.0862 34.9912 23.189 34.892C23.5808 34.5103 24.2034 34.5208 24.5833 34.9161C24.9572 35.3068 24.9512 35.9275 24.5714 36.3107C24.5341 36.3498 24.0843 36.8548 24.0038 37.8527C23.9621 38.3727 23.5301 38.7649 23.0222 38.7649H23.0207Z" fill="#3E3A39"/>
<path id="Vector_35" d="M37.905 38.1167C37.3971 38.1167 36.9666 37.7229 36.9234 37.2044C36.8415 36.1945 36.3722 35.679 36.3663 35.6745C35.9745 35.2928 35.9641 34.6631 36.3425 34.2694C36.7208 33.8741 37.345 33.8636 37.7367 34.2453C37.8395 34.346 38.7437 35.2733 38.8882 37.0421C38.9329 37.5892 38.5292 38.0701 37.987 38.1152C37.9602 38.1167 37.9319 38.1182 37.905 38.1182V38.1167Z" fill="#3E3A39"/>
</g>
</g>
</g>
</g>
</g>
</g>
</svg>
