<svg width="50" height="60" viewBox="0 0 50 60" fill="none" xmlns="http://www.w3.org/2000/svg">
<g id="Frame 3466035">
<path id="Vector" d="M36.5306 8.76107C36.5306 14.5039 31.2876 19.1589 24.8196 19.1589C18.3516 19.1589 12.5049 15.1448 12.5049 9.40199C12.5049 3.65919 18.0007 -0.658691 24.4687 -0.658691C30.9367 -0.658691 36.5325 3.01827 36.5325 8.76107H36.5306Z" fill="#898989"/>
<path id="Vector_2" d="M24.8194 20.2234C21.3717 20.2234 18.0946 19.1788 15.5937 17.2835C12.9163 15.2529 11.4404 12.454 11.4404 9.40425C11.4404 6.35449 12.8418 3.49485 15.384 1.39961C17.8261 -0.61135 21.0523 -1.71875 24.4666 -1.71875C27.8809 -1.71875 31.1521 -0.73679 33.5571 1.04681C36.16 2.97741 37.5927 5.71749 37.5927 8.76333C37.5927 15.0824 31.8617 20.2254 24.8174 20.2254L24.8194 20.2234ZM24.4666 0.40589C18.4572 0.40589 13.567 4.44153 13.567 9.40229C13.567 11.7719 14.743 13.9671 16.8775 15.5861C18.9806 17.1796 21.8735 18.0949 24.8174 18.0949C30.6896 18.0949 35.4661 13.9083 35.4661 8.76137C35.4661 5.74101 33.7393 3.82805 32.2909 2.75201C30.2505 1.23889 27.4713 0.40589 24.4666 0.40589Z" fill="#3E3A39"/>
<path id="Vector_3" d="M17.268 12.4223C16.8349 12.4223 16.4291 12.1557 16.2704 11.7265C16.0665 11.1757 16.3488 10.5642 16.8995 10.3604C20.8274 8.91193 24.0202 2.80849 24.0516 2.74773C24.3221 2.22637 24.963 2.02057 25.4843 2.29105C26.0057 2.55957 26.2115 3.20049 25.941 3.72381C25.796 4.00409 22.3405 10.623 17.6345 12.3576C17.513 12.4027 17.3895 12.4243 17.2661 12.4243L17.268 12.4223Z" fill="#3E3A39"/>
<path id="Vector_4" d="M26.389 10.6425C26.0793 10.6425 25.7715 10.5073 25.5618 10.2485C25.1914 9.79187 25.262 9.12155 25.7186 8.75307C27.2298 7.53003 27.4493 5.14275 27.4513 5.11923C27.5022 4.53515 28.0158 4.10003 28.5979 4.14903C29.182 4.19803 29.6171 4.70763 29.57 5.29171C29.5602 5.42695 29.2839 8.60411 27.0554 10.4073C26.8594 10.5661 26.6222 10.6445 26.387 10.6445L26.389 10.6425Z" fill="#3E3A39"/>
<path id="Vector_5" d="M43.3824 34.0703C48.988 24.8426 41.5752 16.1343 41.5752 16.1343C31.003 5.53463 23.4805 10.6248 23.4805 10.6248L20.1446 11.0442C0.101645 11.983 5.05849 35.2992 5.05849 35.2992L9.12549 40.1757L24.4135 33.4098L37.9728 40.1522L41.9437 37.2337L43.3843 34.0722L43.3824 34.0703Z" fill="#898989"/>
<path id="Vector_6" d="M10.9912 57.8218C10.9912 57.8218 3.31188 58.8704 2.08492 63.9331L0.424805 73.5763L8.47256 78.8722L10.9912 57.8218Z" fill="white"/>
<path id="Vector_7" d="M18.4045 46.7988C18.4045 46.7988 20.4449 51.9967 19.0141 54.0116L6.9209 59.0135L10.1216 72.8099L39.7215 74.2446L41.6462 59.7308L30.3135 53.6235C30.3135 53.6235 29.5452 47.1398 30.5487 45.217L18.4065 46.7988H18.4045Z" fill="white"/>
<path id="Vector_8" d="M9.1551 28.4453C9.1551 28.4453 7.62826 50.4188 26.3227 50.3346C26.3227 50.3346 41.3559 51.0166 39.5488 26.5852L36.7695 20.7288L16.1915 21.2325L9.1551 28.4453Z" fill="white"/>
<path id="Vector_9" d="M38.0971 35.9169C38.0971 35.9169 42.0974 31.55 43.7654 35.3367C43.7654 35.3367 44.2613 37.0282 43.5361 39.0195C42.56 41.7028 39.9395 44.6506 36.3193 42.1046L38.0951 35.9169H38.0971Z" fill="white"/>
<path id="Vector_10" d="M39.1061 44.1566C38.4593 44.1566 37.5675 43.9156 36.7952 42.8434C36.4522 42.3672 36.56 41.7027 37.0363 41.3577C37.5126 41.0147 38.177 41.1225 38.522 41.5988C38.8376 42.0379 39.0453 42.03 39.1257 42.0261C39.8528 41.9967 41.0582 40.6345 41.6502 39.6604L41.6835 39.6094C43.6278 36.7772 42.6811 35.3582 42.44 35.072C41.2327 34.4507 40.6192 35.072 40.4565 35.2857L39.6 34.6565L38.7317 34.043C39.3452 33.1767 41.1523 31.9027 43.6062 33.2865L43.6964 33.3374L43.7748 33.406C43.8963 33.5099 46.7148 36.0187 43.4534 40.7913C43.0829 41.4009 41.3366 44.0684 39.2119 44.1547C39.1766 44.1547 39.1414 44.1566 39.1061 44.1566Z" fill="#3E3A39"/>
<path id="Vector_11" d="M33.3087 31.6297C33.1069 31.6297 32.903 31.5729 32.7227 31.4533C31.3742 30.5576 30.2315 30.6281 30.1825 30.6301C29.5985 30.685 29.0849 30.2557 29.0301 29.6697C28.9752 29.0856 29.4103 28.5662 29.9963 28.5113C30.1884 28.4937 31.9269 28.3741 33.8967 29.6815C34.3867 30.0068 34.52 30.6654 34.1947 31.1554C33.9908 31.4631 33.6517 31.6317 33.3068 31.6317L33.3087 31.6297Z" fill="#3E3A39"/>
<path id="Vector_12" d="M25.2042 45.4918C22.5895 45.4918 20.751 44.3903 20.6374 44.3198C20.1376 44.012 19.9808 43.3574 20.2885 42.8576C20.5942 42.3578 21.2469 42.201 21.7467 42.5048C21.8859 42.5891 25.018 44.4158 28.6812 42.4734C29.2006 42.199 29.8435 42.397 30.1198 42.9144C30.3942 43.4338 30.1963 44.0767 29.6788 44.3531C28.0697 45.2057 26.537 45.4918 25.2061 45.4918H25.2042Z" fill="#3E3A39"/>
<path id="Vector_13" d="M25.4803 41.2384C25.4646 41.2384 25.4509 41.2384 25.4352 41.2384L24.8472 41.2148C24.2612 41.1913 23.8045 40.6954 23.828 40.1094C23.8515 39.5214 24.3494 39.0608 24.9335 39.0902L25.5215 39.1137C26.1075 39.1372 26.5642 39.6331 26.5407 40.2192C26.5171 40.7915 26.0467 41.2384 25.4783 41.2384H25.4803Z" fill="#3E3A39"/>
<path id="Vector_14" d="M31.7014 36.714C30.9056 36.714 30.2568 36.0633 30.2568 35.2695C30.2568 34.4737 30.9076 33.825 31.7014 33.825C32.4971 33.825 33.1459 34.4757 33.1459 35.2695C33.1459 36.0652 32.4952 36.714 31.7014 36.714Z" fill="#3E3A39"/>
<path id="Vector_15" d="M18.7141 36.5951C17.9183 36.5951 17.2695 35.9444 17.2695 35.1506C17.2695 34.3548 17.9203 33.7061 18.7141 33.7061C19.5098 33.7061 20.1586 34.3568 20.1586 35.1506C20.1586 35.9463 19.5079 36.5951 18.7141 36.5951Z" fill="#3E3A39"/>
<path id="Vector_16" d="M10.7273 35.8795C10.7273 35.8795 6.72697 31.5126 5.05901 35.2993C5.05901 35.2993 4.56313 36.9908 5.28833 38.9822C6.26441 41.6654 8.88492 44.6133 12.505 42.0672L10.7293 35.8795H10.7273Z" fill="white"/>
<path id="Vector_17" d="M9.54721 44.1566C9.51193 44.1566 9.47665 44.1566 9.44137 44.1547C7.31673 44.0684 5.57233 41.3989 5.19993 40.7913C1.93849 36.0207 4.75697 33.5119 4.87849 33.406L4.95689 33.3374L5.04705 33.2865C7.49901 31.9027 9.30809 33.1767 9.92157 34.043L8.18501 35.2719L8.19677 35.2876C8.03409 35.0759 7.42257 34.4566 6.22109 35.072C5.95649 35.3896 5.04313 36.8066 6.97177 39.6134L7.00509 39.6663C7.59505 40.6384 8.80045 42.0026 9.52761 42.03C9.60601 42.034 9.81377 42.0418 10.1313 41.6028C10.4743 41.1265 11.1387 41.0187 11.617 41.3617C12.0932 41.7047 12.201 42.3691 11.8581 42.8474C11.0858 43.9195 10.194 44.1606 9.54721 44.1606V44.1566Z" fill="#3E3A39"/>
<path id="Vector_18" d="M1.43081 69.0936C1.38573 69.0936 1.33869 69.0897 1.29165 69.0838C0.709532 69.0074 0.297932 68.4742 0.374372 67.8921L0.719332 65.2481C1.30733 61.0164 3.84945 59.519 3.95725 59.4582C3.99057 59.4386 4.02585 59.421 4.06309 59.4053L16.9638 53.8213C17.5028 53.588 18.13 53.835 18.3633 54.374C18.5965 54.913 18.3495 55.5382 17.8105 55.7734L4.98233 61.3261C4.73537 61.4927 3.23597 62.6119 2.83025 65.5323L2.48725 68.1685C2.41669 68.7036 1.96001 69.0956 1.43473 69.0956L1.43081 69.0936Z" fill="#3E3A39"/>
<path id="Vector_19" d="M38.6641 58.0569C38.6641 58.0569 46.3433 59.1055 47.5703 64.1682L49.7871 74.1152L39.7205 77.7255L38.6641 58.0588V58.0569Z" fill="white"/>
<path id="Vector_20" d="M24.8652 51.9007C20.7786 51.9007 17.1644 49.5839 16.7391 49.3037C11.1002 46.0461 10.4573 39.3292 10.4318 39.0431C10.3808 38.457 10.814 37.9415 11.4 37.8925C11.9841 37.8396 12.5016 38.2747 12.5506 38.8608C12.5564 38.9176 13.1405 44.7898 17.8288 47.4769L17.8974 47.5201C17.9288 47.5416 21.2726 49.7741 24.877 49.7741H24.9868C28.4912 49.7741 31.9683 47.7102 32.2917 47.5142C37.2074 43.9823 37.3191 39.1489 37.323 38.9451C37.3289 38.3629 37.8052 37.8925 38.3873 37.8925C38.3892 37.8925 38.3932 37.8925 38.3951 37.8925C38.9812 37.8965 39.4535 38.3727 39.4516 38.9568C39.4516 39.2057 39.3634 45.0779 33.501 49.2664L33.4481 49.3017C33.2776 49.4075 29.2537 51.9026 25.0005 51.9026C24.9554 51.9026 24.9103 51.9026 24.8633 51.9026L24.8652 51.9007Z" fill="#3E3A39"/>
<path id="Vector_21" d="M48.3199 69.5113C47.8044 69.5113 47.3516 69.135 47.2693 68.6097L46.8303 65.7834C46.4245 62.861 44.9369 61.7379 44.6703 61.5576L30.5191 55.3209C30.5035 55.315 30.4878 55.3072 30.4741 55.2993C30.1605 55.1425 28.5983 54.1821 28.7022 50.6149C28.7199 50.0269 29.2138 49.5663 29.7959 49.584C30.3839 49.6016 30.8445 50.0916 30.8269 50.6777C30.7681 52.6592 31.3404 53.3001 31.4639 53.4138L45.5974 59.6427C45.6307 59.6584 45.6641 59.6741 45.6954 59.6917C45.8032 59.7525 48.3453 61.2499 48.9314 65.4717L49.3665 68.2824C49.4567 68.8625 49.0588 69.4055 48.4786 69.4956C48.4237 69.5035 48.3689 69.5074 48.314 69.5074L48.3199 69.5113ZM31.3717 53.3727C31.3717 53.3727 31.3717 53.3727 31.3776 53.3746L31.4305 53.3981C31.4305 53.3981 31.3737 53.3727 31.3717 53.3727Z" fill="#3E3A39"/>
<path id="Vector_22" d="M19.2845 54.1561C19.1924 54.1561 19.1003 54.1444 19.0082 54.1189C18.4417 53.966 18.1046 53.3839 18.2555 52.8175C18.2771 52.7312 18.3614 52.2001 17.9929 50.0284C17.9537 49.7991 17.936 49.6952 17.9635 49.5207C18.0536 48.9406 18.5966 48.5427 19.1767 48.6329C19.6628 48.7073 20.0195 49.1013 20.0705 49.5678C20.0744 49.5933 20.0803 49.6285 20.0881 49.6756C20.4154 51.614 20.4821 52.7195 20.3076 53.3682C20.1802 53.8425 19.751 54.1561 19.2806 54.1561H19.2845Z" fill="#3E3A39"/>
<path id="Vector_23" d="M4.55439 35.1365C4.09379 35.1365 3.67043 34.8366 3.53519 34.3721C3.42347 33.9879 0.84019 24.9014 5.53047 17.767C8.37639 13.4393 13.2489 10.8207 20.0149 9.98771C20.597 9.91519 21.1282 10.3307 21.2007 10.9128C21.2732 11.4949 20.8577 12.0261 20.2755 12.0986C14.1643 12.8513 9.80327 15.1484 7.31603 18.9234C3.16279 25.2248 5.55399 33.69 5.57751 33.7743C5.74215 34.3388 5.41679 34.9287 4.85427 35.0934C4.75431 35.1228 4.65435 35.1365 4.55635 35.1365H4.55439Z" fill="#3E3A39"/>
<path id="Vector_24" d="M43.3829 35.1327C43.1947 35.1327 43.0046 35.0837 42.8321 34.9778C42.3303 34.6721 42.1696 34.0194 42.4754 33.5157C44.4805 30.215 44.9391 26.6067 43.8337 22.7925C42.9066 19.5879 40.9603 16.7283 38.2065 14.5233C29.8628 7.84162 24.3062 11.3539 24.0729 11.5068C23.5849 11.8283 22.9263 11.6969 22.601 11.2109C22.2756 10.7248 22.403 10.0701 22.8871 9.74282C23.1694 9.5527 29.9098 5.15446 39.5373 12.8631C42.6361 15.3445 44.8274 18.5726 45.8779 22.2006C47.1363 26.5479 46.5894 30.8442 44.2943 34.6211C44.0943 34.9504 43.7435 35.1327 43.3848 35.1327H43.3829Z" fill="#3E3A39"/>
<path id="Vector_25" d="M30.7196 15.8676C30.7196 15.8676 26.7251 25.2188 22.6091 26.8456L16.0588 28.8781L13.0169 31.2967C13.0169 31.2967 12.0271 31.5476 9.3811 32.6629L5.41602 28.9604C5.41602 28.9604 9.05965 10.8461 30.7177 15.8657L30.7196 15.8676Z" fill="#898989"/>
<path id="Vector_26" d="M29.8076 17.6278C29.8076 17.6278 29.8076 25.7755 43.0709 32.663L39.7017 19.3114L32.0989 13.7L29.8076 17.6278Z" fill="#898989"/>
<path id="Vector_27" d="M20.1456 28.9076C19.7595 28.9076 19.3871 28.6979 19.1989 28.3294C18.9304 27.8061 19.1362 27.1652 19.6576 26.8967C25.1319 24.0801 27.0037 19.2919 27.0213 19.2429C27.2291 18.6941 27.8425 18.4177 28.3913 18.6235C28.9401 18.8313 29.2185 19.4408 29.0127 19.9896C28.9284 20.217 26.8645 25.5795 20.6297 28.7881C20.4749 28.8684 20.3083 28.9057 20.1437 28.9057L20.1456 28.9076Z" fill="#3E3A39"/>
<path id="Vector_28" d="M10.0071 33.1902C9.60329 33.1902 9.21521 32.959 9.03685 32.565C8.79381 32.0299 9.03097 31.3988 9.56605 31.1577C18.2567 27.2162 19.0015 21.8438 19.0309 21.6164C19.1015 21.0363 19.6287 20.6168 20.2069 20.6835C20.7871 20.7482 21.2065 21.2656 21.1457 21.8477C21.1163 22.1221 20.3265 28.6136 10.4461 33.0962C10.303 33.1608 10.1541 33.1922 10.0071 33.1922V33.1902Z" fill="#3E3A39"/>
<path id="Vector_29" d="M39.6281 34.4722C39.1831 34.4722 38.7696 34.192 38.6206 33.747L37.5054 30.4209C30.1064 25.9854 29.0617 20.7013 29.0205 20.4759C28.9147 19.8977 29.2969 19.343 29.8751 19.2372C30.4513 19.1313 31.0021 19.5116 31.1119 20.0858C31.1275 20.1623 32.1409 24.8526 38.9225 28.7863L39.2694 28.9882L40.6375 33.0708C40.8237 33.6275 40.5238 34.2312 39.9671 34.4174C39.8554 34.4546 39.7417 34.4722 39.63 34.4722H39.6281Z" fill="#3E3A39"/>
<path id="Vector_30" d="M13.2639 68.1449C12.7856 68.1449 12.3505 67.8195 12.2309 67.3354L9.95929 58.0764C9.82013 57.506 10.169 56.9298 10.7394 56.7906C11.3097 56.6514 11.886 57.0003 12.0251 57.5707L14.2968 66.8297C14.4359 67.4001 14.0871 67.9763 13.5167 68.1155C13.4324 68.137 13.3462 68.1468 13.2619 68.1468L13.2639 68.1449Z" fill="#3E3A39"/>
<path id="Vector_31" d="M34.9236 68.145C34.8707 68.145 34.8158 68.1411 34.7609 68.1332C34.1808 68.0431 33.7809 67.5002 33.8711 66.92L35.4489 56.6476C35.5371 56.0675 36.08 55.6677 36.6621 55.7578C37.2423 55.848 37.6421 56.3909 37.552 56.971L35.9742 67.2434C35.8938 67.7687 35.4411 68.145 34.9236 68.145Z" fill="#3E3A39"/>
<path id="Vector_32" d="M24.3923 61.2536C18.6241 61.2536 14.6903 59.4034 14.4453 59.2858C13.9161 59.031 13.6947 58.394 13.9495 57.8648C14.2043 57.3356 14.8393 57.1141 15.3685 57.3689C15.4567 57.4101 23.7397 61.2673 33.669 57.3395C34.2159 57.1239 34.8333 57.3905 35.0489 57.9373C35.2645 58.4841 34.9979 59.1015 34.4511 59.3171C30.7839 60.7695 27.348 61.2536 24.3923 61.2536Z" fill="#3E3A39"/>
</g>
</svg>
