<svg width="60" height="60" viewBox="0 0 60 60" fill="none" xmlns="http://www.w3.org/2000/svg">
<g id="Clip path group">
<mask id="mask0_536_47584" style="mask-type:luminance" maskUnits="userSpaceOnUse" x="-5" y="-1" width="70" height="67">
<g id="clippath">
<path id="Vector" d="M64.9453 -0.648438H-4.05469V65.9482H64.9453V-0.648438Z" fill="white"/>
</g>
</mask>
<g mask="url(#mask0_536_47584)">
<g id="Group">
<path id="Vector_2" d="M19.0821 114.877L17.3774 112.37L1.01433 113.638L-2.75249 109.417C-2.75249 109.417 -4.40571 101.663 -3.22316 98.3975L2.4131 63.318C2.4131 63.318 5.15033 53.8325 22.9181 50.957L40.9358 51.0556C40.9358 51.0556 54.8529 55.0136 58.3241 61.6574L64.1119 94.1644C64.1119 94.1644 67.8772 103.109 65.5989 106.965L59.2243 113.638L45.7646 111.901L20.1205 112.325L19.0806 114.877H19.0821Z" fill="white"/>
<path id="Vector_3" d="M24.3534 6.32212C24.3534 6.32212 16.68 5.32931 11.7821 12.1187C11.7821 12.1187 9.2346 19.5964 9.0934 24.812L8.73451 30.716C8.73451 30.716 7.7211 43.3932 16.2667 45.164L30.8853 45.6347L44.9039 44.4492C44.9039 44.4492 47.0087 44.4978 49.6886 41.7135L51.2374 37.0126L51.5536 28.3994L50.7696 23.3765C50.7696 23.3765 48.631 0.7094 29.8734 3.60989L24.3534 6.32212Z" fill="#A48B78"/>
<path id="Vector_4" d="M41.4346 56.1955C37.7707 58.2841 32.6095 60.4374 27.894 59.5975C27.894 59.5975 24.0272 58.6474 20.6266 57.0706L20.5898 51.8447L25.2039 49.4355L24.3581 44.2596L38.3988 40.3457L36.9309 48.4677L37.6781 49.4355L41.5228 51.2917L41.4331 56.1955H41.4346Z" fill="white"/>
<path id="Vector_5" d="M15.3327 17.1869C15.3327 17.1869 14.231 26.1385 15.7313 28.7036C15.7313 28.7036 11.713 25.9326 11.0967 30.9231C11.0967 30.9231 11.9821 40.1806 18.2494 37.6654C18.2494 37.6654 22.3295 47.6215 30.9913 47.2627C30.9913 47.2627 40.8444 46.289 42.8727 36.1696C42.8727 36.1696 45.7291 39.8099 48.4751 33.7883C48.4751 33.7883 53.4966 26.2606 45.8394 27.1931L46.3409 17.9238L35.8171 10.6549L21.672 10.1357L15.3342 17.1869H15.3327Z" fill="white"/>
<path id="Vector_6" d="M23.8088 14.3313C23.8088 14.3313 19.3198 22.9857 15.7794 25.3552L14.5763 27.8703L12.8672 26.2333L14.2527 16.2801C14.2527 16.2801 18.0269 4.90024 35.7873 7.90516L46.3847 15.4991L46.8818 25.3537C46.8818 25.3537 43.0473 25.4655 38.2818 21.4839C38.2818 21.4839 34.7592 22.6606 30.5923 18.9556L25.8091 16.4757L23.8073 14.3313H23.8088Z" fill="#A48B78"/>
<path id="Vector_7" d="M25.0363 49.3732C24.5494 49.3732 24.1508 48.9849 24.1405 48.4952C24.1052 46.8066 23.636 45.4785 23.6316 45.4652C23.4654 44.999 23.7066 44.4857 24.1729 44.3194C24.6391 44.1532 25.1525 44.3959 25.3187 44.8607C25.3422 44.9254 25.8908 46.4801 25.932 48.4584C25.9423 48.9526 25.5496 49.363 25.0554 49.3732C25.0495 49.3732 25.0422 49.3732 25.0363 49.3732Z" fill="#3E3A39"/>
<path id="Vector_8" d="M36.9262 49.5494C36.9262 49.5494 36.913 49.5494 36.9071 49.5494C36.4129 49.5391 36.0202 49.1302 36.0305 48.6346C36.0717 46.6651 36.6438 44.9486 36.6688 44.8766C36.8277 44.4074 37.3351 44.1559 37.8043 44.3147C38.2735 44.4736 38.525 44.981 38.3676 45.4487C38.3632 45.4634 37.8587 46.9872 37.8234 48.6728C37.8131 49.1611 37.4145 49.5509 36.9277 49.5509L36.9262 49.5494Z" fill="#3E3A39"/>
<path id="Vector_9" d="M30.6874 47.4902C26.6308 47.4902 22.7449 44.7515 22.5772 44.6324L22.5419 44.6059C17.2542 40.4243 16.5924 33.329 16.5659 33.0289C16.5232 32.5362 16.8895 32.1023 17.3822 32.0596C17.8764 32.0185 18.3088 32.3832 18.3515 32.876C18.3574 32.9407 18.981 39.4888 23.6333 43.1836C23.8995 43.3674 27.5001 45.8105 30.9463 45.6928C34.4248 45.6237 38.0519 43.0424 38.3431 42.8306C43.0572 38.8593 42.8351 32.3362 42.8321 32.2714C42.8115 31.7772 43.1939 31.3595 43.6882 31.3375C44.1824 31.3139 44.6001 31.6963 44.6236 32.1905C44.6383 32.4935 44.9031 39.6742 39.4742 44.2235L39.4345 44.2558C39.2624 44.3838 35.1617 47.4034 30.9978 47.4858C30.8948 47.4887 30.7918 47.4917 30.6903 47.4917L30.6874 47.4902Z" fill="#3E3A39"/>
<path id="Vector_10" d="M22.1774 24.8732C21.9435 24.8732 21.7111 24.7821 21.5346 24.6011C21.189 24.2467 21.2007 23.676 21.5552 23.3303C21.6067 23.2803 22.8437 22.0978 25.1014 21.8874C25.5941 21.8433 26.031 22.2037 26.0766 22.6964C26.1222 23.1891 25.7603 23.626 25.2676 23.6716C23.6703 23.8201 22.8334 24.5879 22.7981 24.6203C22.6245 24.7894 22.4009 24.8732 22.1774 24.8732Z" fill="#3E3A39"/>
<path id="Vector_11" d="M31.1682 35.6627C31.1682 35.6627 31.1593 35.6627 31.1535 35.6627L30.5887 35.6538C30.0945 35.6465 29.6988 35.2391 29.7062 34.7434C29.7135 34.2492 30.1239 33.8565 30.6166 33.8609L31.1814 33.8697C31.6756 33.8771 32.0713 34.2845 32.0639 34.7802C32.0566 35.2699 31.6565 35.6627 31.1682 35.6627Z" fill="#3E3A39"/>
<path id="Vector_12" d="M36.8774 27.4346L37.0156 27.4308C37.7434 27.4108 38.3507 27.9857 38.3706 28.7135L38.3744 28.8517C38.3944 29.5795 37.8195 30.1867 37.0917 30.2067L36.9535 30.2105C36.2257 30.2304 35.6185 29.6556 35.5985 28.9278L35.5947 28.7896C35.5748 28.0618 36.1496 27.4545 36.8774 27.4346Z" fill="#3E3A39"/>
<path id="Vector_13" d="M24.1563 27.7882L24.0181 27.792C23.2897 27.8119 22.7154 28.4186 22.7354 29.147L22.7392 29.2852C22.7591 30.0136 23.3658 30.5878 24.0941 30.5679L24.2324 30.5641C24.9607 30.5441 25.535 29.9375 25.5151 29.2091L25.5113 29.0709C25.4913 28.3425 24.8847 27.7682 24.1563 27.7882Z" fill="#3E3A39"/>
<path id="Vector_14" d="M30.7522 40.1953C28.6445 40.1953 27.1354 39.5481 27.0325 39.5025C26.5794 39.3025 26.3735 38.7744 26.5736 38.3214C26.7721 37.8699 27.3002 37.6639 27.7517 37.861C27.7944 37.8787 31.1964 39.3054 34.6293 37.4095C35.0632 37.1697 35.6075 37.3271 35.8472 37.761C36.0869 38.1949 35.9296 38.7391 35.4957 38.9789C33.8086 39.9099 32.148 40.1938 30.7522 40.1938V40.1953Z" fill="#3E3A39"/>
<path id="Vector_15" d="M16.4786 39.0907C16.4683 39.0907 16.458 39.0907 16.4477 39.0907C14.2282 39.0628 12.2426 35.999 11.9602 35.5445C8.45079 30.4951 11.2233 27.7697 11.3439 27.6549L11.4086 27.5932L11.4837 27.5461C13.9473 26.0002 15.8153 27.2843 16.458 28.18C16.7463 28.5816 16.6551 29.1419 16.2536 29.4302C15.855 29.717 15.299 29.6288 15.0093 29.2331C14.8563 29.0331 14.0429 28.1182 12.5353 29.0037C12.2529 29.3479 11.0659 31.1305 13.4443 34.5385L13.4722 34.5811C14.1635 35.7019 15.552 37.286 16.4713 37.2977C16.5786 37.2992 16.9022 37.3022 17.3067 36.6815C17.5759 36.2667 18.1319 36.149 18.5466 36.4182C18.9614 36.6873 19.0791 37.2433 18.8099 37.6581C18.0436 38.8377 17.1258 39.0907 16.4801 39.0907H16.4786Z" fill="#3E3A39"/>
<path id="Vector_16" d="M44.6264 38.3182C44.1336 38.3182 43.6585 38.1697 43.2276 37.8784C42.8172 37.6004 42.7113 37.043 42.9878 36.6341C43.2658 36.2252 43.8233 36.1178 44.2322 36.3944C44.4219 36.5223 44.5969 36.5547 44.8161 36.5017C45.7795 36.2679 46.9826 34.6264 47.5151 33.6483L47.5401 33.6042C49.7537 30.0286 48.4344 28.3327 48.1505 28.0312C46.5885 27.2222 45.8251 28.1885 45.6868 28.3945C45.4206 28.8122 44.8691 28.9298 44.4528 28.6636C44.0366 28.3974 43.9159 27.8385 44.1822 27.4208C44.7749 26.4912 46.5693 25.1057 49.1139 26.5147L49.1918 26.5574L49.2595 26.6147C49.386 26.7221 52.3041 29.2917 49.0771 34.5264C48.8447 34.9515 47.2415 37.7549 45.2412 38.2432C45.0338 38.2932 44.8279 38.3197 44.6249 38.3197L44.6264 38.3182Z" fill="#3E3A39"/>
<path id="Vector_17" d="M32.9904 21.5355C32.9125 21.5355 32.8331 21.5252 32.7536 21.5031C25.9216 19.6396 23.4771 15.6109 23.3756 15.4403C23.1241 15.0138 23.2653 14.4651 23.6918 14.2136C24.1169 13.9621 24.664 14.1033 24.917 14.5254C24.9494 14.5799 27.1586 18.1187 33.2258 19.7734C33.7038 19.9043 33.9847 20.397 33.8538 20.8736C33.745 21.2722 33.3846 21.534 32.9904 21.534V21.5355Z" fill="#3E3A39"/>
<path id="Vector_18" d="M45.6154 26.2173C45.561 26.2173 45.5066 26.2129 45.4507 26.2026C37.8788 24.8009 33.7987 18.8381 33.6281 18.5851C33.3515 18.1747 33.4619 17.6173 33.8722 17.3423C34.2826 17.0672 34.8386 17.176 35.1151 17.5864C35.1651 17.6614 38.976 23.183 45.7757 24.442C46.2626 24.5317 46.5832 24.9994 46.4935 25.4863C46.4141 25.9172 46.0375 26.2188 45.6139 26.2188L45.6154 26.2173Z" fill="#3E3A39"/>
<path id="Vector_19" d="M15.3578 27.1294C15.1342 27.1294 14.9092 27.0456 14.7356 26.8779C14.3797 26.5337 14.3694 25.9674 14.7136 25.61C19.7585 20.3871 21.325 16.3482 21.3397 16.3084C21.5147 15.8451 22.0325 15.6127 22.4958 15.7878C22.9591 15.9628 23.1915 16.4805 23.0165 16.9439C22.9488 17.1218 21.3015 21.3696 16.0035 26.8544C15.827 27.0367 15.5931 27.1279 15.3593 27.1279L15.3578 27.1294Z" fill="#3E3A39"/>
<path id="Vector_20" d="M15.5954 46.0599C15.5498 46.0599 15.5027 46.057 15.4556 46.0496C11.905 45.4951 9.47961 41.921 8.24558 35.4243C7.36749 30.8029 7.43073 26.4051 7.43367 26.2198C7.63665 17.733 9.82232 11.6997 13.9289 8.28289C18.2429 4.69405 23.0378 5.41182 23.2408 5.44417C23.7291 5.52213 24.0615 5.9825 23.9836 6.47082C23.9056 6.95914 23.4467 7.29155 22.9584 7.21359C22.8804 7.20183 18.7062 6.61791 15.0482 9.68166C11.3741 12.7572 9.41636 18.3346 9.22516 26.2551C9.14867 30.9691 10.1665 43.408 15.7321 44.2773C16.2205 44.3538 16.5558 44.8112 16.4793 45.301C16.4102 45.7437 16.0293 46.0585 15.5954 46.0585V46.0599Z" fill="#3E3A39"/>
<path id="Vector_21" d="M44.9025 45.3448C44.4598 45.3448 44.0744 45.0168 44.0156 44.5653C43.9509 44.074 44.2965 43.6239 44.7878 43.5607C52.5185 42.5443 50.5902 26.5093 50.5696 26.3475L50.5623 26.2504C50.3255 12.4598 43.9523 8.19731 43.8891 8.15613L43.8288 8.11789L43.7758 8.07082C39.9472 4.64229 35.8407 3.27441 31.5693 4.00248C28.3511 4.55257 26.2214 6.14843 26.2008 6.16461C25.8081 6.46319 25.2447 6.38818 24.9461 5.99547C24.6461 5.60275 24.7196 5.04236 25.1124 4.74084C25.2109 4.66583 27.5554 2.892 31.1825 2.25071C34.5198 1.6609 39.6075 1.95507 44.926 6.69412C45.6967 7.22509 52.0978 12.0583 52.3538 26.1724C52.5053 27.4182 54.3541 44.1123 45.0202 45.3375C44.9804 45.3434 44.9407 45.3448 44.9025 45.3448Z" fill="#3E3A39"/>
<path id="Vector_22" d="M18.6468 39.8747C18.8422 39.0428 18.3262 38.21 17.4943 38.0146C16.6624 37.8191 15.8296 38.3351 15.6341 39.167C15.4387 39.9989 15.9547 40.8318 16.7866 41.0272C17.6185 41.2226 18.4513 40.7067 18.6468 39.8747Z" fill="white"/>
<path id="Vector_23" d="M17.1413 41.9667C15.794 41.9667 14.6982 40.8709 14.6982 39.5222C14.6982 38.1734 15.794 37.0776 17.1413 37.0776C18.4886 37.0776 19.5858 38.1734 19.5858 39.5222C19.5858 40.8709 18.4901 41.9667 17.1413 41.9667ZM17.1413 38.8706C16.7824 38.8706 16.4897 39.1633 16.4897 39.5222C16.4897 39.8811 16.7824 40.1738 17.1413 40.1738C17.5002 40.1738 17.7929 39.8811 17.7929 39.5222C17.7929 39.1633 17.5002 38.8706 17.1413 38.8706Z" fill="#3E3A39"/>
<path id="Vector_24" d="M45.1593 39.536C45.7636 38.9318 45.7636 37.952 45.1593 37.3478C44.555 36.7435 43.5753 36.7435 42.9711 37.3478C42.3668 37.952 42.3668 38.9317 42.9711 39.536C43.5753 40.1403 44.5551 40.1403 45.1593 39.536Z" fill="white"/>
<path id="Vector_25" d="M44.0666 40.8861C42.7193 40.8861 41.6221 39.7904 41.6221 38.4416C41.6221 37.0928 42.7178 35.9971 44.0666 35.9971C45.4154 35.9971 46.5111 37.0928 46.5111 38.4416C46.5111 39.7904 45.4154 40.8861 44.0666 40.8861ZM44.0666 37.79C43.7077 37.79 43.415 38.0827 43.415 38.4416C43.415 38.8005 43.7077 39.0932 44.0666 39.0932C44.4255 39.0932 44.7182 38.8005 44.7182 38.4416C44.7182 38.0827 44.4255 37.79 44.0666 37.79Z" fill="#3E3A39"/>
<path id="Vector_26" d="M20.6251 57.0705C20.6251 57.0705 31.4137 62.72 41.4346 56.1953L41.8199 111.062C41.8199 111.062 25.3906 115.394 20.3545 111.062C20.3545 111.062 20.6428 59.79 20.6251 57.0705Z" fill="#3ED8E9"/>
<path id="Vector_27" d="M30.5937 60.4353C26.1444 60.4353 22.5026 59.0998 20.1904 57.9496C19.7477 57.729 19.5668 57.1906 19.7874 56.7479C20.008 56.3052 20.5464 56.1243 20.9891 56.3449C24.7927 58.2379 32.5013 60.6707 41.3837 55.6948C41.8162 55.4536 42.3618 55.6066 42.6031 56.039C42.8443 56.4714 42.6913 57.0171 42.2589 57.2583C38.0449 59.619 34.0737 60.4353 30.5951 60.4353H30.5937Z" fill="#3E3A39"/>
<path id="Vector_28" d="M0.609355 74.2183C0.563759 74.2183 0.518163 74.2153 0.471096 74.208C-0.0186932 74.133 -0.352574 73.6741 -0.277561 73.1858L1.16974 63.8312C1.1771 63.7842 1.1874 63.7371 1.20357 63.6915C3.77166 55.7666 11.6068 53.3383 12.1893 53.1676L23.4338 49.3596C23.903 49.2008 24.4119 49.4523 24.5693 49.9215C24.7282 50.3907 24.4767 50.8996 24.0075 51.057L12.7438 54.8709C12.7291 54.8753 12.7158 54.8797 12.7011 54.8841C12.6276 54.9047 5.26309 57.0977 2.92887 64.1769L1.49186 73.4593C1.42273 73.9021 1.04178 74.2183 0.607884 74.2183H0.609355Z" fill="#3E3A39"/>
<path id="Vector_29" d="M61.178 75.7641C60.7441 75.7641 60.3617 75.4479 60.294 75.0052L58.6187 64.1769C56.283 57.0977 48.9186 54.9062 48.845 54.8841C48.8318 54.8797 48.8171 54.8753 48.8038 54.8709L37.5401 51.057C37.0709 50.8981 36.8194 50.3892 36.9783 49.9215C37.1371 49.4523 37.646 49.2008 38.1138 49.3596L49.3583 53.1676C49.9423 53.3383 57.7759 55.7666 60.344 63.6915C60.3587 63.7371 60.3705 63.7827 60.3779 63.8312L62.0649 74.7316C62.1399 75.2214 61.806 75.6788 61.3163 75.7538C61.2692 75.7612 61.2236 75.7641 61.178 75.7641Z" fill="#3E3A39"/>
<path id="Vector_30" d="M20.2483 75.7609C20.2483 75.7609 20.241 75.7609 20.238 75.7609C19.7438 75.755 19.3467 75.3491 19.3526 74.8549C19.4894 63.1485 19.6924 53.4012 19.6938 53.3041C19.7041 52.8099 20.1145 52.4157 20.6087 52.4275C21.1029 52.4378 21.4956 52.8467 21.4853 53.3424C21.4838 53.4394 21.2809 63.1793 21.1441 74.8769C21.1382 75.3682 20.7381 75.7624 20.2483 75.7624V75.7609Z" fill="#3E3A39"/>
<path id="Vector_31" d="M42.0799 75.7689C41.5901 75.7689 41.19 75.3747 41.1842 74.882C41.0562 63.2197 40.8562 53.4371 40.8547 53.3401C40.8444 52.8459 41.2371 52.4355 41.7328 52.4252C42.2255 52.4105 42.6373 52.8076 42.6476 53.3033C42.6491 53.4004 42.8492 63.1917 42.9771 74.8629C42.983 75.3571 42.5859 75.763 42.0902 75.7689C42.0873 75.7689 42.0828 75.7689 42.0799 75.7689Z" fill="#3E3A39"/>
</g>
</g>
</g>
</svg>
