<svg width="100" height="108" viewBox="0 0 100 108" fill="none" xmlns="http://www.w3.org/2000/svg">
<g id="_&#229;&#175;&#131;&#226;&#145;&#184;&#226;&#148;&#129;_&#239;&#167;&#143;&#226;&#145;&#164;&#235;&#177;&#182;" clip-path="url(#clip0_880_48811)">
<path id="Vector" d="M98.851 21.1771C97.715 13.6251 93.043 7.12908 86.063 3.43308C77.131 -1.27492 65.679 0.589076 58.251 8.06108L56.587 9.72508L54.759 7.89708C49.439 2.58108 41.803 0.0610766 34.375 1.20108C26.783 2.33708 20.327 7.00908 16.631 13.9891C13.463 19.9171 13.263 26.9811 15.699 33.2731C17.527 31.3251 19.879 29.8611 22.479 29.0091C21.383 25.1931 21.667 21.0931 23.535 17.6011C26.091 12.8491 30.439 9.64508 35.555 8.91308C36.367 8.79308 37.179 8.74908 38.031 8.74908C42.255 8.74908 46.275 10.3731 49.319 13.4171L53.907 18.0051C54.599 18.6971 55.571 19.1011 56.627 19.1011C57.683 19.1011 58.659 18.6931 59.387 17.9651L63.771 13.5411C68.807 8.50508 76.519 7.12508 82.447 10.2931C87.199 12.8491 90.403 17.1971 91.135 22.3531C91.907 27.4291 90.243 32.4611 86.627 36.0771L56.583 66.1211L52.199 61.6971L47.123 67.6251L53.863 74.3651C54.635 75.1371 55.607 75.5011 56.623 75.5011C57.639 75.5011 58.611 75.0971 59.383 74.3651L92.147 41.6011C97.427 36.2811 99.943 28.6491 98.847 21.1771H98.851Z" fill="#2525C0"/>
<path id="Vector_2" d="M39.8144 82.1609C39.6944 81.7529 39.6103 81.3489 39.6103 80.9409V68.9649C39.6103 68.0729 39.9343 67.2209 40.5023 66.5689L53.9023 51.0169C55.4863 49.1489 55.2823 46.3489 53.4143 44.7649C51.5463 43.1809 48.7463 43.3849 47.1623 45.2129L36.8103 57.2729C35.5903 58.6929 33.7663 59.5449 31.8983 59.5449H23.2503C21.3424 59.5449 19.5543 58.7329 18.3384 57.2729L7.98635 45.2129C6.40235 43.3449 3.60235 43.1409 1.73435 44.7649C-0.133651 46.3489 -0.337651 49.1489 1.28635 51.0169L14.6863 66.5689C15.2543 67.2609 15.5783 68.1129 15.5783 68.9649V81.5929C15.5783 81.7969 15.5784 82.0409 15.5384 82.2409L14.6063 86.9089C14.5263 87.3969 13.9584 87.6809 13.5104 87.4369L7.33835 84.1089C4.98235 82.8489 1.93835 83.9449 1.04635 86.5849C0.314349 88.6569 1.41035 90.9689 3.36235 92.0249L15.6223 98.6449C16.8823 99.3369 18.3823 99.3769 19.6423 98.7249C20.9424 98.1169 21.8343 96.8969 22.0784 95.5169L23.6623 86.7889C23.8263 85.9369 24.5543 85.3289 25.4063 85.3289H30.3183C31.0904 85.3289 31.7383 85.8169 31.9823 86.5049L33.8904 91.8649C34.0944 92.4329 33.8904 93.0849 33.4024 93.4489L25.7304 99.2569C23.9863 100.557 23.2543 102.993 24.2703 104.901C25.0823 106.485 26.6664 107.337 28.2504 107.337C29.1824 107.337 30.1184 107.053 30.9303 106.445L42.1784 97.9609C43.7224 96.7849 44.3303 94.7529 43.6824 92.9249L39.8264 82.1649L39.8144 82.1609Z" fill="white"/>
<path id="Vector_3" d="M27.5549 55.4447C33.5229 55.4447 38.3549 50.6127 38.3549 44.6447C38.3549 38.6767 33.5229 33.8447 27.5549 33.8447C21.5869 33.8447 16.7549 38.6767 16.7549 44.6447C16.7549 50.6127 21.5869 55.4447 27.5549 55.4447Z" fill="white"/>
</g>
<defs>
<clipPath id="clip0_880_48811">
<rect width="98.916" height="106.476" fill="white" transform="translate(0.186523 0.857422)"/>
</clipPath>
</defs>
</svg>
