<svg width="60" height="60" viewBox="0 0 60 60" fill="none" xmlns="http://www.w3.org/2000/svg">
<g id="41" clip-path="url(#clip0_536_47976)">
<g id="Clip path group">
<mask id="mask0_536_47976" style="mask-type:luminance" maskUnits="userSpaceOnUse" x="-9" y="-6" width="80" height="81">
<g id="clippath">
<path id="Vector" d="M59.1119 62.6849C74.6853 47.1115 74.6853 21.8621 59.1119 6.2887C43.5385 -9.28469 18.2891 -9.28469 2.71569 6.2887C-12.8577 21.8621 -12.8577 47.1115 2.71569 62.6849C18.2891 78.2583 43.5385 78.2583 59.1119 62.6849Z" fill="white"/>
</g>
</mask>
<g mask="url(#mask0_536_47976)">
<g id="Group">
<path id="Vector_2" d="M26.8956 43.8486C27.5618 39.694 24.734 35.7861 20.5794 35.1199C16.4249 34.4537 12.517 37.2816 11.8508 41.4361C11.1846 45.5906 14.0124 49.4985 18.167 50.1647C22.3215 50.8309 26.2294 48.0031 26.8956 43.8486Z" fill="#727171"/>
<path id="Vector_3" d="M19.3729 51.2265C14.6375 51.2265 10.7861 47.3751 10.7861 42.6397C10.7861 37.9044 14.6375 34.053 19.3729 34.053C24.1083 34.053 27.9597 37.9044 27.9597 42.6397C27.9597 47.3751 24.1083 51.2265 19.3729 51.2265ZM19.3729 35.9914C15.7077 35.9914 12.7246 38.9745 12.7246 42.6397C12.7246 46.3049 15.7077 49.2881 19.3729 49.2881C23.0381 49.2881 26.0212 46.3049 26.0212 42.6397C26.0212 38.9745 23.0381 35.9914 19.3729 35.9914Z" fill="#3E3A39"/>
<path id="Vector_4" d="M12.7998 55.1699L18.8503 51.685L19.9479 47.3259L23.3956 47.3985V41.2264L37.8368 40.2209L37.5468 47.3397L40.9924 47.6964L42.5918 52.2201L49.8987 54.6759L49.7674 81.0438L16.2318 80.642L12.7998 55.1699Z" fill="white"/>
<path id="Vector_5" d="M42.9948 52.0203C42.9948 52.0203 43.8121 63.7509 36.9736 67.6395L37.836 86.6103H64.2568L63.7982 68.9135C63.7982 68.9135 61.946 57.9649 53.6826 56.7027L42.9948 52.0222V52.0203Z" fill="#4CC6C1"/>
<path id="Vector_6" d="M17.9485 52.7653L4.96738 57.581C4.96738 57.581 -1.64566 60.523 -2.8001 70.2818C-2.83538 70.5739 -2.83734 70.8679 -2.83734 71.1619C-2.84322 72.8475 -2.8001 78.2531 -2.79422 83.8783H24.34L24.6889 67.4555C18.5639 62.9024 19.048 48.5885 17.9485 52.7633V52.7653Z" fill="#4CC6C1"/>
<path id="Vector_7" d="M23.1186 48.0101C23.0461 48.0101 22.9736 48.0023 22.8991 47.9846C22.3777 47.8631 22.0524 47.3437 22.1739 46.8223C22.6227 44.8859 22.3346 43.6569 22.3327 43.6452C22.2072 43.1277 22.5228 42.6025 23.0383 42.4731C23.5537 42.3437 24.0771 42.6515 24.2103 43.1669C24.228 43.2336 24.6259 44.8231 24.0614 47.2594C23.9575 47.7083 23.5596 48.0101 23.1186 48.0101Z" fill="#3E3A39"/>
<path id="Vector_8" d="M37.837 48.0094C37.396 48.0094 36.9962 47.7056 36.8943 47.2587C36.3416 44.8734 36.6787 42.59 36.6924 42.4939C36.7728 41.9647 37.2686 41.6002 37.7959 41.6805C38.3251 41.7609 38.6877 42.2548 38.6093 42.7821C38.6054 42.8017 38.3172 44.8067 38.7818 46.8197C38.9033 47.341 38.5779 47.8624 38.0566 47.9819C37.9821 47.9996 37.9096 48.0074 37.837 48.0074V48.0094Z" fill="#3E3A39"/>
<path id="Vector_9" d="M14.0106 14.2312C14.0106 14.2312 12.8601 23.5823 14.4262 26.2616C14.4262 26.2616 10.2278 23.3667 9.58496 28.5803C9.58496 28.5803 10.5101 38.249 17.0565 35.6226C17.0565 35.6226 21.3175 46.0224 30.3668 45.646C30.3668 45.646 40.6588 44.6288 42.7776 34.0585C42.7776 34.0585 45.7607 37.8609 48.6301 31.5713C48.6301 31.5713 53.8751 23.7078 45.8763 24.6819L46.3996 14.9995L35.406 7.40644L20.6296 6.86548L14.0087 14.2312H14.0106Z" fill="white"/>
<path id="Vector_10" d="M22.4038 12.2358L14.6598 23.9958L14.1522 25.4991C14.1522 25.4991 11.8374 24.2329 11.1083 25.5559C11.1083 25.5559 4.15814 7.422 22.4018 2.65724L27.9525 0.877555C27.9525 0.877555 39.8733 -0.762964 44.6733 6.57528C44.6733 6.57528 52.0292 13.2863 48.0641 24.0193L46.9077 24.3486L45.8003 21.1792L38.8364 19.4211L35.4907 18.057L32.1861 19.0958C32.1861 19.0958 25.1831 16.1852 22.3999 12.2358H22.4038Z" fill="#727171"/>
<path id="Vector_11" d="M30.0497 45.9183C25.7926 45.9183 22.1333 43.0136 21.9765 42.8862C16.4748 38.5369 15.3203 31.1536 15.2753 30.842C15.1969 30.3128 15.5614 29.8189 16.0906 29.7405C16.6198 29.6601 17.1137 30.0266 17.1921 30.5558C17.2019 30.6244 18.2917 37.5001 23.1858 41.3711C23.225 41.4025 26.6413 44.1014 30.3202 43.9759C34.0246 43.9015 37.6173 40.838 37.6545 40.8066C42.6212 36.6455 42.7015 30.0109 42.7035 29.9443C42.7055 29.4112 43.1386 28.978 43.6737 28.978C44.2088 28.978 44.6419 29.4112 44.6419 29.9463C44.6419 30.254 44.5733 37.5373 38.9109 42.2825C38.7561 42.4177 34.7733 45.8242 30.3731 45.9124C30.2653 45.9163 30.1575 45.9183 30.0517 45.9183H30.0497Z" fill="#3E3A39"/>
<path id="Vector_12" d="M21.161 22.2947C20.9082 22.2947 20.6553 22.1967 20.4652 22.0007C20.0908 21.6165 20.1026 20.9991 20.4868 20.6267C20.622 20.4934 21.8823 19.3272 24.2108 19.1097C24.7439 19.0587 25.2162 19.4507 25.2652 19.9838C25.3142 20.517 24.9222 20.9893 24.3911 21.0383C22.7368 21.1932 21.8666 21.987 21.8313 22.0203C21.6432 22.2026 21.4021 22.2927 21.161 22.2927V22.2947Z" fill="#3E3A39"/>
<path id="Vector_13" d="M30.5534 33.563C30.5534 33.563 30.5436 33.563 30.5378 33.563L29.9478 33.5532C29.4127 33.5454 28.9854 33.1044 28.9933 32.5693C29.0011 32.0342 29.4402 31.6109 29.9772 31.6148L30.5671 31.6246C31.1022 31.6324 31.5295 32.0734 31.5217 32.6085C31.5138 33.1397 31.0807 33.563 30.5534 33.563Z" fill="#3E3A39"/>
<path id="Vector_14" d="M36.6297 24.9378L36.5435 24.9402C35.7665 24.9615 35.154 25.6086 35.1753 26.3855L35.1776 26.4717C35.1989 27.2486 35.846 27.8612 36.6229 27.8399L36.7092 27.8375C37.4861 27.8163 38.0986 27.1692 38.0774 26.3922L38.075 26.306C38.0537 25.5291 37.4066 24.9165 36.6297 24.9378Z" fill="#3E3A39"/>
<path id="Vector_15" d="M23.201 25.3058L23.1148 25.3081C22.3378 25.3294 21.7253 25.9765 21.7466 26.7534L21.7489 26.8396C21.7702 27.6166 22.4173 28.2291 23.1942 28.2078L23.2804 28.2055C24.0574 28.1842 24.6699 27.5371 24.6486 26.7602L24.6463 26.674C24.625 25.897 23.9779 25.2845 23.201 25.3058Z" fill="#3E3A39"/>
<path id="Vector_16" d="M30.6743 38.5336C28.2341 38.5336 26.5524 37.434 26.4505 37.3654C26.0056 37.0675 25.886 36.4658 26.1859 36.0209C26.4838 35.5779 27.0836 35.4584 27.5265 35.7524C27.652 35.8327 30.3999 37.5791 33.7907 35.7876C34.265 35.5368 34.851 35.719 35.1 36.1914C35.3508 36.6638 35.1686 37.2518 34.6962 37.5007C33.238 38.271 31.866 38.5336 30.6762 38.5336H30.6743Z" fill="#3E3A39"/>
<path id="Vector_17" d="M15.2081 37.1457C15.1963 37.1457 15.1865 37.1457 15.1747 37.1457C12.8737 37.1163 10.8765 34.0979 10.459 33.4257C6.7781 28.1297 9.69458 25.2623 9.82002 25.1427L9.89058 25.0761L9.9729 25.0251C12.5679 23.3963 14.5358 24.7527 15.2139 25.6954C15.5256 26.1305 15.4276 26.7362 14.9925 27.0478C14.5613 27.3575 13.9595 27.2615 13.6459 26.8342C13.4284 26.548 12.615 25.715 11.1077 26.6029C10.8314 26.9381 9.58874 28.7863 12.0662 32.3379L12.0975 32.3849C12.7953 33.5158 14.2653 35.1955 15.2022 35.2053C15.31 35.2053 15.6334 35.2093 16.045 34.5762C16.337 34.1273 16.9368 33.9999 17.3856 34.292C17.8345 34.584 17.9619 35.1838 17.6698 35.6326C16.8623 36.8772 15.8921 37.1438 15.2081 37.1438V37.1457Z" fill="#3E3A39"/>
<path id="Vector_18" d="M44.611 36.3381C43.9387 36.3381 43.0293 36.0774 42.2139 34.9602C41.8983 34.5271 41.9924 33.9214 42.4256 33.6059C42.8587 33.2903 43.4644 33.3844 43.7799 33.8175C44.2268 34.4271 44.5502 34.4055 44.6561 34.3997C45.589 34.3369 46.9649 32.5808 47.6019 31.4107L47.6294 31.3636C49.8932 27.7063 48.5819 25.9285 48.2683 25.5836C46.7141 24.7839 45.9497 25.6639 45.7497 25.9579C45.4616 26.4087 44.8658 26.5361 44.415 26.248C43.9642 25.9599 43.8348 25.3543 44.1229 24.9035C44.7482 23.9235 46.6396 22.4613 49.3189 23.945L49.4032 23.9921L49.4777 24.0548C49.6109 24.1665 52.6803 26.8693 49.2954 32.3593C48.9171 33.0531 47.0865 36.1774 44.7913 36.3322C44.7345 36.3361 44.6757 36.3381 44.6149 36.3381H44.611Z" fill="#3E3A39"/>
<path id="Vector_19" d="M31.8607 20.3538C31.7764 20.3538 31.6902 20.3421 31.6059 20.3186C24.399 18.3527 21.3668 11.8474 21.2414 11.573C21.0199 11.085 21.2355 10.5107 21.7216 10.2892C22.2077 10.0678 22.782 10.2834 23.0054 10.7694C23.0328 10.8282 25.8062 16.7278 32.1155 18.4487C32.631 18.5898 32.9367 19.123 32.7956 19.6384C32.678 20.0696 32.288 20.3519 31.8607 20.3519V20.3538Z" fill="#3E3A39"/>
<path id="Vector_20" d="M38.2205 20.6815C38.1362 20.6815 38.05 20.6698 37.9657 20.6463C30.798 18.6902 27.2406 12.3123 27.0916 12.0419C26.8349 11.5715 27.0073 10.9835 27.4777 10.7267C27.9462 10.4699 28.5361 10.6424 28.7929 11.1109C28.8262 11.1697 32.1229 17.0438 38.4773 18.7764C38.9947 18.9175 39.2985 19.4507 39.1574 19.9661C39.0398 20.3973 38.6497 20.6796 38.2225 20.6796L38.2205 20.6815Z" fill="#3E3A39"/>
<path id="Vector_21" d="M14.0385 24.6523C13.8229 24.6523 13.6073 24.5818 13.4269 24.4348C13.0114 24.0977 12.9487 23.4861 13.2878 23.0706C17.2842 18.1647 19.9145 13.7469 19.94 13.7018C20.2125 13.2412 20.8063 13.0883 21.2689 13.3627C21.7295 13.6352 21.8824 14.231 21.608 14.6897C21.4982 14.8739 18.8836 19.2702 14.7911 24.2937C14.599 24.5289 14.3207 24.6504 14.0385 24.6504V24.6523Z" fill="#3E3A39"/>
<path id="Vector_22" d="M9.58207 24.6526C9.10971 24.6526 8.69615 24.3076 8.62559 23.8274C7.64951 17.3418 8.66087 12.0576 11.6303 8.12392C15.6463 2.80448 21.74 1.96364 21.9987 1.93032C22.5298 1.86368 23.0159 2.23608 23.0845 2.76724C23.1531 3.2984 22.7788 3.78252 22.2496 3.85308C22.1888 3.86092 16.6714 4.64492 13.163 9.31364C10.5307 12.8162 9.64871 17.6025 10.5425 23.5393C10.6228 24.0685 10.2583 24.5624 9.72907 24.6428C9.68007 24.6506 9.63107 24.6546 9.58403 24.6546L9.58207 24.6526Z" fill="#3E3A39"/>
<path id="Vector_23" d="M48.4928 23.0318C48.3732 23.0318 48.2517 23.0103 48.1341 22.9632C47.6363 22.7653 47.3952 22.2008 47.5932 21.7029C50.886 13.469 42.6657 6.06802 42.3678 5.80538C33.9339 -1.12518 25.2962 2.81246 25.21 2.85362C24.7258 3.08098 24.1476 2.87322 23.9203 2.3891C23.6929 1.90498 23.9007 1.32678 24.3848 1.09942C24.4867 1.05238 26.8975 -0.0648171 30.4745 -0.225537C33.7673 -0.372537 38.7202 0.293862 43.6104 4.3197L43.63 4.33538C43.728 4.41966 46.0546 6.4561 47.942 9.6705C50.492 14.0139 50.9938 18.4239 49.3944 22.4242C49.2435 22.8025 48.8789 23.0338 48.4948 23.0338L48.4928 23.0318Z" fill="#3E3A39"/>
<path id="Vector_24" d="M46.4469 25.2566C46.0627 25.2566 45.6982 25.0254 45.5453 24.6471L44.5261 22.0912C39.7123 20.3174 36.8488 16.3818 36.7272 16.2093C36.4156 15.7742 36.5156 15.1685 36.9507 14.8569C37.3858 14.5452 37.9914 14.6452 38.3031 15.0803C38.3423 15.1332 41.1177 18.92 45.5708 20.4037C45.8413 20.4938 46.0588 20.6996 46.1646 20.9642L47.3485 23.9297C47.5464 24.4276 47.3054 24.9901 46.8075 25.19C46.6899 25.237 46.5684 25.2586 46.4488 25.2586L46.4469 25.2566Z" fill="#3E3A39"/>
<path id="Vector_25" d="M-2.96698 84.8933C-2.96698 84.8933 -2.98266 84.8933 -2.98854 84.8933C-3.52362 84.8815 -3.94894 84.4386 -3.93522 83.9015C-3.76666 76.383 -3.4903 68.3235 -2.71218 65.5618C-0.910944 59.1683 4.35362 56.7928 4.57706 56.6948C4.5849 56.6909 4.5947 56.6869 4.6045 56.683L17.613 51.4283C18.1089 51.2283 18.6753 51.4675 18.8753 51.9633C19.0752 52.4592 18.8361 53.0237 18.3402 53.2256L5.34929 58.4725C5.12585 58.5764 0.668816 60.7128 -0.844304 66.0871C-1.56754 68.6547 -1.83998 76.9788 -1.99678 83.9447C-2.00854 84.4719 -2.43974 84.8913 -2.96502 84.8913L-2.96698 84.8933Z" fill="#3E3A39"/>
<path id="Vector_26" d="M24.2833 85.076C24.2833 85.076 24.2676 85.076 24.2598 85.076C23.7247 85.0622 23.3013 84.6173 23.3151 84.0822L23.709 68.0142C17.4997 62.7712 17.0274 53.8551 17.0097 53.471C16.9862 52.9359 17.3998 52.4831 17.9349 52.4596C18.468 52.4341 18.9227 52.8496 18.9462 53.3828C18.9501 53.471 19.4264 62.1675 25.2907 66.8029C25.5299 66.991 25.6671 67.2831 25.6592 67.5869L25.2535 84.1293C25.2398 84.6565 24.8086 85.074 24.2853 85.074L24.2833 85.076Z" fill="#3E3A39"/>
<path id="Vector_27" d="M63.7986 84.8937C63.2733 84.8937 62.8421 84.4743 62.8303 83.947C62.6735 76.9812 62.4011 68.6571 61.6778 66.0895C60.1569 60.6877 55.7214 58.5846 55.4842 58.4749L41.7544 52.93C41.4702 52.8144 41.2566 52.5713 41.1802 52.2754L40.1472 48.3005L20.4767 48.3809L19.7985 51.4914C19.6848 52.0147 19.1674 52.3459 18.6441 52.2323C18.1208 52.1186 17.7895 51.6011 17.9032 51.0778L18.748 47.2088C18.844 46.7658 19.236 46.4483 19.6907 46.4463L40.892 46.3601H40.896C41.337 46.3601 41.7231 46.658 41.8348 47.0853L42.9344 51.3169L56.229 56.6854C56.229 56.6854 56.2467 56.6932 56.2565 56.6971C56.4799 56.7951 61.7445 59.1707 63.5457 65.5642C64.3238 68.3258 64.6002 76.3853 64.7688 83.9039C64.7805 84.439 64.3572 84.8819 63.8221 84.8957C63.8142 84.8957 63.8064 84.8957 63.8005 84.8957L63.7986 84.8937Z" fill="#3E3A39"/>
<path id="Vector_28" d="M37.9523 85.0754C37.429 85.0754 36.9959 84.656 36.9841 84.1307L36.5784 67.5883C36.5725 67.3276 36.6705 67.0748 36.8528 66.8886C42.1918 61.3967 42.5897 54.4602 42.5936 54.3916C42.6191 53.8566 43.0758 53.4469 43.6069 53.4704C44.142 53.4959 44.5536 53.9487 44.5301 54.4818C44.5164 54.7895 44.1244 61.9631 38.5266 67.9411L38.9225 84.0817C38.9363 84.6168 38.5129 85.0617 37.9778 85.0754C37.97 85.0754 37.9621 85.0754 37.9543 85.0754H37.9523Z" fill="#3E3A39"/>
</g>
</g>
</g>
</g>
<defs>
<clipPath id="clip0_536_47976">
<rect width="79.7563" height="92.0004" fill="white" transform="translate(-8.96289 -5.3916)"/>
</clipPath>
</defs>
</svg>
