<svg width="122" height="119" viewBox="0 0 122 119" fill="none" xmlns="http://www.w3.org/2000/svg">
<g id="c3-2">
<path id="Vector" d="M85.3089 25.2556C85.3089 11.7412 74.3555 0.785645 60.8439 0.785645C47.3323 0.785645 36.3789 11.7412 36.3789 25.2556V32.3157C36.3789 45.8301 47.3323 56.7856 60.8439 56.7856C74.3555 56.7856 85.3089 45.8301 85.3089 32.3157V25.2556Z" fill="#684941"/>
<path id="Vector_2" d="M28.8352 82.4144C34.0643 77.1853 34.0643 68.7072 28.8351 63.4781C23.606 58.249 15.128 58.249 9.89883 63.4781C4.66971 68.7072 4.6697 77.1853 9.89882 82.4144C15.1279 87.6436 23.606 87.6436 28.8352 82.4144Z" fill="#F7B88D"/>
<path id="Vector_3" d="M111.804 82.4159C117.033 77.1868 117.033 68.7087 111.804 63.4796C106.575 58.2505 98.0967 58.2505 92.8676 63.4796C87.6384 68.7087 87.6385 77.1868 92.8676 82.4159C98.0967 87.645 106.575 87.645 111.804 82.4159Z" fill="#F7B88D"/>
<path id="Vector_4" d="M60.8488 118.866C36.3588 118.866 16.5088 99.0155 16.5088 74.5255V61.7255C16.5088 37.2355 36.5588 20.4155 61.0488 20.4155C85.5388 20.4155 105.189 37.2355 105.189 61.7255V74.5255C105.189 99.0155 85.3388 118.866 60.8488 118.866Z" fill="#FFCD9F"/>
<path id="Vector_5" d="M46.819 68.8856C46.819 72.1256 44.279 74.7556 41.139 74.7556C37.999 74.7556 35.459 72.1256 35.459 68.8856C35.459 65.6456 37.999 63.0156 41.139 63.0156C44.279 63.0156 46.819 65.6456 46.819 68.8856Z" fill="#442106"/>
<path id="Vector_6" d="M86.2292 68.8856C86.2292 72.1256 83.6892 74.7556 80.5492 74.7556C77.4092 74.7556 74.8691 72.1256 74.8691 68.8856C74.8691 65.6456 77.4092 63.0156 80.5492 63.0156C83.6892 63.0156 86.2292 65.6456 86.2292 68.8856Z" fill="#442106"/>
<path id="Vector_7" d="M60.8492 102.966C53.4992 102.966 46.9492 98.2958 44.5392 91.3458C44.1292 90.1658 44.7592 88.8658 45.9492 88.4558C47.1292 88.0558 48.4292 88.6757 48.8392 89.8657C50.6092 94.9857 55.4392 98.4358 60.8492 98.4358C66.2592 98.4358 71.0892 94.9957 72.8592 89.8657C73.2692 88.6857 74.5592 88.0558 75.7492 88.4558C76.9392 88.8658 77.5592 90.1558 77.1492 91.3458C74.7492 98.2958 68.1892 102.966 60.8392 102.966H60.8492Z" fill="#9E5747"/>
<path id="Vector_8" d="M60.8495 16.8354C36.9095 16.8354 17.2095 35.5555 16.0195 59.4454C16.0195 59.5955 16.0695 59.7455 16.1695 59.8555C16.2695 59.9655 16.4195 60.0255 16.5695 60.0255C34.9995 59.6954 63.3595 50.9255 76.7695 38.3555C80.9195 45.4855 94.0795 57.2755 104.99 59.9454C105.16 59.9855 105.34 59.9454 105.47 59.8354C105.6 59.7254 105.68 59.5555 105.67 59.3855C104.44 35.5255 84.7495 16.8354 60.8395 16.8354H60.8495Z" fill="#825E51"/>
<path id="Vector_9" d="M37.3493 91.4255C36.9893 91.4255 36.6193 91.3355 36.2793 91.1555C35.1693 90.5655 34.7493 89.1855 35.3393 88.0855C36.4493 85.9955 38.0694 84.0955 38.1394 84.0155C38.9494 83.0655 40.3893 82.9555 41.3393 83.7655C42.2893 84.5755 42.3993 86.0155 41.5893 86.9655C41.5793 86.9855 40.2193 88.5755 39.3493 90.2155C38.9393 90.9855 38.1493 91.4155 37.3393 91.4155L37.3493 91.4255Z" fill="#E59E7A"/>
<path id="Vector_10" d="M84.3386 91.4254C83.5286 91.4254 82.7386 90.9854 82.3286 90.2254C81.5986 88.8554 80.4586 87.4154 80.0786 86.9754C79.2586 86.0254 79.3686 84.5854 80.3286 83.7754C81.2786 82.9554 82.7186 83.0654 83.5286 84.0254C83.5986 84.1054 85.2186 86.0054 86.3286 88.0954C86.9186 89.2054 86.4986 90.5754 85.3986 91.1654C85.0586 91.3454 84.6886 91.4354 84.3286 91.4354L84.3386 91.4254Z" fill="#E59E7A"/>
</g>
</svg>
