<svg width="60" height="60" viewBox="0 0 60 60" fill="none" xmlns="http://www.w3.org/2000/svg">
<g id="30" clip-path="url(#clip0_536_47653)">
<g id="Clip path group">
<mask id="mask0_536_47653" style="mask-type:luminance" maskUnits="userSpaceOnUse" x="-9" y="-4" width="81" height="81">
<g id="clippath">
<path id="Vector" d="M60.0738 64.3724C75.6472 48.799 75.6472 23.5496 60.0738 7.9762C44.5005 -7.59719 19.251 -7.59719 3.67761 7.9762C-11.8958 23.5496 -11.8958 48.799 3.67761 64.3724C19.251 79.9458 44.5005 79.9458 60.0738 64.3724Z" fill="white"/>
</g>
</mask>
<g mask="url(#mask0_536_47653)">
<g id="Group">
<g id="Clip path group_2">
<mask id="mask1_536_47653" style="mask-type:luminance" maskUnits="userSpaceOnUse" x="-12" y="-1" width="87" height="80">
<g id="clippath_2">
<path id="Vector_2" d="M74.2297 -0.914062H-11.9209V78.2261H74.2297V-0.914062Z" fill="white"/>
</g>
</mask>
<g mask="url(#mask1_536_47653)">
<g id="Group_2">
<path id="Vector_3" d="M13.8645 55.2365L23.0248 51.1569L22.7896 48.686L29.7264 55.6809L38.642 48.686L44.613 54.0185L47.2284 154.614C47.2284 154.614 21.2874 156.813 12.9033 155.221L13.8661 55.2365H13.8645Z" fill="white"/>
<path id="Vector_4" d="M22.4912 39.5063V48.3039L29.7275 55.6817L30.88 55.1617L38.6416 48.6868V40.5038L22.4912 39.5063Z" fill="white"/>
<path id="Vector_5" d="M-8.04913 87.0083L-9.63281 114.214L-7.82491 151.596L-7.03464 159.568L6.40155 161.888L7.33765 98.8093L8.38664 56.3926C8.38664 56.3926 -4.04916 59.1045 -7.05345 69.908L-8.04913 87.0083Z" fill="#3ED8E9"/>
<path id="Vector_6" d="M2.84473 77.2471L4.20575 162.995L19.7854 163.174L19.3809 52.5752L4.99916 57.8824L2.84473 77.2471Z" fill="#3ED8E9"/>
<path id="Vector_7" d="M49.7019 28.4662C47.9191 26.2601 45.4997 27.7287 45.4997 27.7287L45.3931 16.3438L38.4452 12.6328L30.4798 12.7368L29.39 12.751L21.4246 12.855L14.574 16.7456L14.7684 28.6427C14.7684 28.6427 12.4901 26.4429 10.7653 28.6947C10.7653 28.6947 8.5184 33.6332 15.1307 38.1052C15.1307 38.1052 16.9213 37.653 17.3509 36.8682C17.3509 36.8682 20.6626 48.9355 30.392 48.2784C40.134 48.6834 43.2763 36.7327 43.2763 36.7327C43.7263 37.5064 45.3884 37.7129 45.3884 37.7129C52.4757 33.1132 49.7019 28.4678 49.7019 28.4678V28.4662Z" fill="white"/>
<path id="Vector_8" d="M30.2145 49.2143C26.213 49.2143 22.881 46.8018 22.4795 46.5008C16.9257 42.9018 15.952 34.9425 15.9128 34.6037C15.8516 34.0759 16.2279 33.6 16.7532 33.5385C17.2769 33.4786 17.752 33.8552 17.8132 34.3831C17.821 34.4556 18.732 41.8082 23.5427 44.9014C23.5662 44.9172 23.5881 44.9329 23.6101 44.9487C23.6399 44.9723 26.7962 47.3612 30.3885 47.2887C33.9981 47.2682 37.0886 44.7974 37.12 44.7722C37.1403 44.7549 37.1639 44.7391 37.1858 44.7234C41.9149 41.5072 42.6362 34.1326 42.6425 34.0585C42.6911 33.5306 43.1552 33.1398 43.6805 33.1887C44.2058 33.236 44.5946 33.7024 44.5476 34.2303C44.5178 34.5691 43.7495 42.5504 38.2897 46.2928C37.8899 46.6096 34.5187 49.186 30.4136 49.2096C30.3462 49.2096 30.2803 49.2112 30.2129 49.2112L30.2145 49.2143Z" fill="#3E3A39"/>
<path id="Vector_9" d="M37.8527 23.5455C37.7429 23.5455 37.6301 23.5266 37.5203 23.4856C36.1013 22.9562 35.0774 23.265 35.0334 23.2792C34.5333 23.4478 33.9954 23.1752 33.8277 22.6725C33.6599 22.1698 33.9343 21.6231 34.4345 21.4544C34.6022 21.3977 36.1373 20.9218 38.1851 21.6845C38.6806 21.8689 38.9331 22.422 38.7496 22.9199C38.6069 23.3076 38.2416 23.5471 37.8527 23.5471V23.5455Z" fill="#3E3A39"/>
<path id="Vector_10" d="M25.3145 23.6248C25.1907 23.6248 25.0636 23.6012 24.9429 23.5492C24.8849 23.5255 23.8939 23.141 22.4498 23.5429C21.9402 23.6847 21.4133 23.3837 21.2722 22.8731C21.1311 22.361 21.4306 21.8316 21.9386 21.6897C24.0429 21.1051 25.5325 21.7102 25.6955 21.7811C26.1801 21.9923 26.4027 22.558 26.1926 23.0449C26.0358 23.4073 25.6846 23.6232 25.3145 23.6232V23.6248Z" fill="#3E3A39"/>
<path id="Vector_11" d="M36.4881 26.0682L36.441 26.0688C35.7137 26.0783 35.1316 26.6785 35.141 27.4095L35.1416 27.4567C35.151 28.1877 35.7483 28.7726 36.4757 28.7632L36.5227 28.7626C37.2501 28.7531 37.8321 28.1529 37.8227 27.4219L37.8221 27.3747C37.8127 26.6437 37.2154 26.0588 36.4881 26.0682Z" fill="#3E3A39"/>
<path id="Vector_12" d="M24.0231 26.2319L24.0701 26.2313C24.796 26.2221 25.3945 26.8071 25.4037 27.5382L25.4043 27.5855C25.4134 28.315 24.8313 28.9165 24.1038 28.9257L24.0568 28.9263C23.3308 28.9354 22.7323 28.3505 22.7232 27.6194L22.7226 27.5721C22.7135 26.8426 23.2956 26.2427 24.0215 26.2335L24.0231 26.2319Z" fill="#3E3A39"/>
<path id="Vector_13" d="M30.5926 35.2524C30.5832 35.2524 30.5738 35.2524 30.5628 35.2524L29.9419 35.2335C29.4134 35.2177 28.9979 34.7749 29.0152 34.2439C29.0308 33.7129 29.4715 33.2937 29.9999 33.3126L30.6208 33.3315C31.1492 33.3473 31.5647 33.7901 31.5475 34.3211C31.5318 34.8427 31.1069 35.254 30.5926 35.254V35.2524Z" fill="#3E3A39"/>
<path id="Vector_14" d="M23.0237 52.1179C22.5094 52.1179 22.0861 51.7082 22.0688 51.1882C22.0155 49.5762 21.5451 45.7045 21.5404 45.6667C21.4761 45.1403 21.8493 44.6597 22.373 44.5951C22.8952 44.5305 23.375 44.9056 23.4393 45.4319C23.4596 45.5942 23.9238 49.4265 23.9802 51.1236C23.9975 51.6546 23.5835 52.099 23.0567 52.1163C23.0457 52.1163 23.0347 52.1163 23.0237 52.1163V52.1179Z" fill="#3E3A39"/>
<path id="Vector_15" d="M38.856 51.4369C38.3495 51.4369 37.9261 51.0366 37.901 50.5213C37.8023 48.4807 37.9183 44.7902 37.923 44.6342C37.9402 44.1032 38.3793 43.6888 38.9093 43.7045C39.4377 43.7219 39.8516 44.1647 39.8344 44.6957C39.8344 44.7335 39.7168 48.4665 39.8109 50.4299C39.836 50.961 39.4298 51.4117 38.9014 51.4369C38.8857 51.4369 38.8701 51.4369 38.8544 51.4369H38.856Z" fill="#3E3A39"/>
<path id="Vector_16" d="M15.6509 38.4753C15.629 38.4753 15.6054 38.4753 15.5835 38.4753C13.4432 38.417 11.6353 35.5932 11.2558 34.9598C7.92067 29.9913 10.6741 27.3551 10.7917 27.2448C10.8387 27.2022 10.8889 27.1628 10.9438 27.1297C13.3867 25.6422 15.2072 26.9406 15.8281 27.8357L14.2585 28.9356L14.2664 28.9466C14.0798 28.6961 13.3804 27.9554 12.0429 28.7087C11.767 29.0459 10.6913 30.6941 12.8536 33.9024C12.8646 33.9182 12.874 33.9339 12.8834 33.9497C13.5012 34.985 14.8026 36.5292 15.6337 36.5513C15.7246 36.5545 15.9927 36.5608 16.3581 36.0155C16.6529 35.5743 17.2471 35.4577 17.6862 35.754C18.1252 36.0502 18.2412 36.6474 17.9465 37.0886C17.186 38.2263 16.2907 38.4753 15.6493 38.4753H15.6509Z" fill="#3E3A39"/>
<path id="Vector_17" d="M38.8288 12.249C38.8288 12.249 37.9821 15.3958 32.9378 17.2931L28.1805 16.2625L19.8905 17.2931L16.3123 18.9965L15.3182 27.419L12.5334 26.4783C12.5334 26.4783 7.26338 13.3363 14.5656 6.97017C14.5656 6.97017 23.9469 -3.36376 37.8504 4.18105C37.8504 4.18105 43.2521 4.26141 44.61 6.06883C44.61 6.06883 50.6154 14.8207 47.0545 26.5618L44.61 26.0244L40.643 17.2946C40.643 17.2946 38.3756 14.8979 38.8272 12.2506L38.8288 12.249Z" fill="#816047"/>
<path id="Vector_18" d="M32.9406 18.2559C32.5706 18.2559 32.2193 18.0384 32.0625 17.676C31.8524 17.1891 32.0751 16.6234 32.5596 16.4122C36.5078 14.6931 37.9614 11.8488 37.9755 11.8189C38.2122 11.3445 38.7861 11.1523 39.2597 11.3887C39.7316 11.6266 39.9229 12.2033 39.6877 12.6792C39.6172 12.8211 37.9018 16.1822 33.3216 18.1755C33.1978 18.2291 33.0692 18.2543 32.9422 18.2543L32.9406 18.2559Z" fill="#3E3A39"/>
<path id="Vector_19" d="M25.3145 18.2561C24.9162 18.2561 24.5446 18.004 24.4082 17.6038C24.2388 17.1011 24.507 16.5559 25.0072 16.3841C28.336 15.2495 30.6441 11.6111 30.6676 11.5733C30.9483 11.1242 31.5394 10.9886 31.9863 11.2707C32.4332 11.5528 32.5696 12.1453 32.289 12.5944C32.1808 12.7677 29.6061 16.8458 25.6218 18.2041C25.5199 18.2388 25.4164 18.2546 25.3145 18.2546V18.2561Z" fill="#3E3A39"/>
<path id="Vector_20" d="M15.8893 26.6142C15.8391 26.6142 15.7873 26.6095 15.7356 26.6016C15.2135 26.5165 14.8607 26.0233 14.9438 25.4985L15.9206 19.4397C15.9755 19.0993 16.2076 18.8141 16.529 18.6928C20.6936 17.1233 23.0441 13.094 23.0676 13.0546C23.331 12.5945 23.9159 12.4369 24.3737 12.7033C24.8316 12.968 24.9884 13.5557 24.7234 14.0159C24.6183 14.1987 22.1895 18.3603 17.7223 20.2827L16.8316 25.8058C16.7564 26.2786 16.3503 26.6142 15.8893 26.6142Z" fill="#3E3A39"/>
<path id="Vector_21" d="M10.5754 13.5951C10.4609 13.5951 10.3464 13.5746 10.2335 13.5305C9.73961 13.3414 9.49344 12.7852 9.68317 12.2888C9.76627 12.0682 11.7953 6.8634 17.0402 3.40772C18.9406 2.15498 22.0923 0.613872 26.3181 0.37593C30.3306 0.150594 34.3651 1.14648 38.3164 3.33839C38.779 3.59524 38.9468 4.17985 38.6912 4.64471C38.4356 5.10956 37.8539 5.27817 37.3913 5.02132C27.9284 -0.227592 20.7407 3.26905 18.0892 5.01501C13.357 8.13347 11.4879 12.927 11.4707 12.9758C11.3249 13.3587 10.9627 13.5935 10.5769 13.5935L10.5754 13.5951Z" fill="#3E3A39"/>
<path id="Vector_22" d="M12.9039 26.614C12.5668 26.614 12.2406 26.4359 12.0666 26.1192C9.63304 21.7055 9.96232 15.8105 9.97643 15.5615C10.0094 15.032 10.4625 14.6271 10.9894 14.6617C11.5162 14.6948 11.9176 15.1502 11.8847 15.6797C11.8816 15.7348 11.5789 21.2721 13.7381 25.1879C13.9936 25.6528 13.8274 26.2374 13.3649 26.4942C13.2175 26.5762 13.0591 26.6156 12.9023 26.6156L12.9039 26.614Z" fill="#3E3A39"/>
<path id="Vector_23" d="M44.6133 26.0692C44.2997 26.0692 43.994 25.9148 43.8105 25.6312C43.7603 25.5524 43.7086 25.4736 43.6584 25.3948C40.6745 20.7148 39.7447 16.0016 39.7071 15.8031C39.6067 15.2815 39.9454 14.7772 40.4644 14.6764C40.9818 14.5755 41.4852 14.9159 41.5855 15.4375C41.5981 15.5037 42.4997 20.0104 45.2703 24.3564C45.3189 24.432 45.3675 24.5077 45.4162 24.5833C45.7031 25.0292 45.5777 25.6233 45.1355 25.9132C44.974 26.0188 44.7937 26.0677 44.6149 26.0677L44.6133 26.0692Z" fill="#3E3A39"/>
<path id="Vector_24" d="M48.0355 26.0689C47.9759 26.0689 47.9163 26.0626 47.8567 26.0515C47.3377 25.9522 46.9975 25.4496 47.0947 24.928C48.4102 17.9631 47.8411 12.6779 45.4044 9.22066C43.2939 6.22511 40.5295 5.77129 40.5028 5.76656C39.9807 5.6862 39.6216 5.19613 39.7016 4.6714C39.7815 4.14667 40.2692 3.78581 40.7913 3.86618C40.9372 3.88824 44.3915 4.45394 46.9677 8.10974C49.7164 12.0098 50.3922 17.7882 48.9763 25.2857C48.8885 25.7474 48.4886 26.0673 48.0371 26.0673L48.0355 26.0689Z" fill="#3E3A39"/>
<path id="Vector_25" d="M42.1201 51.1426L43.1738 113.337L43.754 162.835L59.8746 162.476L59.5955 121.181V104.027L61.5806 60.1403L42.1201 51.1426Z" fill="#3ED8E9"/>
<path id="Vector_26" d="M42.7604 88.3059C42.2399 88.3059 41.8134 87.8852 41.804 87.3604C41.517 69.5463 41.2771 55.3942 41.2755 55.254C41.2661 54.723 41.6879 54.2849 42.2163 54.277C42.7385 54.2676 43.1807 54.6914 43.1885 55.2225C43.1916 55.3627 43.4315 69.5163 43.7169 87.3305C43.7248 87.8615 43.3045 88.298 42.7761 88.3075C42.7714 88.3075 42.7651 88.3075 42.7604 88.3075V88.3059Z" fill="#3E3A39"/>
<path id="Vector_27" d="M54.351 56.3926C54.351 56.3926 65.3427 60.2895 68.2043 67.4183L70.7836 86.4237L72.3218 119.491L69.9604 159.864C69.9604 159.864 59.1945 162.921 50.8418 158.076L56.9162 116.097L52.2922 61.1514L54.351 56.3926Z" fill="#3ED8E9"/>
<path id="Vector_28" d="M70.9102 89.6356C70.4069 89.6356 69.9851 89.2401 69.9569 88.7295L69.3689 78.3656C69.267 77.614 69.176 76.8891 69.0882 76.1879C68.1976 69.0938 67.6598 64.8108 60.0346 60.3135C59.779 60.1623 59.4921 60.0205 59.1832 59.8912L40.2794 52.0439C39.7917 51.8406 39.5581 51.2796 39.7603 50.788C39.9626 50.2979 40.5208 50.0647 41.01 50.2664L59.9154 58.1138C60.3074 58.2776 60.6712 58.4589 61.002 58.6543C69.4395 63.6306 70.087 68.7959 70.9855 75.9452C71.0749 76.6528 71.1658 77.3839 71.2677 78.1434C71.2709 78.1687 71.274 78.1923 71.2756 78.2175L71.8667 88.6176C71.8965 89.1471 71.4935 89.6025 70.9667 89.6324C70.9479 89.6324 70.9291 89.6324 70.9118 89.6324L70.9102 89.6356Z" fill="#3E3A39"/>
<path id="Vector_29" d="M-9.0074 90.8599C-9.02622 90.8599 -9.04347 90.8599 -9.06228 90.8599C-9.58913 90.83 -9.99211 90.3761 -9.96232 89.8451L-9.30219 78.2222C-9.30219 78.197 -9.29905 78.1733 -9.29435 78.1481C-9.19243 77.3886 -9.09992 76.6575 -9.01211 75.9499C-8.11364 68.8006 -7.46606 63.6352 0.971347 58.6589C1.30063 58.4651 1.66597 58.2823 2.05483 58.12C2.06581 58.1153 2.07835 58.1106 2.08933 58.1058L20.5384 51.2166C21.0339 51.0306 21.5843 51.2859 21.7677 51.7823C21.9512 52.2786 21.6987 52.8333 21.2048 53.0177L2.77298 59.8991C2.47035 60.0267 2.18968 60.167 1.9388 60.3135C-5.68638 64.8108 -6.2242 69.0937 -7.11483 76.1879C-7.20264 76.8891 -7.29358 77.6139 -7.3955 78.3656L-8.05406 89.9523C-8.08385 90.4644 -8.50408 90.8583 -9.0074 90.8583V90.8599Z" fill="#3E3A39"/>
<path id="Vector_30" d="M30.1662 40.4682C27.2466 40.4682 25.5328 39.7575 25.4277 39.7134C24.9416 39.5054 24.7143 38.9412 24.9213 38.4527C25.1267 37.9658 25.6864 37.7373 26.1725 37.9422C26.2321 37.9674 29.5892 39.3037 34.9345 37.8981C35.4457 37.7641 35.9678 38.0714 36.1027 38.5851C36.236 39.0988 35.9302 39.6235 35.419 39.7591C33.3994 40.2901 31.6323 40.4682 30.1678 40.4682H30.1662Z" fill="#3E3A39"/>
<path id="Vector_31" d="M18.7397 88.3026C18.2113 88.3026 17.7832 87.8724 17.7832 87.3413C17.791 69.5067 17.8632 55.3736 17.8632 55.2334C17.8663 54.7039 18.2944 54.2769 18.8197 54.2769H18.8244C19.3528 54.28 19.7793 54.7118 19.7761 55.2428C19.7761 55.3831 19.7024 69.5115 19.6962 87.3429C19.6962 87.874 19.2681 88.3041 18.7397 88.3041V88.3026Z" fill="#3E3A39"/>
<path id="Vector_32" d="M45.1297 38.4359C44.4899 38.4359 43.6166 38.1869 42.8482 37.098C42.5425 36.6647 42.6444 36.0643 43.0756 35.7586C43.5068 35.4513 44.1042 35.5538 44.4084 35.9871C44.7926 36.5323 45.067 36.5181 45.1579 36.5134C45.9984 36.4693 47.2731 34.8746 47.8705 33.8094C47.88 33.7936 47.8894 33.7779 47.8988 33.7621C50.0015 30.4577 48.8662 28.8157 48.5793 28.4833C47.2057 27.7537 46.5158 28.5242 46.3339 28.7842L45.5436 28.2437L44.7455 27.7143C45.3476 26.7956 47.1446 25.4389 49.6408 26.876C49.6957 26.9075 49.7474 26.9453 49.7945 26.9863C49.9168 27.0934 52.7533 29.6777 49.5248 34.7737C49.161 35.4214 47.4127 38.3177 45.2598 38.4327C45.2175 38.4343 45.1736 38.4359 45.1281 38.4359H45.1297Z" fill="#3E3A39"/>
<path id="Vector_33" d="M30.6191 61.6039C28.7454 61.6039 27.1397 61.2446 25.843 60.7782C22.2288 59.4766 20.2233 57.1114 20.1402 57.0121C19.7999 56.6055 19.8532 55.9989 20.2578 55.6585C20.6623 55.3181 21.2644 55.3701 21.6031 55.7735C21.6204 55.794 23.4142 57.8866 26.5721 58.9976C30.7791 60.4788 35.3357 59.6105 40.1165 56.418C40.5571 56.1249 41.1498 56.2447 41.443 56.6859C41.7347 57.1287 41.6155 57.7243 41.1749 58.019C37.1169 60.7278 33.5434 61.6039 30.6191 61.6039Z" fill="#3E3A39"/>
</g>
</g>
</g>
</g>
</g>
</g>
</g>
<defs>
<clipPath id="clip0_536_47653">
<rect width="79.7563" height="90.3599" fill="white" transform="translate(-8 -3.7041)"/>
</clipPath>
</defs>
</svg>
