<svg width="102" height="122" viewBox="0 0 102 122" fill="none" xmlns="http://www.w3.org/2000/svg">
<g id="_&#231;&#147;&#166;?1" clip-path="url(#clip0_187_3233)">
<g id="Vector">
<path d="M101 29.9995V110.04H11.7002V0.999512H101V24.6295" fill="white"/>
<path d="M101 29.9995V110.04H11.7002V0.999512H101V24.6295" stroke="#003B7F" stroke-width="2" stroke-linecap="round" stroke-linejoin="round"/>
</g>
<path id="Vector_2" d="M95.6301 6.36963H6.33008V115.41H95.6301V6.36963Z" fill="white" stroke="#003B7F" stroke-width="2" stroke-linecap="round" stroke-linejoin="round"/>
<path id="Vector_3" d="M90.3 11.8696H1V120.91H90.3V11.8696Z" fill="white" stroke="#003B7F" stroke-width="2" stroke-linecap="round" stroke-linejoin="round"/>
<path id="Vector_4" d="M26.25 47.3997L37.03 36.6097L46.5 46.0797L62.84 29.7397" stroke="#2D83F3" stroke-width="2" stroke-linecap="round" stroke-linejoin="round"/>
<path id="Vector_5" d="M53.0303 31.7597L62.8403 29.7397L60.8303 39.5597" stroke="#2D83F3" stroke-width="2" stroke-linecap="round" stroke-linejoin="round"/>
<path id="Vector_6" d="M70.4297 39.5593C76.7397 46.0593 80.6197 54.9193 80.6197 64.6893C80.6197 84.6193 64.4697 100.769 44.5397 100.769C24.6097 100.769 8.46973 84.6093 8.46973 64.6893C8.46973 54.9193 12.3597 46.0493 18.6697 39.5493" stroke="#2D83F3" stroke-width="2" stroke-linecap="round" stroke-linejoin="round"/>
<path id="Vector_7" d="M33.64 61.9595H26.25V76.1695H33.64V61.9595Z" stroke="#2D83F3" stroke-width="2" stroke-linecap="round" stroke-linejoin="round"/>
<path id="Vector_8" d="M43.3705 56.3594H35.9805V76.1694H43.3705V56.3594Z" stroke="#2D83F3" stroke-width="2" stroke-linecap="round" stroke-linejoin="round"/>
<path id="Vector_9" d="M53.1097 52.6597H45.7197V76.1597H53.1097V52.6597Z" stroke="#2D83F3" stroke-width="2" stroke-linecap="round" stroke-linejoin="round"/>
<path id="Vector_10" d="M62.85 58.1895H55.46V76.1595H62.85V58.1895Z" stroke="#2D83F3" stroke-width="2" stroke-linecap="round" stroke-linejoin="round"/>
<path id="Vector_11" d="M20.6504 81.5293H68.4404" stroke="#2D83F3" stroke-width="2" stroke-linecap="round" stroke-linejoin="round"/>
</g>
<defs>
<clipPath id="clip0_187_3233">
<rect width="102" height="121.91" fill="white" transform="translate(0 -0.000488281)"/>
</clipPath>
</defs>
</svg>
