<svg width="127" height="97" viewBox="0 0 127 97" fill="none" xmlns="http://www.w3.org/2000/svg">
<g clip-path="url(#clip0_880_48853)">
<path d="M28.1303 42.787C32.7903 43.295 36.9783 39.927 37.4863 35.267C37.9943 30.607 34.6263 26.419 29.9663 25.911C25.3063 25.403 21.1183 28.771 20.6103 33.431C20.1023 38.091 23.4703 42.279 28.1303 42.787Z" fill="white"/>
<path d="M28.5223 76.7306H16.2943C13.4183 76.7306 10.9663 74.6747 10.4663 71.8426L6.28226 48.1947C5.99826 46.5907 4.47026 45.5187 2.87026 45.8107C1.26626 46.0947 0.198259 47.6187 0.482259 49.2227L4.67026 72.8706C5.67026 78.5186 10.5583 82.6226 16.2983 82.6226H26.4503V93.3386C26.4503 94.9626 27.7663 96.2826 29.3943 96.2826C31.0223 96.2826 32.3383 94.9626 32.3383 93.3386V80.5466C32.3383 78.4426 30.6263 76.7346 28.5263 76.7346L28.5223 76.7306Z" fill="white"/>
<path d="M38.1624 64.351H30.4384L32.4464 55.167L37.8944 57.795C38.4264 58.051 39.0104 58.183 39.5984 58.183C39.6584 58.183 39.7144 58.183 39.7744 58.183L47.9944 57.815C50.1624 57.719 51.8384 55.883 51.7424 53.715C51.6464 51.551 49.7904 49.875 47.6464 49.967L40.4144 50.291C40.4144 50.291 32.1864 45.999 31.1704 45.759C30.0264 45.491 25.3584 44.475 25.3584 44.475C23.7144 44.119 22.0264 44.423 20.6144 45.343C19.2024 46.259 18.2344 47.675 17.8904 49.323L14.4624 65.791C14.0864 67.603 14.5384 69.463 15.7064 70.899C16.8744 72.335 18.6024 73.155 20.4544 73.155H34.0824C34.9624 73.155 35.6744 73.867 35.6744 74.747V91.719C35.6744 94.151 37.6424 96.119 40.0744 96.119C42.5064 96.119 44.4744 94.147 44.4744 91.719V70.667C44.4744 67.179 41.6504 64.351 38.1624 64.351Z" fill="white"/>
<path d="M98.6547 42.787C103.315 42.279 106.683 38.091 106.175 33.431C105.667 28.771 101.479 25.403 96.8187 25.911C92.1587 26.419 88.7907 30.607 89.2987 35.267C89.8067 39.927 93.9947 43.295 98.6547 42.787Z" fill="white"/>
<path d="M123.914 45.8115C122.314 45.5195 120.786 46.5955 120.502 48.1955L116.318 71.8435C115.818 74.6755 113.366 76.7315 110.49 76.7315H98.2622C96.1582 76.7315 94.4502 78.4395 94.4502 80.5435V93.3355C94.4502 94.9595 95.7662 96.2795 97.3942 96.2795C99.0222 96.2795 100.338 94.9595 100.338 93.3355V82.6195H110.49C116.226 82.6195 121.118 78.5195 122.118 72.8675L126.302 49.2195C126.586 47.6155 125.518 46.0875 123.914 45.8075V45.8115Z" fill="white"/>
<path d="M111.078 70.8944C112.246 69.4584 112.698 67.5984 112.322 65.7864L108.894 49.3184C108.55 47.6704 107.586 46.2584 106.17 45.3384C104.758 44.4224 103.07 44.1144 101.426 44.4704C101.426 44.4704 96.754 45.4864 95.614 45.7544C94.598 45.9944 86.37 50.2864 86.37 50.2864L79.138 49.9624C76.994 49.8704 75.138 51.5424 75.042 53.7104C74.946 55.8784 76.622 57.7104 78.79 57.8104L87.01 58.1784C87.07 58.1784 87.126 58.1784 87.186 58.1784C87.774 58.1784 88.358 58.0464 88.89 57.7904L94.338 55.1624L96.346 64.3464H88.622C85.134 64.3464 82.306 67.1744 82.306 70.6624V91.7144C82.306 94.1464 84.278 96.1144 86.706 96.1144C89.134 96.1144 91.106 94.1424 91.106 91.7144V74.7424C91.106 73.8624 91.818 73.1504 92.698 73.1504H106.326C108.178 73.1504 109.906 72.3264 111.074 70.8944H111.078Z" fill="white"/>
<path d="M76.7981 61.127H49.9821C48.3541 61.127 47.0381 62.447 47.0381 64.071C47.0381 65.695 48.3541 67.015 49.9821 67.015H60.4461V93.335C60.4461 94.959 61.7621 96.279 63.3901 96.279C65.0181 96.279 66.3341 94.959 66.3341 93.335V67.015H76.7981C78.4221 67.015 79.7421 65.695 79.7421 64.071C79.7421 62.447 78.4221 61.127 76.7981 61.127Z" fill="white"/>
<path d="M63.4062 0.69043C73.4339 0.690689 81.5653 8.82279 81.5654 18.8506C81.5654 21.5185 80.9774 24.0504 79.9374 26.3184L84.4179 34.8271H84.4257C85.0933 36.107 83.9176 37.5747 82.5058 37.1748L72.7978 34.4023C70.0499 36.0543 66.8779 37.0429 63.4101 37.043C59.9421 37.043 56.7421 36.0543 53.9941 34.4023L44.2861 37.1748C42.8741 37.5748 41.6984 36.1071 42.3661 34.8271L46.8456 26.3184C45.8057 24.0504 45.2177 21.5185 45.2177 18.8506C45.2178 8.82263 53.3782 0.69043 63.4062 0.69043Z" fill="#1A00C1"/>
<g clip-path="url(#clip1_880_48853)">
<path d="M75.6116 12.25H74.4584V10.9772C74.4584 10.7561 74.3627 10.5532 74.1952 10.4155C74.022 10.2777 73.8067 10.2183 73.5922 10.2603L63.4299 12.2377L53.2735 10.2603C53.0582 10.2183 52.8372 10.2785 52.6704 10.4155C52.503 10.5532 52.4015 10.7561 52.4015 10.9772V12.2493H51.2548C50.8489 12.2493 50.5264 12.5719 50.5264 12.972V26.6468C50.5264 27.0469 50.8489 27.3694 51.2548 27.3694H58.1372C58.3162 26.5214 58.6924 25.7443 59.2186 25.0934L53.8599 24.0482V11.8615L62.7015 13.5823V23.111C62.9407 23.0813 63.1857 23.0632 63.4307 23.0632C63.6757 23.0632 63.9207 23.0813 64.1599 23.111V13.5823L73.0014 11.8615V24.0489L67.6485 25.0884C68.1682 25.7458 68.5509 26.5221 68.73 27.3702H75.6123C76.0124 27.3702 76.3415 27.0476 76.3415 26.6475V12.9727C76.3415 12.5726 76.0131 12.25 75.6123 12.25H75.6116Z" fill="white"/>
<path d="M55.9145 15.6902L60.3716 16.5578C60.4187 16.5672 60.4658 16.5716 60.5115 16.5716C60.8529 16.5716 61.1573 16.3309 61.2247 15.983C61.3015 15.5887 61.0442 15.206 60.6499 15.1299L56.1929 14.2622C55.7978 14.1832 55.4158 14.442 55.3397 14.837C55.2629 15.2314 55.5202 15.6133 55.9145 15.6902Z" fill="white"/>
<path d="M55.9145 19.1049L60.3716 19.9725C60.4187 19.9819 60.4658 19.9863 60.5115 19.9863C60.8529 19.9863 61.1573 19.7456 61.2247 19.3977C61.3015 19.0034 61.0442 18.6214 60.6499 18.5446L56.1929 17.6769C55.7978 17.5957 55.4158 17.8567 55.3397 18.2517C55.2629 18.646 55.5202 19.0287 55.9145 19.1049Z" fill="white"/>
<path d="M55.9145 22.5154L60.3716 23.3831C60.4187 23.3925 60.4658 23.3968 60.5115 23.3968C60.8529 23.3968 61.1573 23.1562 61.2247 22.8083C61.3015 22.4139 61.0442 22.0312 60.6499 21.9551L56.1929 21.0875C55.7978 21.0049 55.4158 21.2673 55.3397 21.6623C55.2629 22.0566 55.5202 22.4386 55.9145 22.5154Z" fill="white"/>
<path d="M66.4909 16.558L70.948 15.6904C71.3423 15.6136 71.6003 15.2316 71.5228 14.8372C71.4459 14.4422 71.0632 14.1827 70.6696 14.2625L66.2126 15.1301C65.8183 15.2069 65.5602 15.5889 65.6378 15.9832C65.7052 16.3311 66.0104 16.5718 66.351 16.5718C66.3974 16.5718 66.4438 16.5674 66.4909 16.558Z" fill="white"/>
<path d="M66.351 19.9863C66.3974 19.9863 66.4438 19.9819 66.4909 19.9725L70.948 19.1049C71.3423 19.028 71.6003 18.646 71.5228 18.2517C71.4459 17.8567 71.0632 17.5957 70.6696 17.6769L66.2126 18.5446C65.8183 18.6214 65.5602 19.0034 65.6378 19.3977C65.7052 19.7456 66.0104 19.9863 66.351 19.9863Z" fill="white"/>
<path d="M66.351 23.397C66.3974 23.397 66.4438 23.3927 66.4909 23.3833L70.948 22.5156C71.3423 22.4388 71.6003 22.0568 71.5228 21.6625C71.4459 21.2675 71.0632 21.0043 70.6696 21.0877L66.2126 21.9553C65.8183 22.0322 65.5602 22.4142 65.6378 22.8085C65.7052 23.1564 66.0104 23.397 66.351 23.397Z" fill="white"/>
<path d="M63.4323 24.2578C61.1121 24.2578 59.2246 26.146 59.2246 28.4662C59.2246 30.7864 61.1121 32.6746 63.4323 32.6746C65.7525 32.6746 67.64 30.7864 67.64 28.4662C67.64 26.146 65.7525 24.2578 63.4323 24.2578ZM65.6416 27.8059L63.2293 30.2182C63.1047 30.3428 62.9416 30.4052 62.7778 30.4052C62.614 30.4052 62.4516 30.3428 62.3269 30.2182L61.128 29.02C60.8787 28.7714 60.8787 28.3669 61.128 28.1176C61.3759 27.8682 61.7811 27.8682 62.0305 28.1176L62.7778 28.8642L64.7392 26.9035C64.9885 26.6541 65.3923 26.6541 65.6416 26.9035C65.8909 27.1528 65.8909 27.5566 65.6416 27.8059Z" fill="#4AB4FF"/>
</g>
</g>
<defs>
<clipPath id="clip0_880_48853">
<rect width="125.912" height="95.588" fill="white" transform="translate(0.43457 0.69043)"/>
</clipPath>
<clipPath id="clip1_880_48853">
<rect width="25.8144" height="22.4272" fill="white" transform="translate(50.5264 10.2471)"/>
</clipPath>
</defs>
</svg>
