<svg width="124" height="129" viewBox="0 0 124 129" fill="none" xmlns="http://www.w3.org/2000/svg">
<g id="_&#231;&#147;&#166;?1" clip-path="url(#clip0_187_3258)">
<path id="Vector" d="M47.2754 94.585H76.7234" stroke="white" stroke-width="2.4" stroke-linecap="round" stroke-linejoin="round"/>
<path id="Vector_2" d="M47.2754 101.954H76.7234" stroke="white" stroke-width="2.4" stroke-linecap="round" stroke-linejoin="round"/>
<path id="Vector_3" d="M38.2995 36.0971C35.8515 40.2131 34.4355 45.0251 34.4355 50.1731C34.4355 69.1571 50.3835 69.7331 50.3835 89.4971H73.5915C73.5915 69.7691 89.5515 69.2051 89.5515 50.1731C89.5515 34.9571 77.2155 22.6211 61.9995 22.6211C54.7035 22.6211 48.0795 25.4531 43.1475 30.0731" stroke="white" stroke-width="2.4" stroke-linecap="round" stroke-linejoin="round"/>
<path id="Vector_4" d="M62 13.8975V1.56152" stroke="white" stroke-width="2.4" stroke-linecap="round" stroke-linejoin="round"/>
<path id="Vector_5" d="M85.3154 23.4371L94.0274 14.7251" stroke="white" stroke-width="2.4" stroke-linecap="round" stroke-linejoin="round"/>
<path id="Vector_6" d="M38.6837 23.4371L29.9717 14.7251" stroke="white" stroke-width="2.4" stroke-linecap="round" stroke-linejoin="round"/>
<path id="Vector_7" d="M95.252 47.1499H107.588" stroke="white" stroke-width="2.4" stroke-linecap="round" stroke-linejoin="round"/>
<path id="Vector_8" d="M16.4121 47.1499H28.7481" stroke="white" stroke-width="2.4" stroke-linecap="round" stroke-linejoin="round"/>
<path id="Vector_9" d="M73.6035 118.802L62.2155 126.818L50.3955 118.802V107.042H73.6035V118.802Z" stroke="white" stroke-width="2.4" stroke-linecap="round" stroke-linejoin="round"/>
<path id="Vector_10" d="M50.3955 118.802H73.6035" stroke="white" stroke-width="2.4" stroke-linecap="round" stroke-linejoin="round"/>
<path id="Vector_11" d="M66.2838 107.042H57.7158V118.814H66.2838V107.042Z" stroke="white" stroke-width="2.4" stroke-linecap="round" stroke-linejoin="round"/>
<path id="Vector_12" d="M61.9994 56.0537L17.9834 88.5257" stroke="#003B7F" stroke-width="2.4" stroke-linecap="round" stroke-linejoin="round"/>
<path id="Vector_13" d="M17.984 104.51C26.8117 104.51 33.968 97.3537 33.968 88.526C33.968 79.6983 26.8117 72.542 17.984 72.542C9.15628 72.542 2 79.6983 2 88.526C2 97.3537 9.15628 104.51 17.984 104.51Z" fill="white" stroke="#003B7F" stroke-width="2.4" stroke-linecap="round" stroke-linejoin="round"/>
<g id="Vector_14">
<path d="M22.3635 83.8456C20.6715 80.6296 12.9315 81.0016 13.6995 85.4656C13.9035 86.6176 14.6955 87.3856 15.6915 87.8656C17.5515 88.7896 18.9075 88.2616 20.7435 89.4256C21.5115 89.9176 22.0995 90.6016 22.2675 91.5616C23.0355 96.0256 15.2955 96.3856 13.6035 93.1816" fill="white"/>
<path d="M22.3635 83.8456C20.6715 80.6296 12.9315 81.0016 13.6995 85.4656C13.9035 86.6176 14.6955 87.3856 15.6915 87.8656C17.5515 88.7896 18.9075 88.2616 20.7435 89.4256C21.5115 89.9176 22.0995 90.6016 22.2675 91.5616C23.0355 96.0256 15.2955 96.3856 13.6035 93.1816" stroke="#2D83F3" stroke-width="2.4" stroke-linecap="round" stroke-linejoin="round"/>
</g>
<path id="Vector_15" d="M17.9834 79.0576V81.7336" stroke="#2D83F3" stroke-width="2.4" stroke-linecap="round" stroke-linejoin="round"/>
<path id="Vector_16" d="M17.9834 95.3057V97.9817" stroke="#2D83F3" stroke-width="2.4" stroke-linecap="round" stroke-linejoin="round"/>
<path id="Vector_17" d="M62 56.0537L106.016 88.5257" stroke="#003B7F" stroke-width="2.4" stroke-linecap="round" stroke-linejoin="round"/>
<path id="Vector_18" d="M106.015 104.51C114.843 104.51 121.999 97.3537 121.999 88.526C121.999 79.6983 114.843 72.542 106.015 72.542C97.1875 72.542 90.0312 79.6983 90.0312 88.526C90.0312 97.3537 97.1875 104.51 106.015 104.51Z" fill="white" stroke="#003B7F" stroke-width="2.4" stroke-linecap="round" stroke-linejoin="round"/>
<g id="Vector_19">
<path d="M110.396 83.8456C108.704 80.6296 100.964 81.0016 101.732 85.4656C101.936 86.6176 102.728 87.3856 103.724 87.8656C105.584 88.7896 106.94 88.2616 108.776 89.4256C109.544 89.9176 110.132 90.6016 110.3 91.5616C111.068 96.0256 103.328 96.3856 101.636 93.1816" fill="white"/>
<path d="M110.396 83.8456C108.704 80.6296 100.964 81.0016 101.732 85.4656C101.936 86.6176 102.728 87.3856 103.724 87.8656C105.584 88.7896 106.94 88.2616 108.776 89.4256C109.544 89.9176 110.132 90.6016 110.3 91.5616C111.068 96.0256 103.328 96.3856 101.636 93.1816" stroke="#2D83F3" stroke-width="2.4" stroke-linecap="round" stroke-linejoin="round"/>
</g>
<path id="Vector_20" d="M106.016 79.0576V81.7336" stroke="#2D83F3" stroke-width="2.4" stroke-linecap="round" stroke-linejoin="round"/>
<path id="Vector_21" d="M106.016 95.3057V97.9817" stroke="#2D83F3" stroke-width="2.4" stroke-linecap="round" stroke-linejoin="round"/>
<path id="Vector_22" d="M61.9996 71.258C70.8273 71.258 77.9836 64.1018 77.9836 55.274C77.9836 46.4463 70.8273 39.29 61.9996 39.29C53.1719 39.29 46.0156 46.4463 46.0156 55.274C46.0156 64.1018 53.1719 71.258 61.9996 71.258Z" fill="white" stroke="#003B7F" stroke-width="2.4" stroke-linecap="round" stroke-linejoin="round"/>
<g id="Vector_23">
<path d="M66.3801 50.6054C64.6881 47.3894 56.9481 47.7614 57.7161 52.2254C57.9201 53.3774 58.7121 54.1454 59.7081 54.6254C61.5681 55.5494 62.9241 55.0214 64.7601 56.1854C65.5281 56.6774 66.1161 57.3614 66.2841 58.3214C67.0521 62.7854 59.3121 63.1454 57.6201 59.9414" fill="white"/>
<path d="M66.3801 50.6054C64.6881 47.3894 56.9481 47.7614 57.7161 52.2254C57.9201 53.3774 58.7121 54.1454 59.7081 54.6254C61.5681 55.5494 62.9241 55.0214 64.7601 56.1854C65.5281 56.6774 66.1161 57.3614 66.2841 58.3214C67.0521 62.7854 59.3121 63.1454 57.6201 59.9414" stroke="#2D83F3" stroke-width="2.4" stroke-linecap="round" stroke-linejoin="round"/>
</g>
<path id="Vector_24" d="M62 45.8057V48.4937" stroke="#2D83F3" stroke-width="2.4" stroke-linecap="round" stroke-linejoin="round"/>
<path id="Vector_25" d="M62 62.0654V64.7414" stroke="#2D83F3" stroke-width="2.4" stroke-linecap="round" stroke-linejoin="round"/>
</g>
<defs>
<clipPath id="clip0_187_3258">
<rect width="122.4" height="127.656" fill="white" transform="translate(0.799805 0.361816)"/>
</clipPath>
</defs>
</svg>
