<svg width="99" height="91" viewBox="0 0 99 91" fill="none" xmlns="http://www.w3.org/2000/svg">
<g id="_&#229;&#175;&#131;&#226;&#145;&#184;&#226;&#148;&#129;_&#239;&#167;&#143;&#226;&#145;&#164;&#235;&#177;&#182;" clip-path="url(#clip0_880_48950)">
<path id="Vector" d="M31.7643 51.5902L39.7246 56.3047C41.3892 57.2897 43.29 57.811 45.2254 57.811H82.0087C83.8577 57.811 85.3524 56.3163 85.3524 54.4673C85.3524 52.7998 84.1227 51.3886 82.4724 51.1553L54.2657 46.4811C52.9553 46.2967 51.6708 45.9655 50.4353 45.4903L37.1931 40.3899C35.131 39.595 32.8011 39.9521 31.0673 41.323C27.6343 44.0446 27.9972 49.3611 31.7643 51.5931V51.5902Z" fill="white"/>
<path id="Vector_2" d="M21.0503 44.9835C25.4106 44.9835 28.9444 41.4497 28.9444 37.0894C28.9444 32.7291 25.4106 29.1953 21.0503 29.1953C16.69 29.1953 13.1562 32.7291 13.1562 37.0894C13.1562 41.4497 16.69 44.9835 21.0503 44.9835Z" fill="white"/>
<path id="Vector_3" d="M59.6471 82.8125H53.723V74.5498H79.5364C83.9457 74.5498 87.5198 70.9757 87.5198 66.5665V65.93C87.5198 64.3892 86.2698 63.1421 84.729 63.1421H43.9511C41.3678 63.1421 38.8334 62.4596 36.5985 61.1636L9.04552 45.1882V40.2317C9.04552 37.8961 7.15336 36.0039 4.81768 36.0039C2.48488 36.0039 0.589844 37.8961 0.589844 40.2289V66.5636C0.589844 70.9729 4.16392 74.547 8.5732 74.547H34.3866V82.8097H28.4625C27.1953 82.8097 26.17 83.835 26.17 85.1022V88.7022C26.17 89.9694 27.1953 90.9946 28.4625 90.9946H59.6471C60.9143 90.9946 61.9396 89.9694 61.9396 88.7022V85.1022C61.9396 83.835 60.9143 82.8097 59.6471 82.8097V82.8125Z" fill="white"/>
<path id="Vector_4" d="M95.7782 0.663086H75.31C74.0025 0.663086 72.9398 1.72581 72.9398 3.07365V5.88741H50.9711V2.10309C50.9711 1.31397 50.3318 0.671726 49.5398 0.671726H47.3999C46.6108 0.671726 45.9686 1.31109 45.9686 2.10309V25.9005H45.5135C44.7273 25.9005 44.0908 26.537 44.0908 27.3232V31.289C44.0908 32.0752 44.7273 32.7117 45.5135 32.7117H47.2444V39.0276C47.2444 39.7044 47.7916 40.2516 48.4684 40.2516C49.1452 40.2516 49.6924 39.7044 49.6924 39.0276V32.7117H51.4233C52.2095 32.7117 52.846 32.0752 52.846 31.289V27.3232C52.846 26.537 52.2095 25.9005 51.4233 25.9005H50.9683V14.7492H72.9369V44.6176L83.1494 46.2938C87.1929 46.864 90.2572 50.3805 90.2572 54.4644C90.2572 56.2615 89.6438 57.9376 88.6646 59.3258C90.911 60.6736 92.423 63.1245 92.423 65.944V66.5431C92.423 73.6423 86.614 79.4541 79.5119 79.4541H72.934V88.6068C72.934 89.9143 73.9939 90.977 75.3043 90.977H95.7724C97.0799 90.977 98.1427 89.9172 98.1427 88.6068V3.07365C98.1427 1.72581 97.0799 0.663086 95.7724 0.663086H95.7782ZM90.7756 35.7328H80.3155C78.9619 35.7328 77.8646 34.6356 77.8646 33.282C77.8646 31.9284 78.9619 30.8311 80.3155 30.8311H90.7756C92.1292 30.8311 93.2265 31.9284 93.2265 33.282C93.2265 34.6356 92.1292 35.7328 90.7756 35.7328ZM90.7756 24.2532H80.3155C78.9619 24.2532 77.8646 23.1559 77.8646 21.8023C77.8646 20.4487 78.9619 19.3514 80.3155 19.3514H90.7756C92.1292 19.3514 93.2265 20.4487 93.2265 21.8023C93.2265 23.1559 92.1292 24.2532 90.7756 24.2532ZM90.7756 12.7706H80.3155C78.9619 12.7706 77.8646 11.6733 77.8646 10.3197C77.8646 8.96613 78.9619 7.86885 80.3155 7.86885H90.7756C92.1292 7.86885 93.2265 8.96613 93.2265 10.3197C93.2265 11.6733 92.1292 12.7706 90.7756 12.7706Z" fill="#065F46"/>
</g>
<defs>
<clipPath id="clip0_880_48950">
<rect width="97.5571" height="90.3341" fill="white" transform="translate(0.589844 0.663086)"/>
</clipPath>
</defs>
</svg>
