<svg width="121" height="112" viewBox="0 0 121 112" fill="none" xmlns="http://www.w3.org/2000/svg">
<g id="0-1">
<path id="Vector" d="M28.4045 76.9848C33.6336 71.7556 33.6336 63.2776 28.4045 58.0484C23.1754 52.8193 14.6973 52.8193 9.46816 58.0484C4.23904 63.2776 4.23904 71.7556 9.46816 76.9848C14.6973 82.2139 23.1754 82.2139 28.4045 76.9848Z" fill="#B6B6B6"/>
<path id="Vector_2" d="M118.158 69.6506C119.338 62.3502 114.376 55.4757 107.076 54.2959C99.7755 53.1161 92.9009 58.0778 91.7212 65.3782C90.5414 72.6786 95.5031 79.5531 102.803 80.7329C110.104 81.9127 116.978 76.9509 118.158 69.6506Z" fill="#B6B6B6"/>
<path id="Vector_3" d="M61.9279 18.0254C86.3979 18.0254 106.268 37.8954 106.268 62.3654V67.5854C106.268 92.0554 86.3979 111.925 61.9279 111.925C37.4579 111.925 17.5879 92.0554 17.5879 67.5854V62.3654C17.5879 37.8954 37.4579 18.0254 61.9279 18.0254Z" fill="#D4D4D4"/>
<path id="Vector_4" d="M46.7684 64.9758C46.7684 68.4358 44.0584 71.2358 40.7084 71.2358C37.3584 71.2358 34.6484 68.4358 34.6484 64.9758C34.6484 61.5158 37.3584 58.7158 40.7084 58.7158C44.0584 58.7158 46.7684 61.5158 46.7684 64.9758Z" fill="#484848"/>
<path id="Vector_5" d="M89.2079 64.9758C89.2079 68.4358 86.4979 71.2358 83.1479 71.2358C79.7979 71.2358 77.0879 68.4358 77.0879 64.9758C77.0879 61.5158 79.7979 58.7158 83.1479 58.7158C86.4979 58.7158 89.2079 61.5158 89.2079 64.9758Z" fill="#484848"/>
<path id="Vector_6" d="M61.9284 94.4958C54.5784 94.4958 48.0284 89.8258 45.6184 82.8658C45.2084 81.6758 45.8384 80.3858 47.0184 79.9758C48.1984 79.5658 49.4984 80.1958 49.9084 81.3858C51.6784 86.5058 56.5084 89.9558 61.9184 89.9558C67.3284 89.9558 72.1584 86.5158 73.9284 81.3858C74.3384 80.1958 75.6384 79.5758 76.8184 79.9758C78.0084 80.3858 78.6284 81.6758 78.2184 82.8658C75.8184 89.8158 69.2584 94.4958 61.9084 94.4958H61.9284Z" fill="#959595"/>
<path id="Vector_7" d="M61.4778 25.7754C65.9678 25.7754 69.5279 23.0654 69.6879 18.0354C69.7379 16.5654 69.3979 14.1654 68.9479 13.0154C68.9479 12.9954 68.9378 12.9754 68.9278 12.9654C65.5078 2.75544 68.2079 0.395437 67.8279 0.275437C67.1979 0.0754369 65.2379 0.595431 64.9679 0.675431C62.7979 1.32543 60.7779 2.49544 59.0979 4.02544C57.4779 5.50544 55.9578 7.66544 54.9978 9.63544C53.4878 12.7254 52.4379 17.0054 53.8279 20.8754C54.9879 24.0954 58.1778 25.7854 61.4778 25.7854V25.7754Z" fill="#737373"/>
<path id="Vector_8" d="M64.8887 28.9056L75.1087 34.8256C76.4087 35.4756 78.0187 34.9956 78.6987 33.7156C79.6687 31.8756 80.7587 28.7456 80.7587 23.8956C80.7587 19.0456 79.6787 15.9056 78.6987 14.0756C78.0187 12.7956 76.4087 12.3156 75.1087 12.9656L64.8887 18.8856V28.9056Z" fill="#9E9E9E"/>
<path id="Vector_9" d="M58.9686 28.9056L48.7486 34.8256C47.4486 35.4756 45.8386 34.9956 45.1586 33.7156C44.1886 31.8756 43.0986 28.7456 43.0986 23.8956C43.0986 19.0456 44.1786 15.9056 45.1586 14.0756C45.8386 12.7956 47.4486 12.3156 48.7486 12.9656L58.9686 18.8856V28.9056Z" fill="#9E9E9E"/>
<path id="Vector_10" d="M62.7287 18.0254H61.1287C58.2568 18.0254 55.9287 20.3535 55.9287 23.2254V24.5654C55.9287 27.4373 58.2568 29.7654 61.1287 29.7654H62.7287C65.6006 29.7654 67.9287 27.4373 67.9287 24.5654V23.2254C67.9287 20.3535 65.6006 18.0254 62.7287 18.0254Z" fill="#868686"/>
</g>
</svg>
