<svg width="60" height="60" viewBox="0 0 60 60" fill="none" xmlns="http://www.w3.org/2000/svg">
<g id="40" clip-path="url(#clip0_536_47696)">
<g id="Clip path group">
<mask id="mask0_536_47696" style="mask-type:luminance" maskUnits="userSpaceOnUse" x="-9" y="-5" width="81" height="81">
<g id="clippath">
<path id="Vector" d="M59.8248 63.4886C75.3982 47.9153 75.3982 22.6658 59.8248 7.09241C44.2514 -8.48098 19.002 -8.48098 3.42858 7.09241C-12.1448 22.6658 -12.1448 47.9153 3.42858 63.4886C19.002 79.062 44.2514 79.062 59.8248 63.4886Z" fill="white"/>
</g>
</mask>
<g mask="url(#mask0_536_47696)">
<g id="Group">
<path id="Vector_2" d="M55.981 56.4042C54.6109 55.3536 53.0233 55.3595 51.7944 54.7891L49.6071 53.9934L43.6643 50.3732L39.4327 48.5093L31.6711 68.1661L21.3125 53.9934V48.6151L10.7579 53.9934L2.93945 61.5237L6.09113 84.8026H56.6983L55.981 56.4042Z" fill="#898989"/>
<path id="Vector_3" d="M55.0005 56.335C58.0287 57.9343 62.0408 60.6489 63.5382 64.3592L65.8197 81.0839L65.9961 84.8686H54.8633L55.0005 56.335Z" fill="#898989"/>
<path id="Vector_4" d="M6.43212 56.335C3.40392 57.9343 -0.608196 60.6489 -2.10564 64.3592L-4.38708 81.0839L-4.56348 84.8686H6.56932L6.43212 56.335Z" fill="#898989"/>
<path id="Vector_5" d="M22.3846 37.5413C22.3846 37.5413 23.3333 45.6205 22.3846 49.2327L21.3125 63.0664L31.8612 64.4423L39.9991 62.1727L40.3363 49.1681L38.5056 48.5115C38.5056 48.5115 38.3429 44.0917 39.1446 39.8816L28.786 36.1968L22.3827 37.5433L22.3846 37.5413Z" fill="white"/>
<path id="Vector_6" d="M22.0338 84.8042L21.3125 49.8653L22.4121 48.1875L31.5359 50.2631L39.9541 48.5873L39.9991 60.2278L40.693 84.8042H22.0338Z" fill="white"/>
<path id="Vector_7" d="M49.5397 26.3004C47.7796 24.1346 45.3924 25.5752 45.3924 25.5752L41.5958 15.5498H34.8926L27.9993 13.6701L21.6372 10.9692L18.1856 17.3412L15.0712 26.4709C15.0712 26.4709 12.823 24.311 11.1218 26.5218C11.1218 26.5218 8.90501 31.3709 15.4279 35.7613C15.4279 35.7613 17.1938 35.3164 17.6192 34.5461C17.6192 34.5461 19.7771 46.1669 30.4866 45.7494C40.0984 46.1473 43.1991 34.4128 43.1991 34.4128C43.6421 35.1713 45.2826 35.3752 45.2826 35.3752C52.2759 30.8593 49.5397 26.2984 49.5397 26.2984V26.3004Z" fill="white"/>
<path id="Vector_8" d="M46.2214 24.8826C46.2214 24.8826 52.119 13.0423 39.3241 5.41589C39.3241 5.41589 28.6206 -1.41079 23.5951 4.74361C23.5951 4.74361 10.3789 5.34533 11.7764 18.3303L12.3957 25.4902L46.2214 24.8846V24.8826Z" fill="white"/>
<path id="Vector_9" d="M47.0532 23.6457C47.0532 23.6457 54.0641 10.3491 39.029 2.72859C39.029 2.72859 30.8773 -1.76765 22.3945 4.48671L19.7289 5.34519C19.7289 5.34519 11.2362 8.90455 11.9653 16.9974L12.7395 24.6884L16.0382 26.4093C16.0382 26.4093 17.6552 16.9994 20.1169 12.2444L22.3945 9.57291C22.3945 9.57291 32.1847 15.545 40.1011 16.8739L43.3488 18.0146C43.3488 18.0146 45.2598 23.3948 43.7918 26.3231L46.0399 25.4568L47.0513 23.6496L47.0532 23.6457Z" fill="#7C6B5D"/>
<path id="Vector_10" d="M21.9037 21.5593C21.5097 21.5593 21.1393 21.3163 20.9943 20.9262C20.8081 20.4245 21.0648 19.8659 21.5685 19.6816C23.556 18.9466 24.9887 19.3073 25.1455 19.3504C25.661 19.4935 25.9629 20.0286 25.8198 20.544C25.6767 21.0576 25.1495 21.3574 24.6359 21.2222C24.5771 21.2085 23.6246 20.989 22.2389 21.5005C22.1291 21.5417 22.0154 21.5613 21.9037 21.5613V21.5593Z" fill="#3E3A39"/>
<path id="Vector_11" d="M38.9228 21.5396C38.815 21.5396 38.7032 21.522 38.5954 21.4828C37.1901 20.9791 36.2336 21.2182 36.1944 21.228C35.6809 21.3769 35.1478 21.0771 35.0008 20.5635C34.8518 20.05 35.1556 19.511 35.6692 19.3621C35.826 19.317 37.2548 18.9426 39.2501 19.658C39.7538 19.8383 40.0164 20.393 39.8361 20.8967C39.695 21.2927 39.3206 21.5396 38.9228 21.5396Z" fill="#3E3A39"/>
<path id="Vector_12" d="M30.6026 37.9465C28.2937 37.9465 26.5101 37.482 26.3905 37.4506C25.8731 37.3134 25.5654 36.7823 25.7026 36.2648C25.8398 35.7474 26.3709 35.4397 26.8884 35.5769C26.9472 35.5926 31.2063 36.6862 34.7441 35.3123C35.2439 35.1182 35.8044 35.3652 35.9985 35.865C36.1925 36.3648 35.9455 36.9254 35.4457 37.1194C33.817 37.7525 32.1 37.9465 30.6026 37.9465Z" fill="#3E3A39"/>
<path id="Vector_13" d="M37.0644 26.4083C36.3372 26.4181 35.7335 25.8301 35.7257 25.103C35.7159 24.3758 36.3039 23.7721 37.0311 23.7643C37.7582 23.7545 38.3619 24.3425 38.3697 25.0696C38.3795 25.7968 37.7915 26.4005 37.0644 26.4083Z" fill="#3E3A39"/>
<path id="Vector_14" d="M24.2783 26.3458C23.5511 26.3556 22.9474 25.7676 22.9396 25.0405C22.9298 24.3133 23.5178 23.7096 24.2449 23.7018C24.9721 23.692 25.5758 24.28 25.5836 25.0071C25.5934 25.7343 25.0054 26.338 24.2783 26.3458Z" fill="#3E3A39"/>
<path id="Vector_15" d="M30.6848 32.2802C30.675 32.2802 30.6652 32.2802 30.6554 32.2802L30.0419 32.2626C29.5068 32.2469 29.0854 31.8 29.1031 31.2649C29.1188 30.7299 29.5696 30.3104 30.1007 30.3261L30.7142 30.3437C31.2493 30.3594 31.6707 30.8063 31.653 31.3414C31.6374 31.8667 31.2062 32.2822 30.6848 32.2822V32.2802Z" fill="#3E3A39"/>
<path id="Vector_16" d="M12.459 26.0235C12.018 26.0235 11.6201 25.7216 11.5162 25.2728C9.82473 17.9934 10.3206 12.3015 12.9862 8.35604C15.6695 4.38704 19.5601 3.74417 19.7247 3.71869C20.2519 3.63637 20.7498 3.99896 20.8301 4.52816C20.9125 5.0554 20.5518 5.54932 20.0246 5.63361C19.8854 5.65712 16.7573 6.20788 14.566 9.47912C12.2355 12.9601 11.8455 18.1247 13.4037 24.8338C13.5252 25.3551 13.1999 25.8765 12.6785 25.998C12.604 26.0156 12.5315 26.0235 12.459 26.0235Z" fill="#3E3A39"/>
<path id="Vector_17" d="M47.0132 26.0239C46.874 26.0239 46.7349 25.9945 46.6016 25.9317C46.1175 25.7044 45.9097 25.1262 46.1371 24.6421C48.3715 19.9008 46.7976 11.2376 46.7819 11.1514C46.6839 10.6241 47.0308 10.1185 47.5581 10.0205C48.0853 9.92247 48.591 10.2694 48.689 10.7966C48.7596 11.1769 50.3942 20.1595 47.8913 25.4692C47.7266 25.82 47.3778 26.0258 47.0132 26.0258V26.0239Z" fill="#3E3A39"/>
<path id="Vector_18" d="M45.0281 36.1144C44.3911 36.1144 43.5209 35.8674 42.7565 34.7894C42.4468 34.3523 42.5507 33.7467 42.9878 33.439C43.4249 33.1293 44.0305 33.2332 44.3382 33.6703C44.7087 34.1936 44.9694 34.1799 45.0556 34.1759C45.8749 34.1328 47.1253 32.5746 47.7114 31.5339C47.7192 31.5182 47.729 31.5025 47.7388 31.4868C49.8047 28.2548 48.6757 26.6397 48.419 26.3399C47.0842 25.6343 46.4139 26.3771 46.2375 26.628C45.9435 27.0749 45.3457 27.1925 44.8988 26.8985C44.4519 26.6045 44.3324 25.9969 44.6264 25.55C45.2242 24.6425 47.0117 23.2999 49.4911 24.7189C49.546 24.7503 49.5989 24.7875 49.6479 24.8307C49.7694 24.9365 52.584 27.4884 49.3872 32.5099C49.0266 33.1489 47.2959 36.0007 45.1595 36.1144C45.1164 36.1163 45.0732 36.1183 45.0281 36.1183V36.1144Z" fill="#3E3A39"/>
<path id="Vector_19" d="M22.6919 50.2334C22.6193 50.2334 22.5468 50.2255 22.4723 50.2079C21.951 50.0864 21.6256 49.567 21.7471 49.0456C22.2411 46.9112 21.9667 43.7908 21.9647 43.7595C21.9157 43.2264 22.3097 42.756 22.8428 42.707C23.3759 42.6599 23.8463 43.0519 23.8953 43.585C23.9071 43.7242 24.2011 47.0425 23.6366 49.4827C23.5327 49.9315 23.1348 50.2334 22.6938 50.2334H22.6919Z" fill="#3E3A39"/>
<path id="Vector_20" d="M38.7012 50.2334C38.2602 50.2334 37.8604 49.9296 37.7585 49.4827C37.194 47.0425 37.486 43.7242 37.4998 43.585C37.5488 43.0519 38.0191 42.6599 38.5523 42.707C39.0854 42.756 39.4774 43.2264 39.4304 43.7595C39.4284 43.7908 39.154 46.9112 39.6479 49.0456C39.7694 49.567 39.4441 50.0883 38.9227 50.2079C38.8482 50.2255 38.7757 50.2334 38.7032 50.2334H38.7012Z" fill="#3E3A39"/>
<path id="Vector_21" d="M46.2085 9.5615C45.9126 9.5615 45.6186 9.42626 45.4284 9.1695C45.4049 9.13814 43.0274 5.97078 39.0761 3.8285C33.8821 1.01394 28.5117 1.20994 23.1138 4.41454C22.6532 4.68698 22.0594 4.53606 21.785 4.07546C21.5125 3.61486 21.6634 3.02098 22.124 2.74658C29.6602 -1.72614 36.04 -0.0405432 40.0639 2.15858C44.37 4.51254 46.8828 7.8759 46.9866 8.01702C47.3042 8.44822 47.214 9.05386 46.7828 9.37334C46.6103 9.50074 46.4084 9.56346 46.2085 9.56346V9.5615Z" fill="#3E3A39"/>
<path id="Vector_22" d="M15.9436 36.1533C15.9201 36.1533 15.8986 36.1533 15.877 36.1533C13.7524 36.0965 11.9609 33.3153 11.5866 32.69C8.28395 27.7939 11.0162 25.193 11.1338 25.0833C11.1808 25.0401 11.2318 25.0009 11.2867 24.9676C13.7132 23.4957 15.5222 24.7834 16.1396 25.6693C16.4454 26.1083 16.3376 26.712 15.8986 27.0197C15.4634 27.3235 14.8656 27.2197 14.556 26.7904C14.3737 26.5474 13.6936 25.8379 12.396 26.565C12.1432 26.8708 11.073 28.4799 13.2036 31.6277C13.2134 31.6434 13.2232 31.6591 13.233 31.6747C13.8386 32.6861 15.1146 34.1953 15.926 34.2169C16.0103 34.2188 16.267 34.2247 16.6179 33.7014C16.9158 33.2565 17.5175 33.1389 17.9624 33.4368C18.4074 33.7347 18.525 34.3384 18.227 34.7813C17.4705 35.9064 16.5787 36.1553 15.9397 36.1553L15.9436 36.1533Z" fill="#3E3A39"/>
<path id="Vector_23" d="M30.4358 46.8193C26.3648 46.8193 22.5938 44.6006 22.4331 44.5045C22.4252 44.4987 22.4154 44.4947 22.4076 44.4889C16.8588 40.9393 16.3394 32.7426 16.3218 32.3957C16.2924 31.8606 16.7001 31.4039 17.2352 31.3745C17.7722 31.3451 18.2269 31.7528 18.2563 32.2879C18.2602 32.3623 18.7444 39.8299 23.4366 42.8464C23.6561 42.9738 27.1234 44.9455 30.6337 44.8789C34.1029 44.8593 37.4741 43.0365 37.8132 42.8483C42.4094 39.7025 42.6936 32.0507 42.6975 31.9723C42.7132 31.4372 43.1581 31.0197 43.6952 31.0315C44.2302 31.0472 44.6516 31.4921 44.636 32.0272C44.6262 32.3819 44.3243 40.7825 38.8696 44.4732C38.85 44.4869 38.8304 44.4987 38.8108 44.5104C38.6501 44.6045 34.8105 46.7919 30.6612 46.8154C30.5867 46.8154 30.5122 46.8173 30.4377 46.8173L30.4358 46.8193Z" fill="#3E3A39"/>
<path id="Vector_24" d="M44.0741 27.3775C44.0741 27.3775 44.0604 27.3775 44.0526 27.3775C43.5175 27.3657 43.0922 26.9228 43.1039 26.3877C43.2196 20.9722 42.4297 18.3262 42.4218 18.2988C42.265 17.7872 42.5512 17.2462 43.0608 17.0875C43.5704 16.9287 44.1133 17.2129 44.2721 17.7225C44.3093 17.8401 45.1658 20.6508 45.0424 26.4288C45.0306 26.9561 44.5994 27.3775 44.0741 27.3775Z" fill="#3E3A39"/>
<path id="Vector_25" d="M16.3237 26.4586C16.31 26.4586 16.2943 26.4586 16.2806 26.4586C15.7455 26.4351 15.3319 25.9824 15.3554 25.4473C15.767 16.1804 18.515 13.2365 18.6326 13.115C19.005 12.7308 19.6184 12.719 20.0026 13.0914C20.3848 13.4599 20.3985 14.0675 20.034 14.4536C19.9771 14.5183 17.6624 17.1996 17.2919 25.5335C17.2684 26.0529 16.8392 26.4606 16.3237 26.4606V26.4586Z" fill="#3E3A39"/>
<path id="Vector_26" d="M11.4612 65.929C11.3984 65.929 11.3338 65.9231 11.2691 65.9094C10.7438 65.8035 10.4047 65.292 10.5106 64.7667L13.0527 52.1462C13.1115 51.8562 13.2996 51.6092 13.5623 51.474L20.1342 48.1243C20.6104 47.8813 21.1945 48.0714 21.4376 48.5477C21.6806 49.024 21.4905 49.6081 21.0142 49.8511L14.8598 52.9871L12.4098 65.1469C12.3177 65.6075 11.912 65.9251 11.4612 65.9251V65.929Z" fill="#3E3A39"/>
<path id="Vector_27" d="M50.0656 65.929C49.6128 65.929 49.2091 65.6114 49.1169 65.1508L46.6669 52.991L40.5125 49.855C40.0363 49.612 39.8461 49.0279 40.0892 48.5516C40.3322 48.0753 40.9163 47.8852 41.3926 48.1282L47.9645 51.4779C48.2291 51.6131 48.4153 51.8601 48.4741 52.1502L51.0162 64.7706C51.122 65.2959 50.7829 65.8074 50.2577 65.9133C50.193 65.927 50.1283 65.9329 50.0656 65.9329V65.929Z" fill="#3E3A39"/>
<path id="Vector_28" d="M22.0337 85.4548C21.5221 85.4548 21.0948 85.0549 21.0674 84.5375C20.2501 69.3945 20.6146 48.6969 20.6186 48.4911C20.6284 47.9561 21.0674 47.5386 21.6064 47.5405C22.1415 47.5503 22.5668 47.9913 22.557 48.5284C22.5531 48.7342 22.1905 69.3632 23.0039 84.4356C23.0333 84.9707 22.6236 85.4273 22.0886 85.4567C22.0709 85.4567 22.0533 85.4567 22.0356 85.4567L22.0337 85.4548Z" fill="#3E3A39"/>
<path id="Vector_29" d="M40.3357 85.7723C39.8045 85.7723 39.3714 85.343 39.3675 84.8099C39.2165 65.7666 39.0323 49.5182 39.0303 49.3555C39.0245 48.8204 39.4537 48.3814 39.9888 48.3755C39.9927 48.3755 39.9966 48.3755 40.0005 48.3755C40.5317 48.3755 40.9629 48.8028 40.9688 49.3339C40.9688 49.4966 41.155 65.7489 41.3059 84.7942C41.3098 85.3293 40.8786 85.7664 40.3435 85.7703H40.3357V85.7723Z" fill="#3E3A39"/>
<path id="Vector_30" d="M-4.56366 85.7721C-4.57934 85.7721 -4.59698 85.7721 -4.61462 85.7721C-5.1497 85.7447 -5.5613 85.2899 -5.53386 84.7549L-4.95762 73.4084C-4.95762 73.381 -4.9537 73.3535 -4.94978 73.3281C-4.8655 72.7126 -4.79102 72.1187 -4.7185 71.5445C-3.96782 65.6017 -3.42686 61.3054 3.90158 57.1443L11.4182 52.5717C11.8749 52.2933 12.4727 52.4384 12.751 52.8951C13.0293 53.3517 12.8843 53.9495 12.4276 54.2279L4.89922 58.8084C4.89922 58.8084 4.88158 58.8182 4.87374 58.8241C-1.6217 62.5069 -2.03722 65.8036 -2.79182 71.7875C-2.86238 72.3539 -2.93686 72.94 -3.01918 73.5476L-3.59346 84.8529C-3.61894 85.3703 -4.04818 85.7721 -4.5617 85.7721H-4.56366Z" fill="#3E3A39"/>
<path id="Vector_31" d="M27.2058 46.0177C27.1646 46.0177 27.1235 46.0157 27.0823 46.0098C26.5511 45.9432 26.1748 45.4571 26.2434 44.926L26.4845 43.0287C26.5511 42.4975 27.0372 42.1232 27.5684 42.1898C28.0995 42.2564 28.4759 42.7425 28.4073 43.2737L28.1662 45.171C28.1035 45.661 27.686 46.0177 27.2058 46.0177Z" fill="#3E3A39"/>
<path id="Vector_32" d="M34.6183 46.0181C34.1381 46.0181 33.7207 45.6614 33.6579 45.1714L33.4169 43.2741C33.3502 42.7429 33.7246 42.2568 34.2557 42.1902C34.7849 42.1216 35.273 42.4979 35.3396 43.0291L35.5807 44.9264C35.6473 45.4575 35.273 45.9436 34.7418 46.0102C34.7007 46.0161 34.6595 46.0181 34.6183 46.0181Z" fill="#3E3A39"/>
<path id="Vector_33" d="M30.9651 46.0179C30.4457 46.0179 30.0145 45.6063 29.9969 45.083L29.9302 43.1857C29.9126 42.6506 30.3301 42.2018 30.8651 42.1841C31.4041 42.1665 31.8491 42.584 31.8667 43.1191L31.9314 45.0163C31.949 45.5514 31.5315 46.0003 30.9965 46.0179C30.9847 46.0179 30.9729 46.0179 30.9631 46.0179H30.9651Z" fill="#3E3A39"/>
<path id="Vector_34" d="M31.9764 61.2018C27.5977 61.2018 23.7091 60.1415 21.2669 59.2771C20.7612 59.0988 20.4986 58.5441 20.677 58.0404C20.8553 57.5347 21.41 57.272 21.9137 57.4504C25.6162 58.7616 32.8564 60.557 39.7497 57.8757C40.2495 57.6817 40.8101 57.9286 41.0041 58.4265C41.1982 58.9263 40.9512 59.4868 40.4514 59.6809C37.5898 60.7942 34.689 61.2018 31.9764 61.2018Z" fill="#3E3A39"/>
<path id="Vector_35" d="M65.9942 85.773C65.4807 85.773 65.0534 85.3712 65.026 84.8537L64.4517 73.5484C64.3694 72.9408 64.2949 72.3548 64.2243 71.7884C63.4697 65.8045 63.0542 62.5078 56.5588 58.8249C56.5509 58.821 56.5411 58.8151 56.5333 58.8092L49.0049 54.2287C48.5482 53.9504 48.4032 53.3546 48.6815 52.8959C48.9598 52.4392 49.5557 52.2922 50.0143 52.5725L57.5309 57.1452C64.8594 61.3063 65.4003 65.6026 66.151 71.5453C66.2235 72.1196 66.298 72.7115 66.3823 73.3289C66.3862 73.3564 66.3882 73.3818 66.3901 73.4093L66.9664 84.7557C66.9938 85.2908 66.5822 85.7455 66.0471 85.773C66.0295 85.773 66.0138 85.773 65.9962 85.773H65.9942Z" fill="#3E3A39"/>
<path id="Vector_36" d="M40.0045 17.8425C31.4236 17.8425 26.0297 12.431 25.3378 11.696C23.0269 9.99079 21.6079 11.5843 21.3453 11.9233C21.0199 12.3447 20.4123 12.4271 19.989 12.1037C19.5656 11.7822 19.4774 11.1805 19.7969 10.7552C19.842 10.6944 20.918 9.28127 22.7604 9.02255C24.0305 8.84419 25.3123 9.24011 26.5765 10.1985C26.6236 10.2358 26.6686 10.275 26.7098 10.3201C26.7647 10.3808 32.4977 16.5509 41.4784 15.8433C42.0115 15.8022 42.478 16.2001 42.5211 16.7332C42.5623 17.2663 42.1644 17.7328 41.6313 17.7759C41.0786 17.819 40.5356 17.8406 40.0064 17.8406L40.0045 17.8425Z" fill="#3E3A39"/>
</g>
</g>
</g>
</g>
<defs>
<clipPath id="clip0_536_47696">
<rect width="79.7563" height="90.3599" fill="white" transform="translate(-8.25098 -4.58789)"/>
</clipPath>
</defs>
</svg>
