<svg width="114" height="99" viewBox="0 0 114 99" fill="none" xmlns="http://www.w3.org/2000/svg">
<g id="_&#231;&#147;&#166;?1" clip-path="url(#clip0_187_3390)">
<g id="Vector">
<path d="M2 43.8901V5.9291C2 3.2561 4.156 1.1001 6.829 1.1001H107.171C109.833 1.1001 112 3.2561 112 5.9291V76.8241C112 79.4861 109.844 81.6531 107.171 81.6531H6.829C4.167 81.6531 2 79.4971 2 76.8241V50.9741" fill="white"/>
<path d="M2 43.8901V5.9291C2 3.2561 4.156 1.1001 6.829 1.1001H107.171C109.833 1.1001 112 3.2561 112 5.9291V76.8241C112 79.4861 109.844 81.6531 107.171 81.6531H6.829C4.167 81.6531 2 79.4971 2 76.8241V50.9741" stroke="#003B7F" stroke-width="2.2" stroke-linecap="round" stroke-linejoin="round"/>
</g>
<path id="Vector_2" d="M8.14941 68.53V7.24902H105.84V68.519H8.14941V68.53Z" fill="white" stroke="#003B7F" stroke-width="2.2" stroke-linecap="round" stroke-linejoin="round"/>
<path id="Vector_3" d="M71.96 81.6416H42.04V91.3106H71.96V81.6416Z" fill="white" stroke="#003B7F" stroke-width="2.2" stroke-linecap="round" stroke-linejoin="round"/>
<path id="Vector_4" d="M82.6416 95.6998V97.4488H31.3486V95.6998C31.3486 93.2688 33.3176 91.2998 35.7486 91.2998H78.2416C80.6726 91.2998 82.6416 93.2688 82.6416 95.6998Z" fill="white" stroke="#003B7F" stroke-width="2.2" stroke-linecap="round" stroke-linejoin="round"/>
<path id="Vector_5" d="M57 7.24902V68.53" stroke="#003B7F" stroke-width="2.2" stroke-linecap="round" stroke-linejoin="round"/>
<path id="Vector_6" d="M15.7285 55.8906H38.9055" stroke="#003B7F" stroke-width="2.2" stroke-linecap="round" stroke-linejoin="round"/>
<path id="Vector_7" d="M45.2305 55.8906H49.4215" stroke="#003B7F" stroke-width="2.2" stroke-linecap="round" stroke-linejoin="round"/>
<path id="Vector_8" d="M15.7285 61.9297H49.4215" stroke="#003B7F" stroke-width="2.2" stroke-linecap="round" stroke-linejoin="round"/>
<path id="Vector_9" d="M64.5791 61.9297H98.2721" stroke="#2D83F3" stroke-width="2.2" stroke-linecap="round" stroke-linejoin="round"/>
<path id="Vector_10" d="M64.5791 55.8906H98.2721" stroke="#2D83F3" stroke-width="2.2" stroke-linecap="round" stroke-linejoin="round"/>
<path id="Vector_11" d="M63.3252 44.0223V29.8213H68.9572L67.2302 44.2533C67.1092 45.2433 66.2732 45.9803 65.2832 45.9803C64.2052 45.9803 63.3252 45.1003 63.3252 44.0223Z" fill="white" stroke="#2D83F3" stroke-width="2.2" stroke-linecap="round" stroke-linejoin="round"/>
<path id="Vector_12" d="M88.9659 27.1919C88.9659 30.3599 86.4029 32.9229 83.2349 32.9229C80.0669 32.9229 77.5039 30.3599 77.5039 27.1919C77.5039 24.0239 80.0669 21.4609 83.2349 21.4609C86.4029 21.4609 88.9659 24.0239 88.9659 27.1919Z" fill="white" stroke="#2D83F3" stroke-width="2.2" stroke-linecap="round" stroke-linejoin="round"/>
<path id="Vector_13" d="M83.2352 37.3338L63.3252 32.5048V21.8788L83.2352 17.0498V37.3338Z" fill="white" stroke="#2D83F3" stroke-width="2.2" stroke-linecap="round" stroke-linejoin="round"/>
<path id="Vector_14" d="M91.7051 19.6242L97.1721 14.1572" stroke="#2D83F3" stroke-width="2.2" stroke-linecap="round" stroke-linejoin="round"/>
<path id="Vector_15" d="M91.7051 34.7598L97.1721 40.2268" stroke="#2D83F3" stroke-width="2.2" stroke-linecap="round" stroke-linejoin="round"/>
<path id="Vector_16" d="M94.4336 27.1919H99.5266" stroke="#2D83F3" stroke-width="2.2" stroke-linecap="round" stroke-linejoin="round"/>
<path id="Vector_17" d="M17.4668 44.0223V29.8213H23.0988L21.3718 44.2533C21.2508 45.2433 20.4148 45.9803 19.4248 45.9803C18.3468 45.9803 17.4668 45.1003 17.4668 44.0223Z" stroke="#003B7F" stroke-width="2.2" stroke-linecap="round" stroke-linejoin="round"/>
<path id="Vector_18" d="M43.1075 27.1919C43.1075 30.3599 40.5445 32.9229 37.3765 32.9229C34.2085 32.9229 31.6455 30.3599 31.6455 27.1919C31.6455 24.0239 34.2085 21.4609 37.3765 21.4609C40.5445 21.4609 43.1075 24.0239 43.1075 27.1919Z" fill="white" stroke="#003B7F" stroke-width="2.2" stroke-linecap="round" stroke-linejoin="round"/>
<path id="Vector_19" d="M37.3768 37.3338L17.4668 32.5048V21.8788L37.3768 17.0498V37.3338Z" fill="white" stroke="#003B7F" stroke-width="2.2" stroke-linecap="round" stroke-linejoin="round"/>
<path id="Vector_20" d="M45.8467 19.6242L51.3137 14.1572" stroke="#003B7F" stroke-width="2.2" stroke-linecap="round" stroke-linejoin="round"/>
<path id="Vector_21" d="M45.8467 34.7598L51.3137 40.2268" stroke="#003B7F" stroke-width="2.2" stroke-linecap="round" stroke-linejoin="round"/>
<path id="Vector_22" d="M48.5742 27.1919H53.6672" stroke="#003B7F" stroke-width="2.2" stroke-linecap="round" stroke-linejoin="round"/>
</g>
<defs>
<clipPath id="clip0_187_3390">
<rect width="112.2" height="98.56" fill="white" transform="translate(0.900391 -0.000488281)"/>
</clipPath>
</defs>
</svg>
